<svg width="284" height="211" viewBox="0 0 284 211" fill="none" xmlns="http://www.w3.org/2000/svg">
<mask id="path-1-outside-1_560_1358" maskUnits="userSpaceOnUse" x="-0.7284" y="-0.907762" width="244.612" height="207.164" fill="black">
<rect fill="white" x="-0.7284" y="-0.907762" width="244.612" height="207.164"/>
<path fill-rule="evenodd" clip-rule="evenodd" d="M220.279 174.578C218.523 175.603 216.719 176.589 214.871 177.535C190.464 190.025 158.362 195.392 124.361 190.614C90.3594 185.835 60.9808 171.827 40.9613 153.093C20.9393 134.357 10.3412 110.967 13.6597 87.3541C16.9776 63.7455 33.7447 44.2008 58.294 31.7264C82.8392 19.2541 115.078 13.9059 149.08 18.6845C150.66 18.9066 152.23 19.1485 153.789 19.4099L150.74 17.9145C150.234 17.839 149.727 17.7656 149.219 17.6942C80.8582 8.08672 19.4217 39.1699 12.6694 87.2149C5.91711 135.26 55.8607 181.997 124.222 191.604C161.52 196.846 196.595 189.952 221.866 174.801L220.279 174.578Z"/>
</mask>
<path fill-rule="evenodd" clip-rule="evenodd" d="M220.279 174.578C218.523 175.603 216.719 176.589 214.871 177.535C190.464 190.025 158.362 195.392 124.361 190.614C90.3594 185.835 60.9808 171.827 40.9613 153.093C20.9393 134.357 10.3412 110.967 13.6597 87.3541C16.9776 63.7455 33.7447 44.2008 58.294 31.7264C82.8392 19.2541 115.078 13.9059 149.08 18.6845C150.66 18.9066 152.23 19.1485 153.789 19.4099L150.74 17.9145C150.234 17.839 149.727 17.7656 149.219 17.6942C80.8582 8.08672 19.4217 39.1699 12.6694 87.2149C5.91711 135.26 55.8607 181.997 124.222 191.604C161.52 196.846 196.595 189.952 221.866 174.801L220.279 174.578Z" fill="white"/>
<path d="M220.279 174.578L220.349 174.083L220.177 174.059L220.027 174.146L220.279 174.578ZM214.871 177.535L214.644 177.09L214.871 177.535ZM40.9613 153.093L40.6197 153.459L40.9613 153.093ZM58.294 31.7264L58.5205 32.1721L58.294 31.7264ZM153.789 19.4099L153.706 19.903L154.009 18.961L153.789 19.4099ZM150.74 17.9145L150.96 17.4656L150.89 17.4314L150.814 17.42L150.74 17.9145ZM221.866 174.801L222.123 175.23L223.336 174.502L221.935 174.306L221.866 174.801ZM220.027 174.146C218.279 175.167 216.483 176.148 214.644 177.09L215.099 177.98C216.955 177.03 218.767 176.04 220.531 175.01L220.027 174.146ZM214.644 177.09C190.338 189.528 158.342 194.885 124.43 190.119L124.291 191.109C158.382 195.9 190.589 190.522 215.099 177.98L214.644 177.09ZM124.43 190.119C90.5186 185.353 61.2387 171.384 41.303 152.728L40.6197 153.459C60.7229 172.271 90.2003 186.318 124.291 191.109L124.43 190.119ZM41.303 152.728C21.3634 134.069 10.8651 110.831 14.1548 87.4237L13.1645 87.2845C9.81721 111.102 20.5151 134.645 40.6197 153.459L41.303 152.728ZM14.1548 87.4237C17.4437 64.022 34.0708 44.5959 58.5205 32.1721L58.0675 31.2806C33.4187 43.8056 16.5116 63.469 13.1645 87.2845L14.1548 87.4237ZM58.5205 32.1721C82.9642 19.7514 115.098 14.4136 149.01 19.1796L149.149 18.1893C115.058 13.3982 82.7142 18.7567 58.0675 31.2806L58.5205 32.1721ZM149.01 19.1796C150.586 19.4011 152.152 19.6424 153.706 19.903L153.872 18.9168C152.308 18.6547 150.734 18.412 149.149 18.1893L149.01 19.1796ZM154.009 18.961L150.96 17.4656L150.52 18.3634L153.569 19.8589L154.009 18.961ZM150.814 17.42C150.306 17.3443 149.798 17.2707 149.289 17.1991L149.149 18.1893C149.656 18.2605 150.162 18.3338 150.666 18.409L150.814 17.42ZM149.289 17.1991C115.019 12.3828 82.4643 17.762 57.6145 30.3891C32.7668 43.0152 15.5795 62.9159 12.1743 87.1454L13.1645 87.2845C16.5116 63.469 33.4187 43.8056 58.0675 31.2806C82.7143 18.7567 115.058 13.3982 149.149 18.1893L149.289 17.1991ZM12.1743 87.1454C8.76931 111.373 19.667 135.221 39.9364 154.189C60.2071 173.158 89.882 187.283 124.152 192.099L124.291 191.109C90.2003 186.318 60.7229 172.271 40.6197 153.459C20.5152 134.645 9.81721 111.102 13.1645 87.2845L12.1743 87.1454ZM124.152 192.099C161.547 197.355 196.74 190.448 222.123 175.23L221.609 174.372C196.45 189.456 161.493 196.337 124.291 191.109L124.152 192.099ZM221.935 174.306L220.349 174.083L220.209 175.073L221.796 175.296L221.935 174.306Z" fill="white" mask="url(#path-1-outside-1_560_1358)"/>
<path d="M268.969 147.248C269.106 146.713 268.783 146.169 268.248 146.031L259.53 143.796C258.995 143.659 258.451 143.981 258.313 144.516C258.176 145.051 258.499 145.596 259.034 145.733L266.783 147.72L264.796 155.47C264.659 156.005 264.981 156.549 265.516 156.687C266.051 156.824 266.596 156.501 266.733 155.966L268.969 147.248ZM219.509 176.861L268.509 147.861L267.491 146.139L218.491 175.139L219.509 176.861Z" fill="white"/>
</svg>
