<svg width="1700" height="1100" viewBox="0 0 1700 1100" fill="none" xmlns="http://www.w3.org/2000/svg">
<rect width="1700" height="1100" fill="black"/>
<rect x="100" width="100" height="100" fill="#FFE6D4"/>
<rect x="300" width="100" height="100" fill="#FFE6D4"/>
<rect x="500" width="100" height="100" fill="#FFE6D4"/>
<rect x="700" width="100" height="100" fill="#FFE6D4"/>
<rect x="900" width="100" height="100" fill="#FFE6D4"/>
<rect x="1100" width="100" height="100" fill="#FFE6D4"/>
<rect x="1300" width="100" height="100" fill="#FFE6D4"/>
<rect x="1500" width="100" height="100" fill="#FFE6D4"/>
<rect y="100" width="100" height="100" fill="#FFE6D4"/>
<rect x="200" y="100" width="100" height="100" fill="#FFE6D4"/>
<rect x="400" y="100" width="100" height="100" fill="#FFE6D4"/>
<rect x="600" y="100" width="100" height="100" fill="#FFE6D4"/>
<rect x="800" y="100" width="100" height="100" fill="#FFE6D4"/>
<rect x="1000" y="100" width="100" height="100" fill="#FFE6D4"/>
<rect x="1200" y="100" width="100" height="100" fill="#FFE6D4"/>
<rect x="1400" y="100" width="100" height="100" fill="#FFE6D4"/>
<rect x="1600" y="100" width="100" height="100" fill="#FFE6D4"/>
<rect x="100" y="200" width="100" height="100" fill="#FFE6D4"/>
<rect x="300" y="200" width="100" height="100" fill="#FFE6D4"/>
<rect x="500" y="200" width="100" height="100" fill="#FFE6D4"/>
<rect x="700" y="200" width="100" height="100" fill="#FFE6D4"/>
<rect x="900" y="200" width="100" height="100" fill="#FFE6D4"/>
<rect x="1100" y="200" width="100" height="100" fill="#FFE6D4"/>
<rect x="1300" y="200" width="100" height="100" fill="#FFE6D4"/>
<rect x="1500" y="200" width="100" height="100" fill="#FFE6D4"/>
<rect y="300" width="100" height="100" fill="#FFE6D4"/>
<rect x="200" y="300" width="100" height="100" fill="#FFE6D4"/>
<rect x="400" y="300" width="100" height="100" fill="#FFE6D4"/>
<rect x="600" y="300" width="100" height="100" fill="#FFE6D4"/>
<rect x="800" y="300" width="100" height="100" fill="#FFE6D4"/>
<rect x="1000" y="300" width="100" height="100" fill="#FFE6D4"/>
<rect x="1200" y="300" width="100" height="100" fill="#FFE6D4"/>
<rect x="1400" y="300" width="100" height="100" fill="#FFE6D4"/>
<rect x="1600" y="300" width="100" height="100" fill="#FFE6D4"/>
<rect x="100" y="400" width="100" height="100" fill="#FFE6D4"/>
<rect x="300" y="400" width="100" height="100" fill="#FFE6D4"/>
<rect x="500" y="400" width="100" height="100" fill="#FFE6D4"/>
<rect x="700" y="400" width="100" height="100" fill="#FFE6D4"/>
<rect x="900" y="400" width="100" height="100" fill="#FFE6D4"/>
<rect x="1100" y="400" width="100" height="100" fill="#FFE6D4"/>
<rect x="1300" y="400" width="100" height="100" fill="#FFE6D4"/>
<rect x="1500" y="400" width="100" height="100" fill="#FFE6D4"/>
<rect y="500" width="100" height="100" fill="#FFE6D4"/>
<rect x="200" y="500" width="100" height="100" fill="#FFE6D4"/>
<rect x="400" y="500" width="100" height="100" fill="#FFE6D4"/>
<rect x="600" y="500" width="100" height="100" fill="#FFE6D4"/>
<rect x="800" y="500" width="100" height="100" fill="#FFE6D4"/>
<rect x="1000" y="500" width="100" height="100" fill="#FFE6D4"/>
<rect x="1200" y="500" width="100" height="100" fill="#FFE6D4"/>
<rect x="1400" y="500" width="100" height="100" fill="#FFE6D4"/>
<rect x="1600" y="500" width="100" height="100" fill="#FFE6D4"/>
<rect x="100" y="600" width="100" height="100" fill="#FFE6D4"/>
<rect x="300" y="600" width="100" height="100" fill="#FFE6D4"/>
<rect x="500" y="600" width="100" height="100" fill="#FFE6D4"/>
<rect x="700" y="600" width="100" height="100" fill="#FFE6D4"/>
<rect x="900" y="600" width="100" height="100" fill="#FFE6D4"/>
<rect x="1100" y="600" width="100" height="100" fill="#FFE6D4"/>
<rect x="1300" y="600" width="100" height="100" fill="#FFE6D4"/>
<rect x="1500" y="600" width="100" height="100" fill="#FFE6D4"/>
<rect y="700" width="100" height="100" fill="#FFE6D4"/>
<rect x="200" y="700" width="100" height="100" fill="#FFE6D4"/>
<rect x="400" y="700" width="100" height="100" fill="#FFE6D4"/>
<rect x="600" y="700" width="100" height="100" fill="#FFE6D4"/>
<rect x="800" y="700" width="100" height="100" fill="#FFE6D4"/>
<rect x="1000" y="700" width="100" height="100" fill="#FFE6D4"/>
<rect x="1200" y="700" width="100" height="100" fill="#FFE6D4"/>
<rect x="1400" y="700" width="100" height="100" fill="#FFE6D4"/>
<rect x="1600" y="700" width="100" height="100" fill="#FFE6D4"/>
<rect x="100" y="800" width="100" height="100" fill="#FFE6D4"/>
<rect x="300" y="800" width="100" height="100" fill="#FFE6D4"/>
<rect x="500" y="800" width="100" height="100" fill="#FFE6D4"/>
<rect x="700" y="800" width="100" height="100" fill="#FFE6D4"/>
<rect x="900" y="800" width="100" height="100" fill="#FFE6D4"/>
<rect x="1100" y="800" width="100" height="100" fill="#FFE6D4"/>
<rect x="1300" y="800" width="100" height="100" fill="#FFE6D4"/>
<rect x="1500" y="800" width="100" height="100" fill="#FFE6D4"/>
<rect y="900" width="100" height="100" fill="#FFE6D4"/>
<rect x="200" y="900" width="100" height="100" fill="#FFE6D4"/>
<rect x="400" y="900" width="100" height="100" fill="#FFE6D4"/>
<rect x="600" y="900" width="100" height="100" fill="#FFE6D4"/>
<rect x="800" y="900" width="100" height="100" fill="#FFE6D4"/>
<rect x="1000" y="900" width="100" height="100" fill="#FFE6D4"/>
<rect x="1200" y="900" width="100" height="100" fill="#FFE6D4"/>
<rect x="1400" y="900" width="100" height="100" fill="#FFE6D4"/>
<rect x="1600" y="900" width="100" height="100" fill="#FFE6D4"/>
<rect x="100" y="1000" width="100" height="100" fill="#FFE6D4"/>
<rect x="300" y="1000" width="100" height="100" fill="#FFE6D4"/>
<rect x="500" y="1000" width="100" height="100" fill="#FFE6D4"/>
<rect x="700" y="1000" width="100" height="100" fill="#FFE6D4"/>
<rect x="900" y="1000" width="100" height="100" fill="#FFE6D4"/>
<rect x="1100" y="1000" width="100" height="100" fill="#FFE6D4"/>
<rect x="1300" y="1000" width="100" height="100" fill="#FFE6D4"/>
<rect x="1500" y="1000" width="100" height="100" fill="#FFE6D4"/>
</svg>
