<svg width="182" height="72" viewBox="0 0 182 72" fill="none" xmlns="http://www.w3.org/2000/svg">
<g filter="url(#filter0_d_2523_4693)">
<path d="M120.536 22.0462C120.456 15.2809 114.487 15.1305 111.06 15.3937L109.756 15.6192V18.3817H108.554V3.72363H109.756V5.9787L111.06 5.75319C125.3 4.44527 128.793 14.3789 128.809 19.7912C129.612 29.5331 122.994 35.9714 119.885 37.0426L128.809 51.1369L129.612 52.4895H121.54L120.737 51.1369L114.972 41.7218L108.554 32.025C110.508 31.6492 120.617 28.8114 120.536 22.0462Z" fill="white"/>
<path d="M120.536 22.0462C120.456 15.2809 114.487 15.1305 111.06 15.3937L109.756 15.6192V18.3817H108.554V3.72363H109.756V5.9787L111.06 5.75319C125.3 4.44527 128.793 14.3789 128.809 19.7912C129.612 29.5331 122.994 35.9714 119.885 37.0426L128.809 51.1369L129.612 52.4895H121.54L120.737 51.1369L114.972 41.7218L108.554 32.025C110.508 31.6492 120.617 28.8114 120.536 22.0462Z" stroke="white"/>
</g>
<g filter="url(#filter1_d_2523_4693)">
<path d="M100.83 48.2609V15.619H105.994V20.411H107.298V1.01733H105.994V5.52747H82.6291L77.8154 10.9396L82.2786 15.619H90.6512V50.0086H100.83V48.2609Z" fill="white"/>
<path d="M100.83 48.2609V15.619H105.994V20.411H107.298V1.01733H105.994V5.52747H82.6291L77.8154 10.9396L82.2786 15.619H90.6512V50.0086H100.83V48.2609Z" stroke="white"/>
</g>
<g filter="url(#filter2_d_2523_4693)">
<path d="M19.8548 4.62573H13.6373V6.26063L13.1358 6.82445H12.1338V10.3199H14.0391V13.3641H15.6937V19.6784H16.8971V24.3014H15.6937L16.1449 25.0907H17.9998V28.1914L19.6041 31.0102H21.5597V35.7459H20.5567V40.5944H16.6967V41.6656H17.3986V44.5412H16.3956V49.3892H25.7712L48.8858 4.62573H36.2001L27.8769 19.9603L19.8548 4.62573Z" fill="white"/>
<path d="M19.8548 4.62573H13.6373V6.26063L13.1358 6.82445H12.1338V10.3199H14.0391V13.3641H15.6937V19.6784H16.8971V24.3014H15.6937L16.1449 25.0907H17.9998V28.1914L19.6041 31.0102H21.5597V35.7459H20.5567V40.5944H16.6967V41.6656H17.3986V44.5412H16.3956V49.3892H25.7712L48.8858 4.62573H36.2001L27.8769 19.9603L19.8548 4.62573Z" stroke="white"/>
</g>
<g filter="url(#filter3_d_2523_4693)">
<path d="M157.247 33.0433V51.0272H150.729V49.0539C149.084 50.9033 144.462 51.1405 142.355 51.0272C131.405 50.5315 128.399 40.3723 128.267 35.3547C128.065 29.8862 130.603 18.8926 142.355 18.6671C154.109 18.4416 157.18 28.4203 157.247 33.0433Z" fill="white" stroke="white"/>
<path d="M147.297 32.3462C144.785 28.2499 141.444 29.0639 140.086 30.1143C139.715 30.1143 138.692 31.5147 138.227 32.0836C135.25 39.0159 140.01 41.6243 142.762 42.0619L143.343 43.2436L144.506 42.9809L147.762 40.749L148.111 40.0925L147.646 38.3857C148.576 35.3397 147.802 33.0902 147.297 32.3462Z" fill="#D9D9D9"/>
<path d="M149.794 42.3453C149.83 42.4151 149.841 42.4981 149.822 42.5764C149.804 42.6548 149.759 42.7217 149.697 42.7628L145.021 45.8546C144.958 45.8953 144.885 45.9069 144.815 45.8866C144.746 45.8662 144.686 45.8159 144.649 45.7462C144.613 45.6764 144.603 45.5932 144.62 45.5147C144.639 45.4363 144.684 45.3695 144.746 45.3288L149.422 42.2369C149.484 42.1959 149.558 42.1843 149.628 42.2047C149.697 42.2249 149.757 42.2755 149.794 42.3453ZM147.732 32.3861C148.172 33.2216 148.435 34.1588 148.504 35.1264C148.571 36.0939 148.443 37.0662 148.125 37.9691C148.048 38.1871 148.015 38.4223 148.03 38.6567C148.045 38.8911 148.108 39.1186 148.212 39.3218L148.419 39.7161C148.529 39.9253 148.56 40.1748 148.506 40.4097C148.45 40.6446 148.316 40.8456 148.129 40.9686L144.389 43.4421C144.202 43.5647 143.98 43.5995 143.771 43.5385C143.563 43.4781 143.384 43.3263 143.275 43.1171L143.068 42.7228C142.963 42.5222 142.819 42.3513 142.646 42.2231C142.474 42.095 142.277 42.013 142.071 41.9835C141.218 41.8582 140.402 41.5164 139.684 40.9839C138.967 40.4513 138.366 39.7421 137.928 38.9099C136.35 35.9308 137.197 32.0179 139.818 30.1886C140.463 29.7383 141.182 29.4377 141.932 29.3044C142.683 29.1713 143.449 29.2082 144.187 29.4127C144.924 29.6175 145.618 29.9861 146.227 30.4967C146.835 31.0074 147.348 31.6497 147.732 32.3861ZM147.265 32.6953C146.916 32.0289 146.453 31.4476 145.902 30.9856C145.35 30.5235 144.724 30.1901 144.056 30.0049C143.389 29.8198 142.696 29.7866 142.016 29.9073C141.337 30.028 140.687 30.3002 140.103 30.7079C137.73 32.3647 136.966 35.9016 138.394 38.598C138.79 39.3505 139.334 39.9917 139.983 40.473C140.633 40.9545 141.37 41.2636 142.142 41.3769C142.429 41.4186 142.704 41.5338 142.946 41.7135C143.188 41.8932 143.389 42.1326 143.536 42.4136L143.742 42.808C143.778 42.8777 143.838 42.9283 143.908 42.9486C143.978 42.9689 144.052 42.9573 144.113 42.9162L147.855 40.4428C147.917 40.4018 147.961 40.3349 147.98 40.2564C147.998 40.1782 147.988 40.095 147.951 40.0253L147.746 39.6309C147.598 39.3486 147.51 39.0322 147.49 38.706C147.468 38.3799 147.512 38.0525 147.621 37.7489C147.908 36.9317 148.025 36.0515 147.964 35.1756C147.901 34.2998 147.663 33.4514 147.265 32.6953ZM141.543 31.8839C141.479 31.9155 141.428 31.9734 141.401 32.0456C141.375 32.1179 141.374 32.1988 141.399 32.2719C141.424 32.3449 141.473 32.4045 141.536 32.4381C141.598 32.4718 141.67 32.4771 141.736 32.4529C142.905 31.951 144.341 32.3686 145.146 33.448C145.187 33.503 145.245 33.5398 145.308 33.5521C145.371 33.5642 145.435 33.551 145.49 33.5146C145.503 33.5058 145.516 33.4957 145.528 33.4846C145.583 33.4326 145.617 33.3581 145.622 33.2775C145.629 33.1971 145.606 33.1171 145.56 33.0553C145.078 32.4216 144.434 31.9696 143.715 31.7601C142.997 31.5506 142.239 31.5939 141.543 31.8839Z" fill="black"/>
<path d="M146.598 45.9332L148.899 44.2698" stroke="black" stroke-width="6" stroke-linecap="round"/>
<path d="M147.904 46.3826L148.996 45.6165" stroke="black" stroke-width="6" stroke-linecap="round"/>
<path d="M145.319 25.7411C145.39 25.4725 145.255 25.19 145.016 25.1099C144.777 25.0298 144.526 25.1826 144.454 25.4512L145.319 25.7411ZM144.631 28.3345L145.319 25.7411L144.454 25.4512L143.768 28.0446L144.631 28.3345Z" fill="black"/>
<path d="M145.319 25.7411C145.39 25.4725 145.255 25.19 145.016 25.1099C144.777 25.0298 144.526 25.1826 144.454 25.4512L145.319 25.7411ZM144.631 28.3345L145.319 25.7411L144.454 25.4512L143.768 28.0446L144.631 28.3345Z" fill="black"/>
<path d="M150.557 30.4778C150.763 30.3208 150.818 30.0054 150.677 29.7732C150.538 29.541 150.258 29.48 150.052 29.6368L150.557 30.4778ZM148.563 31.9927L150.557 30.4778L150.052 29.6368L148.058 31.1518L148.563 31.9927Z" fill="black"/>
<path d="M150.557 30.4778C150.763 30.3208 150.818 30.0054 150.677 29.7732C150.538 29.541 150.258 29.48 150.052 29.6368L150.557 30.4778ZM148.563 31.9927L150.557 30.4778L150.052 29.6368L148.058 31.1518L148.563 31.9927Z" fill="black"/>
<path d="M151.372 38.2194C151.616 38.2783 151.855 38.1039 151.908 37.83C151.961 37.556 151.805 37.2861 151.562 37.2272L151.372 38.2194ZM149.019 37.6508L151.372 38.2194L151.562 37.2272L149.209 36.6587L149.019 37.6508Z" fill="black"/>
<path d="M151.372 38.2194C151.616 38.2783 151.855 38.1039 151.908 37.83C151.961 37.556 151.805 37.2861 151.562 37.2272L151.372 38.2194ZM149.019 37.6508L151.372 38.2194L151.562 37.2272L149.209 36.6587L149.019 37.6508Z" fill="black"/>
<path d="M139.567 45.2951C139.507 45.5672 139.654 45.8422 139.896 45.9099C140.137 45.9787 140.382 45.8131 140.442 45.541L139.567 45.2951ZM140.151 42.6697L139.567 45.2951L140.442 45.541L141.027 42.9158L140.151 42.6697Z" fill="black"/>
<path d="M139.567 45.2951C139.507 45.5672 139.654 45.8422 139.896 45.9099C140.137 45.9787 140.382 45.8131 140.442 45.541L139.567 45.2951ZM140.151 42.6697L139.567 45.2951L140.442 45.541L141.027 42.9158L140.151 42.6697Z" fill="black"/>
<path d="M134.526 39.4745C134.32 39.6298 134.264 39.9449 134.402 40.178C134.54 40.4113 134.819 40.4742 135.028 40.3188L134.526 39.4745ZM136.528 37.9734L134.526 39.4745L135.028 40.3188L137.03 38.8176L136.528 37.9734Z" fill="black"/>
<path d="M134.526 39.4745C134.32 39.6298 134.264 39.9449 134.402 40.178C134.54 40.4113 134.819 40.4742 135.028 40.3188L134.526 39.4745ZM136.528 37.9734L134.526 39.4745L135.028 40.3188L137.03 38.8176L136.528 37.9734Z" fill="black"/>
<path d="M134.247 31.846C134.01 31.7642 133.757 31.915 133.683 32.183C133.612 32.4509 133.745 32.7345 133.984 32.8165L134.247 31.846ZM136.549 32.6365L134.247 31.846L133.984 32.8165L136.286 33.6069L136.549 32.6365Z" fill="black"/>
<path d="M134.247 31.846C134.01 31.7642 133.757 31.915 133.683 32.183C133.612 32.4509 133.745 32.7345 133.984 32.8165L134.247 31.846ZM136.549 32.6365L134.247 31.846L133.984 32.8165L136.286 33.6069L136.549 32.6365Z" fill="black"/>
<path d="M138.491 26.3326C138.357 26.0965 138.077 26.0274 137.867 26.1783C137.657 26.3291 137.596 26.6429 137.731 26.879L138.491 26.3326ZM139.787 28.6128L138.491 26.3326L137.731 26.879L139.026 29.1592L139.787 28.6128Z" fill="black"/>
<path d="M138.491 26.3326C138.357 26.0965 138.077 26.0274 137.867 26.1783C137.657 26.3291 137.596 26.6429 137.731 26.879L138.491 26.3326ZM139.787 28.6128L138.491 26.3326L137.731 26.879L139.026 29.1592L139.787 28.6128Z" fill="black"/>
</g>
<g filter="url(#filter4_d_2523_4693)">
<path d="M48.7257 23.6313C56.6432 23.6313 61.1926 27.4672 61.1926 36.0861V50.0087H52.3476V46.5994C51.2526 49.204 49.0626 50.4831 45.8193 50.4831C40.1759 50.4831 37.2695 46.8831 37.2695 42.432C37.2695 37.4121 40.6387 34.6181 47.7992 34.6181H51.6321C51.3368 32.6292 49.9891 31.5872 47.2938 31.5872C45.2297 31.5872 42.9129 32.345 41.3968 33.6236L38.3645 26.5674C41.0599 24.6732 45.1455 23.6313 48.7257 23.6313ZM48.6831 44.0423C49.9891 44.0423 51.1683 43.2844 51.6737 41.5795V39.78H49.3153C47.2938 39.78 46.4089 40.5377 46.4089 41.9584C46.4089 43.1423 47.2512 44.0423 48.6831 44.0423ZM79.2051 23.6313C84.5115 23.6313 88.6388 27.0884 88.6388 35.2338V50.0087H79.1208V37.0806C79.1208 33.8604 78.0259 32.6292 76.2987 32.6292C74.3614 32.6292 72.7184 34.0024 72.7184 37.8384V50.0087H63.2005V24.1049H72.2557V26.6622C74.0661 24.6258 76.5088 23.6313 79.2051 23.6313Z" fill="white"/>
</g>
<path d="M78.4172 10.9114L83.1806 5.47119H81.2249L76.3115 10.9114L81.2249 15.6754H83.0295L78.4172 10.9114Z" fill="white" fill-opacity="0.75" stroke="white" stroke-width="0.1"/>
<g filter="url(#filter5_d_2523_4693)">
<path d="M0 7.3313V6.09106H1.10273V7.3313H0Z" fill="white"/>
</g>
<g filter="url(#filter6_d_2523_4693)">
<path d="M2.60449 7.21866V5.35815H4.25908V7.21866H2.60449Z" fill="white"/>
</g>
<g filter="url(#filter7_d_2523_4693)">
<path d="M1.00098 10.3725V9.41748H1.95031V10.3725H1.00098Z" fill="white"/>
</g>
<g filter="url(#filter8_d_2523_4693)">
<path d="M2.55811 11.1088V10.2068H4.26304V13.3075H1.60547V11.1088H2.55811Z" fill="white"/>
</g>
<g filter="url(#filter9_d_2523_4693)">
<path d="M4.91211 16.1224V14.9988H5.91161V16.1224H4.91211Z" fill="white"/>
</g>
<g filter="url(#filter10_d_2523_4693)">
<path d="M5.66406 12.3455V11.3342H6.51308V12.3455H5.66406Z" fill="white"/>
</g>
<g filter="url(#filter11_d_2523_4693)">
<path d="M7.2207 14.995V13.8713H8.17004V14.995H7.2207Z" fill="white"/>
</g>
<g filter="url(#filter12_d_2523_4693)">
<path d="M7.92188 17.4233V15.7319H9.52609V17.4233H7.92188Z" fill="white"/>
</g>
<g filter="url(#filter13_d_2523_4693)">
<path d="M6.31836 26.0483V21.7073H10.1794V26.0483H6.31836Z" fill="white"/>
</g>
<g filter="url(#filter14_d_2523_4693)">
<path d="M7.92188 43.7507V42.0034H9.52609V43.7507H7.92188Z" fill="white"/>
</g>
<g filter="url(#filter15_d_2523_4693)">
<path d="M10.3286 44.3155V42.793H14.0899V44.4839H14.39V48.9379H8.9248V44.3155H10.3286Z" fill="white"/>
</g>
<g filter="url(#filter16_d_2523_4693)">
<path d="M14.8389 43.8076V41.9468H16.3928V43.8076H14.8389Z" fill="white"/>
</g>
<g filter="url(#filter17_d_2523_4693)">
<path d="M12.4316 40.0301V36.8167H15.0389V40.0301H12.4316Z" fill="white"/>
</g>
<g filter="url(#filter18_d_2523_4693)">
<path d="M15.1426 35.9713V34.6182H17.198V35.5766H19.0035V39.072H15.7941V35.9713H15.1426Z" fill="white"/>
</g>
<g filter="url(#filter19_d_2523_4693)">
<path d="M18.0996 34.6746V31.6865H20.5558V34.6746H18.0996Z" fill="white"/>
</g>
<g filter="url(#filter20_d_2523_4693)">
<path d="M14.1914 28.5854V25.7666H16.6989V28.5854H14.1914Z" fill="white"/>
</g>
<g filter="url(#filter21_d_2523_4693)">
<path d="M13.4365 23.568V20.4673H16.0438V23.568H13.4365Z" fill="white"/>
</g>
<g filter="url(#filter22_d_2523_4693)">
<path d="M14.4369 15.7878H13.5879V16.6867H14.4369V15.7878Z" fill="white"/>
</g>
<g filter="url(#filter23_d_2523_4693)">
<path d="M9.17676 14.9991V14.2661H14.3409V15.3936H13.1878V17.536H14.3409V19.3965H12.4859V20.073H9.17676V18.0434H10.1294V14.9991H9.17676Z" fill="white"/>
</g>
<g filter="url(#filter24_d_2523_4693)">
<path d="M11.5801 12.7441V10.9399H13.0846V12.7441H11.5801Z" fill="white"/>
</g>
<g filter="url(#filter25_d_2523_4693)">
<path d="M9.57715 7.50073H11.0807V9.41749H9.57715V7.50073Z" fill="white"/>
</g>
<g filter="url(#filter26_d_2523_4693)">
<path d="M10.8299 6.8244V4.56934H4.86312V7.83914H3.60938V9.53049H4.86312V12.1239H5.36463V10.8835H7.16928V12.0111H10.8299V9.92515H8.9739V6.8244H10.8299Z" fill="white"/>
</g>
<g filter="url(#filter27_d_2523_4693)">
<path d="M12.3806 5.97444H11.4814V5.01939V4.96314V4.90698H12.3806V5.97444Z" fill="white"/>
</g>
<path d="M12.7528 59.9312L12.2968 58.7441H10.0149L9.56566 59.9312H8.69238L10.7449 54.8014H11.5794L13.6397 59.9312H12.7528ZM10.3015 57.9966H12.0161L11.1554 55.7541L10.3015 57.9966ZM21.8806 54.8014H22.689L21.1767 59.9312H20.2773L19.1494 56.1347L18.0021 59.9312H17.0959L15.5837 54.8014H16.4638L17.5984 58.6996L18.7776 54.8014H19.5599L20.7139 58.7218L21.8806 54.8014ZM26.3118 57.9966C26.3118 58.0692 26.306 58.1796 26.2992 58.2677H23.568C23.6658 58.839 24.0899 59.206 24.696 59.206C25.0871 59.206 25.393 59.0665 25.6409 58.7809L26.0775 59.3454C25.7648 59.7627 25.2759 59.9825 24.6766 59.9825C23.509 59.9825 22.7529 59.1401 22.7529 57.9744C22.7529 56.8095 23.5158 55.9739 24.5527 55.9739C25.5692 55.9739 26.3118 56.7727 26.3118 57.9966ZM24.5527 56.7069C24.024 56.7069 23.6397 57.0874 23.5613 57.6597H25.5363C25.4715 57.0952 25.0871 56.7069 24.5527 56.7069ZM30.3674 57.9966C30.3674 58.0692 30.3606 58.1796 30.3538 58.2677H27.6227C27.7205 58.839 28.1445 59.206 28.7506 59.206C29.1417 59.206 29.4477 59.0665 29.6955 58.7809L30.1321 59.3454C29.8194 59.7627 29.3305 59.9825 28.7312 59.9825C27.5646 59.9825 26.8085 59.1401 26.8085 57.9744C26.8085 56.8095 27.5704 55.9739 28.6073 55.9739C29.6239 55.9739 30.3674 56.7727 30.3674 57.9966ZM28.6073 56.7069C28.0787 56.7069 27.6943 57.0874 27.6159 57.6597H29.5909C29.5261 57.0952 29.1417 56.7069 28.6073 56.7069ZM33.7763 59.9312L32.5709 58.2532L31.9648 58.8981V59.9312H31.1497V54.4935H31.9648V57.7768L33.6523 56.0175H34.6302L33.177 57.6597L34.7677 59.9312H33.7763ZM38.6596 59.9825C37.5898 59.9825 36.8085 59.1469 36.8085 57.9744C36.8085 56.8018 37.5898 55.9739 38.6596 55.9739C39.7411 55.9739 40.5166 56.8018 40.5166 57.9744C40.5166 59.1469 39.7411 59.9825 38.6596 59.9825ZM38.6596 59.1982C39.2521 59.1982 39.6956 58.7218 39.6956 57.9744C39.6956 57.2269 39.2521 56.7505 38.6596 56.7505C38.0729 56.7505 37.6295 57.2269 37.6295 57.9744C37.6295 58.7218 38.0729 59.1982 38.6596 59.1982ZM42.7104 55.1819C42.3715 55.1819 42.1953 55.3949 42.1953 55.8122V56.0466H43.1538V56.7795H42.2215V59.9312H41.4073V56.7795H40.8331V56.0466H41.4073V55.7977C41.4073 54.9766 41.8439 54.4422 42.6523 54.4422C42.9321 54.4422 43.2061 54.508 43.3881 54.6542L43.1606 55.3436C43.0366 55.2477 42.8798 55.1819 42.7104 55.1819ZM46.5075 59.9312V55.607H44.9952V54.8014H48.8669V55.607H47.3546V59.9312H46.5075ZM52.3406 57.9966C52.3406 58.0692 52.3338 58.1796 52.3271 58.2677H49.5959C49.6937 58.839 50.1177 59.206 50.7238 59.206C51.1149 59.206 51.4209 59.0665 51.6687 58.7809L52.1053 59.3454C51.7926 59.7627 51.3037 59.9825 50.7044 59.9825C49.5378 59.9825 48.7817 59.1401 48.7817 57.9744C48.7817 56.8095 49.5436 55.9739 50.5805 55.9739C51.5971 55.9739 52.3406 56.7727 52.3406 57.9966ZM50.5805 56.7069C50.0528 56.7069 49.6675 57.0874 49.5901 57.6597H51.5651C51.4993 57.0952 51.1149 56.7069 50.5805 56.7069ZM54.7203 59.9825C53.6186 59.9825 52.8363 59.1469 52.8363 57.9744C52.8363 56.8018 53.6186 55.9739 54.7203 55.9739C55.398 55.9739 55.9392 56.2886 56.2064 56.8822L55.58 57.2927C55.3719 56.919 55.0592 56.7505 54.7136 56.7505C54.1133 56.7505 53.6573 57.2191 53.6573 57.9744C53.6573 58.7364 54.1133 59.1982 54.7136 59.1982C55.0592 59.1982 55.3719 59.0297 55.58 58.656L56.2064 59.0665C55.9392 59.6523 55.398 59.9825 54.7203 59.9825ZM58.8534 55.9739C59.6879 55.9739 60.3075 56.5084 60.3075 57.6887V59.9312H59.4924V57.8059C59.4924 57.1097 59.1864 56.7727 58.6646 56.7727C58.0847 56.7727 57.6935 57.1678 57.6935 57.9521V59.9312H56.8783V54.4935H57.6935V56.4716C57.9607 56.1492 58.3712 55.9739 58.8534 55.9739ZM63.3156 55.9739C64.1502 55.9739 64.7688 56.5084 64.7688 57.6887V59.9312H63.9546V57.8059C63.9546 57.1097 63.6477 56.7727 63.1268 56.7727C62.5469 56.7727 62.1558 57.1678 62.1558 57.9521V59.9312H61.3406V56.0175H62.116V56.5229C62.3833 56.1637 62.8073 55.9739 63.3156 55.9739ZM66.2133 55.3726C65.9141 55.3726 65.6924 55.1306 65.6924 54.8227C65.6924 54.5148 65.9141 54.2737 66.2133 54.2737C66.5134 54.2737 66.7351 54.5003 66.7351 54.8014C66.7351 55.1238 66.5202 55.3726 66.2133 55.3726ZM65.8028 59.9312V56.0175H66.618V59.9312H65.8028ZM69.2842 59.9825C68.1825 59.9825 67.4002 59.1469 67.4002 57.9744C67.4002 56.8018 68.1825 55.9739 69.2842 55.9739C69.962 55.9739 70.5032 56.2886 70.7704 56.8822L70.144 57.2927C69.9358 56.919 69.6231 56.7505 69.2775 56.7505C68.6782 56.7505 68.2212 57.2191 68.2212 57.9744C68.2212 58.7364 68.6782 59.1982 69.2775 59.1982C69.6231 59.1982 69.9358 59.0297 70.144 58.656L70.7704 59.0665C70.5032 59.6523 69.962 59.9825 69.2842 59.9825ZM72.8045 55.9739C73.8075 55.9739 74.3884 56.5084 74.3884 57.6374V59.9312H73.6187V59.4548C73.4231 59.7918 73.0455 59.9825 72.5237 59.9825C71.7288 59.9825 71.2264 59.4916 71.2264 58.81C71.2264 58.1574 71.6175 57.6442 72.6738 57.6442H73.5732V57.5861C73.5732 57.0506 73.2866 56.736 72.7067 56.736C72.3155 56.736 71.9108 56.8822 71.6504 57.1242L71.3309 56.4571C71.7027 56.1347 72.2439 55.9739 72.8045 55.9739ZM72.6931 59.3154C73.091 59.3154 73.4367 59.1101 73.5732 58.7073V58.2532H72.7328C72.1781 58.2532 72.028 58.4875 72.028 58.7732C72.028 59.1033 72.2759 59.3154 72.6931 59.3154ZM75.434 59.9312V54.4935H76.2482V59.9312H75.434ZM79.1972 59.9312V54.8014H80.0453V59.9312H79.1972ZM83.1753 55.9739C84.0099 55.9739 84.6295 56.5084 84.6295 57.6887V59.9312H83.8143V57.8059C83.8143 57.1097 83.5084 56.7727 82.9865 56.7727C82.4066 56.7727 82.0155 57.1678 82.0155 57.9521V59.9312H81.2003V56.0175H81.9767V56.5229C82.244 56.1637 82.667 55.9739 83.1753 55.9739ZM87.6375 55.9739C88.4721 55.9739 89.0917 56.5084 89.0917 57.6887V59.9312H88.2765V57.8059C88.2765 57.1097 87.9706 56.7727 87.4488 56.7727C86.8688 56.7727 86.4777 57.1678 86.4777 57.9521V59.9312H85.6625V56.0175H86.439V56.5229C86.7062 56.1637 87.1292 55.9739 87.6375 55.9739ZM91.7212 59.9825C90.6524 59.9825 89.8701 59.1469 89.8701 57.9744C89.8701 56.8018 90.6524 55.9739 91.7212 55.9739C92.8036 55.9739 93.5791 56.8018 93.5791 57.9744C93.5791 59.1469 92.8036 59.9825 91.7212 59.9825ZM91.7212 59.1982C92.3147 59.1982 92.7581 58.7218 92.7581 57.9744C92.7581 57.2269 92.3147 56.7505 91.7212 56.7505C91.1345 56.7505 90.6911 57.2269 90.6911 57.9744C90.6911 58.7218 91.1345 59.1982 91.7212 59.1982ZM96.7392 56.0175H97.5214L96.0285 59.9312H95.1881L93.6953 56.0175H94.5424L95.6248 58.9203L96.7392 56.0175ZM99.2525 55.9739C100.256 55.9739 100.836 56.5084 100.836 57.6374V59.9312H100.067V59.4548C99.8711 59.7918 99.4935 59.9825 98.9717 59.9825C98.1768 59.9825 97.6754 59.4916 97.6754 58.81C97.6754 58.1574 98.0665 57.6442 99.1218 57.6442H100.021V57.5861C100.021 57.0506 99.7346 56.736 99.1547 56.736C98.7636 56.736 98.3598 56.8822 98.0984 57.1242L97.7789 56.4571C98.1507 56.1347 98.6919 55.9739 99.2525 55.9739ZM99.1411 59.3154C99.539 59.3154 99.8847 59.1101 100.021 58.7073V58.2532H99.1808C98.627 58.2532 98.477 58.4875 98.477 58.7732C98.477 59.1033 98.7248 59.3154 99.1411 59.3154ZM103.747 59.0665L103.974 59.7191C103.779 59.8944 103.485 59.9825 103.192 59.9825C102.43 59.9825 101.992 59.5284 101.992 58.6637V56.7795H101.419V56.0466H101.992V55.1529H102.808V56.0466H103.739V56.7795H102.808V58.6415C102.808 59.023 102.977 59.2273 103.29 59.2273C103.46 59.2273 103.622 59.176 103.747 59.0665ZM105.055 55.3726C104.755 55.3726 104.534 55.1306 104.534 54.8227C104.534 54.5148 104.755 54.2737 105.055 54.2737C105.355 54.2737 105.576 54.5003 105.576 54.8014C105.576 55.1238 105.362 55.3726 105.055 55.3726ZM104.645 59.9312V56.0175H105.459V59.9312H104.645ZM108.094 59.9825C107.025 59.9825 106.243 59.1469 106.243 57.9744C106.243 56.8018 107.025 55.9739 108.094 55.9739C109.175 55.9739 109.951 56.8018 109.951 57.9744C109.951 59.1469 109.175 59.9825 108.094 59.9825ZM108.094 59.1982C108.686 59.1982 109.13 58.7218 109.13 57.9744C109.13 57.2269 108.686 56.7505 108.094 56.7505C107.507 56.7505 107.064 57.2269 107.064 57.9744C107.064 58.7218 107.507 59.1982 108.094 59.1982ZM112.704 55.9739C113.539 55.9739 114.158 56.5084 114.158 57.6887V59.9312H113.343V57.8059C113.343 57.1097 113.037 56.7727 112.516 56.7727C111.935 56.7727 111.544 57.1678 111.544 57.9521V59.9312H110.73V56.0175H111.505V56.5229C111.773 56.1637 112.196 55.9739 112.704 55.9739Z" fill="white"/>
<defs>
<filter id="filter0_d_2523_4693" x="107.723" y="3.22363" width="46.9676" height="67.9659" filterUnits="userSpaceOnUse" color-interpolation-filters="sRGB">
<feFlood flood-opacity="0" result="BackgroundImageFix"/>
<feColorMatrix in="SourceAlpha" type="matrix" values="0 0 0 0 0 0 0 0 0 0 0 0 0 0 0 0 0 0 127 0" result="hardAlpha"/>
<feOffset dx="17" dy="11"/>
<feGaussianBlur stdDeviation="3.6"/>
<feComposite in2="hardAlpha" operator="out"/>
<feColorMatrix type="matrix" values="0 0 0 0 0 0 0 0 0 0 0 0 0 0 0 0 0 0 0.3 0"/>
<feBlend mode="normal" in2="BackgroundImageFix" result="effect1_dropShadow_2523_4693"/>
<feBlend mode="normal" in="SourceGraphic" in2="effect1_dropShadow_2523_4693" result="shape"/>
</filter>
<filter id="filter1_d_2523_4693" x="77.1357" y="0.517334" width="54.8621" height="68.1912" filterUnits="userSpaceOnUse" color-interpolation-filters="sRGB">
<feFlood flood-opacity="0" result="BackgroundImageFix"/>
<feColorMatrix in="SourceAlpha" type="matrix" values="0 0 0 0 0 0 0 0 0 0 0 0 0 0 0 0 0 0 127 0" result="hardAlpha"/>
<feOffset dx="17" dy="11"/>
<feGaussianBlur stdDeviation="3.6"/>
<feComposite in2="hardAlpha" operator="out"/>
<feColorMatrix type="matrix" values="0 0 0 0 0 0 0 0 0 0 0 0 0 0 0 0 0 0 0.3 0"/>
<feBlend mode="normal" in2="BackgroundImageFix" result="effect1_dropShadow_2523_4693"/>
<feBlend mode="normal" in="SourceGraphic" in2="effect1_dropShadow_2523_4693" result="shape"/>
</filter>
<filter id="filter2_d_2523_4693" x="11.6338" y="4.12573" width="62.2732" height="63.9634" filterUnits="userSpaceOnUse" color-interpolation-filters="sRGB">
<feFlood flood-opacity="0" result="BackgroundImageFix"/>
<feColorMatrix in="SourceAlpha" type="matrix" values="0 0 0 0 0 0 0 0 0 0 0 0 0 0 0 0 0 0 127 0" result="hardAlpha"/>
<feOffset dx="17" dy="11"/>
<feGaussianBlur stdDeviation="3.6"/>
<feComposite in2="hardAlpha" operator="out"/>
<feColorMatrix type="matrix" values="0 0 0 0 0 0 0 0 0 0 0 0 0 0 0 0 0 0 0.3 0"/>
<feBlend mode="normal" in2="BackgroundImageFix" result="effect1_dropShadow_2523_4693"/>
<feBlend mode="normal" in="SourceGraphic" in2="effect1_dropShadow_2523_4693" result="shape"/>
</filter>
<filter id="filter3_d_2523_4693" x="127.756" y="18.1633" width="54.1912" height="51.5875" filterUnits="userSpaceOnUse" color-interpolation-filters="sRGB">
<feFlood flood-opacity="0" result="BackgroundImageFix"/>
<feColorMatrix in="SourceAlpha" type="matrix" values="0 0 0 0 0 0 0 0 0 0 0 0 0 0 0 0 0 0 127 0" result="hardAlpha"/>
<feOffset dx="17" dy="11"/>
<feGaussianBlur stdDeviation="3.6"/>
<feComposite in2="hardAlpha" operator="out"/>
<feColorMatrix type="matrix" values="0 0 0 0 0 0 0 0 0 0 0 0 0 0 0 0 0 0 0.3 0"/>
<feBlend mode="normal" in2="BackgroundImageFix" result="effect1_dropShadow_2523_4693"/>
<feBlend mode="normal" in="SourceGraphic" in2="effect1_dropShadow_2523_4693" result="shape"/>
</filter>
<filter id="filter4_d_2523_4693" x="37.2695" y="23.6313" width="75.5691" height="45.0518" filterUnits="userSpaceOnUse" color-interpolation-filters="sRGB">
<feFlood flood-opacity="0" result="BackgroundImageFix"/>
<feColorMatrix in="SourceAlpha" type="matrix" values="0 0 0 0 0 0 0 0 0 0 0 0 0 0 0 0 0 0 127 0" result="hardAlpha"/>
<feOffset dx="17" dy="11"/>
<feGaussianBlur stdDeviation="3.6"/>
<feComposite in2="hardAlpha" operator="out"/>
<feColorMatrix type="matrix" values="0 0 0 0 0 0 0 0 0 0 0 0 0 0 0 0 0 0 0.3 0"/>
<feBlend mode="normal" in2="BackgroundImageFix" result="effect1_dropShadow_2523_4693"/>
<feBlend mode="normal" in="SourceGraphic" in2="effect1_dropShadow_2523_4693" result="shape"/>
</filter>
<filter id="filter5_d_2523_4693" x="0" y="6.09106" width="11.1025" height="14.2402" filterUnits="userSpaceOnUse" color-interpolation-filters="sRGB">
<feFlood flood-opacity="0" result="BackgroundImageFix"/>
<feColorMatrix in="SourceAlpha" type="matrix" values="0 0 0 0 0 0 0 0 0 0 0 0 0 0 0 0 0 0 127 0" result="hardAlpha"/>
<feOffset dx="6" dy="9"/>
<feGaussianBlur stdDeviation="2"/>
<feComposite in2="hardAlpha" operator="out"/>
<feColorMatrix type="matrix" values="0 0 0 0 0 0 0 0 0 0 0 0 0 0 0 0 0 0 0.5 0"/>
<feBlend mode="normal" in2="BackgroundImageFix" result="effect1_dropShadow_2523_4693"/>
<feBlend mode="normal" in="SourceGraphic" in2="effect1_dropShadow_2523_4693" result="shape"/>
</filter>
<filter id="filter6_d_2523_4693" x="2.60449" y="5.35815" width="11.6543" height="14.8606" filterUnits="userSpaceOnUse" color-interpolation-filters="sRGB">
<feFlood flood-opacity="0" result="BackgroundImageFix"/>
<feColorMatrix in="SourceAlpha" type="matrix" values="0 0 0 0 0 0 0 0 0 0 0 0 0 0 0 0 0 0 127 0" result="hardAlpha"/>
<feOffset dx="6" dy="9"/>
<feGaussianBlur stdDeviation="2"/>
<feComposite in2="hardAlpha" operator="out"/>
<feColorMatrix type="matrix" values="0 0 0 0 0 0 0 0 0 0 0 0 0 0 0 0 0 0 0.5 0"/>
<feBlend mode="normal" in2="BackgroundImageFix" result="effect1_dropShadow_2523_4693"/>
<feBlend mode="normal" in="SourceGraphic" in2="effect1_dropShadow_2523_4693" result="shape"/>
</filter>
<filter id="filter7_d_2523_4693" x="1.00098" y="9.41748" width="10.9492" height="13.9551" filterUnits="userSpaceOnUse" color-interpolation-filters="sRGB">
<feFlood flood-opacity="0" result="BackgroundImageFix"/>
<feColorMatrix in="SourceAlpha" type="matrix" values="0 0 0 0 0 0 0 0 0 0 0 0 0 0 0 0 0 0 127 0" result="hardAlpha"/>
<feOffset dx="6" dy="9"/>
<feGaussianBlur stdDeviation="2"/>
<feComposite in2="hardAlpha" operator="out"/>
<feColorMatrix type="matrix" values="0 0 0 0 0 0 0 0 0 0 0 0 0 0 0 0 0 0 0.5 0"/>
<feBlend mode="normal" in2="BackgroundImageFix" result="effect1_dropShadow_2523_4693"/>
<feBlend mode="normal" in="SourceGraphic" in2="effect1_dropShadow_2523_4693" result="shape"/>
</filter>
<filter id="filter8_d_2523_4693" x="1.60547" y="10.2068" width="12.6572" height="16.1008" filterUnits="userSpaceOnUse" color-interpolation-filters="sRGB">
<feFlood flood-opacity="0" result="BackgroundImageFix"/>
<feColorMatrix in="SourceAlpha" type="matrix" values="0 0 0 0 0 0 0 0 0 0 0 0 0 0 0 0 0 0 127 0" result="hardAlpha"/>
<feOffset dx="6" dy="9"/>
<feGaussianBlur stdDeviation="2"/>
<feComposite in2="hardAlpha" operator="out"/>
<feColorMatrix type="matrix" values="0 0 0 0 0 0 0 0 0 0 0 0 0 0 0 0 0 0 0.5 0"/>
<feBlend mode="normal" in2="BackgroundImageFix" result="effect1_dropShadow_2523_4693"/>
<feBlend mode="normal" in="SourceGraphic" in2="effect1_dropShadow_2523_4693" result="shape"/>
</filter>
<filter id="filter9_d_2523_4693" x="4.91211" y="14.9988" width="10.999" height="14.1235" filterUnits="userSpaceOnUse" color-interpolation-filters="sRGB">
<feFlood flood-opacity="0" result="BackgroundImageFix"/>
<feColorMatrix in="SourceAlpha" type="matrix" values="0 0 0 0 0 0 0 0 0 0 0 0 0 0 0 0 0 0 127 0" result="hardAlpha"/>
<feOffset dx="6" dy="9"/>
<feGaussianBlur stdDeviation="2"/>
<feComposite in2="hardAlpha" operator="out"/>
<feColorMatrix type="matrix" values="0 0 0 0 0 0 0 0 0 0 0 0 0 0 0 0 0 0 0.5 0"/>
<feBlend mode="normal" in2="BackgroundImageFix" result="effect1_dropShadow_2523_4693"/>
<feBlend mode="normal" in="SourceGraphic" in2="effect1_dropShadow_2523_4693" result="shape"/>
</filter>
<filter id="filter10_d_2523_4693" x="5.66406" y="11.3342" width="10.8486" height="14.0112" filterUnits="userSpaceOnUse" color-interpolation-filters="sRGB">
<feFlood flood-opacity="0" result="BackgroundImageFix"/>
<feColorMatrix in="SourceAlpha" type="matrix" values="0 0 0 0 0 0 0 0 0 0 0 0 0 0 0 0 0 0 127 0" result="hardAlpha"/>
<feOffset dx="6" dy="9"/>
<feGaussianBlur stdDeviation="2"/>
<feComposite in2="hardAlpha" operator="out"/>
<feColorMatrix type="matrix" values="0 0 0 0 0 0 0 0 0 0 0 0 0 0 0 0 0 0 0.5 0"/>
<feBlend mode="normal" in2="BackgroundImageFix" result="effect1_dropShadow_2523_4693"/>
<feBlend mode="normal" in="SourceGraphic" in2="effect1_dropShadow_2523_4693" result="shape"/>
</filter>
<filter id="filter11_d_2523_4693" x="7.2207" y="13.8713" width="10.9492" height="14.1235" filterUnits="userSpaceOnUse" color-interpolation-filters="sRGB">
<feFlood flood-opacity="0" result="BackgroundImageFix"/>
<feColorMatrix in="SourceAlpha" type="matrix" values="0 0 0 0 0 0 0 0 0 0 0 0 0 0 0 0 0 0 127 0" result="hardAlpha"/>
<feOffset dx="6" dy="9"/>
<feGaussianBlur stdDeviation="2"/>
<feComposite in2="hardAlpha" operator="out"/>
<feColorMatrix type="matrix" values="0 0 0 0 0 0 0 0 0 0 0 0 0 0 0 0 0 0 0.5 0"/>
<feBlend mode="normal" in2="BackgroundImageFix" result="effect1_dropShadow_2523_4693"/>
<feBlend mode="normal" in="SourceGraphic" in2="effect1_dropShadow_2523_4693" result="shape"/>
</filter>
<filter id="filter12_d_2523_4693" x="7.92188" y="15.7319" width="11.6045" height="14.6914" filterUnits="userSpaceOnUse" color-interpolation-filters="sRGB">
<feFlood flood-opacity="0" result="BackgroundImageFix"/>
<feColorMatrix in="SourceAlpha" type="matrix" values="0 0 0 0 0 0 0 0 0 0 0 0 0 0 0 0 0 0 127 0" result="hardAlpha"/>
<feOffset dx="6" dy="9"/>
<feGaussianBlur stdDeviation="2"/>
<feComposite in2="hardAlpha" operator="out"/>
<feColorMatrix type="matrix" values="0 0 0 0 0 0 0 0 0 0 0 0 0 0 0 0 0 0 0.5 0"/>
<feBlend mode="normal" in2="BackgroundImageFix" result="effect1_dropShadow_2523_4693"/>
<feBlend mode="normal" in="SourceGraphic" in2="effect1_dropShadow_2523_4693" result="shape"/>
</filter>
<filter id="filter13_d_2523_4693" x="6.31836" y="21.7073" width="13.8613" height="17.3411" filterUnits="userSpaceOnUse" color-interpolation-filters="sRGB">
<feFlood flood-opacity="0" result="BackgroundImageFix"/>
<feColorMatrix in="SourceAlpha" type="matrix" values="0 0 0 0 0 0 0 0 0 0 0 0 0 0 0 0 0 0 127 0" result="hardAlpha"/>
<feOffset dx="6" dy="9"/>
<feGaussianBlur stdDeviation="2"/>
<feComposite in2="hardAlpha" operator="out"/>
<feColorMatrix type="matrix" values="0 0 0 0 0 0 0 0 0 0 0 0 0 0 0 0 0 0 0.5 0"/>
<feBlend mode="normal" in2="BackgroundImageFix" result="effect1_dropShadow_2523_4693"/>
<feBlend mode="normal" in="SourceGraphic" in2="effect1_dropShadow_2523_4693" result="shape"/>
</filter>
<filter id="filter14_d_2523_4693" x="7.92188" y="42.0034" width="11.6045" height="14.7473" filterUnits="userSpaceOnUse" color-interpolation-filters="sRGB">
<feFlood flood-opacity="0" result="BackgroundImageFix"/>
<feColorMatrix in="SourceAlpha" type="matrix" values="0 0 0 0 0 0 0 0 0 0 0 0 0 0 0 0 0 0 127 0" result="hardAlpha"/>
<feOffset dx="6" dy="9"/>
<feGaussianBlur stdDeviation="2"/>
<feComposite in2="hardAlpha" operator="out"/>
<feColorMatrix type="matrix" values="0 0 0 0 0 0 0 0 0 0 0 0 0 0 0 0 0 0 0.5 0"/>
<feBlend mode="normal" in2="BackgroundImageFix" result="effect1_dropShadow_2523_4693"/>
<feBlend mode="normal" in="SourceGraphic" in2="effect1_dropShadow_2523_4693" result="shape"/>
</filter>
<filter id="filter15_d_2523_4693" x="8.9248" y="42.793" width="15.4648" height="19.145" filterUnits="userSpaceOnUse" color-interpolation-filters="sRGB">
<feFlood flood-opacity="0" result="BackgroundImageFix"/>
<feColorMatrix in="SourceAlpha" type="matrix" values="0 0 0 0 0 0 0 0 0 0 0 0 0 0 0 0 0 0 127 0" result="hardAlpha"/>
<feOffset dx="6" dy="9"/>
<feGaussianBlur stdDeviation="2"/>
<feComposite in2="hardAlpha" operator="out"/>
<feColorMatrix type="matrix" values="0 0 0 0 0 0 0 0 0 0 0 0 0 0 0 0 0 0 0.5 0"/>
<feBlend mode="normal" in2="BackgroundImageFix" result="effect1_dropShadow_2523_4693"/>
<feBlend mode="normal" in="SourceGraphic" in2="effect1_dropShadow_2523_4693" result="shape"/>
</filter>
<filter id="filter16_d_2523_4693" x="14.8389" y="41.9468" width="11.5537" height="14.8608" filterUnits="userSpaceOnUse" color-interpolation-filters="sRGB">
<feFlood flood-opacity="0" result="BackgroundImageFix"/>
<feColorMatrix in="SourceAlpha" type="matrix" values="0 0 0 0 0 0 0 0 0 0 0 0 0 0 0 0 0 0 127 0" result="hardAlpha"/>
<feOffset dx="6" dy="9"/>
<feGaussianBlur stdDeviation="2"/>
<feComposite in2="hardAlpha" operator="out"/>
<feColorMatrix type="matrix" values="0 0 0 0 0 0 0 0 0 0 0 0 0 0 0 0 0 0 0.5 0"/>
<feBlend mode="normal" in2="BackgroundImageFix" result="effect1_dropShadow_2523_4693"/>
<feBlend mode="normal" in="SourceGraphic" in2="effect1_dropShadow_2523_4693" result="shape"/>
</filter>
<filter id="filter17_d_2523_4693" x="12.4316" y="36.8167" width="12.6074" height="16.2134" filterUnits="userSpaceOnUse" color-interpolation-filters="sRGB">
<feFlood flood-opacity="0" result="BackgroundImageFix"/>
<feColorMatrix in="SourceAlpha" type="matrix" values="0 0 0 0 0 0 0 0 0 0 0 0 0 0 0 0 0 0 127 0" result="hardAlpha"/>
<feOffset dx="6" dy="9"/>
<feGaussianBlur stdDeviation="2"/>
<feComposite in2="hardAlpha" operator="out"/>
<feColorMatrix type="matrix" values="0 0 0 0 0 0 0 0 0 0 0 0 0 0 0 0 0 0 0.5 0"/>
<feBlend mode="normal" in2="BackgroundImageFix" result="effect1_dropShadow_2523_4693"/>
<feBlend mode="normal" in="SourceGraphic" in2="effect1_dropShadow_2523_4693" result="shape"/>
</filter>
<filter id="filter18_d_2523_4693" x="15.1426" y="34.6182" width="13.8613" height="17.4539" filterUnits="userSpaceOnUse" color-interpolation-filters="sRGB">
<feFlood flood-opacity="0" result="BackgroundImageFix"/>
<feColorMatrix in="SourceAlpha" type="matrix" values="0 0 0 0 0 0 0 0 0 0 0 0 0 0 0 0 0 0 127 0" result="hardAlpha"/>
<feOffset dx="6" dy="9"/>
<feGaussianBlur stdDeviation="2"/>
<feComposite in2="hardAlpha" operator="out"/>
<feColorMatrix type="matrix" values="0 0 0 0 0 0 0 0 0 0 0 0 0 0 0 0 0 0 0.5 0"/>
<feBlend mode="normal" in2="BackgroundImageFix" result="effect1_dropShadow_2523_4693"/>
<feBlend mode="normal" in="SourceGraphic" in2="effect1_dropShadow_2523_4693" result="shape"/>
</filter>
<filter id="filter19_d_2523_4693" x="18.0996" y="31.6865" width="12.4561" height="15.988" filterUnits="userSpaceOnUse" color-interpolation-filters="sRGB">
<feFlood flood-opacity="0" result="BackgroundImageFix"/>
<feColorMatrix in="SourceAlpha" type="matrix" values="0 0 0 0 0 0 0 0 0 0 0 0 0 0 0 0 0 0 127 0" result="hardAlpha"/>
<feOffset dx="6" dy="9"/>
<feGaussianBlur stdDeviation="2"/>
<feComposite in2="hardAlpha" operator="out"/>
<feColorMatrix type="matrix" values="0 0 0 0 0 0 0 0 0 0 0 0 0 0 0 0 0 0 0.5 0"/>
<feBlend mode="normal" in2="BackgroundImageFix" result="effect1_dropShadow_2523_4693"/>
<feBlend mode="normal" in="SourceGraphic" in2="effect1_dropShadow_2523_4693" result="shape"/>
</filter>
<filter id="filter20_d_2523_4693" x="14.1914" y="25.7666" width="12.5078" height="15.8188" filterUnits="userSpaceOnUse" color-interpolation-filters="sRGB">
<feFlood flood-opacity="0" result="BackgroundImageFix"/>
<feColorMatrix in="SourceAlpha" type="matrix" values="0 0 0 0 0 0 0 0 0 0 0 0 0 0 0 0 0 0 127 0" result="hardAlpha"/>
<feOffset dx="6" dy="9"/>
<feGaussianBlur stdDeviation="2"/>
<feComposite in2="hardAlpha" operator="out"/>
<feColorMatrix type="matrix" values="0 0 0 0 0 0 0 0 0 0 0 0 0 0 0 0 0 0 0.5 0"/>
<feBlend mode="normal" in2="BackgroundImageFix" result="effect1_dropShadow_2523_4693"/>
<feBlend mode="normal" in="SourceGraphic" in2="effect1_dropShadow_2523_4693" result="shape"/>
</filter>
<filter id="filter21_d_2523_4693" x="13.4365" y="20.4673" width="12.6074" height="16.1008" filterUnits="userSpaceOnUse" color-interpolation-filters="sRGB">
<feFlood flood-opacity="0" result="BackgroundImageFix"/>
<feColorMatrix in="SourceAlpha" type="matrix" values="0 0 0 0 0 0 0 0 0 0 0 0 0 0 0 0 0 0 127 0" result="hardAlpha"/>
<feOffset dx="6" dy="9"/>
<feGaussianBlur stdDeviation="2"/>
<feComposite in2="hardAlpha" operator="out"/>
<feColorMatrix type="matrix" values="0 0 0 0 0 0 0 0 0 0 0 0 0 0 0 0 0 0 0.5 0"/>
<feBlend mode="normal" in2="BackgroundImageFix" result="effect1_dropShadow_2523_4693"/>
<feBlend mode="normal" in="SourceGraphic" in2="effect1_dropShadow_2523_4693" result="shape"/>
</filter>
<filter id="filter22_d_2523_4693" x="13.5879" y="15.7878" width="10.8486" height="13.8989" filterUnits="userSpaceOnUse" color-interpolation-filters="sRGB">
<feFlood flood-opacity="0" result="BackgroundImageFix"/>
<feColorMatrix in="SourceAlpha" type="matrix" values="0 0 0 0 0 0 0 0 0 0 0 0 0 0 0 0 0 0 127 0" result="hardAlpha"/>
<feOffset dx="6" dy="9"/>
<feGaussianBlur stdDeviation="2"/>
<feComposite in2="hardAlpha" operator="out"/>
<feColorMatrix type="matrix" values="0 0 0 0 0 0 0 0 0 0 0 0 0 0 0 0 0 0 0.5 0"/>
<feBlend mode="normal" in2="BackgroundImageFix" result="effect1_dropShadow_2523_4693"/>
<feBlend mode="normal" in="SourceGraphic" in2="effect1_dropShadow_2523_4693" result="shape"/>
</filter>
<filter id="filter23_d_2523_4693" x="9.17676" y="14.2661" width="15.1641" height="18.8069" filterUnits="userSpaceOnUse" color-interpolation-filters="sRGB">
<feFlood flood-opacity="0" result="BackgroundImageFix"/>
<feColorMatrix in="SourceAlpha" type="matrix" values="0 0 0 0 0 0 0 0 0 0 0 0 0 0 0 0 0 0 127 0" result="hardAlpha"/>
<feOffset dx="6" dy="9"/>
<feGaussianBlur stdDeviation="2"/>
<feComposite in2="hardAlpha" operator="out"/>
<feColorMatrix type="matrix" values="0 0 0 0 0 0 0 0 0 0 0 0 0 0 0 0 0 0 0.5 0"/>
<feBlend mode="normal" in2="BackgroundImageFix" result="effect1_dropShadow_2523_4693"/>
<feBlend mode="normal" in="SourceGraphic" in2="effect1_dropShadow_2523_4693" result="shape"/>
</filter>
<filter id="filter24_d_2523_4693" x="11.5801" y="10.9399" width="11.5049" height="14.8042" filterUnits="userSpaceOnUse" color-interpolation-filters="sRGB">
<feFlood flood-opacity="0" result="BackgroundImageFix"/>
<feColorMatrix in="SourceAlpha" type="matrix" values="0 0 0 0 0 0 0 0 0 0 0 0 0 0 0 0 0 0 127 0" result="hardAlpha"/>
<feOffset dx="6" dy="9"/>
<feGaussianBlur stdDeviation="2"/>
<feComposite in2="hardAlpha" operator="out"/>
<feColorMatrix type="matrix" values="0 0 0 0 0 0 0 0 0 0 0 0 0 0 0 0 0 0 0.5 0"/>
<feBlend mode="normal" in2="BackgroundImageFix" result="effect1_dropShadow_2523_4693"/>
<feBlend mode="normal" in="SourceGraphic" in2="effect1_dropShadow_2523_4693" result="shape"/>
</filter>
<filter id="filter25_d_2523_4693" x="9.57715" y="7.50073" width="11.5039" height="14.9167" filterUnits="userSpaceOnUse" color-interpolation-filters="sRGB">
<feFlood flood-opacity="0" result="BackgroundImageFix"/>
<feColorMatrix in="SourceAlpha" type="matrix" values="0 0 0 0 0 0 0 0 0 0 0 0 0 0 0 0 0 0 127 0" result="hardAlpha"/>
<feOffset dx="6" dy="9"/>
<feGaussianBlur stdDeviation="2"/>
<feComposite in2="hardAlpha" operator="out"/>
<feColorMatrix type="matrix" values="0 0 0 0 0 0 0 0 0 0 0 0 0 0 0 0 0 0 0.5 0"/>
<feBlend mode="normal" in2="BackgroundImageFix" result="effect1_dropShadow_2523_4693"/>
<feBlend mode="normal" in="SourceGraphic" in2="effect1_dropShadow_2523_4693" result="shape"/>
</filter>
<filter id="filter26_d_2523_4693" x="3.60938" y="4.56934" width="17.2207" height="20.5544" filterUnits="userSpaceOnUse" color-interpolation-filters="sRGB">
<feFlood flood-opacity="0" result="BackgroundImageFix"/>
<feColorMatrix in="SourceAlpha" type="matrix" values="0 0 0 0 0 0 0 0 0 0 0 0 0 0 0 0 0 0 127 0" result="hardAlpha"/>
<feOffset dx="6" dy="9"/>
<feGaussianBlur stdDeviation="2"/>
<feComposite in2="hardAlpha" operator="out"/>
<feColorMatrix type="matrix" values="0 0 0 0 0 0 0 0 0 0 0 0 0 0 0 0 0 0 0.5 0"/>
<feBlend mode="normal" in2="BackgroundImageFix" result="effect1_dropShadow_2523_4693"/>
<feBlend mode="normal" in="SourceGraphic" in2="effect1_dropShadow_2523_4693" result="shape"/>
</filter>
<filter id="filter27_d_2523_4693" x="11.4814" y="4.90698" width="10.8994" height="14.0674" filterUnits="userSpaceOnUse" color-interpolation-filters="sRGB">
<feFlood flood-opacity="0" result="BackgroundImageFix"/>
<feColorMatrix in="SourceAlpha" type="matrix" values="0 0 0 0 0 0 0 0 0 0 0 0 0 0 0 0 0 0 127 0" result="hardAlpha"/>
<feOffset dx="6" dy="9"/>
<feGaussianBlur stdDeviation="2"/>
<feComposite in2="hardAlpha" operator="out"/>
<feColorMatrix type="matrix" values="0 0 0 0 0 0 0 0 0 0 0 0 0 0 0 0 0 0 0.5 0"/>
<feBlend mode="normal" in2="BackgroundImageFix" result="effect1_dropShadow_2523_4693"/>
<feBlend mode="normal" in="SourceGraphic" in2="effect1_dropShadow_2523_4693" result="shape"/>
</filter>
</defs>
</svg>
