<svg id="eFzejW8GA9g1" xmlns="http://www.w3.org/2000/svg" xmlns:xlink="http://www.w3.org/1999/xlink" viewBox="0 0 600 600" shape-rendering="geometricPrecision" text-rendering="geometricPrecision" project-id="373873892eee4c629f48c73783208caf" export-id="f74aa0200bb740d68ec15f86056ee9ba" cached="false"><g transform="matrix(1.376736 0 0 1.603881 227.339777 275.235118)"><path d="M220.279,174.578c-1.756,1.025-3.56,2.011-5.408,2.957-24.407,12.49-56.509,17.857-90.51,13.079-34.0016-4.779-63.3802-18.787-83.3997-37.521-20.022-18.736-30.6201-42.126-27.3016-65.7389c3.3179-23.6086,20.085-43.1533,44.6343-55.6277c24.5452-12.4723,56.784-17.8205,90.786-13.0419c1.58.2221,3.15.464,4.709.7254l-3.049-1.4954c-.506-.0755-1.013-.1489-1.521-.2203C80.8582,8.08672,19.4217,39.1699,12.6694,87.2149s43.1913,94.7821,111.5526,104.3891c37.298,5.242,72.373-1.652,97.644-16.803l-1.587-.223Z" clip-rule="evenodd" fill="#fff" fill-rule="evenodd"/><g mask="none"><path d="M220.279,174.578l.07-.495-.172-.024-.15.087.252.432Zm-5.408,2.957l-.227-.445.227.445ZM40.9613,153.093l-.3416.366.3416-.366ZM58.294,31.7264l.2265.4457-.2265-.4457Zm95.495-12.3165l-.083.4931.303-.942-.22.4489Zm-3.049-1.4954l.22-.4489-.07-.0342-.076-.0114-.074.4945ZM221.866,174.801l.257.429l1.213-.728-1.401-.196-.069.495Zm-1.839-.655c-1.748,1.021-3.544,2.002-5.383,2.944l.455.89c1.856-.95,3.668-1.94,5.432-2.97l-.504-.864Zm-5.383,2.944c-24.306,12.438-56.302,17.795-90.214,13.029l-.139.99c34.091,4.791,66.298-.587,90.808-13.129l-.455-.89ZM124.43,190.119c-33.9114-4.766-63.1913-18.735-83.127-37.391l-.6833.731c20.1032,18.812,49.5806,32.859,83.6713,37.65l.139-.99ZM41.303,152.728c-19.9396-18.659-30.4379-41.897-27.1482-65.3043l-.9903-.1392C9.81721,111.102,20.5151,134.645,40.6197,153.459l.6833-.731ZM14.1548,87.4237c3.2889-23.4017,19.916-42.8278,44.3657-55.2516l-.453-.8915C33.4187,43.8056,16.5116,63.469,13.1645,87.2845l.9903.1392ZM58.5205,32.1721C82.9642,19.7514,115.098,14.4136,149.01,19.1796l.139-.9903c-34.091-4.7911-66.4348.5674-91.0815,13.0913l.453.8915ZM149.01,19.1796c1.576.2215,3.142.4628,4.696.7234l.166-.9862c-1.564-.2621-3.138-.5048-4.723-.7275l-.139.9903Zm4.999-.2186l-3.049-1.4954-.44.8978l3.049,1.4955.44-.8979Zm-3.195-1.541c-.508-.0757-1.016-.1493-1.525-.2209l-.14.9902c.507.0712,1.013.1445,1.517.2197l.148-.989Zm-1.525-.2209c-34.27-4.8163-66.8247.5629-91.6745,13.19-24.8477,12.6261-42.035,32.5268-45.4402,56.7563l.9902.1391c3.3471-23.8155,20.2542-43.4789,44.903-56.0039C82.7143,18.7567,115.058,13.3982,149.149,18.1893l.14-.9902ZM12.1743,87.1454C8.76931,111.373,19.667,135.221,39.9364,154.189c20.2707,18.969,49.9456,33.094,84.2156,37.91l.139-.99c-34.0907-4.791-63.5681-18.838-83.6713-37.65-20.1045-18.814-30.80249-42.357-27.4552-66.1745l-.9902-.1391ZM124.152,192.099c37.395,5.256,72.588-1.651,97.971-16.869l-.514-.858c-25.159,15.084-60.116,21.965-97.318,16.737l-.139.99Zm97.783-17.793l-1.586-.223-.14.99l1.587.223.139-.99Z" fill="#fff"/><mask mask-type="luminance" x="-150%" y="-150%" height="400%" width="400%"><rect width="244.612" height="207.164" rx="0" ry="0" transform="translate(-.7284-.907762)" fill="#fff"/><path d="M220.279,174.578c-1.756,1.025-3.56,2.011-5.408,2.957-24.407,12.49-56.509,17.857-90.51,13.079-34.0016-4.779-63.3802-18.787-83.3997-37.521-20.022-18.736-30.6201-42.126-27.3016-65.7389c3.3179-23.6086,20.085-43.1533,44.6343-55.6277c24.5452-12.4723,56.784-17.8205,90.786-13.0419c1.58.2221,3.15.464,4.709.7254l-3.049-1.4954c-.506-.0755-1.013-.1489-1.521-.2203C80.8582,8.08672,19.4217,39.1699,12.6694,87.2149s43.1913,94.7821,111.5526,104.3891c37.298,5.242,72.373-1.652,97.644-16.803l-1.587-.223Z" transform="translate(.000001 0.000001)" clip-rule="evenodd" fill-rule="evenodd"/></mask></g><path d="M268.969,147.248c.137-.535-.186-1.079-.721-1.217l-8.718-2.235c-.535-.137-1.079.185-1.217.72-.137.535.186,1.08.721,1.217l7.749,1.987-1.987,7.75c-.137.535.185,1.079.72,1.217.535.137,1.08-.186,1.217-.721l2.236-8.718Zm-49.46,29.613l49-29-1.018-1.722-49,29l1.018,1.722Z" fill="#fff"/></g><path d="M1,111.5C187,223.1,285.5,67.6667,303,1" transform="matrix(1.351376 0 0 1.647513 28.590848 301.945347)" fill="none" stroke="#fff" stroke-width="2"/></svg>
