<svg width="390" height="558" viewBox="0 0 390 558" fill="none" xmlns="http://www.w3.org/2000/svg">
<path d="M410.242 231.856H410.233C410.25 231.551 410.271 231.245 410.271 230.935C410.271 223.614 405.439 217.677 399.475 217.677C396.642 217.677 394.072 219.028 392.147 221.219C387.601 213.798 380.378 209 372.244 209C365.205 209 358.842 212.604 354.322 218.383C352.768 215.242 349.963 213.138 346.753 213.138C341.86 213.138 337.893 218.01 337.893 224.018C337.893 224.623 337.943 225.212 338.02 225.79C335.519 226.034 333.163 226.906 331.053 228.277C329.388 223.592 325.588 220.313 321.158 220.313C315.197 220.313 310.362 226.248 310.362 233.571C310.362 234.648 310.478 235.691 310.676 236.693H310.673C306.065 238.173 302.674 243.301 302.674 249.41H321.458H324.076H348.694H357.502H386.558H395.796H398.843H413.412H421.213C421.446 248.323 421.557 247.192 421.557 246.015C421.558 238.298 416.52 232.006 410.242 231.856Z" fill="white" fill-opacity="0.37"/>
<path d="M430.137 252.513H293.98C293.314 252.513 292.776 251.852 292.776 251.035C292.776 250.218 293.314 249.558 293.98 249.558H430.137C430.802 249.558 431.34 250.218 431.34 251.035C431.34 251.852 430.802 252.513 430.137 252.513Z" fill="white" fill-opacity="0.37"/>
<path d="M75.6565 519.169H75.6747C75.642 518.591 75.6038 518.015 75.6038 517.428C75.6038 503.599 84.7334 492.389 95.995 492.389C101.346 492.389 106.201 494.94 109.838 499.08C118.424 485.061 132.068 476 147.43 476C160.727 476 172.747 482.809 181.286 493.723C184.221 487.791 189.517 483.816 195.583 483.816C204.827 483.816 212.319 493.018 212.319 504.367C212.319 505.51 212.224 506.623 212.077 507.717C216.803 508.177 221.25 509.826 225.234 512.415C228.379 503.566 235.56 497.375 243.924 497.375C255.186 497.375 264.315 508.585 264.315 522.414C264.315 524.449 264.096 526.418 263.723 528.313L263.73 528.315C272.433 531.107 278.836 540.795 278.836 552.336H243.355H238.413H191.911H175.273H120.392H102.942H97.1873H69.6658H54.9309C54.4892 550.285 54.282 548.147 54.282 545.924C54.2857 531.334 63.7988 519.454 75.6565 519.169Z" fill="white" fill-opacity="0.37"/>
<path d="M35.5435 557.411H292.728C293.982 557.411 295 556.161 295 554.621C295 553.081 293.982 551.832 292.728 551.832H35.5435C34.2894 551.832 33.2715 553.081 33.2715 554.621C33.2715 556.161 34.2894 557.411 35.5435 557.411Z" fill="white" fill-opacity="0.37"/>
<path d="M19.1861 557.411H23.73C24.9841 557.411 26.002 556.161 26.002 554.621C26.002 553.081 24.9841 551.832 23.73 551.832H19.1861C17.932 551.832 16.9142 553.081 16.9142 554.621C16.9142 556.161 17.932 557.411 19.1861 557.411Z" fill="white" fill-opacity="0.37"/>
<path d="M311.228 28.0946C309.505 28.0946 307.811 28.2441 306.15 28.5432C295.443 11.1995 278.467 0 259.371 0C238.949 0 220.966 12.793 210.457 32.2146C205.851 29.5743 200.726 28.0946 195.311 28.0946C184.513 28.0946 174.828 33.9577 168.27 43.2288C164.518 40.7381 160.216 39.3342 155.656 39.3342C140.923 39.3342 128.965 54.0176 128.965 72.1091H159.469H182.347H200.65H231.154H275.386H318.091H347.07C347.07 47.7975 331.025 28.0946 311.228 28.0946Z" fill="white" fill-opacity="0.37"/>
<path d="M77.3805 77.1241H363.646C364.9 77.1241 365.918 75.8742 365.918 74.3343C365.918 72.7943 364.9 71.5444 363.646 71.5444H77.3805C76.1264 71.5444 75.1086 72.7943 75.1086 74.3343C75.1086 75.8742 76.1264 77.1241 77.3805 77.1241Z" fill="white" fill-opacity="0.37"/>
<path d="M60.5709 77.1241H65.1148C66.3689 77.1241 67.3867 75.8742 67.3867 74.3343C67.3867 72.7943 66.3689 71.5444 65.1148 71.5444H60.5709C59.3168 71.5444 58.2989 72.7943 58.2989 74.3343C58.2989 75.8742 59.3168 77.1241 60.5709 77.1241Z" fill="white" fill-opacity="0.37"/>
<path d="M49.7899 95.5271C53.943 95.5271 57.7544 97.2478 60.8024 100.143C64.5303 93.4135 70.8063 89.0056 77.9329 89.0056C78.9526 89.0056 79.9613 89.0971 80.9482 89.2667C85.1541 80.895 92.6933 75.3132 101.296 75.3132C103.631 75.3132 105.894 75.7305 108.028 76.5005C112.734 55.1528 128.621 39.4517 147.493 39.4517C164.241 39.4517 178.642 51.8139 184.96 69.5237C185.565 69.4724 186.17 69.4456 186.787 69.4456C198.841 69.4456 209.153 78.5739 213.39 91.5097C216.109 89.905 219.146 89.0056 222.363 89.0056C229.043 89.0056 234.99 92.8913 238.781 98.9307C241.564 96.7658 244.845 95.5271 248.382 95.5271C258.355 95.5271 266.436 105.452 266.436 117.696H242.902H230.328H213.421H201.823H181.412H160.15H122.703H113.57H98.4677H79.8831H67.84H57.3891H31.7306C31.7342 105.452 39.8169 95.5271 49.7899 95.5271Z" fill="white" fill-opacity="0.37"/>
<path d="M7.08365 122.237H293.349C294.603 122.237 295.621 120.987 295.621 119.447C295.621 117.907 294.603 116.657 293.349 116.657H7.08365C5.82953 116.657 4.81171 117.907 4.81171 119.447C4.81171 120.987 5.82953 122.237 7.08365 122.237Z" fill="white" fill-opacity="0.37"/>
</svg>
