<svg width="1429" height="329" viewBox="0 0 1429 329" fill="none" xmlns="http://www.w3.org/2000/svg">
<path d="M1097.92 49.9564H1097.91C1097.93 49.5824 1097.97 49.2084 1097.97 48.8289C1097.97 39.875 1090.96 32.6136 1082.32 32.6136C1078.21 32.6136 1074.49 34.2652 1071.7 36.9459C1065.11 27.8692 1054.64 22 1042.85 22C1032.65 22 1023.42 26.4087 1016.87 33.4763C1014.62 29.6354 1010.56 27.0611 1005.9 27.0611C998.812 27.0611 993.061 33.0204 993.061 40.3691C993.061 41.1089 993.135 41.8296 993.245 42.5366C989.62 42.8342 986.206 43.9016 983.148 45.5777C980.735 39.8477 975.226 35.8376 968.806 35.8376C960.166 35.8376 953.158 43.0963 953.158 52.0529C953.158 53.3714 953.327 54.6462 953.614 55.8719H953.609C946.931 57.6818 942.015 63.955 942.015 71.4266H969.241H973.035H1008.72H1021.48H1063.6H1076.99H1081.4H1102.52H1113.82C1114.16 70.0972 1114.32 68.7131 1114.32 67.2745C1114.32 57.8347 1107.02 50.1393 1097.92 49.9564Z" fill="#91CADA" fill-opacity="0.75"/>
<path d="M1128.7 74.7188H931.359C930.395 74.7188 929.615 73.9108 929.615 72.9117C929.615 71.9125 930.395 71.1045 931.359 71.1045H1128.7C1129.67 71.1045 1130.45 71.9125 1130.45 72.9117C1130.45 73.9108 1129.67 74.7188 1128.7 74.7188Z" fill="#91CADA" fill-opacity="0.75"/>
<path d="M1141.26 74.7188H1137.77C1136.81 74.7188 1136.02 73.9108 1136.02 72.9117C1136.02 71.9125 1136.8 71.1045 1137.77 71.1045H1141.26C1142.22 71.1045 1143 71.9125 1143 72.9117C1143 73.9108 1142.22 74.7188 1141.26 74.7188Z" fill="#91CADA" fill-opacity="0.75"/>
<path d="M1111.08 281.519H1111.11C1111.06 280.811 1111.01 280.107 1111.01 279.389C1111.01 262.475 1124.24 248.763 1140.56 248.763C1148.32 248.763 1155.36 251.883 1160.63 256.947C1173.07 239.801 1192.85 228.718 1215.11 228.718C1234.39 228.718 1251.81 237.047 1264.18 250.396C1268.44 243.14 1276.11 238.278 1284.9 238.278C1298.3 238.278 1309.16 249.533 1309.16 263.414C1309.16 264.812 1309.02 266.174 1308.81 267.512C1315.66 268.074 1322.11 270.091 1327.88 273.258C1332.44 262.434 1342.85 254.862 1354.97 254.862C1371.29 254.862 1384.52 268.574 1384.52 285.488C1384.52 287.977 1384.21 290.385 1383.67 292.703L1383.68 292.705C1396.29 296.12 1405.57 307.971 1405.57 322.087H1354.15H1346.98H1279.58H1255.47H1175.92H1150.63H1142.29H1102.4H1081.05C1080.41 319.578 1080.11 316.963 1080.11 314.244C1080.11 296.399 1093.9 281.868 1111.08 281.519Z" fill="#91CADA" fill-opacity="0.75"/>
<path d="M1052.95 328.294H1425.71C1427.52 328.294 1429 326.766 1429 324.882C1429 322.998 1427.52 321.47 1425.71 321.47H1052.95C1051.13 321.47 1049.65 322.998 1049.65 324.882C1049.65 326.766 1051.13 328.294 1052.95 328.294Z" fill="#91CADA" fill-opacity="0.75"/>
<path d="M1029.24 328.294H1035.82C1037.64 328.294 1039.12 326.766 1039.12 324.882C1039.12 322.998 1037.64 321.47 1035.82 321.47H1029.24C1027.42 321.47 1025.95 322.998 1025.95 324.882C1025.95 326.766 1027.42 328.294 1029.24 328.294Z" fill="#91CADA" fill-opacity="0.75"/>
<path d="M468.484 34.3633C465.987 34.3633 463.532 34.5462 461.124 34.912C445.605 13.6984 421 0 393.324 0C363.724 0 337.66 15.6475 322.428 39.4026C315.753 36.1732 308.324 34.3633 300.476 34.3633C284.826 34.3633 270.787 41.5346 261.283 52.8744C255.845 49.8279 249.61 48.1108 243 48.1108C221.646 48.1108 204.315 66.0705 204.315 88.1987H248.527H281.686H308.213H352.426H416.535H478.432H520.434C520.434 58.4624 497.178 34.3633 468.484 34.3633Z" fill="#91CADA" fill-opacity="0.75"/>
<path d="M129.547 94.3329H544.456C546.274 94.3329 547.749 92.8042 547.749 90.9206C547.749 89.037 546.274 87.5083 544.456 87.5083H129.547C127.729 87.5083 126.254 89.037 126.254 90.9206C126.254 92.8042 127.729 94.3329 129.547 94.3329Z" fill="#91CADA" fill-opacity="0.75"/>
<path d="M105.18 94.3329H111.766C113.583 94.3329 115.059 92.8042 115.059 90.9206C115.059 89.037 113.583 87.5083 111.766 87.5083H105.18C103.362 87.5083 101.887 89.037 101.887 90.9206C101.887 92.8042 103.362 94.3329 105.18 94.3329Z" fill="#91CADA" fill-opacity="0.75"/>
<path d="M89.5594 116.84C95.5789 116.84 101.103 118.945 105.521 122.486C110.924 114.255 120.02 108.864 130.349 108.864C131.827 108.864 133.289 108.976 134.72 109.183C140.816 98.9435 151.743 92.1161 164.211 92.1161C167.596 92.1161 170.876 92.6266 173.969 93.5684C180.789 67.4574 203.816 48.2529 231.168 48.2529C255.444 48.2529 276.316 63.3736 285.473 85.0349C286.35 84.9721 287.227 84.9394 288.12 84.9394C305.591 84.9394 320.539 96.1044 326.679 111.927C330.62 109.964 335.022 108.864 339.685 108.864C349.366 108.864 357.986 113.616 363.481 121.003C367.514 118.355 372.269 116.84 377.396 116.84C391.85 116.84 403.562 128.98 403.562 143.956H369.453H351.229H326.724H309.914H280.331H249.514H195.239H182.001H160.112H133.176H115.721H100.574H63.3845C63.3898 128.98 75.1047 116.84 89.5594 116.84Z" fill="#91CADA" fill-opacity="0.75"/>
<path d="M27.6603 149.511H442.569C444.387 149.511 445.862 147.982 445.862 146.099C445.862 144.215 444.387 142.687 442.569 142.687H27.6603C25.8426 142.687 24.3674 144.215 24.3674 146.099C24.3674 147.982 25.8426 149.511 27.6603 149.511Z" fill="#91CADA" fill-opacity="0.75"/>
<path d="M3.29309 149.511H9.87895C11.6966 149.511 13.1719 147.982 13.1719 146.099C13.1719 144.215 11.6966 142.687 9.87895 142.687H3.29309C1.47539 142.687 0.000159264 144.215 0.000159264 146.099C0.000159264 147.982 1.47539 149.511 3.29309 149.511Z" fill="#91CADA" fill-opacity="0.75"/>
</svg>
