<svg width="1418" height="329" viewBox="0 0 1418 329" fill="none" xmlns="http://www.w3.org/2000/svg">
<path d="M1086.92 49.9564H1086.91C1086.93 49.5824 1086.97 49.2084 1086.97 48.8289C1086.97 39.875 1079.96 32.6136 1071.32 32.6136C1067.21 32.6136 1063.49 34.2652 1060.7 36.9459C1054.11 27.8692 1043.64 22 1031.85 22C1021.65 22 1012.42 26.4087 1005.87 33.4763C1003.62 29.6354 999.555 27.0611 994.903 27.0611C987.812 27.0611 982.061 33.0204 982.061 40.3691C982.061 41.1089 982.135 41.8296 982.245 42.5366C978.62 42.8342 975.206 43.9016 972.148 45.5777C969.735 39.8477 964.226 35.8376 957.806 35.8376C949.166 35.8376 942.158 43.0963 942.158 52.0529C942.158 53.3714 942.327 54.6462 942.614 55.8719H942.609C935.931 57.6818 931.015 63.955 931.015 71.4266H958.241H962.035H997.717H1010.48H1052.6H1065.99H1070.4H1091.52H1102.82C1103.16 70.0972 1103.32 68.7131 1103.32 67.2745C1103.32 57.8347 1096.02 50.1393 1086.92 49.9564Z" fill="white" fill-opacity="0.37"/>
<path d="M1117.7 74.7188H920.359C919.395 74.7188 918.615 73.9108 918.615 72.9117C918.615 71.9125 919.395 71.1045 920.359 71.1045H1117.7C1118.67 71.1045 1119.45 71.9125 1119.45 72.9117C1119.45 73.9108 1118.67 74.7188 1117.7 74.7188Z" fill="white" fill-opacity="0.37"/>
<path d="M1130.26 74.7188H1126.77C1125.81 74.7188 1125.02 73.9108 1125.02 72.9117C1125.02 71.9125 1125.8 71.1045 1126.77 71.1045H1130.26C1131.22 71.1045 1132 71.9125 1132 72.9117C1132 73.9108 1131.22 74.7188 1130.26 74.7188Z" fill="white" fill-opacity="0.37"/>
<path d="M1100.08 281.519H1100.11C1100.06 280.811 1100.01 280.107 1100.01 279.389C1100.01 262.475 1113.24 248.763 1129.56 248.763C1137.32 248.763 1144.36 251.883 1149.63 256.947C1162.07 239.801 1181.85 228.718 1204.11 228.718C1223.39 228.718 1240.81 237.047 1253.18 250.396C1257.44 243.14 1265.11 238.278 1273.9 238.278C1287.3 238.278 1298.16 249.533 1298.16 263.414C1298.16 264.812 1298.02 266.174 1297.81 267.512C1304.66 268.074 1311.11 270.091 1316.88 273.258C1321.44 262.434 1331.85 254.862 1343.97 254.862C1360.29 254.862 1373.52 268.574 1373.52 285.488C1373.52 287.977 1373.21 290.385 1372.67 292.703L1372.68 292.705C1385.29 296.12 1394.57 307.971 1394.57 322.087H1343.15H1335.98H1268.58H1244.47H1164.92H1139.63H1131.29H1091.4H1070.05C1069.41 319.578 1069.11 316.963 1069.11 314.244C1069.11 296.399 1082.9 281.868 1100.08 281.519Z" fill="white" fill-opacity="0.37"/>
<path d="M1041.95 328.294H1414.71C1416.52 328.294 1418 326.766 1418 324.882C1418 322.998 1416.52 321.47 1414.71 321.47H1041.95C1040.13 321.47 1038.65 322.998 1038.65 324.882C1038.65 326.766 1040.13 328.294 1041.95 328.294Z" fill="white" fill-opacity="0.37"/>
<path d="M1018.24 328.294H1024.82C1026.64 328.294 1028.12 326.766 1028.12 324.882C1028.12 322.998 1026.64 321.47 1024.82 321.47H1018.24C1016.42 321.47 1014.95 322.998 1014.95 324.882C1014.95 326.766 1016.42 328.294 1018.24 328.294Z" fill="white" fill-opacity="0.37"/>
<path d="M457.482 34.3633C454.985 34.3633 452.53 34.5462 450.122 34.912C434.603 13.6984 409.998 0 382.322 0C352.722 0 326.658 15.6475 311.426 39.4026C304.751 36.1732 297.322 34.3633 289.475 34.3633C273.824 34.3633 259.785 41.5346 250.281 52.8744C244.843 49.8279 238.608 48.1108 231.998 48.1108C210.644 48.1108 193.313 66.0705 193.313 88.1987H237.525H270.684H297.212H341.424H405.533H467.43H509.432C509.432 58.4624 486.176 34.3633 457.482 34.3633Z" fill="white" fill-opacity="0.37"/>
<path d="M118.546 94.3329H533.455C535.273 94.3329 536.748 92.8042 536.748 90.9206C536.748 89.037 535.273 87.5083 533.455 87.5083H118.546C116.728 87.5083 115.253 89.037 115.253 90.9206C115.253 92.8042 116.728 94.3329 118.546 94.3329Z" fill="white" fill-opacity="0.37"/>
<path d="M94.1788 94.3329H100.765C102.582 94.3329 104.058 92.8042 104.058 90.9206C104.058 89.037 102.582 87.5083 100.765 87.5083H94.1788C92.3611 87.5083 90.8859 89.037 90.8859 90.9206C90.8859 92.8042 92.3611 94.3329 94.1788 94.3329Z" fill="white" fill-opacity="0.37"/>
<path d="M78.5594 116.84C84.5789 116.84 90.1031 118.945 94.5208 122.486C99.9239 114.255 109.02 108.864 119.349 108.864C120.827 108.864 122.289 108.976 123.72 109.183C129.816 98.9435 140.743 92.1161 153.211 92.1161C156.596 92.1161 159.876 92.6266 162.969 93.5684C169.789 67.4574 192.816 48.2529 220.168 48.2529C244.444 48.2529 265.316 63.3736 274.473 85.0349C275.35 84.9721 276.227 84.9394 277.12 84.9394C294.591 84.9394 309.539 96.1044 315.679 111.927C319.62 109.964 324.022 108.864 328.685 108.864C338.366 108.864 346.986 113.616 352.481 121.003C356.514 118.355 361.269 116.84 366.396 116.84C380.85 116.84 392.562 128.98 392.562 143.956H358.453H340.229H315.724H298.914H269.331H238.514H184.239H171.001H149.112H122.176H104.721H89.5736H52.3845C52.3898 128.98 64.1047 116.84 78.5594 116.84Z" fill="white" fill-opacity="0.37"/>
<path d="M16.6594 149.511H431.568C433.386 149.511 434.861 147.982 434.861 146.099C434.861 144.215 433.386 142.687 431.568 142.687H16.6594C14.8416 142.687 13.3664 144.215 13.3664 146.099C13.3664 147.982 14.8416 149.511 16.6594 149.511Z" fill="white" fill-opacity="0.37"/>
<path d="M-7.70789 149.511H-1.12203C0.695666 149.511 2.1709 147.982 2.1709 146.099C2.1709 144.215 0.695666 142.687 -1.12203 142.687H-7.70789C-9.52559 142.687 -11.0008 144.215 -11.0008 146.099C-11.0008 147.982 -9.52559 149.511 -7.70789 149.511Z" fill="white" fill-opacity="0.37"/>
</svg>
