<svg width="32" height="34" viewBox="0 0 32 34" fill="none" xmlns="http://www.w3.org/2000/svg">
<g clip-path="url(#clip0_1233_1347)">
<path d="M14.3188 1.97049C15.3591 1.36986 16.6408 1.36986 17.6811 1.97049L28.1753 8.02925C29.2155 8.62987 29.8564 9.73987 29.8564 10.9411V23.0586C29.8564 24.2599 29.2155 25.3698 28.1753 25.9705L17.6811 32.0292C16.6408 32.6299 15.3591 32.6299 14.3188 32.0292L3.82471 25.9705C2.78441 25.3698 2.14355 24.2599 2.14355 23.0586V10.9411C2.14355 9.73987 2.78441 8.62987 3.82471 8.02925L14.3188 1.97049Z" stroke="white" stroke-width="2.31884"/>
<path d="M10.3189 11.5508L7.30444 13.2899V20.4783L10.3189 22.1015V11.5508Z" fill="white"/>
<path d="M15.6521 18.1592V6.79688L24.5796 11.5505V13.9853L18.2028 10.9708V15.8404H24.5796V22.1012L15.6521 27.2027V23.9563L22.0289 20.478V18.1592H15.6521Z" fill="white"/>
</g>
<defs>
<clipPath id="clip0_1233_1347">
<rect width="32" height="33.3913" fill="white" transform="translate(0 0.304199)"/>
</clipPath>
</defs>
</svg>
