<svg width="255" height="325" viewBox="0 0 255 325" fill="none" xmlns="http://www.w3.org/2000/svg">
<path d="M10 151C10 153.761 8.87908 156.263 7.07345 158.068C5.26009 159.881 2.76202 160.998 0 160.998C2.76202 160.998 5.26009 162.119 7.07345 163.928C8.87908 165.737 10 168.239 10 171C10 168.239 11.1209 165.737 12.9304 163.928C14.7399 162.119 17.2418 160.998 20 160.998C14.4797 160.998 10 156.523 10 151ZM12.3298 163.331C10.8915 164.769 10.0002 166.758 10.0002 168.953C10.0002 166.758 9.10888 164.769 7.67033 163.331C6.23196 161.889 4.24262 160.998 2.04687 160.998C6.43855 160.998 10.0002 157.437 10.0002 153.046C10.0002 155.242 10.8915 157.23 12.3298 158.669C13.7682 160.107 15.7575 160.998 17.9572 160.998C15.7575 160.998 13.7682 161.889 12.3298 163.331Z" fill="white"/>
<path d="M245 0C245 2.76149 243.879 5.26294 242.073 7.06821C240.26 8.88123 237.762 9.99807 235 9.99807C237.762 9.99807 240.26 11.1188 242.073 12.9279C243.879 14.7371 245 17.2385 245 20C245 17.2385 246.121 14.7371 247.93 12.9279C249.74 11.1188 252.242 9.99807 255 9.99807C249.48 9.9979 245 5.52297 245 0ZM247.33 12.331C245.891 13.7691 245 15.758 245 17.9534C245 15.7579 244.109 13.7691 242.67 12.331C241.232 10.889 239.243 9.9979 237.047 9.9979C241.439 9.9979 245 6.43696 245 2.04614C245 4.24164 245.891 6.23042 247.33 7.66852C248.768 9.10661 250.758 9.99773 252.957 9.99773C250.758 9.9979 248.768 10.889 247.33 12.331Z" fill="white"/>
<path d="M109 305C109 307.761 107.879 310.263 106.073 312.068C104.26 313.881 101.762 314.998 99 314.998C101.762 314.998 104.26 316.119 106.073 317.928C107.879 319.737 109 322.239 109 325C109 322.239 110.121 319.737 111.93 317.928C113.74 316.119 116.242 314.998 119 314.998C113.48 314.998 109 310.523 109 305ZM111.33 317.331C109.891 318.769 109 320.758 109 322.953C109 320.758 108.109 318.769 106.67 317.331C105.232 315.889 103.243 314.998 101.047 314.998C105.439 314.998 109 311.437 109 307.046C109 309.242 109.891 311.23 111.33 312.669C112.768 314.107 114.758 314.998 116.957 314.998C114.758 314.998 112.768 315.889 111.33 317.331Z" fill="white"/>
</svg>
