<svg width="965" height="391" viewBox="0 0 965 391" fill="none" xmlns="http://www.w3.org/2000/svg">
<path d="M575 0C575 5.52297 572.758 10.5259 569.147 14.1364C565.52 17.7625 560.524 19.9961 555 19.9961C560.524 19.9961 565.52 22.2376 569.147 25.8558C572.758 29.4741 575 34.477 575 40C575 34.477 577.242 29.4741 580.861 25.8558C584.48 22.2376 589.484 19.9961 595 19.9961C583.959 19.9958 575 11.0459 575 0ZM579.66 24.662C576.783 27.5382 575 31.5161 575 35.9067C575 31.5157 573.218 27.5382 570.341 24.662C567.464 21.778 563.485 19.9958 559.094 19.9958C567.877 19.9958 575 12.8739 575 4.09228C575 8.48327 576.783 12.4608 579.66 15.337C582.536 18.2132 586.515 19.9955 590.914 19.9955C586.515 19.9958 582.536 21.778 579.66 24.662Z" fill="white"/>
<path d="M20 351C20 356.523 17.7582 361.526 14.1469 365.136C10.5202 368.762 5.52404 370.996 0 370.996C5.52404 370.996 10.5202 373.238 14.1469 376.856C17.7582 380.474 20 385.477 20 391C20 385.477 22.2418 380.474 25.8608 376.856C29.4798 373.238 34.4837 370.996 40 370.996C28.9593 370.996 20 362.046 20 351ZM24.6597 375.662C21.7829 378.538 20.0003 382.516 20.0003 386.907C20.0003 382.516 18.2178 378.538 15.3407 375.662C12.4639 372.778 8.48525 370.996 4.09374 370.996C12.8771 370.996 20.0003 363.874 20.0003 355.092C20.0003 359.483 21.7829 363.461 24.6597 366.337C27.5364 369.213 31.5151 370.995 35.9143 370.995C31.5151 370.996 27.5364 372.778 24.6597 375.662Z" fill="white"/>
<path d="M953.594 130.807C955.893 128.731 957.866 126.443 959.511 124.006C960.123 123.098 961.509 123.72 961.167 124.754C957.886 134.663 950.787 143.684 939.872 149.496C928.734 155.425 915.468 155.766 904.461 150.351C878.099 137.382 874.912 104.221 894.287 84.846C899.153 79.9803 904.889 76.5398 910.953 74.5316C911.968 74.1949 912.621 75.5785 911.73 76.1784C909.795 77.482 907.954 78.9936 906.238 80.7093C891.729 95.219 891.903 118.687 907.084 131.925C920.111 143.289 940.313 142.797 953.594 130.807Z" fill="white"/>
</svg>
