<svg width="1440" height="1410" viewBox="0 0 1440 1410" fill="none" xmlns="http://www.w3.org/2000/svg">
<path d="M161.257 -24.7017C153.533 -25.7873 149.959 -30.5309 151.044 -38.255L151.545 -41.82C152.631 -49.5441 157.375 -53.1187 165.099 -52.0331L184.112 -49.361C187.201 -48.9268 189.099 -50.3566 189.533 -53.4463L191.871 -70.0828C192.305 -73.1724 190.876 -75.0699 187.786 -75.5041L185.409 -75.8381C182.32 -76.2723 180.422 -74.8425 179.988 -71.7528L179.821 -70.5645C178.735 -62.8404 173.992 -59.2658 166.268 -60.3514L140.125 -64.0255C132.401 -65.1111 128.826 -69.8547 129.911 -77.5788L130.747 -83.5204C131.832 -91.2445 136.576 -94.8191 144.3 -93.7336L220.352 -83.0451C235.801 -80.874 242.95 -71.3867 240.779 -55.9385L240.445 -53.5619C238.274 -38.1137 228.786 -30.9645 213.338 -33.1356L206.208 -34.1376C203.119 -34.5718 201.221 -33.142 200.787 -30.0524C199.818 -23.1601 195.125 -19.942 187.401 -21.0275L161.257 -24.7017ZM146.034 -2.60536L147.704 -14.4886C148.239 -18.2912 150.678 -20.1296 154.481 -19.5951L192.507 -14.2509C196.31 -13.7165 198.148 -11.2769 197.614 -7.47425L195.944 4.40897C195.409 8.2116 192.97 10.05 189.167 9.51554L151.141 4.17129C147.338 3.63687 145.5 1.19727 146.034 -2.60536Z" fill="white" fill-opacity="0.2"/>
<path d="M340.496 0.487739C332.772 -0.597812 329.197 -5.34147 330.283 -13.0656L330.784 -16.6305C331.869 -24.3546 336.613 -27.9292 344.337 -26.8437L363.35 -24.1715C366.44 -23.7373 368.337 -25.1672 368.771 -28.2568L371.11 -44.8933C371.544 -47.9829 370.114 -49.8804 367.024 -50.3146L364.648 -50.6486C361.558 -51.0829 359.661 -49.653 359.226 -46.5634L359.059 -45.3751C357.974 -37.651 353.23 -34.0764 345.506 -35.1619L319.363 -38.8361C311.639 -39.9216 308.064 -44.6653 309.15 -52.3894L309.985 -58.331C311.07 -66.0551 315.814 -69.6297 323.538 -68.5441L399.591 -57.8556C415.039 -55.6845 422.188 -46.1972 420.017 -30.749L419.683 -28.3724C417.512 -12.9242 408.025 -5.77502 392.576 -7.94612L385.446 -8.94817C382.357 -9.38239 380.459 -7.95255 380.025 -4.86291C379.056 2.02936 374.363 5.24746 366.639 4.16191L340.496 0.487739ZM325.272 22.5841L326.942 10.7009C327.477 6.89825 329.916 5.05988 333.719 5.59431L371.745 10.9386C375.548 11.473 377.386 13.9126 376.852 17.7152L375.182 29.5984C374.647 33.4011 372.208 35.2394 368.405 34.705L330.379 29.3607C326.576 28.8263 324.738 26.3867 325.272 22.5841Z" fill="white" fill-opacity="0.2"/>
<path d="M519.735 25.6782C512.011 24.5926 508.436 19.849 509.522 12.1249L510.023 8.55991C511.108 0.835815 515.852 -2.73878 523.576 -1.65323L542.589 1.01889C545.679 1.45311 547.576 0.0232713 548.011 -3.06637L550.349 -19.7029C550.783 -22.7925 549.353 -24.69 546.264 -25.1242L543.887 -25.4582C540.797 -25.8924 538.9 -24.4626 538.466 -21.3729L538.299 -20.1846C537.213 -12.4605 532.469 -8.88593 524.745 -9.97149L498.602 -13.6457C490.878 -14.7312 487.303 -19.4749 488.389 -27.199L489.224 -33.1406C490.31 -40.8647 495.053 -44.4392 502.777 -43.3537L578.83 -32.6652C594.278 -30.4941 601.427 -21.0068 599.256 -5.55862L598.922 -3.18197C596.751 12.2662 587.264 19.4154 571.816 17.2443L564.686 16.2423C561.596 15.808 559.699 17.2379 559.264 20.3275C558.296 27.2198 553.602 30.4379 545.878 29.3523L519.735 25.6782ZM504.512 47.7745L506.182 35.8913C506.716 32.0887 509.156 30.2503 512.958 30.7847L550.985 36.129C554.787 36.6634 556.626 39.103 556.091 42.9056L554.421 54.7889C553.887 58.5915 551.447 60.4298 547.645 59.8954L509.618 54.5512C505.816 54.0167 503.977 51.5772 504.512 47.7745Z" fill="white" fill-opacity="0.2"/>
<path d="M698.973 50.8686C691.249 49.783 687.675 45.0394 688.76 37.3153L689.261 33.7503C690.347 26.0262 695.09 22.4516 702.814 23.5372L721.828 26.2093C724.917 26.6435 726.815 25.2137 727.249 22.1241L729.587 5.48756C730.021 2.39792 728.591 0.500459 725.502 0.0662384L723.125 -0.267777C720.036 -0.701997 718.138 0.727842 717.704 3.81748L717.537 5.0058C716.451 12.7299 711.708 16.3045 703.984 15.2189L677.84 11.5448C670.116 10.4592 666.542 5.71557 667.627 -2.00852L668.462 -7.95013C669.548 -15.6742 674.292 -19.2488 682.016 -18.1633L758.068 -7.47477C773.516 -5.30367 780.666 4.18363 778.495 19.6318L778.161 22.0085C775.989 37.4566 766.502 44.6058 751.054 42.4347L743.924 41.4327C740.834 40.9985 738.937 42.4283 738.503 45.518C737.534 52.4102 732.84 55.6283 725.116 54.5428L698.973 50.8686ZM683.75 72.965L685.42 61.0817C685.954 57.2791 688.394 55.4407 692.197 55.9752L730.223 61.3194C734.026 61.8538 735.864 64.2934 735.33 68.0961L733.659 79.9793C733.125 83.7819 730.685 85.6203 726.883 85.0859L688.856 79.7416C685.054 79.2072 683.215 76.7676 683.75 72.965Z" fill="white" fill-opacity="0.2"/>
<path d="M878.212 76.059C870.487 74.9735 866.913 70.2298 867.998 62.5057L868.499 58.9408C869.585 51.2167 874.329 47.6421 882.053 48.7276L901.066 51.3997C904.156 51.834 906.053 50.4041 906.487 47.3145L908.825 30.678C909.26 27.5883 907.83 25.6909 904.74 25.2567L902.363 24.9227C899.274 24.4884 897.376 25.9183 896.942 29.0079L896.775 30.1962C895.69 37.9203 890.946 41.4949 883.222 40.4094L857.079 36.7352C849.355 35.6497 845.78 30.906 846.866 23.1819L847.701 17.2403C848.786 9.51621 853.53 5.94161 861.254 7.02716L937.307 17.7157C952.755 19.8868 959.904 29.3741 957.733 44.8222L957.399 47.1989C955.228 62.6471 945.74 69.7963 930.292 67.6252L923.162 66.6231C920.073 66.1889 918.175 67.6187 917.741 70.7084C916.772 77.6006 912.079 80.8187 904.355 79.7332L878.212 76.059ZM862.988 98.1554L864.658 86.2722C865.193 82.4695 867.632 80.6312 871.435 81.1656L909.461 86.5098C913.264 87.0443 915.102 89.4839 914.568 93.2865L912.898 105.17C912.363 108.972 909.924 110.811 906.121 110.276L868.095 104.932C864.292 104.398 862.454 101.958 862.988 98.1554Z" fill="white" fill-opacity="0.2"/>
<path d="M1057.45 101.249C1049.73 100.164 1046.15 95.4203 1047.24 87.6962L1047.74 84.1312C1048.82 76.4071 1053.57 72.8325 1061.29 73.9181L1080.3 76.5902C1083.39 77.0244 1085.29 75.5946 1085.73 72.5049L1088.06 55.8684C1088.5 52.7788 1087.07 50.8813 1083.98 50.4471L1081.6 50.1131C1078.51 49.6789 1076.61 51.1087 1076.18 54.1983L1076.01 55.3867C1074.93 63.1108 1070.18 66.6854 1062.46 65.5998L1036.32 61.9256C1028.59 60.8401 1025.02 56.0964 1026.1 48.3723L1026.94 42.4307C1028.02 34.7066 1032.77 31.132 1040.49 32.2176L1116.54 42.9061C1131.99 45.0772 1139.14 54.5645 1136.97 70.0127L1136.64 72.3893C1134.47 87.8375 1124.98 94.9867 1109.53 92.8156L1102.4 91.8136C1099.31 91.3793 1097.41 92.8092 1096.98 95.8988C1096.01 102.791 1091.32 106.009 1083.59 104.924L1057.45 101.249ZM1042.23 123.346L1043.9 111.463C1044.43 107.66 1046.87 105.822 1050.67 106.356L1088.7 111.7C1092.5 112.235 1094.34 114.674 1093.81 118.477L1092.14 130.36C1091.6 134.163 1089.16 136.001 1085.36 135.467L1047.33 130.122C1043.53 129.588 1041.69 127.148 1042.23 123.346Z" fill="white" fill-opacity="0.2"/>
<path d="M1236.69 126.44C1228.96 125.354 1225.39 120.611 1226.47 112.887L1226.98 109.322C1228.06 101.598 1232.81 98.0229 1240.53 99.1085L1259.54 101.781C1262.63 102.215 1264.53 100.785 1264.96 97.6954L1267.3 81.0588C1267.74 77.9692 1266.31 76.0717 1263.22 75.6375L1260.84 75.3035C1257.75 74.8693 1255.85 76.2991 1255.42 79.3888L1255.25 80.5771C1254.17 88.3012 1249.42 91.8758 1241.7 90.7902L1215.56 87.1161C1207.83 86.0305 1204.26 81.2869 1205.34 73.5628L1206.18 67.6212C1207.26 59.8971 1212.01 56.3225 1219.73 57.408L1295.78 68.0965C1311.23 70.2676 1318.38 79.7549 1316.21 95.2031L1315.88 97.5797C1313.7 113.028 1304.22 120.177 1288.77 118.006L1281.64 117.004C1278.55 116.57 1276.65 118 1276.22 121.089C1275.25 127.982 1270.56 131.2 1262.83 130.114L1236.69 126.44ZM1221.46 148.536L1223.13 136.653C1223.67 132.85 1226.11 131.012 1229.91 131.546L1267.94 136.891C1271.74 137.425 1273.58 139.865 1273.04 143.667L1271.37 155.551C1270.84 159.353 1268.4 161.192 1264.6 160.657L1226.57 155.313C1222.77 154.778 1220.93 152.339 1221.46 148.536Z" fill="white" fill-opacity="0.2"/>
<path d="M1415.93 151.63C1408.2 150.545 1404.63 145.801 1405.71 138.077L1406.22 134.512C1407.3 126.788 1412.04 123.213 1419.77 124.299L1438.78 126.971C1441.87 127.405 1443.77 125.975 1444.2 122.886L1446.54 106.249C1446.98 103.16 1445.55 101.262 1442.46 100.828L1440.08 100.494C1436.99 100.06 1435.09 101.49 1434.66 104.579L1434.49 105.768C1433.41 113.492 1428.66 117.066 1420.94 115.981L1394.79 112.306C1387.07 111.221 1383.5 106.477 1384.58 98.7532L1385.42 92.8116C1386.5 85.0875 1391.25 81.5129 1398.97 82.5985L1475.02 93.2869C1490.47 95.458 1497.62 104.945 1495.45 120.394L1495.11 122.77C1492.94 138.218 1483.46 145.368 1468.01 143.196L1460.88 142.194C1457.79 141.76 1455.89 143.19 1455.46 146.28C1454.49 153.172 1449.79 156.39 1442.07 155.304L1415.93 151.63ZM1400.7 173.727L1402.37 161.843C1402.91 158.041 1405.35 156.202 1409.15 156.737L1447.18 162.081C1450.98 162.616 1452.82 165.055 1452.28 168.858L1450.61 180.741C1450.08 184.544 1447.64 186.382 1443.84 185.848L1405.81 180.503C1402.01 179.969 1400.17 177.529 1400.7 173.727Z" fill="white" fill-opacity="0.2"/>
<path d="M-52.4964 195.694C-60.2205 194.608 -63.7951 189.865 -62.7096 182.14L-62.2086 178.576C-61.123 170.851 -56.3793 167.277 -48.6553 168.362L-29.6421 171.035C-26.5525 171.469 -24.655 170.039 -24.2208 166.949L-21.8827 150.313C-21.4485 147.223 -22.8783 145.326 -25.9679 144.891L-28.3446 144.557C-31.4342 144.123 -33.3317 145.553 -33.7659 148.643L-33.9329 149.831C-35.0185 157.555 -39.7621 161.13 -47.4862 160.044L-73.6293 156.37C-81.3534 155.284 -84.928 150.541 -83.8424 142.817L-83.0074 136.875C-81.9218 129.151 -77.1782 125.576 -69.4541 126.662L6.5985 137.35C22.0467 139.522 29.1959 149.009 27.0248 164.457L26.6908 166.834C24.5197 182.282 15.0324 189.431 -0.41582 187.26L-7.54575 186.258C-10.6354 185.824 -12.5328 187.254 -12.9671 190.343C-13.9357 197.235 -18.6293 200.454 -26.3534 199.368L-52.4964 195.694ZM-67.7198 217.79L-66.0497 205.907C-65.5153 202.104 -63.0757 200.266 -59.2731 200.8L-21.2468 206.145C-17.4442 206.679 -15.6058 209.119 -16.1402 212.921L-17.8103 224.804C-18.3447 228.607 -20.7843 230.445 -24.5869 229.911L-62.6132 224.567C-66.4159 224.032 -68.2542 221.593 -67.7198 217.79Z" fill="white" fill-opacity="0.2"/>
<path d="M126.743 220.884C119.019 219.799 115.444 215.055 116.53 207.331L117.031 203.766C118.116 196.042 122.86 192.467 130.584 193.553L149.597 196.225C152.687 196.659 154.584 195.229 155.018 192.14L157.357 175.503C157.791 172.414 156.361 170.516 153.271 170.082L150.895 169.748C147.805 169.314 145.908 170.743 145.473 173.833L145.306 175.021C144.221 182.746 139.477 186.32 131.753 185.235L105.61 181.56C97.8859 180.475 94.3113 175.731 95.3968 168.007L96.2319 162.065C97.3174 154.341 102.061 150.767 109.785 151.852L185.838 162.541C201.286 164.712 208.435 174.199 206.264 189.647L205.93 192.024C203.759 207.472 194.272 214.621 178.823 212.45L171.694 211.448C168.604 211.014 166.706 212.444 166.272 215.534C165.304 222.426 160.61 225.644 152.886 224.558L126.743 220.884ZM111.519 242.981L113.19 231.097C113.724 227.295 116.164 225.456 119.966 225.991L157.992 231.335C161.795 231.869 163.633 234.309 163.099 238.112L161.429 249.995C160.895 253.798 158.455 255.636 154.652 255.101L116.626 249.757C112.823 249.223 110.985 246.783 111.519 242.981Z" fill="white" fill-opacity="0.2"/>
<path d="M305.981 246.075C298.257 244.989 294.682 240.245 295.768 232.521L296.269 228.956C297.355 221.232 302.098 217.658 309.822 218.743L328.835 221.415C331.925 221.85 333.823 220.42 334.257 217.33L336.595 200.694C337.029 197.604 335.599 195.707 332.51 195.272L330.133 194.938C327.043 194.504 325.146 195.934 324.712 199.024L324.545 200.212C323.459 207.936 318.715 211.511 310.991 210.425L284.848 206.751C277.124 205.665 273.55 200.922 274.635 193.198L275.47 187.256C276.556 179.532 281.299 175.957 289.023 177.043L365.076 187.731C380.524 189.902 387.673 199.39 385.502 214.838L385.168 217.215C382.997 232.663 373.51 239.812 358.062 237.641L350.932 236.639C347.842 236.205 345.945 237.634 345.51 240.724C344.542 247.616 339.848 250.834 332.124 249.749L305.981 246.075ZM290.758 268.171L292.428 256.288C292.962 252.485 295.402 250.647 299.204 251.181L337.231 256.525C341.033 257.06 342.872 259.499 342.337 263.302L340.667 275.185C340.133 278.988 337.693 280.826 333.891 280.292L295.864 274.948C292.062 274.413 290.223 271.974 290.758 268.171Z" fill="white" fill-opacity="0.2"/>
<path d="M485.219 271.265C477.495 270.18 473.921 265.436 475.006 257.712L475.507 254.147C476.593 246.423 481.336 242.848 489.061 243.934L508.074 246.606C511.163 247.04 513.061 245.61 513.495 242.521L515.833 225.884C516.267 222.794 514.838 220.897 511.748 220.463L509.371 220.129C506.282 219.694 504.384 221.124 503.95 224.214L503.783 225.402C502.697 233.126 497.954 236.701 490.23 235.615L464.087 231.941C456.362 230.856 452.788 226.112 453.873 218.388L454.708 212.446C455.794 204.722 460.538 201.148 468.262 202.233L544.314 212.922C559.763 215.093 566.912 224.58 564.741 240.028L564.407 242.405C562.235 257.853 552.748 265.002 537.3 262.831L530.17 261.829C527.08 261.395 525.183 262.825 524.749 265.914C523.78 272.807 519.087 276.025 511.362 274.939L485.219 271.265ZM469.996 293.361L471.666 281.478C472.201 277.676 474.64 275.837 478.443 276.372L516.469 281.716C520.272 282.25 522.11 284.69 521.576 288.493L519.906 300.376C519.371 304.178 516.932 306.017 513.129 305.482L475.103 300.138C471.3 299.604 469.462 297.164 469.996 293.361Z" fill="white" fill-opacity="0.2"/>
<path d="M664.459 296.456C656.735 295.37 653.16 290.626 654.246 282.902L654.747 279.337C655.832 271.613 660.576 268.039 668.3 269.124L687.313 271.796C690.403 272.23 692.3 270.801 692.734 267.711L695.072 251.074C695.507 247.985 694.077 246.087 690.987 245.653L688.611 245.319C685.521 244.885 683.623 246.315 683.189 249.404L683.022 250.593C681.937 258.317 677.193 261.891 669.469 260.806L643.326 257.132C635.602 256.046 632.027 251.302 633.113 243.578L633.948 237.637C635.033 229.913 639.777 226.338 647.501 227.424L723.554 238.112C739.002 240.283 746.151 249.771 743.98 265.219L743.646 267.595C741.475 283.044 731.987 290.193 716.539 288.022L709.409 287.02C706.32 286.585 704.422 288.015 703.988 291.105C703.019 297.997 698.326 301.215 690.602 300.13L664.459 296.456ZM649.235 318.552L650.905 306.669C651.44 302.866 653.879 301.028 657.682 301.562L695.708 306.906C699.511 307.441 701.349 309.88 700.815 313.683L699.145 325.566C698.61 329.369 696.171 331.207 692.368 330.673L654.342 325.329C650.539 324.794 648.701 322.354 649.235 318.552Z" fill="white" fill-opacity="0.2"/>
<path d="M843.697 321.646C835.973 320.56 832.398 315.817 833.484 308.093L833.985 304.528C835.07 296.804 839.814 293.229 847.538 294.315L866.551 296.987C869.641 297.421 871.538 295.991 871.973 292.901L874.311 276.265C874.745 273.175 873.315 271.278 870.225 270.844L867.849 270.51C864.759 270.075 862.862 271.505 862.427 274.595L862.26 275.783C861.175 283.507 856.431 287.082 848.707 285.996L822.564 282.322C814.84 281.237 811.265 276.493 812.351 268.769L813.186 262.827C814.272 255.103 819.015 251.529 826.739 252.614L902.792 263.303C918.24 265.474 925.389 274.961 923.218 290.409L922.884 292.786C920.713 308.234 911.226 315.383 895.778 313.212L888.648 312.21C885.558 311.776 883.661 313.206 883.226 316.295C882.258 323.188 877.564 326.406 869.84 325.32L843.697 321.646ZM828.474 343.742L830.144 331.859C830.678 328.056 833.118 326.218 836.92 326.753L874.947 332.097C878.749 332.631 880.588 335.071 880.053 338.873L878.383 350.757C877.849 354.559 875.409 356.398 871.606 355.863L833.58 350.519C829.777 349.985 827.939 347.545 828.474 343.742Z" fill="white" fill-opacity="0.2"/>
<path d="M1022.94 346.836C1015.21 345.751 1011.64 341.007 1012.72 333.283L1013.22 329.718C1014.31 321.994 1019.05 318.419 1026.78 319.505L1045.79 322.177C1048.88 322.611 1050.78 321.181 1051.21 318.092L1053.55 301.455C1053.98 298.366 1052.55 296.468 1049.46 296.034L1047.09 295.7C1044 295.266 1042.1 296.696 1041.67 299.785L1041.5 300.974C1040.41 308.698 1035.67 312.272 1027.95 311.187L1001.8 307.513C994.078 306.427 990.504 301.683 991.589 293.959L992.424 288.018C993.51 280.294 998.253 276.719 1005.98 277.805L1082.03 288.493C1097.48 290.664 1104.63 300.151 1102.46 315.6L1102.12 317.976C1099.95 333.424 1090.46 340.574 1075.02 338.403L1067.89 337.4C1064.8 336.966 1062.9 338.396 1062.46 341.486C1061.5 348.378 1056.8 351.596 1049.08 350.511L1022.94 346.836ZM1007.71 368.933L1009.38 357.05C1009.92 353.247 1012.36 351.409 1016.16 351.943L1054.18 357.287C1057.99 357.822 1059.83 360.261 1059.29 364.064L1057.62 375.947C1057.09 379.75 1054.65 381.588 1050.84 381.054L1012.82 375.709C1009.02 375.175 1007.18 372.735 1007.71 368.933Z" fill="white" fill-opacity="0.2"/>
<path d="M1202.17 372.026C1194.45 370.94 1190.87 366.197 1191.96 358.473L1192.46 354.908C1193.55 347.183 1198.29 343.609 1206.01 344.694L1225.03 347.367C1228.12 347.801 1230.01 346.371 1230.45 343.281L1232.79 326.645C1233.22 323.555 1231.79 321.658 1228.7 321.223L1226.33 320.889C1223.24 320.455 1221.34 321.885 1220.9 324.975L1220.74 326.163C1219.65 333.887 1214.91 337.462 1207.18 336.376L1181.04 332.702C1173.32 331.616 1169.74 326.873 1170.83 319.149L1171.66 313.207C1172.75 305.483 1177.49 301.908 1185.22 302.994L1261.27 313.682C1276.72 315.854 1283.87 325.341 1281.69 340.789L1281.36 343.166C1279.19 358.614 1269.7 365.763 1254.25 363.592L1247.12 362.59C1244.03 362.156 1242.14 363.586 1241.7 366.675C1240.73 373.567 1236.04 376.786 1228.32 375.7L1202.17 372.026ZM1186.95 394.122L1188.62 382.239C1189.15 378.436 1191.59 376.598 1195.4 377.132L1233.42 382.477C1237.23 383.011 1239.06 385.451 1238.53 389.253L1236.86 401.137C1236.33 404.939 1233.89 406.778 1230.08 406.243L1192.06 400.899C1188.25 400.364 1186.42 397.925 1186.95 394.122Z" fill="white" fill-opacity="0.2"/>
<path d="M1381.41 397.216C1373.69 396.131 1370.11 391.387 1371.2 383.663L1371.7 380.098C1372.79 372.374 1377.53 368.799 1385.25 369.885L1404.27 372.557C1407.36 372.991 1409.25 371.561 1409.69 368.472L1412.03 351.835C1412.46 348.746 1411.03 346.848 1407.94 346.414L1405.56 346.08C1402.47 345.646 1400.58 347.075 1400.14 350.165L1399.98 351.353C1398.89 359.078 1394.15 362.652 1386.42 361.567L1360.28 357.892C1352.55 356.807 1348.98 352.063 1350.07 344.339L1350.9 338.398C1351.99 330.673 1356.73 327.099 1364.45 328.184L1440.51 338.873C1455.95 341.044 1463.1 350.531 1460.93 365.979L1460.6 368.356C1458.43 383.804 1448.94 390.953 1433.49 388.782L1426.36 387.78C1423.27 387.346 1421.38 388.776 1420.94 391.866C1419.97 398.758 1415.28 401.976 1407.55 400.89L1381.41 397.216ZM1366.19 419.313L1367.86 407.429C1368.39 403.627 1370.83 401.788 1374.64 402.323L1412.66 407.667C1416.46 408.201 1418.3 410.641 1417.77 414.444L1416.1 426.327C1415.56 430.13 1413.12 431.968 1409.32 431.434L1371.29 426.089C1367.49 425.555 1365.65 423.115 1366.19 419.313Z" fill="white" fill-opacity="0.2"/>
<path d="M92.2272 466.471C84.5031 465.386 80.9285 460.642 82.0141 452.918L82.5151 449.353C83.6006 441.629 88.3443 438.054 96.0684 439.14L115.082 441.812C118.171 442.246 120.069 440.816 120.503 437.727L122.841 421.09C123.275 418 121.845 416.103 118.756 415.669L116.379 415.335C113.289 414.901 111.392 416.33 110.958 419.42L110.791 420.608C109.705 428.332 104.962 431.907 97.2374 430.821L71.0944 427.147C63.3703 426.062 59.7957 421.318 60.8812 413.594L61.7162 407.652C62.8018 399.928 67.5455 396.354 75.2695 397.439L151.322 408.128C166.77 410.299 173.92 419.786 171.748 435.234L171.414 437.611C169.243 453.059 159.756 460.208 144.308 458.037L137.178 457.035C134.088 456.601 132.191 458.031 131.757 461.12C130.788 468.013 126.094 471.231 118.37 470.145L92.2272 466.471ZM77.0038 488.567L78.6739 476.684C79.2083 472.882 81.6479 471.043 85.4506 471.578L123.477 476.922C127.279 477.456 129.118 479.896 128.583 483.699L126.913 495.582C126.379 499.384 123.939 501.223 120.137 500.688L82.1104 495.344C78.3078 494.81 76.4694 492.37 77.0038 488.567Z" fill="white" fill-opacity="0.2"/>
<path d="M271.466 491.662C263.742 490.576 260.168 485.832 261.253 478.108L261.754 474.543C262.84 466.819 267.584 463.245 275.308 464.33L294.321 467.002C297.41 467.437 299.308 466.007 299.742 462.917L302.08 446.281C302.514 443.191 301.085 441.293 297.995 440.859L295.618 440.525C292.529 440.091 290.631 441.521 290.197 444.61L290.03 445.799C288.944 453.523 284.201 457.097 276.477 456.012L250.334 452.338C242.61 451.252 239.035 446.509 240.12 438.784L240.956 432.843C242.041 425.119 246.785 421.544 254.509 422.63L330.561 433.318C346.01 435.489 353.159 444.977 350.988 460.425L350.654 462.801C348.483 478.25 338.995 485.399 323.547 483.228L316.417 482.226C313.328 481.791 311.43 483.221 310.996 486.311C310.027 493.203 305.334 496.421 297.61 495.336L271.466 491.662ZM256.243 513.758L257.913 501.875C258.448 498.072 260.887 496.234 264.69 496.768L302.716 502.112C306.519 502.647 308.357 505.086 307.823 508.889L306.153 520.772C305.618 524.575 303.179 526.413 299.376 525.879L261.35 520.535C257.547 520 255.709 517.561 256.243 513.758Z" fill="white" fill-opacity="0.2"/>
<path d="M450.705 516.851C442.981 515.765 439.406 511.022 440.492 503.298L440.993 499.733C442.078 492.009 446.822 488.434 454.546 489.52L473.559 492.192C476.649 492.626 478.546 491.196 478.98 488.106L481.318 471.47C481.753 468.38 480.323 466.483 477.233 466.049L474.857 465.715C471.767 465.28 469.869 466.71 469.435 469.8L469.268 470.988C468.183 478.712 463.439 482.287 455.715 481.201L429.572 477.527C421.848 476.442 418.273 471.698 419.359 463.974L420.194 458.032C421.279 450.308 426.023 446.734 433.747 447.819L509.8 458.508C525.248 460.679 532.397 470.166 530.226 485.614L529.892 487.991C527.721 503.439 518.234 510.588 502.785 508.417L495.655 507.415C492.566 506.981 490.668 508.411 490.234 511.5C489.265 518.393 484.572 521.611 476.848 520.525L450.705 516.851ZM435.481 538.947L437.151 527.064C437.686 523.262 440.125 521.423 443.928 521.958L481.954 527.302C485.757 527.836 487.595 530.276 487.061 534.078L485.391 545.962C484.856 549.764 482.417 551.603 478.614 551.068L440.588 545.724C436.785 545.19 434.947 542.75 435.481 538.947Z" fill="white" fill-opacity="0.2"/>
<path d="M629.943 542.041C622.219 540.956 618.644 536.212 619.73 528.488L620.231 524.923C621.316 517.199 626.06 513.624 633.784 514.71L652.797 517.382C655.887 517.816 657.784 516.387 658.219 513.297L660.557 496.66C660.991 493.571 659.561 491.673 656.472 491.239L654.095 490.905C651.005 490.471 649.108 491.901 648.674 494.99L648.507 496.179C647.421 503.903 642.677 507.477 634.953 506.392L608.81 502.718C601.086 501.632 597.511 496.888 598.597 489.164L599.432 483.223C600.518 475.499 605.261 471.924 612.985 473.01L689.038 483.698C704.486 485.869 711.635 495.356 709.464 510.805L709.13 513.181C706.959 528.629 697.472 535.779 682.024 533.608L674.894 532.606C671.804 532.171 669.907 533.601 669.472 536.691C668.504 543.583 663.81 546.801 656.086 545.716L629.943 542.041ZM614.72 564.138L616.39 552.255C616.924 548.452 619.364 546.614 623.166 547.148L661.193 552.492C664.995 553.027 666.834 555.466 666.299 559.269L664.629 571.152C664.095 574.955 661.655 576.793 657.853 576.259L619.826 570.914C616.024 570.38 614.185 567.94 614.72 564.138Z" fill="white" fill-opacity="0.2"/>
<path d="M809.181 567.232C801.457 566.146 797.883 561.403 798.968 553.679L799.469 550.114C800.555 542.39 805.298 538.815 813.022 539.9L832.036 542.573C835.125 543.007 837.023 541.577 837.457 538.487L839.795 521.851C840.229 518.761 838.799 516.864 835.71 516.43L833.333 516.096C830.244 515.661 828.346 517.091 827.912 520.181L827.745 521.369C826.659 529.093 821.916 532.668 814.192 531.582L788.048 527.908C780.324 526.823 776.75 522.079 777.835 514.355L778.67 508.413C779.756 500.689 784.5 497.114 792.224 498.2L868.276 508.889C883.724 511.06 890.874 520.547 888.703 535.995L888.369 538.372C886.197 553.82 876.71 560.969 861.262 558.798L854.132 557.796C851.042 557.362 849.145 558.792 848.711 561.881C847.742 568.773 843.048 571.992 835.324 570.906L809.181 567.232ZM793.958 589.328L795.628 577.445C796.162 573.642 798.602 571.804 802.405 572.338L840.431 577.683C844.234 578.217 846.072 580.657 845.538 584.459L843.867 596.343C843.333 600.145 840.893 601.984 837.091 601.449L799.064 596.105C795.262 595.57 793.424 593.131 793.958 589.328Z" fill="white" fill-opacity="0.2"/>
<path d="M988.421 592.422C980.696 591.337 977.122 586.593 978.207 578.869L978.708 575.304C979.794 567.58 984.538 564.005 992.262 565.091L1011.27 567.763C1014.36 568.197 1016.26 566.767 1016.7 563.678L1019.03 547.041C1019.47 543.952 1018.04 542.054 1014.95 541.62L1012.57 541.286C1009.48 540.852 1007.59 542.282 1007.15 545.371L1006.98 546.56C1005.9 554.284 1001.15 557.858 993.431 556.773L967.288 553.098C959.564 552.013 955.989 547.269 957.075 539.545L957.91 533.604C958.995 525.879 963.739 522.305 971.463 523.39L1047.52 534.079C1062.96 536.25 1070.11 545.737 1067.94 561.186L1067.61 563.562C1065.44 579.01 1055.95 586.16 1040.5 583.988L1033.37 582.986C1030.28 582.552 1028.38 583.982 1027.95 587.072C1026.98 593.964 1022.29 597.182 1014.56 596.096L988.421 592.422ZM973.197 614.519L974.867 602.635C975.402 598.833 977.841 596.994 981.644 597.529L1019.67 602.873C1023.47 603.408 1025.31 605.847 1024.78 609.65L1023.11 621.533C1022.57 625.336 1020.13 627.174 1016.33 626.64L978.304 621.295C974.501 620.761 972.663 618.321 973.197 614.519Z" fill="white" fill-opacity="0.2"/>
<path d="M1167.66 617.613C1159.93 616.527 1156.36 611.784 1157.45 604.059L1157.95 600.494C1159.03 592.77 1163.78 589.196 1171.5 590.281L1190.51 592.953C1193.6 593.388 1195.5 591.958 1195.93 588.868L1198.27 572.232C1198.71 569.142 1197.28 567.245 1194.19 566.81L1191.81 566.476C1188.72 566.042 1186.82 567.472 1186.39 570.562L1186.22 571.75C1185.14 579.474 1180.39 583.049 1172.67 581.963L1146.53 578.289C1138.8 577.203 1135.23 572.46 1136.31 564.736L1137.15 558.794C1138.23 551.07 1142.98 547.495 1150.7 548.581L1226.75 559.269C1242.2 561.44 1249.35 570.928 1247.18 586.376L1246.85 588.753C1244.67 604.201 1235.19 611.35 1219.74 609.179L1212.61 608.177C1209.52 607.743 1207.62 609.172 1207.19 612.262C1206.22 619.154 1201.53 622.372 1193.8 621.287L1167.66 617.613ZM1152.44 639.709L1154.11 627.826C1154.64 624.023 1157.08 622.185 1160.88 622.719L1198.91 628.064C1202.71 628.598 1204.55 631.038 1204.02 634.84L1202.34 646.723C1201.81 650.526 1199.37 652.364 1195.57 651.83L1157.54 646.486C1153.74 645.951 1151.9 643.512 1152.44 639.709Z" fill="white" fill-opacity="0.2"/>
<path d="M1346.9 642.803C1339.17 641.718 1335.6 636.974 1336.68 629.25L1337.19 625.685C1338.27 617.961 1343.01 614.386 1350.74 615.472L1369.75 618.144C1372.84 618.578 1374.74 617.148 1375.17 614.059L1377.51 597.422C1377.95 594.332 1376.52 592.435 1373.43 592.001L1371.05 591.667C1367.96 591.233 1366.06 592.662 1365.63 595.752L1365.46 596.94C1364.38 604.664 1359.63 608.239 1351.91 607.154L1325.76 603.479C1318.04 602.394 1314.47 597.65 1315.55 589.926L1316.39 583.984C1317.47 576.26 1322.22 572.686 1329.94 573.771L1405.99 584.46C1421.44 586.631 1428.59 596.118 1426.42 611.566L1426.08 613.943C1423.91 629.391 1414.43 636.54 1398.98 634.369L1391.85 633.367C1388.76 632.933 1386.86 634.363 1386.43 637.453C1385.46 644.345 1380.76 647.563 1373.04 646.477L1346.9 642.803ZM1331.67 664.9L1333.34 653.016C1333.88 649.214 1336.32 647.375 1340.12 647.91L1378.15 653.254C1381.95 653.788 1383.79 656.228 1383.25 660.031L1381.58 671.914C1381.05 675.716 1378.61 677.555 1374.81 677.02L1336.78 671.676C1332.98 671.142 1331.14 668.702 1331.67 664.9Z" fill="white" fill-opacity="0.2"/>
<path d="M57.7125 712.057C49.9885 710.972 46.4139 706.228 47.4994 698.504L48.0004 694.939C49.086 687.215 53.8296 683.64 61.5537 684.726L80.5669 687.398C83.6565 687.832 85.554 686.402 85.9882 683.313L88.3263 666.676C88.7605 663.586 87.3307 661.689 84.241 661.255L81.8644 660.921C78.7748 660.486 76.8773 661.916 76.4431 665.006L76.2761 666.194C75.1905 673.918 70.4469 677.493 62.7228 676.407L36.5797 672.733C28.8556 671.648 25.281 666.904 26.3666 659.18L27.2016 653.238C28.2872 645.514 33.0308 641.94 40.7549 643.025L116.807 653.714C132.256 655.885 139.405 665.372 137.234 680.82L136.9 683.197C134.729 698.645 125.241 705.794 109.793 703.623L102.663 702.621C99.5736 702.187 97.6761 703.617 97.2419 706.706C96.2733 713.599 91.5797 716.817 83.8556 715.731L57.7125 712.057ZM42.4892 734.153L44.1593 722.27C44.6937 718.468 47.1333 716.629 50.9359 717.164L88.9622 722.508C92.7648 723.042 94.6032 725.482 94.0688 729.285L92.3987 741.168C91.8643 744.97 89.4247 746.809 85.622 746.274L47.5957 740.93C43.7931 740.396 41.9548 737.956 42.4892 734.153Z" fill="white" fill-opacity="0.2"/>
<path d="M236.951 737.248C229.227 736.162 225.652 731.418 226.738 723.694L227.239 720.129C228.324 712.405 233.068 708.831 240.792 709.916L259.805 712.588C262.895 713.022 264.792 711.593 265.226 708.503L267.565 691.866C267.999 688.777 266.569 686.879 263.479 686.445L261.103 686.111C258.013 685.677 256.116 687.107 255.681 690.196L255.514 691.385C254.429 699.109 249.685 702.683 241.961 701.598L215.818 697.924C208.094 696.838 204.519 692.094 205.605 684.37L206.44 678.429C207.525 670.705 212.269 667.13 219.993 668.216L296.046 678.904C311.494 681.075 318.643 690.563 316.472 706.011L316.138 708.387C313.967 723.836 304.48 730.985 289.031 728.814L281.902 727.812C278.812 727.377 276.914 728.807 276.48 731.897C275.512 738.789 270.818 742.007 263.094 740.922L236.951 737.248ZM221.727 759.344L223.398 747.461C223.932 743.658 226.372 741.82 230.174 742.354L268.2 747.698C272.003 748.233 273.841 750.672 273.307 754.475L271.637 766.358C271.103 770.161 268.663 771.999 264.86 771.465L226.834 766.121C223.031 765.586 221.193 763.146 221.727 759.344Z" fill="white" fill-opacity="0.2"/>
<path d="M416.19 762.438C408.466 761.352 404.891 756.609 405.977 748.885L406.478 745.32C407.564 737.596 412.307 734.021 420.031 735.107L439.044 737.779C442.134 738.213 444.032 736.783 444.466 733.693L446.804 717.057C447.238 713.967 445.808 712.07 442.719 711.636L440.342 711.302C437.252 710.867 435.355 712.297 434.921 715.387L434.754 716.575C433.668 724.299 428.924 727.874 421.2 726.788L395.057 723.114C387.333 722.029 383.759 717.285 384.844 709.561L385.679 703.619C386.765 695.895 391.508 692.321 399.232 693.406L475.285 704.095C490.733 706.266 497.882 715.753 495.711 731.201L495.377 733.578C493.206 749.026 483.719 756.175 468.271 754.004L461.141 753.002C458.051 752.568 456.154 753.998 455.719 757.087C454.751 763.98 450.057 767.198 442.333 766.112L416.19 762.438ZM400.967 784.534L402.637 772.651C403.171 768.848 405.611 767.01 409.413 767.545L447.44 772.889C451.242 773.423 453.081 775.863 452.546 779.665L450.876 791.549C450.342 795.351 447.902 797.19 444.1 796.655L406.073 791.311C402.271 790.777 400.432 788.337 400.967 784.534Z" fill="white" fill-opacity="0.2"/>
<path d="M595.428 787.628C587.704 786.543 584.13 781.799 585.215 774.075L585.716 770.51C586.802 762.786 591.545 759.211 599.27 760.297L618.283 762.969C621.372 763.403 623.27 761.973 623.704 758.884L626.042 742.247C626.476 739.158 625.047 737.26 621.957 736.826L619.58 736.492C616.491 736.058 614.593 737.488 614.159 740.577L613.992 741.766C612.906 749.49 608.163 753.064 600.439 751.979L574.296 748.305C566.571 747.219 562.997 742.475 564.082 734.751L564.917 728.81C566.003 721.086 570.747 717.511 578.471 718.596L654.523 729.285C669.971 731.456 677.121 740.943 674.95 756.392L674.616 758.768C672.444 774.216 662.957 781.366 647.509 779.195L640.379 778.192C637.289 777.758 635.392 779.188 634.958 782.278C633.989 789.17 629.296 792.388 621.571 791.303L595.428 787.628ZM580.205 809.725L581.875 797.842C582.409 794.039 584.849 792.201 588.652 792.735L626.678 798.079C630.481 798.614 632.319 801.053 631.785 804.856L630.115 816.739C629.58 820.542 627.14 822.38 623.338 821.846L585.312 816.501C581.509 815.967 579.671 813.527 580.205 809.725Z" fill="white" fill-opacity="0.2"/>
<path d="M774.667 812.819C766.943 811.733 763.368 806.99 764.454 799.265L764.955 795.701C766.04 787.976 770.784 784.402 778.508 785.487L797.521 788.16C800.611 788.594 802.508 787.164 802.942 784.074L805.28 767.438C805.715 764.348 804.285 762.451 801.195 762.016L798.819 761.682C795.729 761.248 793.831 762.678 793.397 765.768L793.23 766.956C792.145 774.68 787.401 778.255 779.677 777.169L753.534 773.495C745.81 772.409 742.235 767.666 743.321 759.942L744.156 754C745.241 746.276 749.985 742.701 757.709 743.787L833.762 754.475C849.21 756.647 856.359 766.134 854.188 781.582L853.854 783.959C851.683 799.407 842.195 806.556 826.747 804.385L819.617 803.383C816.528 802.949 814.63 804.379 814.196 807.468C813.227 814.36 808.534 817.579 800.81 816.493L774.667 812.819ZM759.443 834.915L761.113 823.032C761.648 819.229 764.087 817.391 767.89 817.925L805.916 823.27C809.719 823.804 811.557 826.244 811.023 830.046L809.353 841.929C808.818 845.732 806.379 847.57 802.576 847.036L764.55 841.692C760.747 841.157 758.909 838.718 759.443 834.915Z" fill="white" fill-opacity="0.2"/>
<path d="M953.905 838.009C946.181 836.924 942.606 832.18 943.692 824.456L944.193 820.891C945.278 813.167 950.022 809.592 957.746 810.678L976.759 813.35C979.849 813.784 981.746 812.354 982.181 809.265L984.519 792.628C984.953 789.539 983.523 787.641 980.433 787.207L978.057 786.873C974.967 786.439 973.07 787.868 972.635 790.958L972.468 792.146C971.383 799.871 966.639 803.445 958.915 802.36L932.772 798.685C925.048 797.6 921.473 792.856 922.559 785.132L923.394 779.19C924.48 771.466 929.223 767.892 936.947 768.977L1013 779.666C1028.45 781.837 1035.6 791.324 1033.43 806.772L1033.09 809.149C1030.92 824.597 1021.43 831.746 1005.99 829.575L998.856 828.573C995.766 828.139 993.869 829.569 993.434 832.659C992.466 839.551 987.772 842.769 980.048 841.683L953.905 838.009ZM938.682 860.106L940.352 848.222C940.886 844.42 943.326 842.581 947.128 843.116L985.155 848.46C988.957 848.994 990.796 851.434 990.261 855.237L988.591 867.12C988.057 870.923 985.617 872.761 981.814 872.226L943.788 866.882C939.986 866.348 938.147 863.908 938.682 860.106Z" fill="white" fill-opacity="0.2"/>
<path d="M1133.14 863.2C1125.42 862.114 1121.85 857.37 1122.93 849.646L1123.43 846.081C1124.52 838.357 1129.26 834.783 1136.99 835.868L1156 838.54C1159.09 838.975 1160.99 837.545 1161.42 834.455L1163.76 817.819C1164.19 814.729 1162.76 812.832 1159.67 812.397L1157.3 812.063C1154.21 811.629 1152.31 813.059 1151.87 816.149L1151.71 817.337C1150.62 825.061 1145.88 828.636 1138.15 827.55L1112.01 823.876C1104.29 822.79 1100.71 818.047 1101.8 810.323L1102.63 804.381C1103.72 796.657 1108.46 793.082 1116.19 794.168L1192.24 804.856C1207.69 807.027 1214.84 816.515 1212.67 831.963L1212.33 834.34C1210.16 849.788 1200.67 856.937 1185.22 854.766L1178.09 853.764C1175.01 853.33 1173.11 854.759 1172.67 857.849C1171.7 864.741 1167.01 867.959 1159.29 866.874L1133.14 863.2ZM1117.92 885.296L1119.59 873.413C1120.13 869.61 1122.56 867.772 1126.37 868.306L1164.39 873.65C1168.2 874.185 1170.03 876.624 1169.5 880.427L1167.83 892.31C1167.3 896.113 1164.86 897.951 1161.05 897.417L1123.03 892.073C1119.22 891.538 1117.39 889.099 1117.92 885.296Z" fill="white" fill-opacity="0.2"/>
<path d="M1312.38 888.39C1304.66 887.305 1301.08 882.561 1302.17 874.837L1302.67 871.272C1303.76 863.548 1308.5 859.973 1316.22 861.059L1335.24 863.731C1338.33 864.165 1340.22 862.735 1340.66 859.646L1343 843.009C1343.43 839.919 1342 838.022 1338.91 837.588L1336.53 837.254C1333.44 836.819 1331.55 838.249 1331.11 841.339L1330.95 842.527C1329.86 850.251 1325.12 853.826 1317.39 852.74L1291.25 849.066C1283.53 847.981 1279.95 843.237 1281.04 835.513L1281.87 829.571C1282.96 821.847 1287.7 818.273 1295.42 819.358L1371.48 830.047C1386.93 832.218 1394.07 841.705 1391.9 857.153L1391.57 859.53C1389.4 874.978 1379.91 882.127 1364.46 879.956L1357.33 878.954C1354.24 878.52 1352.35 879.95 1351.91 883.039C1350.94 889.932 1346.25 893.15 1338.53 892.064L1312.38 888.39ZM1297.16 910.486L1298.83 898.603C1299.36 894.801 1301.8 892.962 1305.61 893.497L1343.63 898.841C1347.43 899.375 1349.27 901.815 1348.74 905.618L1347.07 917.501C1346.53 921.303 1344.09 923.142 1340.29 922.607L1302.27 917.263C1298.46 916.729 1296.62 914.289 1297.16 910.486Z" fill="white" fill-opacity="0.2"/>
<path d="M23.1979 957.644C15.4738 956.558 11.8992 951.815 12.9848 944.091L13.4858 940.526C14.5713 932.802 19.315 929.227 27.0391 930.313L46.0522 932.985C49.1419 933.419 51.0393 931.989 51.4735 928.899L53.8117 912.263C54.2459 909.173 52.816 907.276 49.7264 906.842L47.3498 906.508C44.2601 906.073 42.3627 907.503 41.9284 910.593L41.7614 911.781C40.6759 919.505 35.9322 923.08 28.2081 921.994L2.06505 918.32C-5.65904 917.235 -9.23364 912.491 -8.14809 904.767L-7.31305 898.825C-6.2275 891.101 -1.48384 887.527 6.24025 888.612L82.2928 899.301C97.741 901.472 104.89 910.959 102.719 926.407L102.385 928.784C100.214 944.232 90.7267 951.381 75.2785 949.21L68.1486 948.208C65.059 947.774 63.1615 949.204 62.7273 952.293C61.7586 959.186 57.0651 962.404 49.341 961.318L23.1979 957.644ZM7.97453 979.74L9.64461 967.857C10.179 964.054 12.6186 962.216 16.4213 962.751L54.4476 968.095C58.2502 968.629 60.0885 971.069 59.5541 974.871L57.884 986.755C57.3496 990.557 54.91 992.396 51.1074 991.861L13.0811 986.517C9.27847 985.983 7.4401 983.543 7.97453 979.74Z" fill="white" fill-opacity="0.2"/>
<path d="M202.436 982.834C194.712 981.749 191.137 977.005 192.223 969.281L192.724 965.716C193.81 957.992 198.553 954.417 206.277 955.503L225.291 958.175C228.38 958.609 230.278 957.18 230.712 954.09L233.05 937.453C233.484 934.364 232.054 932.466 228.965 932.032L226.588 931.698C223.498 931.264 221.601 932.694 221.167 935.783L221 936.972C219.914 944.696 215.171 948.27 207.446 947.185L181.303 943.511C173.579 942.425 170.005 937.681 171.09 929.957L171.925 924.016C173.011 916.292 177.754 912.717 185.479 913.803L261.531 924.491C276.979 926.662 284.129 936.149 281.957 951.598L281.623 953.974C279.452 969.422 269.965 976.572 254.517 974.401L247.387 973.399C244.297 972.964 242.4 974.394 241.966 977.484C240.997 984.376 236.303 987.594 228.579 986.509L202.436 982.834ZM187.213 1004.93L188.883 993.048C189.417 989.245 191.857 987.407 195.66 987.941L233.686 993.285C237.488 993.82 239.327 996.259 238.792 1000.06L237.122 1011.95C236.588 1015.75 234.148 1017.59 230.346 1017.05L192.319 1011.71C188.517 1011.17 186.678 1008.73 187.213 1004.93Z" fill="white" fill-opacity="0.2"/>
<path d="M381.674 1008.02C373.95 1006.94 370.376 1002.2 371.461 994.472L371.962 990.907C373.048 983.182 377.792 979.608 385.516 980.693L404.529 983.366C407.618 983.8 409.516 982.37 409.95 979.28L412.288 962.644C412.722 959.554 411.293 957.657 408.203 957.222L405.826 956.888C402.737 956.454 400.839 957.884 400.405 960.974L400.238 962.162C399.152 969.886 394.409 973.461 386.685 972.375L360.542 968.701C352.818 967.615 349.243 962.872 350.328 955.148L351.164 949.206C352.249 941.482 356.993 937.907 364.717 938.993L440.769 949.681C456.218 951.853 463.367 961.34 461.196 976.788L460.862 979.165C458.691 994.613 449.203 1001.76 433.755 999.591L426.625 998.589C423.536 998.155 421.638 999.585 421.204 1002.67C420.235 1009.57 415.542 1012.78 407.818 1011.7L381.674 1008.02ZM366.451 1030.12L368.121 1018.24C368.656 1014.44 371.095 1012.6 374.898 1013.13L412.924 1018.48C416.727 1019.01 418.565 1021.45 418.031 1025.25L416.361 1037.14C415.826 1040.94 413.387 1042.78 409.584 1042.24L371.558 1036.9C367.755 1036.36 365.917 1033.92 366.451 1030.12Z" fill="white" fill-opacity="0.2"/>
<path d="M560.914 1033.21C553.19 1032.13 549.615 1027.39 550.701 1019.66L551.202 1016.1C552.287 1008.37 557.031 1004.8 564.755 1005.88L583.768 1008.56C586.858 1008.99 588.755 1007.56 589.189 1004.47L591.527 987.833C591.962 984.744 590.532 982.846 587.442 982.412L585.066 982.078C581.976 981.644 580.078 983.074 579.644 986.163L579.477 987.352C578.392 995.076 573.648 998.65 565.924 997.565L539.781 993.89C532.057 992.805 528.482 988.061 529.568 980.337L530.403 974.396C531.488 966.671 536.232 963.097 543.956 964.182L620.009 974.871C635.457 977.042 642.606 986.529 640.435 1001.98L640.101 1004.35C637.93 1019.8 628.443 1026.95 612.994 1024.78L605.864 1023.78C602.775 1023.34 600.877 1024.77 600.443 1027.86C599.474 1034.76 594.781 1037.97 587.057 1036.89L560.914 1033.21ZM545.69 1055.31L547.36 1043.43C547.895 1039.62 550.334 1037.79 554.137 1038.32L592.163 1043.67C595.966 1044.2 597.804 1046.64 597.27 1050.44L595.6 1062.32C595.065 1066.13 592.626 1067.97 588.823 1067.43L550.797 1062.09C546.994 1061.55 545.156 1059.11 545.69 1055.31Z" fill="white" fill-opacity="0.2"/>
<path d="M740.152 1058.4C732.428 1057.32 728.853 1052.58 729.939 1044.85L730.44 1041.29C731.525 1033.56 736.269 1029.99 743.993 1031.07L763.006 1033.75C766.096 1034.18 767.993 1032.75 768.428 1029.66L770.766 1013.02C771.2 1009.93 769.77 1008.04 766.681 1007.6L764.304 1007.27C761.214 1006.83 759.317 1008.26 758.883 1011.35L758.716 1012.54C757.63 1020.27 752.886 1023.84 745.162 1022.76L719.019 1019.08C711.295 1018 707.72 1013.25 708.806 1005.53L709.641 999.586C710.727 991.862 715.47 988.287 723.194 989.373L799.247 1000.06C814.695 1002.23 821.844 1011.72 819.673 1027.17L819.339 1029.54C817.168 1044.99 807.681 1052.14 792.233 1049.97L785.103 1048.97C782.013 1048.53 780.116 1049.96 779.681 1053.05C778.713 1059.95 774.019 1063.16 766.295 1062.08L740.152 1058.4ZM724.929 1080.5L726.599 1068.62C727.133 1064.82 729.573 1062.98 733.375 1063.51L771.402 1068.86C775.204 1069.39 777.043 1071.83 776.508 1075.63L774.838 1087.52C774.304 1091.32 771.864 1093.16 768.062 1092.62L730.035 1087.28C726.233 1086.74 724.394 1084.3 724.929 1080.5Z" fill="white" fill-opacity="0.2"/>
<path d="M919.39 1083.6C911.666 1082.51 908.092 1077.77 909.177 1070.04L909.678 1066.48C910.764 1058.75 915.507 1055.18 923.231 1056.26L942.245 1058.94C945.334 1059.37 947.232 1057.94 947.666 1054.85L950.004 1038.21C950.438 1035.12 949.008 1033.23 945.919 1032.79L943.542 1032.46C940.453 1032.02 938.555 1033.45 938.121 1036.54L937.954 1037.73C936.868 1045.46 932.125 1049.03 924.401 1047.95L898.257 1044.27C890.533 1043.19 886.959 1038.44 888.044 1030.72L888.879 1024.78C889.965 1017.05 894.709 1013.48 902.433 1014.56L978.485 1025.25C993.933 1027.42 1001.08 1036.91 998.912 1052.36L998.577 1054.74C996.406 1070.18 986.919 1077.33 971.471 1075.16L964.341 1074.16C961.251 1073.73 959.354 1075.15 958.92 1078.24C957.951 1085.14 953.257 1088.35 945.533 1087.27L919.39 1083.6ZM904.167 1105.69L905.837 1093.81C906.371 1090.01 908.811 1088.17 912.614 1088.7L950.64 1094.05C954.443 1094.58 956.281 1097.02 955.747 1100.82L954.076 1112.71C953.542 1116.51 951.102 1118.35 947.3 1117.81L909.273 1112.47C905.471 1111.93 903.632 1109.49 904.167 1105.69Z" fill="white" fill-opacity="0.2"/>
<path d="M1098.63 1108.79C1090.9 1107.7 1087.33 1102.96 1088.42 1095.23L1088.92 1091.67C1090 1083.94 1094.75 1080.37 1102.47 1081.45L1121.48 1084.13C1124.57 1084.56 1126.47 1083.13 1126.9 1080.04L1129.24 1063.4C1129.68 1060.31 1128.25 1058.42 1125.16 1057.98L1122.78 1057.65C1119.69 1057.21 1117.79 1058.64 1117.36 1061.73L1117.19 1062.92C1116.11 1070.65 1111.36 1074.22 1103.64 1073.14L1077.5 1069.46C1069.77 1068.38 1066.2 1063.63 1067.28 1055.91L1068.12 1049.97C1069.2 1042.24 1073.95 1038.67 1081.67 1039.75L1157.72 1050.44C1173.17 1052.61 1180.32 1062.1 1178.15 1077.55L1177.82 1079.93C1175.64 1095.37 1166.16 1102.52 1150.71 1100.35L1143.58 1099.35C1140.49 1098.92 1138.59 1100.35 1138.16 1103.43C1137.19 1110.33 1132.5 1113.55 1124.77 1112.46L1098.63 1108.79ZM1083.41 1130.88L1085.08 1119C1085.61 1115.2 1088.05 1113.36 1091.85 1113.89L1129.88 1119.24C1133.68 1119.77 1135.52 1122.21 1134.98 1126.01L1133.31 1137.9C1132.78 1141.7 1130.34 1143.54 1126.54 1143L1088.51 1137.66C1084.71 1137.12 1082.87 1134.68 1083.41 1130.88Z" fill="white" fill-opacity="0.2"/>
<path d="M1277.87 1133.98C1270.14 1132.89 1266.57 1128.15 1267.65 1120.42L1268.16 1116.86C1269.24 1109.13 1273.98 1105.56 1281.71 1106.64L1300.72 1109.32C1303.81 1109.75 1305.71 1108.32 1306.14 1105.23L1308.48 1088.59C1308.92 1085.51 1307.49 1083.61 1304.4 1083.17L1302.02 1082.84C1298.93 1082.41 1297.03 1083.84 1296.6 1086.92L1296.43 1088.11C1295.35 1095.84 1290.6 1099.41 1282.88 1098.33L1256.73 1094.65C1249.01 1093.57 1245.44 1088.82 1246.52 1081.1L1247.36 1075.16C1248.44 1067.43 1253.19 1063.86 1260.91 1064.94L1336.96 1075.63C1352.41 1077.8 1359.56 1087.29 1357.39 1102.74L1357.06 1105.12C1354.88 1120.56 1345.4 1127.71 1329.95 1125.54L1322.82 1124.54C1319.73 1124.11 1317.83 1125.54 1317.4 1128.63C1316.43 1135.52 1311.73 1138.74 1304.01 1137.65L1277.87 1133.98ZM1262.64 1156.07L1264.31 1144.19C1264.85 1140.39 1267.29 1138.55 1271.09 1139.08L1309.12 1144.43C1312.92 1144.96 1314.76 1147.4 1314.22 1151.2L1312.55 1163.09C1312.02 1166.89 1309.58 1168.73 1305.78 1168.19L1267.75 1162.85C1263.95 1162.31 1262.11 1159.88 1262.64 1156.07Z" fill="white" fill-opacity="0.2"/>
<path d="M-11.3167 1203.23C-19.0408 1202.14 -22.6154 1197.4 -21.5299 1189.68L-21.0289 1186.11C-19.9433 1178.39 -15.1997 1174.81 -7.47557 1175.9L11.5376 1178.57C14.6272 1179 16.5247 1177.58 16.9589 1174.49L19.297 1157.85C19.7312 1154.76 18.3014 1152.86 15.2118 1152.43L12.8351 1152.09C9.74547 1151.66 7.84801 1153.09 7.41379 1156.18L7.24678 1157.37C6.16123 1165.09 1.41758 1168.67 -6.30652 1167.58L-32.4496 1163.91C-40.1737 1162.82 -43.7483 1158.08 -42.6627 1150.35L-41.8277 1144.41C-40.7421 1136.69 -35.9985 1133.11 -28.2744 1134.2L47.7782 1144.89C63.2264 1147.06 70.3756 1156.54 68.2045 1171.99L67.8705 1174.37C65.6994 1189.82 56.212 1196.97 40.7639 1194.8L33.6339 1193.79C30.5443 1193.36 28.6468 1194.79 28.2126 1197.88C27.244 1204.77 22.5504 1207.99 14.8263 1206.9L-11.3167 1203.23ZM-26.5401 1225.33L-24.87 1213.44C-24.3356 1209.64 -21.896 1207.8 -18.0934 1208.34L19.9329 1213.68C23.7355 1214.22 25.5739 1216.65 25.0395 1220.46L23.3694 1232.34C22.835 1236.14 20.3954 1237.98 16.5928 1237.45L-21.4335 1232.1C-25.2362 1231.57 -27.0745 1229.13 -26.5401 1225.33Z" fill="white" fill-opacity="0.2"/>
<path d="M167.922 1228.42C160.197 1227.33 156.623 1222.59 157.708 1214.87L158.209 1211.3C159.295 1203.58 164.039 1200 171.763 1201.09L190.776 1203.76C193.866 1204.2 195.763 1202.77 196.197 1199.68L198.535 1183.04C198.97 1179.95 197.54 1178.05 194.45 1177.62L192.073 1177.28C188.984 1176.85 187.086 1178.28 186.652 1181.37L186.485 1182.56C185.4 1190.28 180.656 1193.86 172.932 1192.77L146.789 1189.1C139.065 1188.01 135.49 1183.27 136.576 1175.54L137.411 1169.6C138.496 1161.88 143.24 1158.3 150.964 1159.39L227.016 1170.08C242.465 1172.25 249.614 1181.74 247.443 1197.18L247.109 1199.56C244.938 1215.01 235.45 1222.16 220.002 1219.99L212.872 1218.98C209.783 1218.55 207.885 1219.98 207.451 1223.07C206.482 1229.96 201.789 1233.18 194.065 1232.09L167.922 1228.42ZM152.698 1250.52L154.368 1238.63C154.903 1234.83 157.342 1232.99 161.145 1233.53L199.171 1238.87C202.974 1239.41 204.812 1241.85 204.278 1245.65L202.608 1257.53C202.073 1261.33 199.634 1263.17 195.831 1262.64L157.805 1257.29C154.002 1256.76 152.164 1254.32 152.698 1250.52Z" fill="white" fill-opacity="0.2"/>
<path d="M347.16 1253.61C339.436 1252.53 335.861 1247.78 336.947 1240.06L337.448 1236.49C338.533 1228.77 343.277 1225.19 351.001 1226.28L370.014 1228.95C373.104 1229.39 375.001 1227.96 375.435 1224.87L377.774 1208.23C378.208 1205.14 376.778 1203.24 373.688 1202.81L371.312 1202.47C368.222 1202.04 366.325 1203.47 365.89 1206.56L365.723 1207.75C364.638 1215.47 359.894 1219.05 352.17 1217.96L326.027 1214.29C318.303 1213.2 314.728 1208.46 315.814 1200.73L316.649 1194.79C317.734 1187.07 322.478 1183.49 330.202 1184.58L406.255 1195.27C421.703 1197.44 428.852 1206.93 426.681 1222.37L426.347 1224.75C424.176 1240.2 414.689 1247.35 399.24 1245.18L392.11 1244.17C389.021 1243.74 387.123 1245.17 386.689 1248.26C385.721 1255.15 381.027 1258.37 373.303 1257.28L347.16 1253.61ZM331.936 1275.71L333.607 1263.82C334.141 1260.02 336.581 1258.18 340.383 1258.72L378.409 1264.06C382.212 1264.6 384.05 1267.04 383.516 1270.84L381.846 1282.72C381.312 1286.52 378.872 1288.36 375.069 1287.83L337.043 1282.48C333.24 1281.95 331.402 1279.51 331.936 1275.71Z" fill="white" fill-opacity="0.2"/>
<path d="M526.398 1278.8C518.674 1277.72 515.099 1272.97 516.185 1265.25L516.686 1261.68C517.772 1253.96 522.515 1250.38 530.239 1251.47L549.252 1254.14C552.342 1254.58 554.24 1253.15 554.674 1250.06L557.012 1233.42C557.446 1230.33 556.016 1228.43 552.927 1228L550.55 1227.66C547.46 1227.23 545.563 1228.66 545.129 1231.75L544.962 1232.94C543.876 1240.66 539.132 1244.24 531.408 1243.15L505.265 1239.48C497.541 1238.39 493.967 1233.65 495.052 1225.92L495.887 1219.98C496.973 1212.26 501.716 1208.68 509.44 1209.77L585.493 1220.46C600.941 1222.63 608.09 1232.12 605.919 1247.56L605.585 1249.94C603.414 1265.39 593.927 1272.54 578.479 1270.37L571.349 1269.37C568.259 1268.93 566.362 1270.36 565.927 1273.45C564.959 1280.34 560.265 1283.56 552.541 1282.48L526.398 1278.8ZM511.175 1300.9L512.845 1289.01C513.379 1285.21 515.819 1283.37 519.621 1283.91L557.648 1289.25C561.45 1289.79 563.289 1292.23 562.754 1296.03L561.084 1307.91C560.55 1311.71 558.11 1313.55 554.308 1313.02L516.281 1307.67C512.479 1307.14 510.64 1304.7 511.175 1300.9Z" fill="white" fill-opacity="0.2"/>
<path d="M705.637 1303.99C697.913 1302.91 694.339 1298.16 695.424 1290.44L695.925 1286.87C697.011 1279.15 701.754 1275.57 709.479 1276.66L728.492 1279.33C731.581 1279.77 733.479 1278.34 733.913 1275.25L736.251 1258.61C736.685 1255.52 735.255 1253.62 732.166 1253.19L729.789 1252.86C726.7 1252.42 724.802 1253.85 724.368 1256.94L724.201 1258.13C723.115 1265.85 718.372 1269.43 710.648 1268.34L684.505 1264.67C676.78 1263.58 673.206 1258.84 674.291 1251.11L675.126 1245.17C676.212 1237.45 680.956 1233.87 688.68 1234.96L764.732 1245.65C780.18 1247.82 787.33 1257.31 785.159 1272.75L784.825 1275.13C782.653 1290.58 773.166 1297.73 757.718 1295.56L750.588 1294.56C747.498 1294.12 745.601 1295.55 745.167 1298.64C744.198 1305.53 739.505 1308.75 731.78 1307.67L705.637 1303.99ZM690.414 1326.09L692.084 1314.2C692.618 1310.4 695.058 1308.56 698.861 1309.1L736.887 1314.44C740.69 1314.98 742.528 1317.42 741.994 1321.22L740.324 1333.1C739.789 1336.9 737.349 1338.74 733.547 1338.21L695.521 1332.86C691.718 1332.33 689.88 1329.89 690.414 1326.09Z" fill="white" fill-opacity="0.2"/>
<path d="M884.876 1329.18C877.152 1328.1 873.577 1323.35 874.662 1315.63L875.164 1312.06C876.249 1304.34 880.993 1300.77 888.717 1301.85L907.73 1304.52C910.82 1304.96 912.717 1303.53 913.151 1300.44L915.489 1283.8C915.924 1280.71 914.494 1278.81 911.404 1278.38L909.027 1278.05C905.938 1277.61 904.04 1279.04 903.606 1282.13L903.439 1283.32C902.354 1291.04 897.61 1294.62 889.886 1293.53L863.743 1289.86C856.019 1288.77 852.444 1284.03 853.53 1276.3L854.365 1270.36C855.45 1262.64 860.194 1259.06 867.918 1260.15L943.971 1270.84C959.419 1273.01 966.568 1282.5 964.397 1297.95L964.063 1300.32C961.892 1315.77 952.404 1322.92 936.956 1320.75L929.826 1319.75C926.737 1319.31 924.839 1320.74 924.405 1323.83C923.436 1330.72 918.743 1333.94 911.019 1332.86L884.876 1329.18ZM869.652 1351.28L871.322 1339.4C871.857 1335.59 874.296 1333.75 878.099 1334.29L916.125 1339.63C919.928 1340.17 921.766 1342.61 921.232 1346.41L919.562 1358.29C919.027 1362.1 916.588 1363.93 912.785 1363.4L874.759 1358.06C870.956 1357.52 869.118 1355.08 869.652 1351.28Z" fill="white" fill-opacity="0.2"/>
<path d="M1064.11 1354.37C1056.39 1353.29 1052.82 1348.54 1053.9 1340.82L1054.4 1337.25C1055.49 1329.53 1060.23 1325.96 1067.96 1327.04L1086.97 1329.71C1090.06 1330.15 1091.96 1328.72 1092.39 1325.63L1094.73 1308.99C1095.16 1305.9 1093.73 1304 1090.64 1303.57L1088.27 1303.24C1085.18 1302.8 1083.28 1304.23 1082.84 1307.32L1082.68 1308.51C1081.59 1316.23 1076.85 1319.81 1069.12 1318.72L1042.98 1315.05C1035.26 1313.96 1031.68 1309.22 1032.77 1301.5L1033.6 1295.55C1034.69 1287.83 1039.43 1284.26 1047.16 1285.34L1123.21 1296.03C1138.66 1298.2 1145.81 1307.69 1143.64 1323.14L1143.3 1325.51C1141.13 1340.96 1131.64 1348.11 1116.19 1345.94L1109.06 1344.94C1105.97 1344.5 1104.08 1345.93 1103.64 1349.02C1102.67 1355.91 1097.98 1359.13 1090.26 1358.05L1064.11 1354.37ZM1048.89 1376.47L1050.56 1364.59C1051.1 1360.78 1053.53 1358.94 1057.34 1359.48L1095.36 1364.82C1099.17 1365.36 1101 1367.8 1100.47 1371.6L1098.8 1383.48C1098.27 1387.29 1095.83 1389.12 1092.02 1388.59L1054 1383.25C1050.19 1382.71 1048.36 1380.27 1048.89 1376.47Z" fill="white" fill-opacity="0.2"/>
<path d="M1243.35 1379.56C1235.63 1378.48 1232.05 1373.73 1233.14 1366.01L1233.64 1362.44C1234.73 1354.72 1239.47 1351.15 1247.19 1352.23L1266.21 1354.9C1269.3 1355.34 1271.19 1353.91 1271.63 1350.82L1273.97 1334.18C1274.4 1331.09 1272.97 1329.19 1269.88 1328.76L1267.5 1328.43C1264.41 1327.99 1262.52 1329.42 1262.08 1332.51L1261.92 1333.7C1260.83 1341.42 1256.09 1345 1248.36 1343.91L1222.22 1340.24C1214.5 1339.15 1210.92 1334.41 1212.01 1326.69L1212.84 1320.74C1213.93 1313.02 1218.67 1309.45 1226.39 1310.53L1302.45 1321.22C1317.9 1323.39 1325.04 1332.88 1322.87 1348.33L1322.54 1350.7C1320.37 1366.15 1310.88 1373.3 1295.43 1371.13L1288.3 1370.13C1285.21 1369.69 1283.32 1371.12 1282.88 1374.21C1281.91 1381.1 1277.22 1384.32 1269.5 1383.24L1243.35 1379.56ZM1228.13 1401.66L1229.8 1389.78C1230.33 1385.97 1232.77 1384.14 1236.58 1384.67L1274.6 1390.01C1278.4 1390.55 1280.24 1392.99 1279.71 1396.79L1278.04 1408.67C1277.5 1412.48 1275.06 1414.31 1271.26 1413.78L1233.24 1408.44C1229.43 1407.9 1227.59 1405.46 1228.13 1401.66Z" fill="white" fill-opacity="0.2"/>
</svg>
