<svg width="627" height="413" viewBox="0 0 627 413" fill="none" xmlns="http://www.w3.org/2000/svg">
<path d="M575.739 406.726H51.0586C36.2175 406.726 24.1875 393.937 24.1875 378.156V28.5745C24.1875 12.7937 36.2175 0 51.0586 0H575.739C590.578 0 602.608 12.7937 602.608 28.5745V378.156C602.608 393.937 590.578 406.726 575.739 406.726Z" fill="#FF9737"/>
<path d="M585.464 359.631H39.7148V16.1611H585.464V359.631Z" fill="#E0E0E0"/>
<path d="M593.847 412.229H32.827C14.6971 412.229 0 396.603 0 377.323V376.643H626.674V377.323C626.674 396.603 611.976 412.229 593.847 412.229Z" fill="#FF9737"/>
<path d="M256.379 376.641L264.154 389.793H373.578L380.801 376.641H256.379Z" fill="#D26009"/>
<path d="M602.61 378.878H313.4H24.1895V376.917H602.61V378.878Z" fill="#4B5862"/>
<rect x="40" y="16" width="545" height="344" fill="black"/>
</svg>
