<?xml version="1.0" encoding="UTF-8"?>
<!-- Generator: Blender, SVG Export for Grease Pencil - v1.0 -->
<!DOCTYPE svg PUBLIC "-//W3C//DTD SVG 1.1//EN" "http://www.w3.org/Graphics/SVG/1.1/DTD/svg11.dtd">
<svg version="1.0" x="0px" y="0px" xmlns="http://www.w3.org/2000/svg" width="1920px" height="1080px" viewBox="0 0 1920 1080">
	<g id="blender_frame_1">
		<g id="blender_object_Stroke">
			<!--Layer: Fills-->
			<g id="Fills">
				<polygon stroke="#000000" stroke-opacity="1" fill="none" stroke-linecap="round" stroke-width="4.66662598" points="937.503906,351.252075 938.896057,351.527771 941.680359,352.737671 944.464661,354.120544 947.248962,355.512207 950.033264,357.278809 952.817566,358.859741 955.601868,361.389343 958.386169,364.160767 960.812073,366.944458 962.638916,369.728760 964.222778,372.513000 966.394165,375.297302 967.833740,378.081604 969.228149,380.865906 970.620361,383.650146 972.028564,386.434509 972.652039,389.218750 973.622803,392.003052 974.823853,394.787354 975.436829,397.571594 976.423218,400.355896 976.839539,403.140198 977.815918,405.924500 977.873291,408.708801 978.234558,411.493042 979.208252,414.277405 979.265442,417.061646 979.268311,419.845886 979.268433,422.630249 979.268433,425.414490 979.268433,428.198792 979.268433,430.983093 979.268433,433.767395 979.268433,436.551636 979.268433,439.335938 979.268433,442.120239 979.268433,444.904541 978.909973,447.688843 977.936462,450.473083 977.879211,453.257385 977.517944,456.041687 976.544250,458.825928 976.128601,461.610291 975.152344,464.394531 974.736450,467.178772 973.776184,469.963135 972.591675,472.747375 971.194031,475.531738 970.571167,478.315979 969.225891,481.100220 967.852051,483.884583 965.691284,486.668823 963.877808,489.453125 962.294556,492.237427 959.764832,495.021667 956.993347,497.805969 954.209717,500.590271 951.425415,503.390625 948.641113,505.047791 945.856812,506.453308 943.072510,507.846069 940.288208,509.238281 937.503906,510.271973 934.719604,510.332214 931.935303,510.335083 929.151001,510.335266 926.366699,510.335327 923.582458,510.335327 920.798157,510.335327 918.013794,509.976868 915.229492,508.644958 912.445190,507.630127 909.660950,506.068604 906.876648,504.498047 904.092346,501.968933 901.308044,499.197510 898.523682,496.413818 895.723389,493.629517 894.082214,490.845276 891.908081,488.060974 890.093933,485.276672 888.494629,482.492432 887.466431,479.708130 886.278564,476.923828 884.896851,474.139526 883.489136,471.355225 882.865662,468.570923 881.878845,465.786682 881.462524,463.002380 880.486145,460.218079 880.070312,457.433838 879.093994,454.649536 879.036621,451.865234 878.675354,449.080994 877.701721,446.296631 877.644409,443.512390 877.641602,440.728027 877.641479,437.943787 877.641479,435.159546 877.641479,432.375183 877.641479,429.590942 877.641479,426.806641 877.641479,424.022339 877.641479,421.238098 877.641479,418.453796 877.625488,415.669495 878.768555,412.885193 879.020264,410.100891 879.016968,407.316650 880.160706,404.532349 880.412476,401.748047 880.783569,398.963745 881.741638,396.179504 882.942139,393.395203 883.554993,390.610901 884.525330,387.826660 885.710327,385.042297 887.091980,382.258057 888.483643,379.473755 889.875732,376.689453 891.642334,373.905212 893.223267,371.120850 895.394470,368.336609 897.192505,365.552368 899.918884,362.768005 902.700317,359.967712 905.484497,358.326538 908.268738,356.152344 911.053101,354.712708 913.837402,353.318237 916.621704,351.909973 919.406006,351.286499 922.190247,350.299622 924.974548,350.241699 927.758850,350.238831 930.543213,350.238708 933.343506,350.222656 934.984680,350.995728 936.171997,350.701294" />
				<polygon fill="#000000" stroke="none" fill-opacity="1" points="935.483032,351.102844 936.629944,351.343201 938.923706,351.706665 941.217468,352.498779 943.511230,353.474670 945.804993,354.612854 948.098694,356.067810 950.392456,357.370239 952.686279,359.454163 954.979980,361.750610 956.978455,363.102112 958.470215,365.188416 960.716858,367.471741 962.713074,369.765015 964.217834,372.058777 965.535828,374.352539 966.691467,376.646240 967.838745,378.940002 968.985657,381.233826 970.132507,383.527527 971.279419,385.821289 972.117798,388.115112 973.109192,390.408813 973.614258,392.702576 974.413574,394.996277 975.402954,397.290100 975.599426,399.583862 976.551819,401.877625 976.746460,404.171387 977.698608,406.465149 977.906555,408.758850 977.903809,411.052673 978.846008,413.346436 979.053467,415.640137 979.063904,417.933899 979.064392,420.227722 979.064453,422.521423 979.064453,424.815186 979.064453,427.108887 979.064453,429.402710 979.064453,431.696472 979.064453,433.990234 979.064453,436.283997 979.064453,438.577759 979.064453,440.871460 979.064453,443.165283 979.064453,445.459045 978.769226,447.752747 977.967224,450.046570 977.919983,452.340332 977.622437,454.634033 976.820312,456.927795 976.477905,459.221558 975.673462,461.515320 975.330933,463.809082 974.526672,466.102844 974.184021,468.396606 973.084473,470.690369 972.248413,472.984131 971.270386,475.277893 970.118896,477.571655 969.618896,479.865417 967.877441,482.159180 966.693787,484.452881 965.545105,486.746643 964.089661,489.040466 962.787231,491.334167 960.703247,493.627930 958.715332,495.921753 957.224121,498.215454 954.977600,500.522400 952.686157,501.874451 950.392456,503.974121 948.098694,505.328796 945.804993,506.486206 943.511230,507.633545 941.217468,508.780518 938.923706,509.632080 936.629944,509.681702 934.336182,509.684143 932.042419,509.684265 929.748657,509.684265 927.454895,509.684265 925.161133,509.684265 922.867432,509.684265 920.573608,509.684265 918.279907,509.697510 915.986145,508.768982 913.692383,507.633057 911.398621,506.486694 909.104858,505.339844 906.811096,503.884521 904.517334,502.582092 902.223572,500.498169 899.929871,498.214966 897.622864,495.921692 896.270813,493.627930 894.171265,491.334167 892.816406,489.040466 891.672302,486.746643 889.891663,484.452881 888.706116,482.159180 887.557373,479.865417 886.397217,477.571655 885.883606,475.277893 884.775269,472.984131 883.938782,470.690369 882.947571,468.396606 882.442505,466.102844 881.629944,463.809082 881.286987,461.515320 880.482605,459.221558 880.140015,456.927795 879.335754,454.634033 879.288452,452.340332 878.990906,450.046570 878.188782,447.752747 878.141541,445.459045 878.139282,443.165283 878.139160,440.871460 878.139160,438.577759 878.139160,436.283997 878.139160,433.990234 878.139160,431.696472 878.139160,429.402710 878.139160,427.108887 878.139160,424.815186 878.139160,422.521423 878.139160,420.227722 878.139160,417.933899 878.139160,415.640137 878.434387,413.346436 879.236389,411.052673 879.283630,408.758850 879.272705,406.465149 880.214539,404.171387 880.408691,401.877625 881.360901,399.583862 881.555542,397.290100 882.507751,394.996277 883.010925,392.702576 883.810181,390.408813 884.786377,388.115112 885.937866,385.821289 886.450989,383.527527 887.559265,381.233826 888.704224,378.940002 889.837830,376.646240 891.617920,374.352539 893.111938,372.058777 894.416260,369.764954 896.513489,367.471252 897.854980,365.177429 899.940857,362.883667 902.224121,360.576782 904.517395,359.224731 906.811096,357.125122 909.104858,355.770325 911.398621,354.612976 913.692383,353.465576 915.986145,352.627136 918.279907,351.635803 920.573608,351.439209 922.867432,350.486938 925.161133,350.278992 927.454895,350.268555 929.748657,350.268066 932.055664,350.254822 933.407654,350.891663 934.385803,350.648987" />
				<polygon fill="#000000" stroke="none" fill-opacity="1" points="812.925354,345.915955 814.258911,346.180054 816.926208,347.354492 819.593445,347.927490 822.260742,349.952209 824.928040,351.687195 827.595276,353.203796 830.262573,355.627258 832.929810,358.282227 835.253723,360.948914 836.988403,363.616211 839.257446,366.283508 840.646057,368.950806 841.982422,371.618042 843.316162,374.285339 844.649780,376.952637 845.983398,379.619934 847.332397,382.287231 847.929688,384.954529 848.859680,387.621704 850.010254,390.289001 850.238770,392.956299 851.346130,395.623596 851.572510,398.290894 852.679749,400.958191 852.921448,403.625488 852.933655,406.292725 853.277588,408.960022 854.210266,411.627319 854.265137,414.294617 854.267822,416.961914 854.252563,419.629150 855.675598,421.625183 858.272461,421.004150 860.936279,420.964844 863.603394,420.962952 866.270630,420.962830 868.937866,420.962830 871.605164,420.962830 874.272400,420.962830 876.611694,421.290833 876.923340,423.646484 876.938904,426.298218 876.596313,428.964722 875.679077,431.647339 874.201111,432.891541 871.601685,432.618652 868.937683,431.689514 866.270630,431.634766 863.603333,431.632080 860.936096,431.975342 858.268860,432.907959 855.601562,432.962830 852.934265,432.965454 850.267029,432.965637 847.599731,432.965637 844.932495,432.950256 842.265259,434.045349 839.597961,434.286499 836.930664,434.298584 834.263428,434.283875 831.596130,435.378967 828.928894,435.604736 826.261658,436.712036 823.594360,437.297119 820.927124,438.585205 818.259827,439.916626 815.592529,441.250183 812.925354,442.568481 810.258057,444.981812 807.590820,447.636292 804.908203,450.303040 803.320618,452.970276 801.974182,455.637573 800.983337,458.304871 801.268921,460.972168 802.183350,463.639404 803.661133,466.306702 806.260559,468.973938 808.924622,471.297913 811.591675,472.689270 814.258911,474.384399 816.926208,475.571106 819.593445,475.654114 822.260742,474.562317 824.928040,474.321289 827.595276,474.309143 830.262573,473.965271 832.929810,473.032593 835.597046,472.634338 838.264343,471.699097 840.931580,471.644104 843.270874,471.969360 843.597839,474.324890 842.533691,476.976624 841.213562,479.643127 839.521912,482.310364 838.007446,484.977661 835.568787,487.644958 834.008911,490.312256 831.583313,492.979553 828.928284,495.303467 826.261597,497.038147 823.594360,499.307251 820.927124,500.695923 818.259827,502.032227 815.592529,503.381348 812.925354,503.978577 810.258057,504.923950 807.590820,504.979492 804.923523,504.982178 802.256226,504.982300 799.588989,504.982361 796.921753,504.997681 794.254456,503.902649 791.587219,503.676819 788.919922,502.584900 786.252625,501.263489 783.585388,499.571777 780.918091,498.057251 778.250854,495.633911 775.583618,492.978943 772.916321,490.312195 770.233704,487.644958 768.661560,484.977661 766.578735,482.310364 765.199585,479.643066 763.863708,476.975830 762.529968,474.308533 761.196350,471.641235 759.862671,468.973938 758.513733,466.306702 757.916443,463.639404 756.971069,460.972168 756.572205,458.304871 755.636963,455.637573 755.238586,452.970276 754.303284,450.302979 754.263672,447.635681 753.165894,444.968445 752.924683,442.301147 752.912476,439.633850 752.911865,436.966553 752.568481,434.299255 751.635864,431.631958 751.580994,428.964661 751.578369,426.297424 751.578186,423.630127 751.578186,420.962830 751.578186,418.295532 751.921509,415.628235 752.854126,412.960999 752.909058,410.293640 752.911743,407.626404 753.255127,404.959106 754.187805,402.291809 754.242676,399.624512 754.588684,396.957214 755.521423,394.289978 755.919617,391.622681 756.839539,388.955383 757.989624,386.288086 758.576843,383.620850 759.865051,380.953552 760.837708,378.286255 761.975037,375.619019 763.298706,372.951721 764.990540,370.284424 766.505005,367.617126 768.585022,364.949829 770.307373,362.282532 772.575806,359.615234 774.307739,356.947998 776.920044,354.624023 779.584656,352.889343 782.251709,350.620239 784.919006,349.231689 787.586304,347.895264 790.253540,346.546143 792.920837,345.948914 795.588135,345.003540 798.255371,344.947998 800.922607,344.945312 803.589905,344.945190 806.257141,344.945190 808.939758,344.929810 810.511963,345.670349 811.649353,345.388245" />
			</g>
			<!--Layer: Lines-->
			<g id="Lines">
				<polyline stroke="#000000" stroke-opacity="0.892988503" fill="none" stroke-linecap="round" stroke-width="4.66662598" points="708.718994,397.100586 707.418823,396.059326 702.301941,397.332275 699.565063,396.318909 696.763245,395.480103 709.111633,397.480347 691.012939,394.340393 688.089050,394.044250 685.149536,393.932434 682.206604,394.005615 679.273132,394.263306 676.361572,394.704529 673.484375,395.327332 670.653992,396.129028 667.882446,397.106201 665.181519,398.254761 662.562988,399.569702 660.037964,401.045288 657.617249,402.675476 655.311157,404.453003 653.129517,406.370422 651.081970,408.419495 649.176941,410.591431 647.422791,412.876953 645.826843,415.266235 644.396240,417.749023 643.136780,420.314819 642.054077,422.952454 641.152710,425.650757 640.436462,428.398132 639.908508,431.182739 639.571045,433.992859 639.425476,436.816284 639.472534,439.640930 639.711914,442.454834" />
				<polyline stroke="#000000" stroke-opacity="0.998689651" fill="none" stroke-linecap="round" stroke-width="4.66687012" points="1032.164551,419.420227 1029.537109,405.296509 1026.180664,391.469116 1022.109924,377.997253 1015.511169,363.107544" />
				<polyline stroke="#000000" stroke-opacity="1" fill="none" stroke-linecap="round" stroke-width="4.66674805" points="865.851746,255.670044 854.649170,256.869629 843.495178,258.997742 832.437500,262.045166 821.523438,265.998718 810.799805,270.841797 800.312378,276.553284 790.106323,283.109070 780.225098,290.480835 770.711121,298.637085 761.605103,307.542908 752.946167,317.160156 744.771179,327.447754 737.115295,338.361450 730.011230,349.854675 723.489441,361.878052 717.577881,374.380249 707.099060,397.322815" />
				<polyline stroke="#000000" stroke-opacity="0.978878677" fill="none" stroke-linecap="round" stroke-width="4.66662598" points="638.205994,444.209412 635.613464,444.267578 632.974915,444.498535 630.301758,444.901062 627.605469,445.473572 624.897400,446.213501 622.189270,447.117737 619.492615,448.182495 616.819153,449.403015 614.180176,450.774231 611.587036,452.290283 609.050781,453.944580 606.582397,455.730042 604.192322,457.639099 601.890808,459.663635 599.687805,461.794739 597.592712,464.023499 595.614380,466.340393 593.761475,468.735352 592.041748,471.198059 590.462708,473.718201 589.031067,476.284851 587.752869,478.887085 586.633667,481.513733 585.678284,484.153442 584.890808,486.795044" />
				<polyline stroke="#000000" stroke-opacity="0.922868967" fill="none" stroke-linecap="round" stroke-width="4.66674805" points="1030.095459,424.346375 1032.435791,422.500793 1031.750000,422.771973 1047.575195,419.641235 1050.541870,419.041626 1053.542480,418.629272 1056.564209,418.405823 1059.593872,418.372314 1062.618652,418.528992 1065.625488,418.875061 1068.601685,419.409058 1071.534302,420.128723 1074.411011,421.031067 1077.219360,422.112000 1079.947266,423.367126 1082.583008,424.790833 1085.115479,426.377258 1087.533813,428.119507 1089.827515,430.010071 1091.986938,432.040894 1094.002686,434.203308 1095.866089,436.488037 1097.569458,438.885315 1099.104980,441.384827 1100.466675,443.975952 1101.648438,446.647461 1102.645020,449.388000 1103.452515,452.185852 1104.067139,455.029053 1104.486572,457.905273 1104.708740,460.802429" />
				<polyline stroke="#000000" stroke-opacity="0.978878677" fill="none" stroke-linecap="round" stroke-width="4.66674805" points="1106.528320,462.335205 1109.170654,461.965576 1111.888306,461.763672 1114.669434,461.730347 1117.502441,461.865845 1120.374756,462.169434 1123.274414,462.639771 1126.189087,463.275085 1129.105713,464.072449 1132.012451,465.028564 1134.896484,466.139221 1137.745728,467.399780 1140.547729,468.804749 1143.290527,470.348145 1145.962524,472.023438 1148.552124,473.823303 1151.048340,475.740173 1153.440552,477.765747 1155.718262,479.891418 1157.872070,482.107971 1159.892212,484.406128 1161.770508,486.775818 1163.498901,489.206970 1165.069824,491.689270 1164.497437,492.851074 1165.699463,495.331787" />
				<polyline stroke="#000000" stroke-opacity="0.0418943949" fill="none" stroke-linecap="round" stroke-width="4.66687012" points="1083.533936,480.755676 1084.346313,478.592957 1085.340454,476.526855" />
				<polyline stroke="#000000" stroke-opacity="1" fill="none" stroke-linecap="round" stroke-width="4.66674805" points="500.663330,587.652222 502.080231,592.833069 503.038666,595.797729 504.148071,598.728760 505.383911,601.682739 506.820709,604.623169 508.367371,607.479614 510.030334,610.278015 513.710510,615.633789 517.750305,620.790283 519.864441,623.301880 524.200378,628.189880 526.462097,630.514526 528.801941,632.722290 531.237488,634.858398 533.824097,636.920654 536.440796,638.875488 539.127258,640.714966 541.902954,642.397583 544.736938,643.927063 547.665955,645.309143 550.675171,646.555786 553.717896,647.678223 556.783569,648.677917 559.871765,649.511902 563.013977,650.150574 566.167725,650.632385 569.329956,650.945618 572.494446,651.183105 575.669067,651.319214 582.120667,651.410522 603.103088,651.459595" />
				<polyline stroke="#000000" stroke-opacity="1" fill="none" stroke-linecap="round" stroke-width="4.66662598" points="602.332214,651.490784 604.371094,653.874878 608.160522,657.851501 610.437805,660.028198 612.865662,662.167358 615.381409,664.180908 618.035767,666.020630 620.853638,667.614685 623.799500,668.839111 626.886169,669.546509" />
				<polyline stroke="#000000" stroke-opacity="1" fill="none" stroke-linecap="round" stroke-width="4.66662598" points="1223.379150,594.745422 1223.045776,597.824890 1222.208252,603.069214 1221.542847,606.021973 1220.703491,609.071106 1219.662109,612.082031 1218.434570,615.089355 1217.075439,618.011536 1215.595947,620.916443 1213.978516,623.726074 1212.273804,626.479736 1210.474121,629.142212 1208.523560,631.762878 1206.499512,634.328369" />
				<polyline stroke="#000000" stroke-opacity="1" fill="none" stroke-linecap="round" stroke-width="4.66674805" points="1136.559326,664.551880 1133.373657,664.456665 1130.200928,664.233398 1123.878296,663.484253 1120.525024,662.942749 1113.067871,661.466187" />
				<polyline stroke="#000000" stroke-opacity="1" fill="none" stroke-linecap="round" stroke-width="4.66662598" points="1111.035156,661.517395 1108.945068,662.407104 1106.053589,663.544556 1103.140991,664.563049 1100.062012,665.526489 1096.956177,666.398193 1093.812988,667.187744 1090.617920,667.868591 1087.412964,668.314819 1084.194580,668.529907 1080.742432,668.569824 1077.097046,668.410339" />
				<polyline stroke="#000000" stroke-opacity="1" fill="none" stroke-linecap="round" stroke-width="4.66662598" points="626.383118,669.673462 634.905945,670.801636 641.143250,671.462280 650.697571,672.240967 653.884277,672.357666 657.068298,672.248413 660.248901,671.969360 663.614746,671.413513 667.154968,670.504822 670.897888,669.278687" />
				<polyline stroke="#000000" stroke-opacity="1" fill="none" stroke-linecap="round" stroke-width="4.66674805" points="865.588196,254.361206 868.144470,249.562439 875.194031,236.687378 880.617554,227.114929 883.482422,222.319824 886.722778,217.327148 890.394409,211.893555 894.288818,206.292725" />
				<polyline stroke="#000000" stroke-opacity="1" fill="none" stroke-linecap="round" stroke-width="4.66674805" points="892.826111,205.332886 907.553589,204.446655 918.331726,203.643372 940.348083,201.635193 951.347229,200.793335 962.327820,200.126160 967.811768,199.965271 973.293335,200.034058 978.786255,200.389587 984.319580,201.224426 989.702209,202.392883 995.052917,203.921875 1000.273926,205.949463 1005.301208,208.288208 1010.125916,211.100891 1014.766296,214.218994 1019.263672,217.693970 1023.427185,221.469727 1027.330078,225.466370 1030.959351,229.725037 1034.267578,234.223511 1037.267456,238.947510 1039.975952,243.860535 1042.417847,248.882324 1044.617188,254.048706 1046.597168,259.284851 1048.378662,264.640442 1049.965088,270.044739 1051.314209,275.549622 1052.511475,281.070801 1053.573730,286.601990 1054.507568,292.130066 1055.306885,297.995667" />
				<polyline stroke="#000000" stroke-opacity="1" fill="none" stroke-linecap="round" stroke-width="4.66650391" points="865.588196,258.446838 870.907959,259.700195 874.737244,260.771973 884.971741,263.806885 890.236755,265.481750 895.448425,267.251404 900.687378,269.134949 905.919434,271.179932 916.256775,275.531921 921.338623,277.888611 926.356201,280.336060 931.363831,283.002197 936.281189,285.810242 941.033997,288.775024 945.610840,291.982544 950.013672,295.533630 954.253357,299.221252 958.341553,303.093811 962.260315,307.133179 965.902039,311.392334 969.418945,315.786255 972.826782,320.299622 976.141113,324.910400 979.311340,329.607178 982.401611,334.378845 988.275940,344.024963 996.892883,358.599854 1002.939697,368.208862 1006.049438,371.764709 1009.504761,369.987854 1012.878784,367.075745 1016.148254,363.112610 1019.273743,358.733887 1022.318665,354.160095 1025.218140,349.379028 1027.979980,344.501038 1030.591553,339.544739 1035.423218,329.473145 1042.575562,314.228577 1045.634644,309.084167 1049.393311,303.975037 1053.943115,298.846802" />
				<polyline stroke="#000000" stroke-opacity="1" fill="none" stroke-linecap="round" stroke-width="4.66662598" points="876.483276,228.485107 871.709106,225.769714 868.296082,223.633240 863.654846,220.617554 859.240234,217.547729 854.666626,214.135681 850.253540,210.608398 846.051758,206.889099 842.082214,203.009216 838.277527,198.956482 834.693481,194.669250 831.315430,190.154053 828.151428,185.434814 825.261719,180.590759 822.637207,175.585510 820.266235,170.493835 818.128357,165.251343 816.204651,159.870544 814.511047,154.368835 813.218384,148.817810 812.506592,143.162354 812.457275,137.458130 812.747009,131.903503 813.596985,126.390381 814.868530,120.985840 816.500183,115.632446 818.572083,110.447205 820.967407,105.309631 823.599060,100.349426 826.499329,95.496338 829.673401,90.795593 833.193787,86.131226 836.763489,81.699768 840.436401,77.423767 844.249390,73.307739 848.208069,69.330627 852.309204,65.496094 856.557678,61.852661 860.987427,58.336121 865.473450,55.010864 870.132629,51.881836 874.894043,49.020508 879.816956,46.419922 884.829407,44.072144 889.997620,41.989258 895.295166,40.289917 900.658569,38.910278 906.129578,37.941284 911.638184,37.477661 917.220154,37.375977 922.731323,37.663574 928.219727,38.271606 933.613892,39.384277 938.959290,40.942871 944.105469,43.067261 949.048950,45.652832 953.765076,48.683228 958.469116,52.361328 963.084412,56.709900 967.586060,61.925049" />
				<polyline stroke="#000000" stroke-opacity="0.923052549" fill="none" stroke-linecap="round" stroke-width="4.66650391" points="965.006592,54.161987 979.084167,49.930664 989.483887,47.120605 994.841431,45.822266 1000.372253,44.627563 1005.854858,43.545654 1011.365234,42.567139 1022.415405,40.892822 1027.898193,40.216675 1033.384644,39.821167 1038.943115,39.808350 1044.488892,40.280273 1049.957520,41.290894 1055.375000,42.765747 1060.588501,44.759399 1065.576904,47.309692 1070.255249,50.374146 1074.613647,53.841431 1078.586670,57.677063 1082.190308,61.894653 1085.437256,66.393555 1088.257324,71.173889 1090.237427,76.335571 1091.489502,81.760010" />
				<polyline stroke="#000000" stroke-opacity="0.00404317817" fill="none" stroke-linecap="round" stroke-width="4.66674805" points="1154.917480,136.951782 1160.101196,139.153503 1165.195923,141.523193 1170.228027,144.041199" />
				<polyline stroke="#000000" stroke-opacity="0.413486123" fill="none" stroke-linecap="round" stroke-width="4.66674805" points="1195.517578,234.896240 1192.052124,239.737610 1187.846069,244.493591 1182.859741,249.136047" />
				<polyline stroke="#000000" stroke-opacity="0.994324327" fill="none" stroke-linecap="round" stroke-width="4.66674805" points="1185.633545,246.189819 1189.020996,250.600647 1191.241577,253.868408 1194.077026,258.452515 1196.558594,263.183899 1198.568604,268.265381 1199.825195,273.586609 1200.568237,279.026123 1200.597778,284.629761 1200.235718,290.107544 1199.378052,295.566650 1198.087036,300.910278 1196.383057,306.147461 1194.275391,311.257080 1191.673828,316.168579 1188.699585,320.848816 1185.141846,325.148560 1180.972656,329.067566 1176.358276,332.612976 1171.694092,335.812744 1166.882812,338.692627 1161.835327,341.229919 1156.614502,343.190613 1151.246704,344.474976 1145.830078,345.310303 1140.369873,345.751160 1134.823853,345.864868 1129.266357,345.706299 1123.704102,345.384338 1118.148315,344.915710 1112.600464,344.237366 1101.531860,342.385071 1090.495239,340.164185 1079.503052,337.596802 1074.083618,336.136658 1063.154297,332.777405 1052.243530,329.066345 1039.780029,324.570923" />
				<polyline stroke="#000000" stroke-opacity="1" fill="none" stroke-linecap="round" stroke-width="4.66687012" points="915.364319,202.671387 912.848267,194.132935 911.704590,190.276489 910.457642,186.392700 909.016541,182.459717 907.440369,178.637817 905.778748,174.884888 903.998901,171.211243 902.109192,167.605835 900.101990,164.064148 897.937073,160.584167 895.587524,157.240479 892.664001,154.464233 889.153442,152.768005 885.384216,152.387390 881.524902,153.348267 877.997925,155.758728 874.870361,159.455200" />
				<polyline stroke="#000000" stroke-opacity="1" fill="none" stroke-linecap="round" stroke-width="4.66650391" points="963.502441,199.969727 959.840576,187.428223 958.974060,183.756531 958.178589,179.975525 957.472107,176.227966 956.923340,172.423889 956.634949,168.615479 956.592773,164.779114 956.721069,161.051086 957.126648,157.339233 957.727356,153.647827 958.654480,149.984741 959.842957,146.442017 961.293884,142.985840 963.020874,139.658691 964.978271,136.425476 967.229370,133.439087 969.606995,131.409790 973.628784,130.942566 977.518616,134.022583 978.477966,137.554199 976.449646,143.121704" />
				<polyline stroke="#000000" stroke-opacity="1" fill="none" stroke-linecap="round" stroke-width="4.66674805" points="1007.225281,209.418579 1022.085815,198.460083 1025.690796,194.978027 1030.050659,190.950134 1034.591675,186.901489 1036.898682,184.916016 1041.590210,181.024658 1043.947021,179.174683 1046.383789,177.416382 1048.867676,175.754822 1051.410156,174.192383 1054.067627,172.763794 1056.911377,171.465271 1059.721069,170.291504 1062.547974,169.223511 1065.345581,168.219299 1068.190308,167.307373 1071.052002,166.497559 1073.966919,165.861694 1076.891846,165.379150 1079.822632,165.157593 1082.715820,165.381104 1085.305054,166.416321 1086.953369,168.514160 1087.757446,171.051086 1087.767212,173.963318 1086.976807,177.129944 1085.563232,180.417480" />
				<polyline stroke="#000000" stroke-opacity="1" fill="none" stroke-linecap="round" stroke-width="4.66650391" points="1014.430725,186.162231 1017.381836,183.620911 1019.570618,181.827393 1025.599365,177.073425 1028.822021,174.641418 1035.293335,169.996765 1038.593384,167.805542 1042.192871,165.573059 1046.052979,163.240845 1050.351807,160.837402" />
				<polyline stroke="#000000" stroke-opacity="1" fill="none" stroke-linecap="round" stroke-width="4.66662598" points="1046.720215,259.808777 1051.780884,257.851379 1075.464722,249.069397 1081.673096,246.740723 1087.825684,244.297974 1090.859619,243.013550 1093.888916,241.639709 1096.858765,240.162781 1099.901001,238.421814 1102.968384,236.231201 1105.995728,233.585083" />
				<polyline stroke="#000000" stroke-opacity="1" fill="none" stroke-linecap="round" stroke-width="4.66662598" points="1053.063232,280.143250 1065.563965,278.944641 1069.935669,278.701050 1074.247437,278.367737 1078.563354,277.901245 1082.867920,277.360779 1087.169556,276.729065 1091.455322,275.909790 1095.691162,274.921936 1099.965820,273.640076 1104.166870,272.280212 1108.294434,270.743958 1112.338257,269.046143 1116.302856,267.137695 1120.192871,265.075012 1124.000854,262.810120 1127.660522,260.344482 1131.136719,257.627625 1134.518433,254.693787 1137.636841,251.657043 1139.953979,248.452026 1137.640015,246.556763 1133.431763,245.241760" />
				<polyline stroke="#000000" stroke-opacity="1" fill="none" stroke-linecap="round" stroke-width="4.66650391" points="1088.227783,69.190552 1088.900024,73.954285 1089.564697,79.420715 1090.163330,82.075623 1092.101929,83.862976 1094.379150,85.375610 1096.927856,86.581604 1099.607178,87.591858 1102.346436,88.467163 1105.114990,89.240295 1113.487549,91.301636 1121.890625,93.641602 1127.408691,95.466858 1130.157227,96.466980 1132.861206,97.559387 1135.518066,98.743713 1138.133545,100.018311 1140.734375,101.383789 1145.775024,104.371948 1150.572144,107.714722 1152.876343,109.498474 1155.075317,111.375244 1157.231079,113.339355 1159.299194,115.396362 1161.226318,117.569946 1164.886475,122.130432 1166.626587,124.497681 1168.250000,126.920654 1172.910278,134.434448 1175.824707,139.467590 1177.209106,142.017700 1181.184570,149.765991 1182.455444,152.404419 1184.856079,157.696655 1187.076050,163.099487 1188.118286,165.827087 1190.019043,171.372314 1191.734741,177.001587 1192.485840,179.824219 1193.837036,185.485291 1194.442871,188.369873 1195.495850,194.176208 1196.720093,202.797913 1197.334961,208.522461 1197.523560,211.396851 1197.543701,214.331116 1197.435547,217.190430 1197.228027,220.044250 1196.866455,222.884460 1196.371826,225.713196 1195.657227,228.498901 1194.843628,231.270996 1193.919922,233.999207 1192.807495,236.708374 1191.507690,239.496338 1189.953247,242.421204 1188.156006,245.514465" />
				<polyline stroke="#000000" stroke-opacity="0.66271919" fill="none" stroke-linecap="round" stroke-width="4.66662598" points="854.896423,424.820679 854.785706,430.109802 854.453857,435.376160" />
				<polyline stroke="#000000" stroke-opacity="1" fill="none" stroke-linecap="round" stroke-width="4.66674805" points="846.178894,469.748779 844.207336,474.050232 842.059937,478.140930 839.746033,482.003235 837.275635,485.620789 834.658997,488.977905 831.907654,492.060242 829.033142,494.854736 826.047913,497.349365 822.964783,499.533386 819.796814,501.397461 816.557678,502.933594 813.261230,504.135254 809.921509,504.997253 806.552917,505.515930 803.169800,505.689148 799.786804,505.515930 796.418152,504.997314 793.078430,504.135254 789.781982,502.933594 786.542847,501.397461 783.374939,499.533386 780.291748,497.349365 777.306519,494.854797 774.432129,492.060303 771.680664,488.977905 769.064087,485.620789 766.593567,482.003235 764.279724,478.140930 762.132263,474.050232 760.160645,469.748718 758.373230,465.254883 756.777588,460.587830 755.380615,455.767639 754.188293,450.814941 753.205688,445.750916 752.437134,440.597229 751.885681,435.376099 751.553955,430.109619 751.443237,424.820557 751.553955,419.531494 751.885681,414.265137 752.437134,409.043884 753.205750,403.890259 754.188416,398.826233 755.380737,393.873535 756.777710,389.053406 758.373352,384.386353 760.160767,379.892456 762.132385,375.590942 764.279785,371.500305 766.593628,367.637939 769.064270,364.020447 771.680786,360.663330 774.432190,357.580994 777.306641,354.786499 780.291809,352.291931 783.375000,350.107971 786.542969,348.243896 789.782104,346.707764 793.078552,345.506165 796.418274,344.644104 799.786804,344.125488 803.169922,343.952271 806.552917,344.125488 809.921631,344.644104 813.261230,345.506226 816.557678,346.707825 819.796814,348.243958 822.964783,350.108032 826.047974,352.292053 829.033142,354.786621 831.907654,357.581116 834.658997,360.663452 837.275635,364.020569 839.746033,367.638123 842.059937,371.500488 844.207336,375.591125 846.178894,379.892578 847.966431,384.386475 849.562073,389.053467 850.958984,393.873657 852.151367,398.826355 853.133850,403.890320 853.902527,409.044006 854.453857,414.265137 854.785706,419.531494" />
				<polygon stroke="#000000" stroke-opacity="1" fill="none" stroke-linecap="round" stroke-width="4.66662598" points="980.206055,430.649048 980.095276,435.938110 979.763489,441.204529 979.212097,446.425720 978.443420,451.579346 977.460938,456.643372 976.268555,461.596069 974.871582,466.416260 973.275940,471.083252 971.488525,475.577087 969.516907,479.878601 967.369507,483.969299 965.055664,487.831665 962.585205,491.449158 959.968567,494.806274 957.217285,497.888672 954.342712,500.683167 951.357483,503.177734 948.274353,505.361694 941.867310,508.761963 938.570801,509.963623 935.231079,510.825562 931.862549,511.344299 928.479431,511.517456 925.096375,511.344299 921.727783,510.825623 918.388000,509.963623 915.091614,508.761963 911.852478,507.225769 908.684448,505.361694 905.601318,503.177734 902.616089,500.683167 899.741638,497.888672 896.990234,494.806274 894.373657,491.449158 891.903137,487.831665 889.589233,483.969299 887.441895,479.878601 885.470215,475.577087 883.682861,471.083191 882.087219,466.416199 880.690186,461.596008 879.497925,456.643311 878.515259,451.579285 877.746704,446.425598 877.195312,441.204407 876.863464,435.937988 876.752747,430.648926 876.863464,425.359924 877.195312,420.093506 877.746704,414.872314 878.515320,409.718628 879.497986,404.654602 880.690308,399.701904 882.087280,394.881714 883.682922,390.214661 885.470276,385.720825 887.441956,381.419312 889.589355,377.328613 891.903259,373.466309 894.373779,369.848877 896.990295,366.491760 899.741760,363.409363 902.616150,360.614868 905.601440,358.120300 908.684570,355.936279 911.852539,354.072266 915.091675,352.536133 918.388123,351.334473 921.727783,350.472473 925.096375,349.953796 928.479492,349.780640 931.862549,349.953796 935.231140,350.472534 938.570801,351.334534 941.867310,352.536255 945.106445,354.072388 948.274353,355.936401 951.357605,358.120422 954.342712,360.614990 957.217285,363.409485 959.968567,366.491882 962.585205,369.848999 965.055664,373.466431 967.369507,377.328796 969.516907,381.419434 971.488525,385.720947 973.275940,390.214783 974.871582,394.881836 976.268555,399.701965 977.460938,404.654724 978.443420,409.718689 979.212097,414.872314 979.763489,420.093506 980.095276,425.359924" />
				<polyline stroke="#000000" stroke-opacity="0" fill="none" stroke-linecap="round" stroke-width="4.66687012" points="829.551331,441.364075 831.479065,435.914612" />
				<polyline stroke="#000000" stroke-opacity="0" fill="none" stroke-linecap="round" stroke-width="4.66662598" points="846.612427,434.608704 846.879700,435.467834 846.998779,434.036743" />
				<polyline stroke="#000000" stroke-opacity="1" fill="none" stroke-linecap="round" stroke-width="4.66662598" points="853.551697,422.175354 855.122375,421.678711 857.844482,421.029663 861.052734,420.445618 864.341858,420.053101 865.992493,419.926819 869.329346,419.859375 871.011841,419.948853 872.699646,420.162170 874.398071,420.474915 876.044434,420.886353 879.363831,422.030640 881.148682,422.779541 883.003662,423.665039" />
				<polyline stroke="#000000" stroke-opacity="0.90312016" fill="none" stroke-linecap="round" stroke-width="4.66662598" points="856.435364,434.533997 859.142151,433.590698 860.698486,433.138245 862.278564,432.800598 863.935974,432.565979 865.591431,432.422363 867.300781,432.417297 870.694885,432.665710 872.374817,432.903809 874.043762,433.231018 877.419617,434.165344 879.239990,434.837952 881.165283,435.690674" />
				<polyline stroke="#000000" stroke-opacity="0.934782624" fill="none" stroke-linecap="round" stroke-width="4.66687012" points="862.202759,432.474304 857.846130,432.867310 849.718506,433.414001 841.480774,434.120605 836.537354,434.652649 831.593872,435.345032 828.298584,436.094360 825.042786,437.056274 821.870239,438.191040 818.729980,439.500244 815.673584,441.017334 812.745728,442.767761 811.322571,443.713745 809.948242,444.747803 808.627686,445.861694 807.384033,447.022827 806.221008,448.284851 805.159424,449.617371 804.196045,451.005249 803.332092,452.478699 802.592896,454.011414 802.016724,455.595032 801.606995,457.207275 801.470764,458.873047 801.506226,460.525574 802.236938,463.785339 802.906921,465.305298 803.782959,466.725037 804.842163,468.020874 806.036865,469.196899 807.391724,470.258728 808.788940,471.210999 810.258179,472.043518 811.791931,472.767273 813.415955,473.313538 815.045044,473.753723 816.710876,474.086304 818.390381,474.278870 821.814392,474.332581 823.489380,474.246887 830.122803,473.252075 836.646912,471.729370 848.041016,468.759949 854.646423,467.138672 859.666016,465.772034 863.492310,464.557312" />
				<polyline stroke="#000000" stroke-opacity="1" fill="none" stroke-linecap="round" stroke-width="4.66674805" points="815.926575,475.082275 826.863159,474.120056 830.067078,473.551025 836.804504,472.081116 849.884399,468.477722 854.027161,467.228699 858.511169,466.061951 863.427734,464.589539" />
				<polyline stroke="#000000" stroke-opacity="1" fill="none" stroke-linecap="round" stroke-width="4.66662598" points="811.434753,378.529297 809.453735,377.630066 805.840332,376.689026 803.713989,376.470154 801.481262,376.351379 799.263550,376.416565 797.043579,376.695374 794.872131,377.298218 792.780823,378.148254 790.775513,379.176514 788.855469,380.379761 787.021301,381.736694 785.291016,383.227417 783.629883,384.813354 782.037292,386.509338 780.534668,388.292786 779.126221,390.108582 777.839172,392.004333 776.663391,393.968201 775.569214,395.976624 774.575623,398.050903 772.862122,402.302246 772.129578,404.496704 770.876282,408.855469 770.349365,411.046082 769.914429,413.271179 769.311340,417.736084 769.146179,419.977112 769.121521,424.513306 769.237793,426.754333 769.755188,431.281006 770.129578,433.535156 771.164917,437.958801 771.868530,440.133118 773.607788,444.438965 774.614380,446.509583 775.810730,448.619812 777.351990,450.748352 779.127625,452.892761" />
				<polyline stroke="#000000" stroke-opacity="1" fill="none" stroke-linecap="round" stroke-width="4.66662598" points="780.461914,450.983887 779.603577,442.938599 779.138306,436.219482 779.012024,431.687744 779.120911,424.859192 779.399292,420.404846 779.913391,415.974670 780.273865,413.769287 780.754639,411.602478 781.407593,409.470093 782.197083,407.343689 783.203857,405.237366 785.382812,401.256653 787.833862,397.425659 790.545471,393.705261 792.006165,391.917969 793.566956,390.190613 795.198364,388.536316 796.906067,387.007019 798.729614,385.579224 800.606934,384.273560 802.536865,383.057190 804.537476,381.952148 806.724731,380.875061 811.636292,378.633179" />
				<polyline stroke="#000000" stroke-opacity="1" fill="none" stroke-linecap="round" stroke-width="4.66662598" points="936.432190,378.529297 934.451233,377.630066 930.837830,376.689026 928.711487,376.470154 926.478699,376.351379 924.260986,376.416565 922.041077,376.695374 919.869629,377.298218 917.778259,378.148254 915.773071,379.176514 913.852905,380.379761 912.018738,381.736694 910.288452,383.227417 908.627441,384.813354 907.034790,386.509338 905.532104,388.292786 904.123718,390.108582 902.836670,392.004333 901.660889,393.968201 900.566711,395.976624 899.573120,398.050903 897.859619,402.302246 897.127075,404.496704 895.873779,408.855469 895.346863,411.046082 894.911987,413.271179 894.308777,417.736084 894.143738,419.977112 894.119080,424.513306 894.235291,426.754333 894.752686,431.281006 895.127075,433.535156 896.162476,437.958801 896.866028,440.133118 898.605225,444.438965 899.611877,446.509583 900.808228,448.619812 902.349487,450.748352 904.125122,452.892761" />
				<polyline stroke="#000000" stroke-opacity="1" fill="none" stroke-linecap="round" stroke-width="4.66662598" points="905.459351,450.983887 904.601074,442.938599 904.135803,436.219482 904.009521,431.687744 904.118408,424.859192 904.396851,420.404846 904.910828,415.974670 905.271362,413.769287 905.752075,411.602478 906.405029,409.470093 907.194580,407.343689 908.201294,405.237366 910.380310,401.256653 912.831421,397.425659 915.542969,393.705261 917.003662,391.917969 918.564453,390.190613 920.195862,388.536316 921.903564,387.007019 923.727112,385.579224 925.604431,384.273560 927.534363,383.057190 929.534912,381.952148 931.722168,380.875061 936.633789,378.633179" />
				<polyline stroke="#000000" stroke-opacity="1" fill="none" stroke-linecap="round" stroke-width="4.66674805" points="1163.556030,489.528687 1172.114014,487.509460 1177.026978,486.615723 1181.910156,485.901428 1186.769409,485.454346 1189.235596,485.333130 1191.717529,485.345398 1194.147583,485.475220 1196.530396,485.877991 1198.931885,486.372253 1201.375366,486.973572 1203.779053,487.642334 1206.166748,488.472229 1208.516724,489.452576 1210.772583,490.531189 1212.972778,491.753479 1215.163574,493.203064 1219.350220,496.253784 1223.303955,499.461731 1225.170044,501.122559 1226.942017,502.876953 1228.614868,504.678345 1231.735352,508.509216 1234.637329,512.518372 1237.240356,516.747864 1239.552612,521.181335 1240.608032,523.446472 1241.593872,525.726440 1242.486328,528.086182 1243.303833,530.521301 1243.997559,532.989624 1245.202148,537.846741 1245.655029,540.296875 1246.006592,542.808350 1246.315430,547.920654 1246.338257,550.433228 1246.253662,552.908142 1245.812256,557.885620 1245.444824,560.334595 1244.923706,562.856140 1244.333984,565.378418 1243.640625,567.923889 1241.918091,572.854431 1239.896851,577.474854 1238.766113,579.757568 1236.310791,584.262817 1233.676636,588.591370 1232.220581,590.656616 1230.612427,592.751831 1228.756348,594.876587 1226.639038,597.083984" />
				<polyline stroke="#000000" stroke-opacity="1" fill="none" stroke-linecap="round" stroke-width="4.66662598" points="583.411560,486.464478 581.036255,486.347961 576.832825,486.516907 574.476562,486.681641 572.019409,486.933167 567.064148,487.624939 562.160217,488.506531 557.249817,489.778564 552.415222,491.206482 545.407104,493.583923 543.120605,494.544556 540.851685,495.624268 538.616272,496.847656 536.470215,498.156616 530.309937,502.482605 528.323364,503.976685 526.427063,505.575439 524.624084,507.262756 521.216675,510.896057 519.610535,512.776062 518.085693,514.741516 516.646057,516.744690 513.952576,520.979004 511.429474,525.237061 510.263092,527.450562 509.162292,529.738892 507.147461,534.391357 505.361359,539.062927 503.778656,543.783142 501.737122,550.917480 500.618713,555.816040 499.740723,560.760742 499.430573,563.198059 499.125702,568.078247 498.951416,572.984985 499.043549,578.056641 499.479797,583.650391 499.827576,586.654053" />
				<polyline stroke="#000000" stroke-opacity="1" fill="none" stroke-linecap="round" stroke-width="4.66674805" points="670.687500,668.761841 673.894836,670.809692 677.768799,672.980713 681.975647,675.063721 684.830383,676.376221 687.717957,677.586304 691.975830,679.162598 702.119385,682.493774 706.608459,683.743042 712.784180,685.183167 717.839844,686.086792 725.062073,687.064453 733.522522,687.996399 742.486084,688.799255 748.333008,689.193481 757.683777,689.631592 768.073120,689.977173 776.532959,690.143311 787.178162,690.092957 794.019897,689.817871 800.413330,689.372742 805.037537,688.854980 815.942322,686.947998 817.465027,686.630127 821.957275,685.574829 827.848083,683.971191 836.955261,681.082153 845.880920,677.948364 863.031494,671.292725" />
				<polyline stroke="#000000" stroke-opacity="1" fill="none" stroke-linecap="round" stroke-width="4.66662598" points="862.786011,671.126099 867.121033,672.450562 875.914734,674.742737 886.043396,677.051758 892.670349,678.375732 902.953247,680.314331 911.851074,681.760315 925.266785,683.858337 934.432861,685.106873 940.802368,685.902710 945.543640,686.393311 951.945190,686.923584 958.421997,687.339844 967.665710,687.736572 979.510437,688.124146 982.886902,688.203064 992.109009,688.226013 1004.083313,687.826538 1008.617615,687.521912 1012.935303,687.081665 1021.515076,685.939880 1024.330933,685.485901 1034.448853,683.532227 1041.736694,681.840149 1044.658936,681.061646 1053.081543,678.674316 1061.360962,676.176514 1064.082275,675.288940 1068.134155,673.824829 1074.968750,671.118713 1079.660889,669.376465" />
				<polyline stroke="#000000" stroke-opacity="1" fill="none" stroke-linecap="round" stroke-width="4.66674805" points="604.307556,454.437317 590.154419,444.520142 574.680176,433.278992 563.441284,425.352844 558.438965,421.655029 552.004395,416.622375 541.014160,408.212830 533.637756,402.236206 527.817200,397.322815 522.475769,392.611267 514.395081,384.904236" />
				<polyline stroke="#000000" stroke-opacity="1" fill="none" stroke-linecap="round" stroke-width="4.66662598" points="547.564209,489.192566 541.324402,486.366821 539.673706,485.582520 538.091125,484.722351 536.571106,483.817017 533.615234,481.850586 529.390747,478.755432 525.299927,475.441956 522.642944,473.115540 520.092407,470.728149 513.974731,464.573669 510.400757,460.716675 504.653442,454.118713 499.040680,447.311279 494.745605,441.701416 490.755371,435.948364 487.069031,429.891174 484.585632,425.216187 481.703918,418.893860 479.353302,413.435303" />
				<polyline stroke="#000000" stroke-opacity="1" fill="none" stroke-linecap="round" stroke-width="4.66662598" points="478.193146,412.885620 476.044464,415.087463 474.742401,416.116577 473.332611,416.995728 472.573517,417.350281 470.967651,417.925781 469.202728,418.410400 467.273254,418.832031 464.380920,419.328369 462.581360,419.561523 460.886200,419.717224 459.201324,419.727173 457.400269,419.587341 455.539459,419.331543 452.852051,418.783447 451.192139,418.333740 447.983276,417.284424 446.406738,416.606995 444.875610,415.831665 442.679321,414.448730 439.951233,412.326172 437.878815,410.499878 434.567078,407.191284" />
				<polyline stroke="#000000" stroke-opacity="1" fill="none" stroke-linecap="round" stroke-width="4.66674805" points="417.953278,383.520996 415.552032,377.929565 414.936554,376.265198 414.137695,373.732239 413.470978,371.222717 412.914856,368.662598 411.950439,362.633301 411.424652,357.598267 411.463501,356.784668 411.706818,355.991821 412.077942,355.210876 412.950165,353.731934 413.898529,352.356934 414.452179,351.700928 415.597046,350.463257 416.821686,349.334229 418.121674,348.269470 419.531067,347.297363 422.449554,345.662109 423.200104,345.324280 423.995880,345.064453 425.606750,344.633301 426.437134,344.491089 428.950378,344.343262 431.436371,344.488281 433.067505,344.774475 433.883728,345.015076 436.226349,345.938660 438.476898,347.276245 442.054016,349.863464 444.018982,351.534912 445.780212,353.325073 446.867340,354.598755 448.350494,356.646118 450.598755,360.201843 452.668121,363.955566 454.478882,367.827026 455.745667,370.936157 456.499725,373.384033 456.993530,375.879333 457.113251,377.525452 457.074524,378.344482 456.921661,379.177856 456.462250,380.786255 455.759308,382.282959 455.302673,382.978394 454.215668,384.302490 453.642487,384.908630 452.346161,385.947021 450.863281,386.742310 450.075348,387.048767 448.471008,387.519104 447.647552,387.664856 445.960175,387.814575 444.286591,387.872375 442.633270,387.804626 441.826111,387.704651 441.039551,387.481140 440.266968,387.164551 438.831543,386.344116 437.549225,385.300842 436.411102,384.085876 434.908325,382.097778 433.581665,379.976013 432.389893,377.766602 430.865082,374.360657" />
				<polyline stroke="#000000" stroke-opacity="1" fill="none" stroke-linecap="round" stroke-width="4.66674805" points="437.146271,344.474548 438.358337,342.687622 439.365051,341.441589 442.201080,338.414856 444.101074,336.701965 446.808655,334.576477 448.208832,333.572815 451.194031,331.744324 454.182526,330.087219 455.669128,329.315369 458.119537,328.297546 460.549500,327.466675 462.147491,327.056641 463.785675,326.812744 465.416107,326.763062 467.076355,326.882385 468.712738,327.185303 470.365723,327.786926 472.677551,328.948181 474.097473,329.841187 475.551636,330.941101 478.323029,333.427124 480.161011,335.239624" />
				<polyline stroke="#000000" stroke-opacity="1" fill="none" stroke-linecap="round" stroke-width="4.66662598" points="485.439392,362.430176 484.894653,363.041748 484.269684,363.556824 482.845123,364.339172 482.080750,364.636047 480.486816,365.063477 479.675049,365.211670 478.014557,365.376648 476.355560,365.425415 474.722168,365.354919 472.233917,364.961670 469.788727,364.216980 468.287933,363.457520 467.588837,363.008850 466.270752,361.978088 465.061676,360.842834 463.414551,358.964844 461.941864,356.922241 460.618469,354.791565 458.910034,351.476990" />
				<polyline stroke="#000000" stroke-opacity="1" fill="none" stroke-linecap="round" stroke-width="4.66662598" points="1074.346069,488.793396 1076.709351,489.341003 1080.979736,490.507751 1083.977051,491.448303 1086.901733,492.483826 1089.665527,493.558960 1092.395386,494.744507 1093.715088,495.362427 1096.329224,496.782715 1099.136108,498.574097 1102.025146,500.577881 1106.352905,503.790039 1109.075317,506.001099 1110.383179,507.151123 1115.235352,511.861267 1117.464355,514.287720 1119.692627,516.937134 1121.818970,519.731567 1124.926514,524.007690 1127.781982,528.102539 1129.529541,530.644165 1131.986206,534.424255 1136.812134,542.175720 1140.754883,549.134521 1143.723389,554.539917 1146.496338,559.764648 1147.792847,562.363342 1150.297852,567.748718 1151.520142,570.592285 1153.241821,574.793579 1156.083008,582.171265" />
				<polyline stroke="#000000" stroke-opacity="1" fill="none" stroke-linecap="round" stroke-width="4.66662598" points="1064.888916,537.261414 1067.163452,538.415466 1068.597046,539.301270 1073.113037,542.332092 1078.817749,546.527466 1082.756714,549.632568 1086.336548,552.745605 1091.797363,557.759033 1094.814209,560.921265 1097.702393,564.392639 1099.505737,566.827209 1100.380493,568.131836 1102.942017,572.255005 1104.516113,575.065308 1108.656128,583.149597 1111.017334,588.494751 1112.577759,592.555969 1113.966431,596.661804 1115.306396,601.427979" />
				<polyline stroke="#000000" stroke-opacity="1" fill="none" stroke-linecap="round" stroke-width="4.66650391" points="1113.947998,598.733154 1105.782227,602.577026 1098.406006,607.871216 1092.566406,614.606201 1088.717041,622.188782 1086.320679,630.498169 1085.353027,639.126831 1085.789795,647.667603 1088.505859,655.063477 1094.066284,660.479370 1101.105957,659.478455 1106.227661,652.080750 1108.467896,645.214844 1111.315308,636.586548 1115.075439,631.255859 1124.762451,636.013489 1129.776123,642.365356 1132.755493,649.697693 1134.101074,657.697327 1134.212769,666.050964 1131.401978,674.460327 1125.411133,681.265869 1123.312622,688.160950 1128.823486,693.612793 1134.241455,695.350342 1141.971313,694.019836 1148.123657,689.518494 1152.970581,683.279968 1156.326050,676.013184 1158.003418,668.426819 1158.087646,660.040649 1156.845703,651.664307 1154.625977,643.420044 1151.776489,635.430298" />
				<polyline stroke="#000000" stroke-opacity="1" fill="none" stroke-linecap="round" stroke-width="4.66674805" points="1154.209717,684.865112 1153.733521,691.054504 1159.566895,696.585510 1171.576904,695.461731 1176.820923,690.967773 1181.604858,683.096436 1184.794556,674.373413 1185.919678,665.302734 1184.922974,656.922791 1182.296387,648.762573 1178.406494,641.035034 1173.619507,633.952881" />
				<polyline stroke="#000000" stroke-opacity="1" fill="none" stroke-linecap="round" stroke-width="4.66674805" points="1156.147095,581.234497 1166.695679,579.127380 1172.868530,580.702026 1179.202515,584.839600 1185.179443,590.529785 1190.281250,596.762573 1193.989746,602.527710 1197.450439,609.347595 1200.257690,615.978638 1202.480225,622.593628 1204.187622,629.365356 1205.448853,636.466797 1206.333252,644.070862 1206.657227,652.708984 1206.099854,660.903931 1204.751587,668.317627 1202.702881,674.612305 1197.189941,677.882202 1188.756714,678.360107 1183.908691,675.466675" />
				<polyline stroke="#000000" stroke-opacity="1" fill="none" stroke-linecap="round" stroke-width="4.66662598" points="731.676758,687.815247 731.120178,696.606567 730.656128,705.510559 730.154907,717.331543 729.956482,723.297607 729.889648,729.301636 730.508301,743.963989 730.838745,753.050049 731.325684,760.017883" />
				<polyline stroke="#000000" stroke-opacity="1" fill="none" stroke-linecap="round" stroke-width="4.66650391" points="792.603394,690.614990 784.893127,725.706299 781.193604,740.463623 778.930054,750.807617" />
				<polyline stroke="#000000" stroke-opacity="1" fill="none" stroke-linecap="round" stroke-width="4.66662598" points="884.783569,676.511292 883.702271,701.900696 881.278381,723.884644 881.772217,739.970947" />
				<polyline stroke="#000000" stroke-opacity="1" fill="none" stroke-linecap="round" stroke-width="4.66674805" points="665.818298,785.882690 653.147278,782.556641 645.758850,780.745972 642.151001,779.940918 638.528137,779.365784 634.959412,778.960815 631.459473,778.729370 628.101685,778.655518 624.830933,778.731262 621.715637,778.956909 618.711548,779.375366 615.809326,780.042542 612.973694,781.025269 610.266479,782.240601 607.651489,783.645386 605.181885,785.288086 603.110046,787.319519 601.506042,789.720337 600.221436,792.332397 599.320007,795.108154 598.668335,797.970825 598.345276,800.889526 598.591125,803.790161 599.312866,806.586121 600.351196,809.289001 601.823608,811.853516 603.564941,814.280273 605.454346,816.568848 607.537781,818.725220 609.844421,820.755249 612.219910,822.656738 614.665039,824.394897 617.258057,825.961243 619.927368,827.317322 622.670410,828.470398 625.488953,829.423889 628.434326,830.039856 631.389648,830.533203 634.342896,830.862244 637.276123,831.126953 640.194824,831.273254 643.129333,831.209717 646.046021,831.018677 651.876892,830.462891 654.801392,830.046021 657.780396,829.529968 660.707092,828.946533 663.613831,828.264832 669.393433,826.683716 672.228027,825.826721 678.385742,823.760315 681.841309,822.494751" />
				<polyline stroke="#000000" stroke-opacity="1" fill="none" stroke-linecap="round" stroke-width="4.66662598" points="619.315674,777.023499 620.868774,775.212952 622.856018,773.271240 623.943237,772.330444 626.229980,770.582886 629.880432,768.178955 632.387329,766.765869 633.684631,766.128906 635.081177,765.582825 636.490967,765.146973 637.911194,764.810730 639.343384,764.585693 640.768982,764.457275 642.189453,764.458374 645.050903,764.778320 647.988342,765.360229 650.973572,766.134644 659.798096,768.945801 675.723755,774.546753" />
				<polyline stroke="#000000" stroke-opacity="1" fill="none" stroke-linecap="round" stroke-width="4.66662598" points="649.460205,764.019897 651.619873,762.891602 654.140076,761.727905 658.095947,760.045288 660.788208,759.067383 662.168762,758.717407 663.582886,758.493896 664.985168,758.365845 666.415588,758.338379 667.823792,758.385864 669.246826,758.584717 674.902832,759.817627 684.711914,762.716309 692.335876,764.808777" />
				<polyline stroke="#000000" stroke-opacity="1" fill="none" stroke-linecap="round" stroke-width="4.66650391" points="692.376160,765.831299 697.990051,764.344482 705.396057,762.761963 710.296082,761.913757 715.386536,761.324707 717.841431,761.134033 720.330811,761.029114 725.339233,761.187622 727.784851,761.426697 730.278320,761.770264 733.130127,762.346680" />
				<polyline stroke="#000000" stroke-opacity="1" fill="none" stroke-linecap="round" stroke-width="4.66674805" points="669.800293,828.167603 673.704102,830.364624 679.236816,832.459778 686.068726,834.394104 693.869690,836.108765 702.309814,837.544861 711.059265,838.643616 719.788025,839.346069 728.166077,839.593506 735.863708,839.326965 742.550781,838.487549 747.897461,837.016541 751.573853,834.854980" />
				<polyline stroke="#000000" stroke-opacity="1" fill="none" stroke-linecap="round" stroke-width="4.66662598" points="751.124390,836.130615 755.584106,838.909058 759.426880,840.883484 763.388428,842.546997 764.765503,843.038208 767.720215,843.935852 772.247803,845.089172 776.739075,845.973633 779.606506,846.436157 782.517517,846.728088 785.440613,846.842041 788.336060,846.850830 789.765503,846.814453 792.631287,846.605347 795.627380,846.259583 798.508789,845.816406 801.358887,845.125793 802.756104,844.714600 805.446655,843.668213 807.960693,842.278198 809.176514,841.497559 810.339600,840.633362 812.557739,838.711609 813.660645,837.630493 815.913696,835.058960" />
				<polyline stroke="#000000" stroke-opacity="1" fill="none" stroke-linecap="round" stroke-width="4.66662598" points="779.495789,752.789551 780.628906,756.435303 782.627869,761.769287 783.220337,763.081177 783.897522,764.335938 784.676819,765.526123 786.572327,767.710083 788.699585,769.653687 795.557007,775.098145 798.858154,777.860840 803.029663,781.859497 807.018555,786.030396 808.886353,788.203735 811.575867,791.939636 813.898376,795.762573 815.870972,799.609497 817.040588,802.268066 818.082031,804.928040 818.544556,806.283081 818.919617,807.689392 821.034485,814.982300 820.220093,816.186340 820.040161,819.108521 819.757690,821.955566 819.547668,823.370850 818.686523,827.583801 817.970093,830.334717 817.531616,831.690125 816.946777,833.103455" />
				<polyline stroke="#000000" stroke-opacity="1" fill="none" stroke-linecap="round" stroke-width="4.66650391" points="881.635681,742.966797 882.803467,753.490906" />
				<polyline stroke="#000000" stroke-opacity="1" fill="none" stroke-linecap="round" stroke-width="4.66662598" points="991.619446,800.219849 1004.569214,798.239136 1012.106689,797.212280 1015.778931,796.789551 1019.442200,796.597046 1023.033691,796.568054 1026.538574,796.704529 1029.885620,796.982666 1033.130371,797.400635 1036.205078,797.951233 1039.148682,798.682068 1041.965088,799.649597 1044.682251,800.923828 1047.247192,802.416016 1049.700684,804.087036 1051.984619,805.979370 1053.832397,808.216553 1055.176025,810.772217 1056.180176,813.504395 1056.785767,816.359314 1057.134155,819.274536 1057.149658,822.210938 1056.601440,825.069824 1055.590698,827.774902 1054.275024,830.354126 1052.542236,832.750305 1050.556152,834.981384 1048.437500,837.059448 1046.139648,838.985779 1043.633179,840.763000 1041.071533,842.405334 1038.457886,843.877808 1035.715088,845.163940 1032.918457,846.233032 1030.069702,847.092407 1027.166748,847.745483 1024.173096,848.049561 1021.182373,848.230713 1018.210815,848.248596 1015.266052,848.204651 1012.348145,848.044495 1009.436279,847.673950 1006.555725,847.178467 1000.815125,846.015015 997.950439,845.294189 995.041809,844.468994 992.192322,843.582153 989.372986,842.599792 983.790771,840.422058 981.061462,839.272888 975.154053,836.572937 971.850098,834.952454" />
				<polyline stroke="#000000" stroke-opacity="1" fill="none" stroke-linecap="round" stroke-width="4.66662598" points="1038.794312,796.279846 1037.439331,794.316650 1035.666382,792.177490 1034.683716,791.127930 1032.592529,789.150513 1029.213867,786.377563 1026.868896,784.709595 1025.645386,783.940308 1024.313721,783.250977 1022.957397,782.669861 1021.580200,782.186646 1020.179321,781.812927 1018.775024,781.535767 1017.362244,781.388184 1014.483032,781.406677 1011.500793,781.677734 1008.450867,782.135132 999.380493,784.006592 982.955811,787.908813" />
				<polyline stroke="#000000" stroke-opacity="1" fill="none" stroke-linecap="round" stroke-width="4.66650391" points="1010.177429,780.190552 1008.147827,778.842224 1005.763428,777.421021 1002.005554,775.333496 999.430420,774.078857 998.094177,773.586304 996.711182,773.215820 995.329956,772.941650 993.910339,772.764587 992.504883,772.664307 991.068848,772.713013 985.314819,773.346680 975.256104,775.202026 967.455017,776.484619" />
				<polyline stroke="#000000" stroke-opacity="1" fill="none" stroke-linecap="round" stroke-width="4.66674805" points="967.307739,777.497314 961.880493,775.430603 954.680969,773.081055 949.896729,771.724365 944.895996,770.605469 942.474548,770.158752 940.009888,769.793640 935.012329,769.426758 932.555176,769.408325 930.039368,769.488770 927.142944,769.763428" />
				<polyline stroke="#000000" stroke-opacity="1" fill="none" stroke-linecap="round" stroke-width="4.66662598" points="983.230713,841.855164 975.232300,844.573792 966.900452,846.254028 958.461975,847.231812 951.445801,847.748169 944.398132,848.039429 937.342529,848.059753 930.302368,847.762939 923.300964,847.103027 916.361816,846.033997 908.419128,843.826172 901.206482,839.941223" />
				<polyline stroke="#000000" stroke-opacity="1" fill="none" stroke-linecap="round" stroke-width="4.66662598" points="901.519897,841.256897 896.793701,843.552979 892.765198,845.114075 888.651306,846.353577 887.230286,846.697815 884.197815,847.281006 879.574341,847.953857 875.015137,848.363037 872.115051,848.522705 869.189453,848.508179 866.270508,848.315308 863.390076,848.020752 861.972351,847.834900 859.144165,847.326843 856.200806,846.669189 853.381714,845.926697 850.619568,844.941284 849.273071,844.385986 846.706909,843.063721 844.352295,841.417908 843.224915,840.514282 842.158752,839.532959 840.154053,837.389526 839.170532,836.198792 837.199158,833.405396" />
				<polyline stroke="#000000" stroke-opacity="1" fill="none" stroke-linecap="round" stroke-width="4.66662598" points="882.033264,755.402710 880.524536,758.909668 877.977905,764.005127 877.251221,765.247620 876.446472,766.424622 875.546753,767.526672 873.432922,769.500000 871.113770,771.210205 863.723877,775.906433 860.151489,778.308228 855.584167,781.848022 851.180298,785.578125 849.095215,787.543945 846.029175,790.977661 843.319153,794.536255 840.954407,798.155396 839.512817,800.676880 838.198486,803.213135 837.596619,804.512329 837.076294,805.871643 834.209229,812.902893 834.893066,814.185608 834.765991,817.110535 834.748657,819.971558 834.809326,821.401062 835.224487,825.681030 835.648926,828.491821 835.942993,829.885681 836.376526,831.352478" />
				<polyline stroke="#000000" stroke-opacity="1" fill="none" stroke-linecap="round" stroke-width="4.66662598" points="949.136963,685.561096 947.893738,690.686035 942.745483,711.044922 939.794556,720.771362 934.951416,735.502197 932.947998,741.161743 930.470520,747.797913 928.182251,754.436157 927.625610,756.354980 926.145569,762.161255 925.535461,765.098328 924.953857,768.432007" />
				<polyline stroke="#000000" stroke-opacity="1" fill="none" stroke-linecap="round" stroke-width="4.66662598" points="856.863831,551.151062 864.107544,551.789368 866.088440,551.856812 868.068726,551.809631 870.072144,551.666260 872.071411,551.418335 876.046021,550.568909 877.971252,549.929932 879.889404,549.154419 881.736389,548.272705 883.552429,547.213623 885.292725,546.075745 888.627808,543.554626 890.177368,542.171143 893.120850,539.172913 894.494324,537.631836 895.794128,536.023315 898.182495,532.693726 900.480347,529.024902 901.672668,526.992981 902.889893,524.723022" />
				<polyline stroke="#000000" stroke-opacity="1" fill="none" stroke-linecap="round" stroke-width="4.66687012" points="898.588867,515.805481 899.219666,517.013550 900.483887,519.043457 902.078064,521.383118 902.970276,522.515930 905.889343,525.704834 908.034180,527.574097 910.324219,529.234497 912.775452,530.706055 914.073669,531.373291 916.685852,532.539673 919.669800,533.528809 921.335022,533.965088" />
				<polyline stroke="#000000" stroke-opacity="1" fill="none" stroke-linecap="round" stroke-width="4.66674805" points="466.072815,326.437195 466.942291,325.027771 468.657471,322.695312 469.725098,321.398804 471.992126,318.861267 473.208099,317.668945 475.806152,315.466492 478.568390,313.420288 480.021179,312.489685 481.555237,311.740112 483.118958,311.143005 484.760498,310.800537 486.408569,310.641663 488.062927,310.656738 489.725983,310.888977 491.357574,311.218506 492.970520,311.714172 494.539246,312.335999 496.063599,313.064697 497.541748,313.904114 500.366577,315.766541 501.717102,316.819214 503.024841,317.917908 505.511841,320.368347 507.801361,322.982117 509.846313,325.753174 511.667053,328.596313 513.336853,331.547852 514.105713,333.064941 515.487915,336.182312 515.969788,337.790771 516.183960,339.443909 516.170898,341.101868 515.900330,342.752502 515.394836,344.339172 514.425537,345.640625" />
				<polyline stroke="#000000" stroke-opacity="1" fill="none" stroke-linecap="round" stroke-width="4.66662598" points="450.623749,360.144226 457.941406,355.450928" />
				<polyline stroke="#000000" stroke-opacity="1" fill="none" stroke-linecap="round" stroke-width="4.66662598" points="430.973755,375.486755 428.552612,377.196289 423.565521,380.513123 419.088379,383.181152 415.822052,384.940308 405.073578,390.175171 376.377869,405.952087 372.927185,407.978943 368.865631,410.665894 364.638794,413.716675 363.363770,414.811890 362.180725,415.953735 360.573761,417.846130 359.644104,419.195618 358.819489,420.642273 358.089233,422.132568 357.501190,423.680420 357.379364,424.479004 357.370422,425.280212 357.603546,426.875427 357.845367,427.644104 358.578003,429.142212 359.435577,430.559509 360.389099,431.906250 361.417419,433.195862 363.626648,435.661316 365.355652,437.455872 366.567261,438.582397 367.847443,439.635559 368.514404,440.117676 369.222107,440.505432 369.991791,440.554626 370.773285,440.506287 372.345245,440.158020 375.436066,439.086914 377.777527,438.158264 407.124420,422.451416 408.650024,421.658325 416.528717,416.919189 426.603424,411.047424 434.648254,406.695862 441.350037,402.890991 477.633881,381.391724 492.016968,373.036194" />
				<polyline stroke="#000000" stroke-opacity="1" fill="none" stroke-linecap="round" stroke-width="4.66674805" points="520.749634,357.832947 529.767151,352.792053 552.711731,339.963501" />
				<polyline stroke="#000000" stroke-opacity="1" fill="none" stroke-linecap="round" stroke-width="4.66674805" points="509.880066,324.688599 516.394836,321.676331 523.515564,318.272949 533.754517,313.621338" />
				<polyline stroke="#000000" stroke-opacity="1" fill="none" stroke-linecap="round" stroke-width="4.66662598" points="516.653137,384.630432 518.211731,382.094482 519.411072,379.937134 521.170105,376.233704 521.723999,374.670959 522.161377,373.070862 522.600281,370.653381 522.773071,369.005920 522.786011,367.295471 522.685303,365.602112 522.303345,363.140869 521.915222,361.523132 521.420837,359.837891 520.800232,358.162048 518.844116,353.981995 517.596680,351.548645 516.659790,349.897156 515.071472,347.421204 513.957703,345.876465 512.325073,343.787903 511.179871,342.481934 509.323303,340.659058 507.409729,339.032349 505.399475,337.542664 502.596466,335.695435 499.681763,334.023743 497.421112,332.980774 495.873993,332.400269 494.959137,332.224854 492.848755,332.124268 490.640015,332.234619 489.554108,332.403992 487.529297,332.862610 486.596954,333.143860 484.883759,333.836914 483.310211,334.699280 481.902130,335.620605 481.258179,336.132385 480.080811,337.294250 479.037506,338.580811 478.116241,339.961060 477.008240,342.178955 476.723053,342.951355 476.289886,344.521118 476.020020,346.157288 475.949768,347.774719 476.219604,349.385498 477.162964,352.526794 477.850159,354.003540 478.717072,355.393982 479.757782,356.698853 481.492767,358.506104 486.538696,362.932312 489.610748,365.914490 490.713623,367.170471 492.640808,369.906860 493.869446,372.070435 495.200745,375.097961 496.245911,378.216187 496.916077,380.737244 497.091064,381.727905" />
				<polygon stroke="#000000" stroke-opacity="1" fill="none" stroke-linecap="round" stroke-width="4.66687012" points="729.017700,268.797913 728.799683,262.370239 728.146362,255.970276 727.060486,249.625183 725.546814,243.362122 723.612000,237.208069 721.264038,231.189270 718.513062,225.331421 715.370972,219.659790 711.851074,214.198608 707.968506,208.971191 703.739868,203.999878 699.183289,199.306213 694.318298,194.910034 689.165771,190.830200 683.747620,187.084351 678.087219,183.688293 672.208679,180.656799 666.137207,178.002747 659.898804,175.737305 653.520264,173.870483 647.028809,172.410095 640.452209,171.362671 633.818665,170.732300 627.156616,170.521790 620.494629,170.732178 613.861084,171.362671 607.284485,172.410095 600.793091,173.870483 594.414490,175.737305 588.176086,178.002563 582.104736,180.656799 576.226135,183.688293 570.565674,187.084351 565.147583,190.830200 559.994995,194.910034 555.130005,199.306213 550.573425,204.000000 546.344849,208.971191 542.462280,214.198608 538.942322,219.659912 535.800110,225.331543 533.049316,231.189270 530.701355,237.208130 528.766357,243.362244 527.252747,249.625305 526.166931,255.970398 525.513611,262.370361 525.295593,268.798035 525.513611,275.225586 526.167053,281.625610 527.252869,287.970764 528.766479,294.233765 530.701416,300.387817 533.049438,306.406677 535.800354,312.264404 538.942444,317.936096 542.462402,323.397278 546.344971,328.624695 550.573669,333.595886 555.130127,338.289673 559.995239,342.685913 565.147827,346.765625 570.565918,350.511536 576.226257,353.907471 582.104858,356.939026 588.176331,359.593140 594.414734,361.858521 600.793335,363.725220 607.284729,365.185547 613.861328,366.233154 620.494751,366.863464 627.156860,367.073853 633.818787,366.863403 640.452332,366.233093 647.028870,365.185547 653.520386,363.725159 659.898865,361.858337 666.137207,359.593018 672.208679,356.938904 678.087280,353.907410 683.747620,350.511414 689.165771,346.765442 694.318298,342.685608 699.183289,338.289490 703.739868,333.595764 707.968506,328.624512 711.851013,323.397095 715.370850,317.935974 718.513062,312.264282 721.263916,306.406555 723.612000,300.387756 725.546814,294.233643 727.060486,287.970703 728.146240,281.625610 728.799561,275.225586" />
				<polygon stroke="#000000" stroke-opacity="1" fill="none" stroke-linecap="round" stroke-width="4.66650391" points="716.471802,269.395264 716.280579,263.710083 715.707642,258.049255 714.755615,252.437134 713.428467,246.897400 711.731873,241.454163 709.673096,236.130493 707.260986,230.949280 704.505859,225.932739 701.419495,221.102234 698.015076,216.478638 694.307312,212.081665 690.312073,207.929993 686.046265,204.041626 681.528259,200.432983 676.777466,197.119812 671.814209,194.115967 666.659790,191.434692 661.336121,189.087036 655.866028,187.083435 650.273071,185.432129 644.581177,184.140564 638.814575,183.213928 632.998108,182.656372 627.156616,182.470276 621.315186,182.656372 615.498718,183.213928 609.732178,184.140564 604.040222,185.432129 598.447266,187.083435 592.977234,189.087036 587.653564,191.434692 582.499146,194.115967 577.535828,197.119812 572.785034,200.432983 568.267151,204.041626 564.001343,207.929993 560.005981,212.081665 556.298096,216.478760 552.893799,221.102356 549.807495,225.932800 547.052307,230.949402 544.640137,236.130676 542.581421,241.454285 540.884888,246.897583 539.557678,252.437134 538.605652,258.049377 538.032776,263.710266 537.841553,269.395386 538.032776,275.080566 538.605652,280.741394 539.557800,286.353638 540.884949,291.893250 542.581543,297.336487 544.640259,302.660156 547.052429,307.841431 549.807617,312.857971 552.893921,317.688354 556.298340,322.312012 560.006104,326.709106 564.001465,330.860718 568.267273,334.749084 572.785278,338.357666 577.536072,341.670837 582.499268,344.674622 587.653748,347.356018 592.977417,349.703552 598.447388,351.707275 604.040344,353.358398 609.732300,354.650085 615.498840,355.576660 621.315308,356.134094 627.156860,356.320312 632.998230,356.134094 638.814697,355.576599 644.581238,354.650024 650.273193,353.358337 655.866150,351.707153 661.336121,349.703430 666.659790,347.355896 671.814270,344.674500 676.777466,341.670715 681.528259,338.357422 686.046204,334.748962 690.311951,330.860474 694.307312,326.708984 698.015076,322.311890 701.419495,317.688232 704.505798,312.857788 707.260864,307.841309 709.673035,302.660095 711.731873,297.336426 713.428467,291.893188 714.755615,286.353577 715.707642,280.741333 716.280579,275.080566" />
				<polyline stroke="#000000" stroke-opacity="1" fill="none" stroke-linecap="round" stroke-width="4.66674805" points="572.143677,283.392761 571.381165,279.820496 570.865295,276.317261 570.371460,271.275330 569.946106,264.739197 569.844360,261.421753 569.920593,256.902954 570.136841,253.586182 570.442627,250.406006 570.861755,247.405823 571.246277,245.439392 572.075745,242.342773 573.106262,239.265625 573.938843,237.329895 574.913208,235.498352 576.113220,233.697327 577.517395,232.020142 579.913330,229.740723 582.443359,227.699768 584.908447,225.947510 586.566101,224.913391 588.310669,223.966858 592.565552,221.975769 595.229187,220.982056 597.111267,220.413452 598.994873,219.937500 602.549500,219.298584 604.276001,219.135376 606.046143,219.071655 608.801208,219.209290 613.315063,219.835388 616.439087,220.545837 618.484375,221.268433 620.393738,222.259277 621.607605,223.070984 623.360596,224.387390 625.194763,226.024109" />
				<polyline stroke="#000000" stroke-opacity="1" fill="none" stroke-linecap="round" stroke-width="4.66662598" points="572.143677,284.257019 573.498352,274.156372 574.369141,269.055115 576.184937,261.300781 577.594421,256.433533 578.306702,254.463196 579.545410,251.426697 580.457825,249.458984 581.003357,248.492188 582.167358,246.599487 583.929382,243.991211 585.766418,241.569519 587.658142,239.268311 591.367737,235.219910 593.725891,232.960022 595.493286,231.462463 597.322876,230.165283 599.293884,228.949219 601.210693,227.898010 603.148865,227.018372 605.771362,226.040710 608.447327,225.240356 610.562805,224.768433 612.857666,224.404785 615.220276,224.159973 617.506836,224.025818 622.025513,224.030945 624.409790,224.196960" />
			</g>
		</g>
	</g>
</svg>
