<svg width="877" height="965" viewBox="0 0 877 965" fill="none" xmlns="http://www.w3.org/2000/svg">
<path d="M62.4937 -155.503C62.4728 -155.569 62.4527 -155.633 62.4335 -155.694L3.52153 -173.491C3.67295 -172.845 3.84696 -172.107 4.04384 -171.281C4.91442 -167.625 6.23185 -162.224 8.01719 -155.251C11.5879 -141.303 17.0301 -121.065 24.5122 -95.9211C39.4768 -45.6315 62.5987 24.2739 95.2237 102.723C160.49 259.661 263.715 450.613 415.597 587.178C567.706 723.946 701.365 817.793 796.98 877.44C844.787 907.264 883.083 928.537 909.417 942.35C922.584 949.257 932.761 954.298 939.641 957.611C943.082 959.267 945.697 960.492 947.451 961.301C947.568 961.355 947.68 961.406 947.789 961.457L975.998 813.605C975.572 813.442 975.061 813.246 974.467 813.016C972.421 812.226 969.392 811.038 965.446 809.446C957.555 806.262 946 801.462 931.33 794.991C901.991 782.049 860.188 762.423 810.308 735.678C710.552 682.19 578.462 600.21 449.14 486.241C319.672 372.144 222.923 211.358 158.563 79.2145C126.373 13.1234 102.266 -45.8445 86.2044 -88.2929C78.1734 -109.518 72.1534 -126.614 68.14 -138.409C66.1333 -144.306 64.6282 -148.877 63.6241 -151.977C63.1221 -153.526 62.7453 -154.708 62.4937 -155.503Z" fill="#994952" stroke="white" stroke-width="4"/>
</svg>
