<svg width="1254" height="1024" viewBox="0 0 1254 1024" fill="none" xmlns="http://www.w3.org/2000/svg">
<path d="M439.495 -155.503C439.474 -155.569 439.454 -155.633 439.434 -155.694L380.523 -173.491C380.674 -172.845 380.848 -172.107 381.045 -171.281C381.915 -167.625 383.233 -162.224 385.018 -155.251C388.589 -141.303 394.031 -121.065 401.513 -95.9211C416.478 -45.6315 439.6 24.2739 472.225 102.723C537.491 259.661 640.716 450.613 792.598 587.178C944.707 723.946 1078.37 817.793 1173.98 877.44C1221.79 907.264 1260.08 928.537 1286.42 942.35C1299.59 949.257 1309.76 954.298 1316.64 957.611C1320.08 959.267 1322.7 960.492 1324.45 961.301C1324.57 961.355 1324.68 961.406 1324.79 961.457L1353 813.605C1352.57 813.442 1352.06 813.246 1351.47 813.016C1349.42 812.226 1346.39 811.038 1342.45 809.446C1334.56 806.262 1323 801.462 1308.33 794.991C1278.99 782.049 1237.19 762.423 1187.31 735.678C1087.55 682.19 955.463 600.21 826.141 486.241C696.673 372.144 599.924 211.358 535.564 79.2145C503.374 13.1234 479.267 -45.8445 463.205 -88.2929C455.174 -109.518 449.154 -126.614 445.141 -138.409C443.134 -144.306 441.629 -148.877 440.625 -151.977C440.123 -153.526 439.746 -154.708 439.495 -155.503Z" fill="#994952" stroke="white" stroke-width="4"/>
<path d="M788.142 515.908C784.706 519.187 781.22 521.726 777.684 523.525C774.147 525.324 770.221 526.576 765.904 527.281L762.445 514.299L763.682 513.118L782.27 517.047L775.085 522.591L767.68 517.445C770.616 518.32 773.391 518.385 776.007 517.64C778.625 516.805 781.308 515.076 784.057 512.453C786.165 510.442 787.651 508.192 788.516 505.704C789.336 503.169 789.485 500.664 788.96 498.188C788.438 495.623 787.237 493.355 785.357 491.385C783.433 489.369 781.2 488.129 778.657 487.667C776.071 487.158 773.423 487.365 770.714 488.287C767.961 489.163 765.347 490.782 762.873 493.143L759.659 489.775C766.486 483.26 772.736 479.398 778.409 478.186C784.038 476.93 788.82 478.363 792.755 482.487C795.728 485.602 797.529 489.049 798.157 492.826C798.831 496.56 798.315 500.423 796.609 504.415C794.905 508.317 792.083 512.148 788.142 515.908ZM766.594 486.309L764.758 484.385L767.919 481.368L769.756 483.292L766.594 486.309ZM761.102 491.287L759.266 489.363C761.419 487.308 762.927 485.081 763.79 482.682C764.698 480.24 765 477.85 764.697 475.514C764.349 473.131 763.345 471.07 761.683 469.329C759.366 466.9 756.569 465.804 753.294 466.041C749.975 466.232 746.894 467.683 744.054 470.394C741.992 472.362 740.396 474.497 739.267 476.8C738.14 479.013 737.432 481.528 737.142 484.343L733.073 477.327L740.024 470.3L742.489 488.433L741.252 489.613L728.777 485.76C729.619 482.33 731.132 478.916 733.317 475.518C735.504 472.031 738.201 468.757 741.409 465.696C744.799 462.46 748.237 460.099 751.721 458.613C755.205 457.127 758.466 456.554 761.504 456.894C764.542 457.233 767.132 458.526 769.275 460.771C772.816 464.482 773.852 469.053 772.381 474.484C770.956 479.871 767.196 485.472 761.102 491.287Z" fill="white"/>
<path d="M981.559 740.484L1042.38 652.086L981.703 675.765L981.559 740.484Z" fill="#EDBC92"/>
<path d="M749.609 407.63L677.781 467.438" stroke="white" stroke-width="3"/>
</svg>
