<svg width="1856" height="1452" viewBox="0 0 1856 1452" fill="none" xmlns="http://www.w3.org/2000/svg">
<path d="M450.808 76.0918C450.832 76.1928 450.856 76.296 450.881 76.4014C451.447 78.8211 452.288 82.3928 453.389 86.998C455.59 96.2083 458.828 109.553 462.973 126.083C471.265 159.145 483.187 204.948 497.71 255.914C526.768 357.891 566.194 480.38 607.735 562.865C690.899 727.999 761.135 819.467 886.766 962.833C961.092 1047.65 1093.54 1148.62 1207.54 1228.45C1264.52 1268.35 1316.84 1302.94 1354.92 1327.55C1373.96 1339.86 1389.44 1349.67 1400.16 1356.4C1405.51 1359.77 1409.68 1362.37 1412.51 1364.12C1413.54 1364.76 1414.39 1365.29 1415.05 1365.7L1483.48 1243.89C1483.12 1243.73 1482.72 1243.54 1482.27 1243.32C1480.18 1242.33 1477.08 1240.84 1473.04 1238.86C1464.96 1234.89 1453.1 1228.93 1437.98 1220.96C1407.72 1205.03 1364.38 1181.09 1312.04 1149.01C1207.35 1084.84 1066.6 988.115 922.37 857.866C777.922 727.421 676.336 536.635 610.879 378.615C578.14 299.581 554.417 228.69 538.878 177.555C531.109 151.987 525.385 131.356 521.602 117.113C519.71 109.991 518.304 104.466 517.371 100.72C516.904 98.8466 516.555 97.4179 516.323 96.4565C516.294 96.3362 516.266 96.2231 516.241 96.1175L450.808 76.0918Z" fill="#994952" stroke="white" stroke-width="4"/>
<path d="M899.129 972.153L963.49 896.459L905.539 907.858L899.129 972.153Z" fill="#EDBC92"/>
<path d="M721.724 726.746L719.087 725.451L714.711 674.283L725.275 666.469L726.131 667.626L722.49 722.485L723.788 724.996L721.724 726.746ZM721.724 726.746L720.665 720.925L761.692 690.579L764.849 694.849L721.724 726.746ZM746.792 727.795L745.882 726.565L749.743 717.105L732.884 694.312L732.947 693.034L740.255 687.629L757.702 711.217L767.879 710.295L768.788 711.525L746.792 727.795Z" fill="white"/>
<path d="M732.295 623.38L663.283 662.913" stroke="white" stroke-width="3"/>
<path d="M516.52 98.6778C516.671 99.3238 516.845 100.061 517.042 100.888C517.912 104.543 519.23 109.944 521.015 116.918C524.586 130.865 530.028 151.103 537.51 176.247C552.475 226.537 575.597 296.442 608.222 374.892C673.488 531.83 776.713 722.781 928.595 859.346C1080.7 996.114 1214.36 1089.96 1309.98 1149.61C1357.79 1179.43 1396.08 1200.71 1422.42 1214.52C1435.58 1221.43 1445.76 1226.47 1452.64 1229.78C1456.08 1231.44 1458.7 1232.66 1460.45 1233.47C1460.57 1233.52 1460.68 1233.57 1460.79 1233.63L1489 1085.77C1488.57 1085.61 1488.06 1085.41 1487.46 1085.18C1485.42 1084.39 1482.39 1083.21 1478.44 1081.61C1470.55 1078.43 1459 1073.63 1444.33 1067.16C1414.99 1054.22 1373.19 1034.59 1323.31 1007.85C1223.55 954.358 1091.46 872.378 962.138 758.41C832.67 644.313 735.921 483.527 671.561 351.383C639.371 285.292 615.264 226.324 599.202 183.876C591.171 162.651 585.151 145.554 581.138 133.76C579.131 127.863 577.626 123.291 576.622 120.192C576.12 118.642 575.743 117.46 575.492 116.665C575.471 116.599 575.451 116.536 575.432 116.475L516.52 98.6778Z" fill="#994952" stroke="white" stroke-width="4"/>
<path d="M924.139 788.077C920.703 791.356 917.217 793.895 913.681 795.694C910.144 797.492 906.218 798.744 901.901 799.449L898.442 786.467L899.679 785.287L918.267 789.216L911.082 794.759L903.677 789.614C906.613 790.489 909.389 790.554 912.004 789.808C914.622 788.974 917.305 787.245 920.054 784.621C922.162 782.61 923.648 780.36 924.513 777.872C925.334 775.338 925.482 772.833 924.957 770.357C924.435 767.791 923.234 765.523 921.354 763.553C919.43 761.537 917.197 760.298 914.654 759.835C912.068 759.327 909.42 759.533 906.711 760.455C903.958 761.332 901.344 762.95 898.87 765.311L895.656 761.944C902.483 755.429 908.733 751.566 914.406 750.355C920.035 749.098 924.817 750.531 928.752 754.655C931.725 757.771 933.526 761.217 934.154 764.995C934.828 768.729 934.312 772.592 932.606 776.583C930.902 780.485 928.08 784.317 924.139 788.077ZM902.591 758.478L900.755 756.553L903.916 753.536L905.753 755.461L902.591 758.478ZM897.099 763.456L895.263 761.531C897.416 759.476 898.924 757.249 899.787 754.851C900.695 752.408 900.997 750.019 900.694 747.682C900.346 745.3 899.342 743.238 897.68 741.497C895.363 739.069 892.567 737.973 889.291 738.21C885.972 738.401 882.892 739.852 880.051 742.563C877.989 744.53 876.393 746.665 875.264 748.968C874.138 751.182 873.429 753.696 873.139 756.512L869.07 749.495L876.021 742.468L878.486 760.601L877.249 761.782L864.774 757.928C865.616 754.499 867.129 751.085 869.314 747.687C871.501 744.199 874.198 740.925 877.406 737.864C880.796 734.629 884.234 732.268 887.718 730.782C891.202 729.295 894.463 728.722 897.501 729.062C900.539 729.402 903.13 730.694 905.272 732.94C908.814 736.651 909.849 741.222 908.378 746.653C906.953 752.039 903.193 757.641 897.099 763.456Z" fill="white"/>
<path d="M1117.56 1012.65L1178.37 924.254L1117.7 947.933L1117.56 1012.65Z" fill="#EDBC92"/>
<path d="M885.607 679.799L813.779 739.607" stroke="white" stroke-width="3"/>
<path d="M576.638 120.55C576.695 120.727 576.755 120.91 576.817 121.1C577.744 123.951 579.136 128.167 580.994 133.617C584.711 144.516 590.29 160.349 597.74 180.068C612.64 219.509 635.016 274.492 664.916 336.647C724.731 460.988 814.594 613.894 934.852 728.525C1055.21 843.251 1186.36 929.915 1287.43 987.903C1337.97 1016.89 1380.97 1038.71 1411.34 1053.28C1426.53 1060.56 1438.55 1066.03 1446.77 1069.68C1450.88 1071.5 1454.05 1072.87 1456.18 1073.78C1456.34 1073.85 1456.49 1073.92 1456.64 1073.98L1456.64 924.427C1456.12 924.227 1455.45 923.967 1454.63 923.648C1452.46 922.805 1449.26 921.549 1445.12 919.891C1436.85 916.574 1424.83 911.652 1409.84 905.223C1379.86 892.365 1337.98 873.479 1290.37 849.36C1195.18 801.136 1076.99 731.939 985.255 648.124C893.484 564.275 809.948 438.564 749.396 333.939C719.106 281.605 694.544 234.503 677.553 200.484C669.057 183.474 662.454 169.734 657.973 160.243C655.733 155.498 654.023 151.815 652.873 149.317C652.298 148.068 651.863 147.116 651.571 146.475C651.542 146.411 651.515 146.35 651.488 146.292L576.638 120.55Z" fill="#994952" stroke="white" stroke-width="4"/>
<path d="M1116.4 849.544L1113.11 849.126L1109.79 830.966C1108.31 822.704 1106.85 815.942 1105.41 810.679C1103.92 805.378 1102.34 801.211 1100.67 798.178C1098.95 795.106 1096.96 792.744 1094.7 791.093C1091.58 788.812 1088.28 788.013 1084.81 788.697C1081.33 789.287 1078.36 791.251 1075.93 794.589C1074.27 796.85 1073.29 799.389 1072.96 802.207C1072.62 804.931 1072.98 807.547 1074.04 810.054L1067.43 802.996L1073.04 795.325L1079.02 813.071L1077.96 814.525L1064.08 813.179C1064.13 810.738 1064.52 808.173 1065.24 805.484C1065.95 802.701 1066.9 800.049 1068.08 797.528C1069.25 794.913 1070.62 792.529 1072.19 790.375C1077.03 783.754 1081.94 779.579 1086.92 777.849C1091.88 776.027 1096.6 776.748 1101.06 780.012C1102.73 781.231 1104.22 782.812 1105.52 784.756C1106.78 786.66 1107.85 789.14 1108.76 792.196C1109.7 795.198 1110.54 798.907 1111.28 803.325C1112.01 807.743 1112.71 813.001 1113.38 819.1L1116.24 838.406L1114.12 836.732L1131.17 813.396L1130.06 799.829L1131.12 798.375L1144.89 810.543L1116.4 849.544Z" fill="white"/>
<path d="M1076.36 720L1014.65 805.453" stroke="white" stroke-width="3"/>
<path d="M1354.74 1017.41L1396.42 903.037L1339 946.434L1354.74 1017.41Z" fill="#EDBC92"/>
<path d="M650.373 142.864C650.508 143.182 650.653 143.522 650.808 143.884C652.005 146.679 653.791 150.803 656.152 156.119C660.874 166.749 667.892 182.14 677.071 201.174C695.43 239.242 722.434 291.874 757.007 350.123C826.174 466.654 925.56 605.526 1046.55 695.305C1167.69 785.201 1270.44 842.336 1342.88 876.991C1379.1 894.319 1407.74 906.027 1427.32 913.401C1437.11 917.088 1444.64 919.691 1449.71 921.371C1452.24 922.211 1454.17 922.82 1455.45 923.219C1455.66 923.282 1455.85 923.34 1456.02 923.392L1499.07 798.195C1498.63 798.054 1498.09 797.881 1497.45 797.677C1495.42 797.025 1492.41 796.048 1488.53 794.75C1480.75 792.153 1469.44 788.269 1455.27 783.115C1426.94 772.807 1387.22 757.419 1341.6 737.097C1250.39 696.46 1135.57 636.058 1041.33 557.038C947.076 478.012 878.324 385.463 833.14 312.69C810.545 276.3 793.837 244.844 782.776 222.481C777.245 211.299 773.125 202.39 770.387 196.272C769.018 193.214 767.994 190.853 767.312 189.255C766.971 188.456 766.715 187.848 766.544 187.438C766.541 187.431 766.538 187.425 766.535 187.418L650.373 142.864Z" fill="#994952" stroke="white" stroke-width="3"/>
<path d="M1358.74 832.426L1357.08 831.728L1356.66 818.534L1311.13 799.381L1306.16 811.18L1304.59 811.059L1302.01 785.458L1302.71 783.799L1360.97 808.302L1370.69 799.373L1372.35 800.071L1358.74 832.426Z" fill="white"/>
<path d="M1300 718.669L1247.5 826.669" stroke="white" stroke-width="3"/>
</svg>
