<svg width="1123" height="894" viewBox="0 0 1123 894" fill="none" xmlns="http://www.w3.org/2000/svg">
<path d="M309.64 -151.619C309.697 -151.442 309.757 -151.258 309.818 -151.069C310.746 -148.217 312.138 -144.001 313.996 -138.552C317.712 -127.653 323.292 -111.82 330.742 -92.1002C345.642 -52.6595 368.017 2.32347 397.918 64.4785C457.733 188.82 547.596 341.726 667.854 456.356C788.211 571.082 919.36 657.747 1020.44 715.735C1070.97 744.726 1113.98 766.543 1144.34 781.11C1159.53 788.393 1171.55 793.864 1179.77 797.512C1183.89 799.336 1187.05 800.704 1189.18 801.616C1189.34 801.685 1189.49 801.751 1189.64 801.814L1189.64 652.258C1189.12 652.059 1188.45 651.799 1187.63 651.479C1185.46 650.637 1182.26 649.38 1178.13 647.722C1169.85 644.406 1157.84 639.483 1142.84 633.054C1112.86 620.197 1070.98 601.31 1023.37 577.191C928.184 528.968 809.989 459.771 718.257 375.956C626.486 292.106 542.95 166.396 482.398 61.7708C452.108 9.4364 427.546 -37.665 410.555 -71.684C402.059 -88.6941 395.456 -102.435 390.975 -111.925C388.735 -116.671 387.025 -120.354 385.875 -122.851C385.3 -124.1 384.865 -125.053 384.573 -125.694C384.544 -125.758 384.516 -125.819 384.49 -125.877L309.64 -151.619Z" fill="#994952" stroke="white" stroke-width="4"/>
<path d="M849.402 577.376L846.117 576.957L842.788 558.798C841.311 550.536 839.852 543.773 838.413 538.511C836.919 533.209 835.34 529.042 833.675 526.01C831.957 522.938 829.967 520.576 827.706 518.924C824.583 516.643 821.287 515.845 817.815 516.528C814.329 517.119 811.366 519.083 808.928 522.42C807.276 524.681 806.288 527.221 805.964 530.038C805.625 532.763 805.984 535.378 807.042 537.885L800.433 530.828L806.037 523.157L812.021 540.903L810.959 542.356L797.081 541.011C797.13 538.57 797.518 536.005 798.244 533.316C798.956 530.533 799.903 527.881 801.085 525.359C802.252 522.744 803.622 520.36 805.195 518.207C810.032 511.586 814.94 507.41 819.919 505.681C824.883 503.858 829.599 504.579 834.067 507.843C835.736 509.062 837.222 510.644 838.527 512.588C839.778 514.492 840.856 516.972 841.761 520.027C842.705 523.029 843.545 526.739 844.281 531.157C845.016 535.574 845.716 540.833 846.379 546.932L849.242 566.237L847.121 564.564L864.169 541.227L863.058 527.66L864.12 526.207L877.894 538.375L849.402 577.376Z" fill="white"/>
<path d="M809.361 447.832L747.647 533.285" stroke="white" stroke-width="3"/>
<path d="M1087.75 745.239L1129.42 630.868L1072 674.265L1087.75 745.239Z" fill="#EDBC92"/>
</svg>
