<svg width="942" height="1024" viewBox="0 0 942 1024" fill="none" xmlns="http://www.w3.org/2000/svg">
<path d="M964.512 1091.96C965.538 1092.59 966.388 1093.12 967.054 1093.53L1035.48 971.726C1035.12 971.558 1034.72 971.367 1034.27 971.152C1032.18 970.16 1029.08 968.672 1025.04 966.687C1016.97 962.717 1005.11 956.757 989.978 948.793C959.722 932.866 916.386 908.92 864.039 876.837C759.349 812.672 618.603 715.947 474.372 585.698C329.924 455.252 228.338 264.466 162.881 106.447C130.142 27.4121 106.419 -43.4786 90.8803 -94.6133C83.1107 -120.182 77.3865 -140.813 73.6038 -155.056C71.7124 -162.177 70.3063 -167.702 69.3726 -171.449C68.9058 -173.322 68.557 -174.751 68.3247 -175.712C68.2956 -175.832 68.2684 -175.945 68.2429 -176.051L2.81039 -196.077C2.834 -195.976 2.85811 -195.872 2.88277 -195.767C3.44885 -193.347 4.29021 -189.776 5.39073 -185.171C7.59184 -175.96 10.8296 -162.616 14.9753 -146.085C23.2669 -113.024 35.1892 -67.2203 49.712 -16.2541C78.7699 85.7222 118.196 208.212 159.737 290.697C242.901 455.83 313.137 547.299 438.768 690.665C513.094 775.483 645.538 876.448 759.545 956.282C816.521 996.18 868.845 1030.77 906.924 1055.38C925.964 1067.69 941.441 1077.5 952.158 1084.23C957.516 1087.6 961.684 1090.2 964.512 1091.96Z" fill="#994952" stroke="white" stroke-width="4"/>
</svg>
