<?xml version="1.0" encoding="UTF-8"?>
<!-- Generator: Blender, SVG Export for Grease Pencil - v1.0 -->
<!DOCTYPE svg PUBLIC "-//W3C//DTD SVG 1.1//EN" "http://www.w3.org/Graphics/SVG/1.1/DTD/svg11.dtd">
<svg version="1.0" x="0px" y="0px" xmlns="http://www.w3.org/2000/svg" width="1900px" height="2300px" viewBox="0 0 1920 1080">
	<g id="blender_frame_1">
		<g id="blender_object_Stroke">
			<!--Layer: Fills-->
			<g id="Fills">
				<polygon stroke="#000000" stroke-opacity="1" fill="none" stroke-linecap="round" stroke-width="4.66662598" points="1031.714844,409.912292 1033.107056,410.187988 1035.891357,411.397888 1038.675659,412.780762 1041.459961,414.172424 1044.244263,415.939026 1047.028564,417.519958 1049.812866,420.049561 1052.597168,422.821045 1055.023071,425.604736 1056.849854,428.388977 1058.433716,431.173218 1060.605103,433.957581 1062.044678,436.741821 1063.439087,439.526062 1064.831421,442.310425 1066.239624,445.094727 1066.863037,447.878967 1067.833862,450.663269 1069.034912,453.447571 1069.647949,456.231873 1070.634155,459.016113 1071.050537,461.800415 1072.026855,464.584717 1072.084351,467.369019 1072.445557,470.153259 1073.419189,472.937622 1073.476440,475.721863 1073.479248,478.506104 1073.479370,481.290466 1073.479370,484.074707 1073.479370,486.859009 1073.479370,489.643311 1073.479370,492.427551 1073.479370,495.211914 1073.479370,497.996155 1073.479370,500.780396 1073.479370,503.564758 1073.120972,506.348999 1072.147461,509.133362 1072.090210,511.917603 1071.729004,514.701843 1070.755371,517.486206 1070.339600,520.270447 1069.363281,523.054749 1068.947510,525.839050 1067.987183,528.623352 1066.802734,531.407593 1065.405029,534.191895 1064.782104,536.976196 1063.436890,539.760498 1062.062988,542.544739 1059.902222,545.329041 1058.088745,548.113342 1056.505615,550.897583 1053.975830,553.681885 1051.204346,556.466187 1048.420654,559.250488 1045.636353,562.050842 1042.852173,563.708008 1040.067749,565.113464 1037.283569,566.506287 1034.499268,567.898438 1031.714844,568.932190 1028.930664,568.992432 1026.146240,568.995361 1023.362061,568.995483 1020.577698,568.995483 1017.793457,568.995483 1015.009094,568.995483 1012.224792,568.637085 1009.440552,567.305176 1006.656189,566.290405 1003.871948,564.728821 1001.087585,563.158264 998.303345,560.629150 995.519043,557.857666 992.734680,555.074036 989.934448,552.289795 988.293213,549.505493 986.119080,546.721191 984.304932,543.936951 982.705627,541.152649 981.677368,538.368347 980.489624,535.584045 979.107849,532.799744 977.700134,530.015503 977.076660,527.231140 976.089844,524.446899 975.673462,521.662659 974.697205,518.878296 974.281311,516.094055 973.304993,513.309753 973.247559,510.525452 972.886414,507.741150 971.912720,504.956848 971.855408,502.172607 971.852661,499.388306 971.852539,496.604004 971.852539,493.819702 971.852539,491.035461 971.852539,488.251160 971.852539,485.466858 971.852539,482.682617 971.852539,479.898315 971.852539,477.114014 971.836487,474.329712 972.979553,471.545410 973.231323,468.761169 973.228027,465.976807 974.371704,463.192566 974.623474,460.408325 974.994507,457.623962 975.952637,454.839722 977.153076,452.055359 977.766052,449.271118 978.736389,446.486877 979.921326,443.702515 981.302979,440.918274 982.694641,438.133972 984.086731,435.349670 985.853333,432.565430 987.434204,429.781128 989.605530,426.996826 991.403503,424.212524 994.129822,421.428223 996.911316,418.627869 999.695435,416.986755 1002.479797,414.812561 1005.264160,413.372925 1008.048340,411.978394 1010.832703,410.570190 1013.616943,409.946655 1016.401306,408.959839 1019.185547,408.901917 1021.969849,408.899048 1024.754272,408.898926 1027.554443,408.882935 1029.195679,409.655945 1030.383057,409.361511" />
				<polygon fill="#000000" stroke="none" fill-opacity="1" points="1029.694092,409.763062 1030.840942,410.003479 1033.134766,410.366882 1035.428467,411.158997 1037.722168,412.134888 1040.015991,413.273071 1042.309692,414.728027 1044.603394,416.030457 1046.897217,418.114380 1049.191040,420.410767 1051.189453,421.762268 1052.681274,423.848694 1054.927856,426.131958 1056.924072,428.425232 1058.428833,430.718933 1059.746948,433.012756 1060.902466,435.306519 1062.049683,437.600220 1063.196655,439.894043 1064.343506,442.187805 1065.490356,444.481506 1066.328735,446.775269 1067.320190,449.069031 1067.825195,451.362793 1068.624512,453.656555 1069.614014,455.950317 1069.810547,458.244080 1070.762817,460.537842 1070.957397,462.831604 1071.909668,465.125366 1072.117554,467.419128 1072.114746,469.712891 1073.057129,472.006653 1073.264404,474.300415 1073.274902,476.594116 1073.275391,478.887939 1073.275391,481.181641 1073.275391,483.475403 1073.275391,485.769165 1073.275391,488.062927 1073.275391,490.356689 1073.275391,492.650452 1073.275391,494.944214 1073.275391,497.237976 1073.275391,499.531738 1073.275391,501.825439 1073.275391,504.119263 1072.980225,506.412964 1072.178223,508.706726 1072.131104,511.000549 1071.833374,513.294250 1071.031250,515.588013 1070.688843,517.881836 1069.884521,520.175537 1069.541992,522.469299 1068.737671,524.763123 1068.395142,527.056824 1067.295532,529.350586 1066.459473,531.644348 1065.481323,533.938110 1064.329834,536.231873 1063.829834,538.525574 1062.088379,540.819397 1060.904785,543.113159 1059.756104,545.406921 1058.300659,547.700684 1056.998291,549.994446 1054.914307,552.288147 1052.926392,554.581909 1051.435059,556.875732 1049.188599,559.182617 1046.897217,560.534729 1044.603394,562.634277 1042.309692,563.989075 1040.015991,565.146423 1037.722168,566.293823 1035.428467,567.440674 1033.134766,568.292358 1030.840942,568.341919 1028.547119,568.344360 1026.253418,568.344482 1023.959656,568.344482 1021.665894,568.344482 1019.372192,568.344482 1017.078430,568.344482 1014.784607,568.344482 1012.490845,568.357666 1010.197083,567.429199 1007.903381,566.293274 1005.609619,565.146912 1003.315918,564.000061 1001.022156,562.544739 998.728271,561.242310 996.434570,559.158325 994.140808,556.875183 991.833923,554.581909 990.481812,552.288147 988.382263,549.994446 987.027405,547.700684 985.883301,545.406921 984.102661,543.113159 982.917114,540.819397 981.768372,538.525574 980.608154,536.231873 980.094543,533.938110 978.986328,531.644348 978.149780,529.350586 977.158569,527.056824 976.653442,524.763123 975.840942,522.469299 975.497925,520.175537 974.693665,517.881836 974.351013,515.588013 973.546692,513.294250 973.499451,511.000549 973.201904,508.706726 972.399780,506.412964 972.352539,504.119263 972.350220,501.825439 972.350098,499.531738 972.350098,497.237976 972.350098,494.944214 972.350098,492.650452 972.350098,490.356689 972.350098,488.062927 972.350098,485.769165 972.350098,483.475403 972.350098,481.181641 972.350098,478.887939 972.350098,476.594116 972.350098,474.300415 972.645386,472.006653 973.447388,469.712891 973.494629,467.419128 973.483643,465.125366 974.425537,462.831604 974.619690,460.537842 975.571838,458.244080 975.766541,455.950317 976.718811,453.656555 977.221863,451.362793 978.021118,449.069031 978.997437,446.775269 980.148804,444.481506 980.662109,442.187805 981.770203,439.894043 982.915161,437.600220 984.048828,435.306519 985.828979,433.012756 987.322876,430.718933 988.627258,428.425232 990.724548,426.131470 992.065979,423.837646 994.151794,421.543945 996.435120,419.237000 998.728394,417.884888 1001.022156,415.785339 1003.315918,414.430603 1005.609619,413.273193 1007.903381,412.125854 1010.197083,411.287354 1012.490845,410.296021 1014.784607,410.099426 1017.078430,409.147156 1019.372192,408.939270 1021.665894,408.928833 1023.959656,408.928284 1026.266724,408.915039 1027.618652,409.551941 1028.596802,409.309204" />
				<polygon fill="#000000" stroke="none" fill-opacity="1" points="907.136292,404.576172 908.469971,404.840271 911.137207,406.014709 913.804504,406.587708 916.471680,408.612366 919.138977,410.347473 921.806274,411.864014 924.473511,414.287476 927.140808,416.942505 929.464722,419.609131 931.199402,422.276428 933.468445,424.943665 934.857117,427.610962 936.193359,430.278259 937.527100,432.945557 938.860840,435.612854 940.194458,438.280151 941.543457,440.947449 942.140686,443.614685 943.070679,446.281982 944.221252,448.949280 944.449768,451.616577 945.557129,454.283875 945.783447,456.951172 946.890747,459.618469 947.132507,462.285706 947.144653,464.952942 947.488586,467.620239 948.421204,470.287537 948.476074,472.954834 948.478760,475.622131 948.463562,478.289368 949.886597,480.285400 952.483398,479.664307 955.147217,479.625061 957.814331,479.623108 960.481567,479.623047 963.148865,479.623047 965.816101,479.623047 968.483398,479.623047 970.822693,479.951050 971.134277,482.306702 971.149841,484.958435 970.807373,487.624939 969.890076,490.307556 968.412231,491.551758 965.812683,491.278870 963.148743,490.349731 960.481567,490.295044 957.814331,490.292297 955.147095,490.635559 952.479797,491.568115 949.812500,491.623047 947.145325,491.625671 944.478027,491.625793 941.810791,491.625854 939.143494,491.610474 936.476196,492.705505 933.808960,492.946716 931.141663,492.958862 928.474426,492.944092 925.807190,494.039185 923.139893,494.264954 920.472595,495.372253 917.805359,495.957275 915.138123,497.245422 912.470825,498.576843 909.803589,499.910400 907.136292,501.228638 904.469055,503.642029 901.801758,506.296570 899.119141,508.963196 897.531616,511.630493 896.185242,514.297791 895.194275,516.965027 895.479919,519.632324 896.394348,522.299622 897.872131,524.966919 900.471619,527.634216 903.135559,529.958130 905.802673,531.349487 908.469971,533.044617 911.137207,534.231262 913.804504,534.314331 916.471680,533.222534 919.138977,532.981567 921.806274,532.969360 924.473511,532.625427 927.140808,531.692810 929.808105,531.294556 932.475281,530.359314 935.142578,530.304260 937.481873,530.629578 937.808838,532.985168 936.744690,535.636841 935.424622,538.303406 933.732971,540.970642 932.218445,543.637939 929.779785,546.305237 928.219849,548.972473 925.794373,551.639771 923.139282,553.963684 920.472595,555.698364 917.805359,557.967468 915.138123,559.356079 912.470825,560.692444 909.803589,562.041565 907.136292,562.638855 904.469055,563.584229 901.801758,563.639709 899.134460,563.642395 896.467285,563.642517 893.799988,563.642578 891.132690,563.657898 888.465454,562.562866 885.798157,562.337036 883.130920,561.245178 880.463684,559.923706 877.796387,558.231934 875.129150,556.717468 872.461853,554.294128 869.794556,551.639160 867.127380,548.972412 864.444702,546.305237 862.872498,543.637939 860.789734,540.970642 859.410522,538.303345 858.074707,535.636047 856.740967,532.968811 855.407349,530.301514 854.073730,527.634216 852.724670,524.966919 852.127502,522.299622 851.182068,519.632324 850.783264,516.965027 849.847900,514.297791 849.449585,511.630493 848.514282,508.963196 848.474609,506.295898 847.376892,503.628601 847.135620,500.961304 847.123474,498.294067 847.122864,495.626770 846.779480,492.959473 845.846924,490.292175 845.792053,487.624878 845.789307,484.957581 845.789246,482.290344 845.789246,479.623047 845.789246,476.955750 846.132568,474.288452 847.065125,471.621155 847.120056,468.953857 847.122681,466.286682 847.466125,463.619385 848.398743,460.952087 848.453613,458.284790 848.799622,455.617493 849.732422,452.950195 850.130676,450.282959 851.050537,447.615662 852.200684,444.948364 852.787781,442.281067 854.076050,439.613770 855.048767,436.946472 856.186035,434.279175 857.509705,431.611938 859.201538,428.944641 860.716064,426.277344 862.796021,423.610046 864.518372,420.942749 866.786865,418.275513 868.518799,415.608154 871.131042,413.284241 873.795593,411.549561 876.462769,409.280518 879.130066,407.891846 881.797241,406.555481 884.464539,405.206360 887.131836,404.609131 889.799072,403.663757 892.466370,403.608276 895.133606,403.605530 897.800903,403.605408 900.468201,403.605408 903.150757,403.590027 904.722961,404.330566 905.860352,404.048523" />
			</g>
			<!--Layer: Lines-->
			<g id="Lines">
				<polyline stroke="#000000" stroke-opacity="0.892988503" fill="none" stroke-linecap="round" stroke-width="4.66674805" points="802.929993,455.760803 801.629822,454.719543 796.512939,455.992493 793.776123,454.979126 790.974243,454.140381 803.322632,456.140564 785.223938,453.000549 782.300110,452.704407 779.360474,452.592651 776.417664,452.665833 773.484131,452.923523 770.572571,453.364746 767.695435,453.987549 764.864990,454.789246 762.093445,455.766418 759.392578,456.914978 756.774048,458.229919 754.248962,459.705566 751.828186,461.335632 749.522095,463.113281 747.340576,465.030640 745.292908,467.079712 743.387939,469.251648 741.633789,471.537170 740.037842,473.926453 738.607178,476.409241 737.347839,478.975037 736.265076,481.612671 735.363708,484.310974 734.647400,487.058350 734.119507,489.843018 733.781982,492.653076 733.636475,495.476562 733.683533,498.301147 733.922913,501.115051" />
				<polyline stroke="#000000" stroke-opacity="0.998689651" fill="none" stroke-linecap="round" stroke-width="4.66674805" points="1126.375610,478.080383 1123.748169,463.956665 1120.391846,450.129333 1116.320923,436.657471 1109.722168,421.767761" />
				<polyline stroke="#000000" stroke-opacity="1" fill="none" stroke-linecap="round" stroke-width="4.66662598" points="960.062744,314.330200 948.860229,315.529846 937.706177,317.657959 926.648499,320.705322 915.734436,324.658936 905.010803,329.501953 894.523438,335.213501 884.317383,341.769287 874.436157,349.141113 864.922119,357.297302" />
				<polyline stroke="#000000" stroke-opacity="1" fill="none" stroke-linecap="round" stroke-width="4.66662598" points="817.700439,420.538269 811.788818,433.040527 801.310059,455.983032" />
				<polyline stroke="#000000" stroke-opacity="0.978878677" fill="none" stroke-linecap="round" stroke-width="4.66662598" points="732.416931,502.869629 729.824402,502.927856 727.185913,503.158752 724.512817,503.561279 721.816406,504.133789 719.108398,504.873718 716.400269,505.777954 713.703552,506.842712 711.030151,508.063232 708.391235,509.434448 705.797974,510.950500 703.261780,512.604797 700.793396,514.390320 698.403381,516.299316 696.101807,518.323853 693.898804,520.455017 691.803711,522.683716 689.825378,525.000610 687.972473,527.395508 686.252747,529.858276 684.673706,532.378418 683.242065,534.945068 681.963867,537.547302 680.844604,540.173950 679.889282,542.813660 679.101807,545.455261" />
				<polyline stroke="#000000" stroke-opacity="0.922868967" fill="none" stroke-linecap="round" stroke-width="4.66662598" points="1124.306519,483.006592 1126.646973,481.161011 1125.960938,481.432190 1141.786133,478.301514 1144.752930,477.701843 1147.753662,477.289490 1150.775146,477.066040 1153.804932,477.032593 1156.829712,477.189209 1159.836548,477.535278 1162.812622,478.069275 1165.745483,478.789001 1168.622070,479.691223 1171.430298,480.772217 1174.158203,482.027344 1176.794067,483.451050 1179.326416,485.037476 1181.744873,486.779724 1184.038574,488.670288 1186.197876,490.701172 1188.213623,492.863586 1190.077148,495.148315 1191.780396,497.545532 1193.316040,500.045105 1194.677734,502.636169 1195.859375,505.307678 1196.856079,508.048279 1197.663452,510.846130 1198.278076,513.689270 1198.697510,516.565491 1198.919678,519.462646" />
				<polyline stroke="#000000" stroke-opacity="0.978878677" fill="none" stroke-linecap="round" stroke-width="4.66662598" points="1200.739258,520.995422 1203.381714,520.625793 1206.099243,520.423889 1208.880493,520.390564 1211.713379,520.526062 1214.585693,520.829590 1217.485474,521.300049 1220.400024,521.935303 1223.316772,522.732727 1226.223389,523.688782 1229.107422,524.799500 1231.956665,526.059998 1234.758667,527.464966 1237.501465,529.008362 1240.173584,530.683655 1242.763184,532.483521 1245.259277,534.400391 1247.651489,536.426025 1249.929321,538.551697 1252.083008,540.768250 1254.103149,543.066284 1255.981567,545.436035 1257.709961,547.867249 1259.280884,550.349487 1258.708374,551.511292 1259.910400,553.991943" />
				<polyline stroke="#000000" stroke-opacity="0.0418943949" fill="none" stroke-linecap="round" stroke-width="4.66674805" points="1177.744873,539.415833 1178.557373,537.253174 1179.551514,535.187073" />
				<polyline stroke="#000000" stroke-opacity="1" fill="none" stroke-linecap="round" stroke-width="4.66674805" points="594.874329,646.312500 596.291199,651.493286 597.249634,654.457886 598.359009,657.388916 599.594971,660.343018 601.031799,663.283447 602.578369,666.139832 604.241272,668.938232 607.921509,674.293945 611.961365,679.450562 614.075562,681.962036 618.411499,686.850098 620.673096,689.174805 623.012939,691.382446 625.448486,693.518677 628.035034,695.580933 630.651733,697.535706 633.338257,699.375122 636.114014,701.057739 638.947876,702.587280 641.876953,703.969360 644.886108,705.216064 647.928894,706.338501 650.994507,707.338135 654.082703,708.172119 657.224915,708.810791 660.378662,709.292664 663.540894,709.605835 666.705505,709.843384 669.880005,709.979370 676.331665,710.070740 697.314026,710.119751" />
				<polyline stroke="#000000" stroke-opacity="1" fill="none" stroke-linecap="round" stroke-width="4.66662598" points="696.543213,710.151001 698.582031,712.535156 702.371643,716.511719 704.648804,718.688416 707.076721,720.827637 709.592407,722.841125 712.246765,724.680847 715.064697,726.274841 718.010437,727.499390 721.097229,728.206787" />
				<polyline stroke="#000000" stroke-opacity="1" fill="none" stroke-linecap="round" stroke-width="4.66674805" points="1317.590088,653.405640 1317.256714,656.485107 1316.419312,661.729370 1315.753784,664.682129 1314.914429,667.731323 1313.873047,670.742188 1312.645508,673.749573 1311.286499,676.671753 1309.807007,679.576660 1308.189575,682.386292 1306.484741,685.139954 1304.685181,687.802429 1302.734497,690.423096 1300.710571,692.988586" />
				<polyline stroke="#000000" stroke-opacity="1" fill="none" stroke-linecap="round" stroke-width="4.66662598" points="1230.770264,723.212097 1227.584717,723.116943 1224.411865,722.893555 1218.089233,722.144470 1214.735962,721.602905 1207.278931,720.126465" />
				<polyline stroke="#000000" stroke-opacity="1" fill="none" stroke-linecap="round" stroke-width="4.66662598" points="1205.246216,720.177612 1203.156128,721.067322 1200.264648,722.204712 1197.351929,723.223267 1194.272949,724.186707 1191.167236,725.058350 1188.023926,725.848022 1184.828857,726.528809 1181.623901,726.975037 1178.405640,727.190063 1174.953369,727.229980 1171.308105,727.070557" />
				<polyline stroke="#000000" stroke-opacity="1" fill="none" stroke-linecap="round" stroke-width="4.66662598" points="720.594116,728.333679 729.116943,729.461792 735.354248,730.122498 744.908569,730.901245 748.095276,731.017944 751.279358,730.908569 754.459900,730.629517 757.825745,730.073730 761.365967,729.165039 765.108887,727.938843" />
				<polyline stroke="#000000" stroke-opacity="1" fill="none" stroke-linecap="round" stroke-width="4.66662598" points="959.799133,313.021362 962.355408,308.222778 969.404968,295.347534 974.828552,285.775146 977.693359,280.980042 980.933777,275.987427 984.605347,270.553711 988.499817,264.953003" />
				<polyline stroke="#000000" stroke-opacity="1" fill="none" stroke-linecap="round" stroke-width="4.66674805" points="987.037109,263.993103 1001.764526,263.106873 1012.542664,262.303589 1034.559204,260.295532 1045.558350,259.453491 1056.538818,258.786377 1062.022827,258.625427 1067.504395,258.694275 1072.997192,259.049866 1078.530518,259.884705 1083.913208,261.053040 1089.264038,262.582153 1094.484863,264.609741 1099.512207,266.948486 1104.337036,269.761108 1108.977295,272.879211 1113.474731,276.354126 1117.638184,280.129883 1121.541016,284.126526 1125.170288,288.385193 1128.478516,292.883728 1131.478394,297.607727 1134.187134,302.520813 1136.628784,307.542480 1138.828125,312.708923 1140.808228,317.945068 1142.589722,323.300659 1144.176147,328.704895 1145.525146,334.209839 1146.722534,339.731018 1147.784668,345.262207 1148.718506,350.790344 1149.517822,356.655945" />
				<polyline stroke="#000000" stroke-opacity="1" fill="none" stroke-linecap="round" stroke-width="4.66662598" points="959.799133,317.107117 965.118958,318.360413 968.948242,319.432251 979.182678,322.467102 984.447754,324.141968 989.659424,325.911560 994.898438,327.795105 1000.130432,329.840210 1010.467773,334.192139 1015.549622,336.548828 1020.567139,338.996216 1025.574829,341.662415 1030.492188,344.470520 1035.244995,347.435242 1039.821899,350.642761 1044.224609,354.193848 1048.464355,357.881470" />
				<polyline stroke="#000000" stroke-opacity="1" fill="none" stroke-linecap="round" stroke-width="4.66662598" points="1122.190918,403.161255 1124.802490,398.204956 1129.634155,388.133362 1136.786499,372.888794 1139.845581,367.744385 1143.604370,362.635254 1148.154175,357.507019" />
				<polyline stroke="#000000" stroke-opacity="1" fill="none" stroke-linecap="round" stroke-width="4.66674805" points="970.694397,287.145386 965.920166,284.429871 962.507080,282.293457 957.865784,279.277710 953.451172,276.207947 948.877686,272.795837 944.464539,269.268677 940.262695,265.549316 936.293152,261.669495 932.488525,257.616699 928.904480,253.329590 925.526428,248.814270 922.362427,244.095154 919.472717,239.251099 916.848145,234.245789 914.477234,229.154053 912.339294,223.911560 910.415649,218.530701 908.721985,213.028992 907.429382,207.477966 906.717590,201.822510 906.668274,196.118286 906.958008,190.563843 907.808044,185.050537 909.079529,179.646057 910.711182,174.292664 912.783081,169.107422 915.178406,163.969910 917.810120,159.009705 920.710388,154.156494 923.884399,149.455872 927.404785,144.791504 930.974548,140.359985 934.647400,136.084045 938.460388,131.967896 942.419067,127.990784 946.520203,124.156372 950.768616,120.512878 955.198486,116.996277 959.684448,113.671021 964.343628,110.542114 969.105164,107.680847 974.028076,105.080078 979.040466,102.732361 984.208618,100.649536 989.506165,98.950195 994.869568,97.570557 1000.340515,96.601624 1005.849121,96.137878 1011.431152,96.036316 1016.942383,96.323792 1022.430725,96.931702 1027.824951,98.044495 1033.170288,99.603088 1038.316528,101.727539 1043.260010,104.312988 1047.976074,107.343445 1052.680054,111.021423 1057.295410,115.370117 1061.797119,120.585205" />
				<polyline stroke="#000000" stroke-opacity="0.923052549" fill="none" stroke-linecap="round" stroke-width="4.66674805" points="1059.217529,112.822327 1073.295166,108.590820 1083.694946,105.780945 1089.052368,104.482422 1094.583252,103.287903 1100.065918,102.205811 1105.576294,101.227478 1116.626343,99.552979 1122.109253,98.876831 1127.595581,98.481323 1133.154297,98.468567 1138.699951,98.940552 1144.168457,99.951111 1149.585938,101.425842 1154.799561,103.419739 1159.787964,105.969849 1164.466309,109.034363 1168.824585,112.501648 1172.797607,116.337341 1176.401245,120.554932 1179.648193,125.053833 1182.468384,129.834167 1184.448364,134.995728 1185.700562,140.420227" />
				<polyline stroke="#000000" stroke-opacity="0.00404317817" fill="none" stroke-linecap="round" stroke-width="4.66674805" points="1249.128418,195.611938 1254.312134,197.813782 1259.406860,200.183350 1264.438965,202.701355" />
				<polyline stroke="#000000" stroke-opacity="0.413486123" fill="none" stroke-linecap="round" stroke-width="4.66662598" points="1289.728638,293.556396 1286.263062,298.397827 1282.057007,303.153931 1277.070801,307.796204" />
				<polyline stroke="#000000" stroke-opacity="0.994324327" fill="none" stroke-linecap="round" stroke-width="4.66662598" points="1279.844482,304.849976 1283.232056,309.260925 1285.452637,312.528564 1288.287964,317.112732 1290.769653,321.844177 1292.779541,326.925598 1294.036133,332.246765 1294.779175,337.686340 1294.808716,343.289978 1294.446777,348.767761 1293.588989,354.226807 1292.297974,359.570435 1290.594238,364.807678 1288.486450,369.917297 1285.884766,374.828735 1282.910522,379.509033 1279.352905,383.808777 1275.183716,387.727844 1270.569214,391.273254 1265.905029,394.472961 1261.093872,397.352844 1256.046265,399.890137 1250.825439,401.850891 1245.457764,403.135193 1240.041016,403.970520 1234.580811,404.411377 1229.034790,404.525146 1223.477295,404.366455 1217.915039,404.044556 1212.359253,403.575928 1206.811523,402.897583 1195.742920,401.045227 1184.706177,398.824463 1173.714111,396.257080 1168.294556,394.796875 1157.365234,391.437622 1146.454468,387.726624 1133.990967,383.231079" />
				<polyline stroke="#000000" stroke-opacity="1" fill="none" stroke-linecap="round" stroke-width="4.66650391" points="1009.575317,261.331543 1007.059265,252.793213 1005.915649,248.936646 1004.668701,245.052917 1003.227539,241.119934 1001.651367,237.297974 999.989746,233.545105 998.209900,229.871399 996.320251,226.266113 994.312927,222.724304 992.148071,219.244385 989.798462,215.900635 986.874939,213.124451 983.364502,211.428284 979.595276,211.047607 975.735840,212.008545 972.208923,214.418945 969.081360,218.115479" />
				<polyline stroke="#000000" stroke-opacity="1" fill="none" stroke-linecap="round" stroke-width="4.66687012" points="1057.713379,258.630066 1054.051514,246.088440 1053.185059,242.416809 1052.389526,238.635681 1051.683105,234.888123 1051.134277,231.084167 1050.845947,227.275757 1050.803833,223.439270 1050.932129,219.711304 1051.337646,215.999390 1051.938354,212.308105 1052.865479,208.644958 1054.053955,205.102234 1055.504883,201.646179 1057.231812,198.318848 1059.189209,195.085693 1061.440430,192.099243 1063.817993,190.070007 1067.839722,189.602722 1071.729614,192.682861 1072.689087,196.214417 1070.660645,201.781860" />
				<polyline stroke="#000000" stroke-opacity="1" fill="none" stroke-linecap="round" stroke-width="4.66650391" points="1101.436279,268.078735 1116.296753,257.120300 1119.901733,253.638184 1124.261597,249.610352 1128.802734,245.561829 1131.109619,243.576172 1135.801147,239.684814 1138.157959,237.834900 1140.594727,236.076721 1143.078857,234.414978 1145.621216,232.852600 1148.278809,231.424072 1151.122559,230.125549 1153.932007,228.951660 1156.758911,227.883850 1159.556641,226.879578 1162.401367,225.967590 1165.262939,225.157776 1168.177979,224.521851 1171.102905,224.039429 1174.033569,223.817871 1176.926758,224.041260 1179.515991,225.076599 1181.164307,227.174438 1181.968506,229.711243 1181.978149,232.623596 1181.187744,235.790100 1179.774170,239.077698" />
				<polyline stroke="#000000" stroke-opacity="1" fill="none" stroke-linecap="round" stroke-width="4.66674805" points="1108.641846,244.822510 1111.592896,242.281128 1113.781616,240.487549 1119.810303,235.733582 1123.032959,233.301636 1129.504272,228.656982 1132.804321,226.465698 1136.403809,224.233337 1140.263916,221.901062 1144.562744,219.497559" />
				<polyline stroke="#000000" stroke-opacity="1" fill="none" stroke-linecap="round" stroke-width="4.66662598" points="1140.931274,318.468994 1145.992065,316.511658 1169.675659,307.729614 1175.884033,305.400940 1182.036621,302.958191 1185.070557,301.673767 1188.099854,300.299866 1191.069702,298.822998 1194.112183,297.081970 1197.179321,294.891418 1200.206665,292.245361" />
				<polyline stroke="#000000" stroke-opacity="1" fill="none" stroke-linecap="round" stroke-width="4.66662598" points="1147.274292,338.803406 1159.774902,337.604797 1164.146729,337.361267 1168.458374,337.027893 1172.774292,336.561523 1177.078979,336.021057 1181.380615,335.389282 1185.666260,334.570007 1189.902222,333.582153 1194.176758,332.300354 1198.377808,330.940430 1202.505493,329.404175 1206.549194,327.706299 1210.513916,325.797974 1214.403931,323.735229 1218.211792,321.470337 1221.871460,319.004761 1225.347778,316.287781 1228.729492,313.353943 1231.847778,310.317261 1234.164917,307.112244 1231.850952,305.216980 1227.642700,303.901917" />
				<polyline stroke="#000000" stroke-opacity="1" fill="none" stroke-linecap="round" stroke-width="4.66687012" points="1182.438721,127.850891 1183.111084,132.614624 1183.775757,138.080872 1184.374512,140.735779 1186.312866,142.523254 1188.590210,144.035889 1191.138794,145.241882 1193.818115,146.252136 1196.557373,147.127380 1199.325928,147.900635 1207.698608,149.961853 1216.101562,152.301819 1221.619751,154.127136 1224.368164,155.127258 1227.072144,156.219666 1229.729004,157.403870 1232.344604,158.678467 1234.945312,160.044067 1239.985962,163.032288 1244.783081,166.374878 1247.087280,168.158691 1249.286255,170.035400 1251.442017,171.999695 1253.510132,174.056519 1255.437256,176.230286 1259.097412,180.790649 1260.837646,183.157837 1262.460938,185.580933 1267.121216,193.094666 1270.035645,198.127930 1271.420044,200.677856 1275.395508,208.426208 1276.666382,211.064697 1279.067017,216.356812 1281.286987,221.759705 1282.329224,224.487244 1284.229980,230.032471 1285.945801,235.661743 1286.696777,238.484436 1288.047974,244.145508 1288.653809,247.030029 1289.706787,252.836365 1290.931152,261.458130 1291.546021,267.182678 1291.734619,270.057007 1291.754639,272.991272 1291.646606,275.850586 1291.438965,278.704407 1291.077515,281.544739 1290.582886,284.373474 1289.868164,287.159119 1289.054565,289.931213 1288.130981,292.659424 1287.018555,295.368652 1285.718628,298.156555 1284.164185,301.081360 1282.367065,304.174622" />
				<polyline stroke="#000000" stroke-opacity="0.66271919" fill="none" stroke-linecap="round" stroke-width="4.66674805" points="949.107483,483.480957 948.996704,488.769958 948.664917,494.036377" />
				<polyline stroke="#000000" stroke-opacity="1" fill="none" stroke-linecap="round" stroke-width="4.66662598" points="940.389893,528.408997 938.418335,532.710449 936.270935,536.801147 933.957092,540.663513 931.486572,544.281006 928.869995,547.638123 926.118652,550.720520 923.244141,553.515015 920.258911,556.009583 917.175781,558.193604 914.007874,560.057678 910.768738,561.593811 907.472168,562.795471 904.132446,563.657471 900.763977,564.176147 897.380798,564.349304 893.997803,564.176147 890.629150,563.657532 887.289429,562.795471 883.993042,561.593811 880.753906,560.057678 877.585876,558.193604 874.502747,556.009583 871.517456,553.515015 868.643066,550.720581 865.891663,547.638123 863.275024,544.281006 860.804565,540.663513 858.490662,536.801147 856.343323,532.710449 854.371643,528.408936 852.584290,523.915100 850.988647,519.248047 849.591614,514.427856 848.399292,509.475159 847.416687,504.411133 846.648071,499.257507 846.096741,494.036255 845.764893,488.769836 845.654175,483.480835 845.764893,478.191711 846.096741,472.925354 846.648071,467.704163 847.416748,462.550537 848.399414,457.486450 849.591736,452.533752 850.988708,447.713623 852.584351,443.046509 854.371704,438.552673 856.343384,434.251160 858.490784,430.160522 860.804688,426.298218 863.275208,422.680664 865.891724,419.323669 868.643188,416.241211 871.517578,413.446716 874.502869,410.952209 877.585999,408.768188 880.753967,406.904175 883.993103,405.368042 887.289490,404.166382 890.629211,403.304321 893.997803,402.785706 897.380920,402.612549 900.763977,402.785706 904.132568,403.304321 907.472168,404.166382 910.768738,405.368103 914.007874,406.904297 917.175781,408.768250 920.259033,410.952271 923.244141,413.446838 926.118652,416.241333 928.869995,419.323792 931.486572,422.680847 933.957092,426.298340 936.270935,430.160706 938.418335,434.251343 940.389893,438.552795 942.177368,443.046692 943.773010,447.713684 945.169983,452.533875 946.362305,457.486511 947.344910,462.550537 948.113525,467.704224 948.664917,472.925354 948.996704,478.191711" />
				<polygon stroke="#000000" stroke-opacity="1" fill="none" stroke-linecap="round" stroke-width="4.66662598" points="1074.416992,489.309265 1074.306396,494.598328 1073.974487,499.864685 1073.423096,505.085938 1072.654541,510.239563 1071.671875,515.303589 1070.479614,520.256287 1069.082642,525.076477 1067.487061,529.743530 1065.699463,534.237305 1063.727905,538.538879 1061.580566,542.629517 1059.266602,546.491882 1056.796143,550.109375 1054.179565,553.466492 1051.428223,556.548828 1048.553711,559.343323 1045.568481,561.837952 1042.485352,564.021973 1036.078247,567.422180 1032.781738,568.623840 1029.442017,569.485840 1026.073486,570.004517 1022.690369,570.177673 1019.307373,570.004517 1015.938721,569.485840 1012.598999,568.623840 1009.302612,567.422180 1006.063477,565.885986 1002.895447,564.021973 999.812256,561.837952 996.827087,559.343384 993.952698,556.548889 991.201294,553.466492 988.584595,550.109375 986.114136,546.491882 983.800293,542.629517 981.652893,538.538879 979.681213,534.237244 977.893860,529.743469 976.298218,525.076416 974.901245,520.256226 973.708862,515.303467 972.726318,510.239441 971.957703,505.085815 971.406311,499.864624 971.074463,494.598206 970.963806,489.309143 971.074463,484.020081 971.406311,478.753723 971.957703,473.532532 972.726318,468.378845 973.708984,463.314819 974.901367,458.362122 976.298218,453.541931 977.893860,448.874939 979.681335,444.381042 981.653015,440.079590 983.800415,435.988831 986.114258,432.126526 988.584839,428.509033 991.201294,425.151978 993.952759,422.069519 996.827209,419.275085 999.812378,416.780518 1002.895569,414.596558 1006.063477,412.732483 1009.302734,411.196350 1012.599121,409.994690 1015.938843,409.132690 1019.307373,408.614014 1022.690491,408.440857 1026.073486,408.614014 1029.442139,409.132751 1032.781738,409.994751 1036.078247,411.196411 1039.317383,412.732605 1042.485352,414.596619 1045.568604,416.780640 1048.553711,419.275208 1051.428223,422.069641 1054.179565,425.152100 1056.796143,428.509155 1059.266602,432.126648 1061.580566,435.989014 1063.727905,440.079712 1065.699463,444.381165 1067.487061,448.875061 1069.082642,453.541992 1070.479614,458.362183 1071.671875,463.314941 1072.654541,468.378906 1073.423096,473.532532 1073.974487,478.753723 1074.306396,484.020081" />
				<polyline stroke="#000000" stroke-opacity="0" fill="none" stroke-linecap="round" stroke-width="4.66662598" points="923.762268,500.024231 925.690125,494.574768" />
				<polyline stroke="#000000" stroke-opacity="0" fill="none" stroke-linecap="round" stroke-width="4.66662598" points="940.823486,493.268921 941.090637,494.128052 941.209778,492.696899" />
				<polyline stroke="#000000" stroke-opacity="1" fill="none" stroke-linecap="round" stroke-width="4.66662598" points="947.762634,480.835571 949.333374,480.338867 952.055542,479.689880 955.263672,479.105835 958.552856,478.713318 960.203491,478.587036 963.540344,478.519592 965.222839,478.609070 966.910645,478.822388 968.609070,479.135132 970.255371,479.546570 973.574890,480.690796 975.359680,481.439819 977.214661,482.325256" />
				<polyline stroke="#000000" stroke-opacity="0.90312016" fill="none" stroke-linecap="round" stroke-width="4.66674805" points="950.646362,493.194275 953.353088,492.250916 954.909424,491.798462 956.489502,491.460815 958.146912,491.226196 959.802429,491.082642 961.511780,491.077515 964.905884,491.325928 966.585815,491.564087 968.254761,491.891296 971.630615,492.825562 973.451050,493.498169 975.376282,494.350891" />
				<polyline stroke="#000000" stroke-opacity="0.934782624" fill="none" stroke-linecap="round" stroke-width="4.66674805" points="956.413757,491.134460 952.057190,491.527588 943.929443,492.074158 935.691711,492.780823 930.748352,493.312866 925.804871,494.005249 922.509644,494.754578 919.253845,495.716492 916.081299,496.851257 912.941040,498.160522 909.884583,499.677490 906.956726,501.427917 905.533630,502.373962 904.159241,503.408081 902.838684,504.521912 901.595032,505.683044 900.432007,506.945129 899.370422,508.277649 898.407043,509.665527 897.543152,511.138916 896.803955,512.671570 896.227661,514.255249 895.818054,515.867493 895.681824,517.533325 895.717163,519.185852 896.447998,522.445557 897.117920,523.965515 897.993958,525.385254 899.053162,526.681091 900.247864,527.857117 901.602661,528.918945 902.999939,529.871155 904.469116,530.703735 906.002930,531.427490 907.626892,531.973755 909.255981,532.413940 910.921814,532.746521 912.601440,532.939026 916.025330,532.992798 917.700378,532.907104 924.333801,531.912231 930.857910,530.389648 942.252014,527.420105 948.857422,525.798889 953.877014,524.432312 957.703369,523.217590" />
				<polyline stroke="#000000" stroke-opacity="1" fill="none" stroke-linecap="round" stroke-width="4.66662598" points="910.137512,533.742493 921.074158,532.780334 924.278076,532.211243 931.015503,530.741272 944.095337,527.137939 948.238159,525.888916 952.722168,524.722168 957.638733,523.249695" />
				<polyline stroke="#000000" stroke-opacity="1" fill="none" stroke-linecap="round" stroke-width="4.66650391" points="905.645691,437.189453 903.664734,436.290283 900.051331,435.349243 897.924988,435.130371 895.692200,435.011597 893.474548,435.076782 891.254578,435.355591 889.083130,435.958374 886.991760,436.808533 884.986572,437.836670 883.066406,439.039978 881.232239,440.396912 879.501953,441.887695 877.840942,443.473572 876.248230,445.169617 874.745605,446.953003 873.337219,448.768799 872.050171,450.664551 870.874390,452.628418 869.780212,454.636902 868.786560,456.711182 867.073120,460.962463 866.340576,463.156982 865.087280,467.515747 864.560425,469.706360 864.125488,471.931396 863.522278,476.396301 863.357239,478.637329 863.332581,483.173584 863.448792,485.414551 863.966187,489.941223 864.340576,492.195374 865.375977,496.619019 866.079468,498.793335 867.818726,503.099121 868.825378,505.169800 870.021729,507.280029 871.562988,509.408508 873.338623,511.552979" />
				<polyline stroke="#000000" stroke-opacity="1" fill="none" stroke-linecap="round" stroke-width="4.66662598" points="874.672852,509.644104 873.814575,501.598877 873.349304,494.879700 873.223022,490.347961 873.331970,483.519409 873.610352,479.065063 874.124329,474.634949 874.484863,472.429504 874.965576,470.262634 875.618591,468.130310 876.408081,466.003906 877.414795,463.897583 879.593811,459.916870 882.044922,456.085938 884.756470,452.365479 886.217163,450.578247 887.777954,448.850830 889.409363,447.196533 891.117065,445.667236 892.940613,444.239502 894.817932,442.933777 896.747864,441.717407 898.748413,440.612366 900.935730,439.535278 905.847290,437.293457" />
				<polyline stroke="#000000" stroke-opacity="1" fill="none" stroke-linecap="round" stroke-width="4.66650391" points="1030.643188,437.189453 1028.662231,436.290283 1025.048828,435.349243 1022.922485,435.130371 1020.689758,435.011597 1018.471985,435.076782 1016.252075,435.355591 1014.080688,435.958374 1011.989258,436.808533 1009.984009,437.836670 1008.063904,439.039978 1006.229797,440.396912 1004.499451,441.887695 1002.838440,443.473572 1001.245789,445.169617 999.743164,446.953003 998.334717,448.768799 997.047607,450.664551 995.871826,452.628418 994.777710,454.636902 993.784119,456.711182 992.070557,460.962463 991.338013,463.156982 990.084778,467.515747 989.557922,469.706360 989.122925,471.931396 988.519836,476.396301 988.354675,478.637329 988.330078,483.173584 988.446228,485.414551 988.963745,489.941223 989.338074,492.195374 990.373413,496.619019 991.077026,498.793335 992.816284,503.099121 993.822876,505.169800 995.019287,507.280029 996.560425,509.408508 998.336121,511.552979" />
				<polyline stroke="#000000" stroke-opacity="1" fill="none" stroke-linecap="round" stroke-width="4.66662598" points="999.670349,509.644104 998.812073,501.598877 998.346741,494.879700 998.220520,490.347961 998.329346,483.519409 998.607788,479.065063 999.121826,474.634949 999.482361,472.429504 999.963135,470.262634 1000.615967,468.130310 1001.405518,466.003906 1002.412231,463.897583 1004.591309,459.916870 1007.042419,456.085938 1009.753967,452.365479 1011.214722,450.578247 1012.775452,448.850830 1014.406799,447.196533 1016.114624,445.667236 1017.938110,444.239502 1019.815430,442.933777 1021.745361,441.717407 1023.745850,440.612366 1025.933228,439.535278 1030.844727,437.293457" />
				<polyline stroke="#000000" stroke-opacity="1" fill="none" stroke-linecap="round" stroke-width="4.66662598" points="1257.767090,548.188843 1266.325073,546.169678 1271.238037,545.275940 1276.121216,544.561646 1280.980347,544.114624 1283.446533,543.993408 1285.928589,544.005615 1288.358521,544.135437 1290.741333,544.538208 1293.142944,545.032471 1295.586304,545.633789 1297.990112,546.302551 1300.377686,547.132446 1302.727783,548.112793 1304.983521,549.191406 1307.183716,550.413696 1309.374512,551.863281 1313.561157,554.914001 1317.514893,558.121948 1319.380981,559.782776 1321.152954,561.537231 1322.825928,563.338562 1325.946411,567.169434 1328.848389,571.178589 1331.451294,575.408081 1333.763672,579.841553 1334.818970,582.106689 1335.804810,584.386658 1336.697266,586.746399 1337.514893,589.181519 1338.208496,591.649902 1339.413086,596.506958 1339.865967,598.957092 1340.217529,601.468628 1340.526489,606.580872 1340.549194,609.093384 1340.464722,611.568359 1340.023438,616.545898 1339.655762,618.994812 1339.134644,621.516357 1338.545044,624.038696 1337.851685,626.584106 1336.129028,631.514648 1334.107910,636.135010 1332.977173,638.417786 1330.521729,642.923096 1327.887573,647.251587 1326.431641,649.316833 1324.823364,651.411987 1322.967285,653.536743 1320.849976,655.744263" />
				<polyline stroke="#000000" stroke-opacity="1" fill="none" stroke-linecap="round" stroke-width="4.66674805" points="677.622559,545.124756 675.247314,545.008240 671.043762,545.177124 668.687561,545.341858 666.230530,545.593323 661.275085,546.285217 656.371216,547.166748 651.460754,548.438782 646.626221,549.866699 639.618042,552.244141 637.331543,553.204834 635.062744,554.284485 632.827393,555.507874 630.681152,556.816895 624.520935,561.142883 622.534424,562.636902 620.638184,564.235657 618.835022,565.922974 615.427673,569.556274 613.821594,571.436340 612.296692,573.401733 610.856995,575.404907 608.163635,579.639160 605.640442,583.897339 604.474060,586.110779 603.373291,588.399109 601.358398,593.051636 599.572327,597.723145 597.989746,602.443359 595.948120,609.577698 594.829651,614.476318 593.951660,619.420898 593.641541,621.858276 593.336670,626.738525 593.162476,631.645203 593.254517,636.716858 593.690735,642.310547 594.038635,645.314270" />
				<polyline stroke="#000000" stroke-opacity="1" fill="none" stroke-linecap="round" stroke-width="4.66650391" points="764.898560,727.421997 768.105896,729.469849 771.979797,731.640930 776.186646,733.723999 779.041321,735.036499 781.928955,736.246582 786.186829,737.822876 796.330444,741.154053 800.819458,742.403320 806.995178,743.843384 812.050781,744.747070 819.273010,745.724731 827.733521,746.656555 836.697083,747.459473 842.544006,747.853699 851.894836,748.291870 862.284119,748.637390 870.743958,748.803528 881.389099,748.753174 888.230896,748.478027 894.624329,748.032959 899.248596,747.515259 910.153320,745.608276 911.676086,745.290405 916.168335,744.235046 922.059082,742.631348 931.166260,739.742310 940.091980,736.608582 957.242493,729.952942" />
				<polyline stroke="#000000" stroke-opacity="1" fill="none" stroke-linecap="round" stroke-width="4.66662598" points="956.997009,729.786316 961.332092,731.110840 970.125732,733.402954 980.254456,735.711914 986.881348,737.035950 997.164246,738.974609 1006.062012,740.420532 1019.477783,742.518555 1028.643799,743.767090 1035.013428,744.562866 1039.754517,745.053467 1046.156128,745.583862 1052.632935,746.000122 1061.876831,746.396851 1073.721436,746.784424 1077.097900,746.863281 1086.319946,746.886230 1098.294434,746.486816 1102.828613,746.182129 1107.146240,745.741882 1115.726074,744.600037 1118.541992,744.146118 1128.659790,742.192505 1135.947632,740.500366 1138.869995,739.721924 1147.292480,737.334473 1155.572021,734.836670 1158.293213,733.949219 1162.345215,732.485046 1169.179688,729.778931 1173.871948,728.036682" />
				<polyline stroke="#000000" stroke-opacity="1" fill="none" stroke-linecap="round" stroke-width="4.66662598" points="698.518616,513.097473 684.365356,503.180359 668.891235,491.939209 657.652222,484.013000 652.649902,480.315247 646.215393,475.282593 635.225281,466.873047 627.848877,460.896423 622.028137,455.983032 616.686768,451.271423 608.606079,443.564453" />
				<polyline stroke="#000000" stroke-opacity="1" fill="none" stroke-linecap="round" stroke-width="4.66662598" points="641.775269,547.852783 635.535400,545.027100 633.884705,544.242737 632.302185,543.382568 630.782104,542.477234 627.826172,540.510803 623.601746,537.415710 619.510925,534.102234 616.853943,531.775757 614.303406,529.388367 608.185852,523.233948 604.611755,519.376892 598.864380,512.778931 593.251648,505.971497 588.956543,500.361694 584.966370,494.608582 581.279968,488.551392 578.796631,483.876404 575.914978,477.554138 573.564270,472.095520" />
				<polyline stroke="#000000" stroke-opacity="0.99999994" fill="none" stroke-linecap="round" stroke-width="4.66662598" points="573.703308,368.722961 569.556763,360.750549 565.501099,352.788696 563.929932,347.724854 560.282349,335.572327 558.054077,327.912781 556.427307,321.472778 553.554749,314.079041 548.559143,307.291199 540.962097,300.337891 533.708130,296.316162 528.840515,296.920776 522.682251,301.695557 519.275085,309.023499 518.332458,317.565796 519.567810,325.983398 522.132324,333.545776 525.389526,340.859985 529.177673,347.905273 534.024719,355.608826 539.278198,363.011169 544.761658,370.290649 550.937561,377.332031 557.621704,383.924927" />
				<polyline stroke="#000000" stroke-opacity="1" fill="none" stroke-linecap="round" stroke-width="4.66662598" points="572.404175,471.545837 570.255432,473.747681 568.953430,474.776733 567.543640,475.655945 566.784546,476.010498 565.178589,476.585999 563.413696,477.070618 561.484253,477.492249 558.591980,477.988586 556.792358,478.221741 555.097168,478.377441 553.412354,478.387451 551.611267,478.247559 549.750366,477.991821 547.063049,477.443665 545.403076,476.993958 542.194275,475.944580 540.617737,475.267212 539.086548,474.491882 536.890320,473.108948 534.162231,470.986389 532.089844,469.160156 528.778015,465.851501 526.918274,463.885864 525.049683,461.739258 521.636108,457.437439 519.540344,454.557312 517.896851,452.079590 515.461792,448.154358 513.730896,445.160583 512.164307,442.181213 509.763000,436.589783 509.147522,434.925415 508.348724,432.392456 507.682007,429.882935 507.125824,427.322815 506.161438,421.293518 505.635681,416.258545 505.674469,415.444885 505.917786,414.652039 506.288910,413.871094 507.161072,412.392090 508.109558,411.017151 508.663208,410.361206 509.808075,409.123474 511.032715,407.994446 512.332642,406.929688 513.742126,405.957642 516.660583,404.322327 517.411072,403.984497 518.206909,403.724670 519.817749,403.293518 520.648071,403.151306 523.161377,403.003479 525.647400,403.148499 527.278381,403.434692 528.094727,403.675354 530.437317,404.598877 532.687805,405.936523 536.265015,408.523743 538.229919,410.195190 539.991211,411.985291 541.078369,413.258972 542.561523,415.306396 544.809692,418.862061 546.879150,422.615784 548.689819,426.487183 549.956726,429.596436 550.710754,432.044250 551.204468,434.539490 551.324280,436.185730 551.285461,437.004700 551.132690,437.838074 550.673218,439.446533 549.970337,440.943176 549.513672,441.638611 548.426636,442.962708 547.853394,443.568848 546.557129,444.607239 545.074341,445.402588 544.286377,445.708923 542.682007,446.179382 541.858521,446.325073 540.171204,446.474731 538.497620,446.532654 536.844299,446.464844 536.037109,446.364868 535.250610,446.141357 534.478027,445.824768 533.042542,445.004333 531.760132,443.960999 530.622131,442.746094 529.119324,440.757996 527.792725,438.636230 526.600891,436.426819 525.076111,433.020813" />
				<polyline stroke="#000000" stroke-opacity="1" fill="none" stroke-linecap="round" stroke-width="4.66662598" points="531.357300,403.134766 532.569336,401.347778 533.576111,400.101807 536.412048,397.075073 538.312134,395.362183 541.019653,393.236755 542.419739,392.233032 545.405029,390.404602 548.393433,388.747437 549.880127,387.975586 552.330566,386.957764 554.760498,386.126953 556.358521,385.716858 557.996643,385.472961 559.627075,385.423279 561.287354,385.542603 562.923767,385.845581 564.576782,386.447205 566.888550,387.608398 568.308472,388.501404 569.762634,389.601318 572.534058,392.087341 574.372070,393.899841 576.019592,395.857178 577.949158,398.583435 579.183289,400.760010 580.213379,403.067566 581.008179,405.582947 581.579956,408.036499 581.955750,410.550354 581.997070,412.305054 581.848877,414.896240 581.582703,416.560181 581.385376,417.364868 580.851746,418.921692 580.113708,420.407043 579.650330,421.090393 579.105591,421.701965 578.480652,422.217102 577.056091,422.999390 576.291748,423.296265 574.697815,423.723755 573.885986,423.871826 572.225525,424.036926 570.566589,424.085632 568.933167,424.015137 566.444885,423.621826 563.999756,422.877197 562.498962,422.117737 561.799866,421.669067 560.481689,420.638306 559.272644,419.503113 557.625488,417.625122 556.152893,415.582397 554.829468,413.451782 553.120972,410.137207" />
				<polyline stroke="#000000" stroke-opacity="1" fill="none" stroke-linecap="round" stroke-width="4.66674805" points="572.960449,367.695984 578.802429,375.348633 585.557190,380.764404 592.873413,386.502136 599.911560,392.598022" />
				<polyline stroke="#000000" stroke-opacity="1" fill="none" stroke-linecap="round" stroke-width="4.66674805" points="600.822815,394.855835 601.213501,393.927124 601.403931,393.281494 601.705994,391.297546 601.738342,389.589478 601.633789,387.563843 600.389465,378.751404 599.967712,374.854004 599.691589,370.365295 599.593506,365.793762 599.780945,362.386108 600.577698,357.873230 600.988281,356.163391 601.493652,354.513062 601.907288,353.542419 602.403381,352.648865 603.585571,350.991333 604.809692,349.825378 606.739624,348.355164 609.126099,346.879883 611.614929,345.622253 613.529419,344.867004 615.792847,344.191956 618.109009,343.746948 619.779297,343.595886 621.085144,343.697266 622.053589,343.951782 623.588318,344.598755 624.734131,345.308167 626.064270,346.409790 627.247009,347.704346 628.037231,348.816040 628.519348,349.697998 629.040039,351.061951 629.536377,352.748718 629.901917,354.390381 630.091553,355.728821 630.176453,357.066895 630.028259,359.450745 629.700256,361.466980 629.198547,363.670471 625.456604,376.165771 624.409302,380.605164 624.104797,382.264465 623.563965,386.304138 623.313232,389.333008 623.195679,391.985840 623.256714,393.686035 623.418701,395.353577 624.252808,400.027588 624.873596,402.717407 626.495728,408.835449 627.774719,414.298035 628.250549,416.776978 628.478271,418.470886 628.558716,420.592957 628.476929,422.261414 628.232544,423.927246 627.824036,425.934021 627.309509,427.888733 626.643921,429.867004 626.127869,431.121094 625.401733,432.635559 624.399353,434.390198 623.591797,435.541748 622.722595,436.612061 621.095032,438.334290 619.693237,439.430908 618.529114,440.194946 615.618652,441.653625 611.378723,443.422363" />
				<polyline stroke="#000000" stroke-opacity="1" fill="none" stroke-linecap="round" stroke-width="4.66674805" points="1168.557007,547.453613 1170.920288,548.001221 1175.190674,549.168030 1178.188110,550.108582 1181.112671,551.144043 1183.876587,552.219238 1186.606445,553.404663 1187.926025,554.022644 1190.540161,555.442932 1193.347046,557.234314 1196.236206,559.238098 1200.563843,562.450256 1203.286255,564.661255 1204.594116,565.811340 1209.446289,570.521484 1211.675293,572.947998 1213.903564,575.597412 1216.030029,578.391846 1219.137451,582.667847 1221.992920,586.762756 1223.740479,589.304321 1226.197144,593.084473 1231.023071,600.835938 1234.965820,607.794800 1237.934326,613.200195 1240.707275,618.424927 1242.003784,621.023560 1244.508789,626.408936 1245.731201,629.252563 1247.452759,633.453857 1250.294067,640.831421" />
				<polyline stroke="#000000" stroke-opacity="1" fill="none" stroke-linecap="round" stroke-width="4.66650391" points="1159.099854,595.921631 1161.374512,597.075684 1162.808105,597.961548 1167.323975,600.992310 1173.028687,605.187744 1176.967773,608.292847 1180.547607,611.405884 1186.008301,616.419312 1189.025146,619.581543 1191.913452,623.052856 1193.716797,625.487427 1194.591431,626.792114 1197.152954,630.915222 1198.727051,633.725525 1202.867065,641.809814 1205.228394,647.154968 1206.788696,651.216187 1208.177368,655.322021 1209.517456,660.088257" />
				<polyline stroke="#000000" stroke-opacity="1" fill="none" stroke-linecap="round" stroke-width="4.66674805" points="1208.158936,657.393433 1199.993164,661.237305 1192.616943,666.531433 1186.777344,673.266479 1182.928223,680.849060 1180.531616,689.158325 1179.563965,697.786987 1180.000732,706.327881 1182.716797,713.723694 1188.277344,719.139648 1195.317017,718.138672 1200.438599,710.740967 1202.678833,703.875000 1205.526245,695.246826 1209.286377,689.916138 1218.973511,694.673706 1223.987061,701.025574 1226.966553,708.357910 1228.312012,716.357544 1228.423706,724.711182 1225.612915,733.120544 1219.622070,739.926147 1217.523682,746.821167 1223.034424,752.272949 1228.452393,754.010498 1236.182495,752.680054 1242.334717,748.178711 1247.181641,741.940186 1250.536987,734.673401 1252.214355,727.087036 1252.298584,718.700928 1251.056641,710.324463 1248.836914,702.080261 1245.987549,694.090454" />
				<polyline stroke="#000000" stroke-opacity="1" fill="none" stroke-linecap="round" stroke-width="4.66674805" points="1248.420654,743.525330 1247.944458,749.714722 1253.777832,755.245667 1265.787842,754.121948 1271.031860,749.628052 1275.815796,741.756714 1279.005493,733.033630 1280.130615,723.962952 1279.133911,715.583008 1276.507446,707.422852 1272.617432,699.695190 1267.830566,692.613037" />
				<polyline stroke="#000000" stroke-opacity="1" fill="none" stroke-linecap="round" stroke-width="4.66662598" points="1250.358032,639.894714 1260.906738,637.787598 1267.079590,639.362244 1273.413452,643.499756 1279.390381,649.190063 1284.492188,655.422791 1288.200806,661.187866 1291.661621,668.007812 1294.468750,674.638794 1296.691406,681.253845 1298.398682,688.025635 1299.659790,695.127075 1300.544189,702.731079 1300.868164,711.369202 1300.310913,719.564087 1298.962646,726.977905 1296.913818,733.272583 1291.400879,736.542480 1282.967773,737.020325 1278.119629,734.126953" />
				<polyline stroke="#000000" stroke-opacity="1" fill="none" stroke-linecap="round" stroke-width="4.66674805" points="825.887695,746.475464 825.331177,755.266846 824.867126,764.170776 824.365906,775.991699 824.167419,781.957764 822.904419,794.541016" />
				<polyline stroke="#000000" stroke-opacity="1" fill="none" stroke-linecap="round" stroke-width="4.66674805" points="886.814392,749.275269 875.116821,783.369751 871.136475,793.332336" />
				<polyline stroke="#000000" stroke-opacity="1" fill="none" stroke-linecap="round" stroke-width="4.66674805" points="978.994568,735.171509 977.913208,760.560913 977.682373,782.544800 979.635315,803.986389" />
				<polyline stroke="#000000" stroke-opacity="1" fill="none" stroke-linecap="round" stroke-width="4.66662598" points="1043.348022,744.221313 1042.104736,749.346252 1036.956543,769.705139 1034.005493,779.431702 1031.591187,790.553589 1030.618896,797.277893 1029.731323,802.666870 1030.244995,808.457031" />
				<polyline stroke="#000000" stroke-opacity="1" fill="none" stroke-linecap="round" stroke-width="15" points="951.074890,609.811279 958.318542,610.449585 960.299500,610.517029 962.279785,610.469849 964.283203,610.326477 966.282349,610.078552 970.257019,609.229126 972.182251,608.590149 974.100464,607.814697 975.947327,606.932983 977.763428,605.873901 979.503723,604.735962 982.838745,602.214844 984.388367,600.831421 987.331909,597.833130 988.705322,596.292114 990.005127,594.683472 992.393555,591.354004 994.691406,587.685181 995.883667,585.653198 997.100830,583.383240" />
				<polyline stroke="#000000" stroke-opacity="1" fill="none" stroke-linecap="round" stroke-width="15" points="992.799927,574.465698 993.430725,575.673767 994.694824,577.703674 996.289124,580.043335 997.181274,581.176147 1000.100342,584.364990 1002.245178,586.234314 1004.535278,587.894775 1006.986450,589.366333 1008.284668,590.033508 1010.896790,591.199951 1013.880859,592.189087 1015.546082,592.625366" />
				<polyline stroke="#000000" stroke-opacity="1" fill="none" stroke-linecap="round" stroke-width="4.66662598" points="807.701782,825.065002 804.910034,817.103271 803.805237,813.428467 803.170898,810.958618 802.651245,808.432190 802.259216,805.924622 802.159058,804.666992 802.278442,803.432373 803.387573,801.145386 804.755798,798.966309 806.198730,796.861206 806.977295,795.847839 807.854248,794.949402 808.957581,794.443359 810.143433,794.240479 811.367371,794.294434 812.600220,794.479370 813.838684,794.800415 816.344543,795.618347 820.088135,797.081909 822.539978,798.130737 828.465881,800.861694 830.902405,801.868774 833.328979,802.766846 835.790771,803.537415 838.292236,804.141113 840.796021,804.588989 843.321106,804.847046 844.620728,804.816528 847.207886,804.597168 849.762817,804.202026 852.324524,803.670776 854.813049,803.046265 858.536743,801.944031 860.961426,801.008301 864.635132,799.283081 866.911560,798.046326 871.345581,795.350891 872.482910,794.764893 873.665100,794.417114 874.810303,794.659851 875.905334,795.165527 876.924927,795.891479 877.878967,796.735840 878.729553,797.671387 879.392151,798.734253 879.941406,799.871155 880.383118,801.075012 881.019958,803.574219 881.350525,806.125610 881.449646,808.671326 881.332642,811.207153 881.032593,813.729004 880.525085,816.209717 880.222290,817.447571 879.066040,821.147339 875.778503,830.134644" />
				<polyline stroke="#000000" stroke-opacity="1" fill="none" stroke-linecap="round" stroke-width="4.66662598" points="807.173950,825.065002 806.812622,827.597656" />
				<polyline stroke="#000000" stroke-opacity="1" fill="none" stroke-linecap="round" stroke-width="4.66662598" points="805.851440,828.802612 807.084534,829.896118 809.135376,831.536621 811.177979,833.079590 812.746582,834.121704 814.975830,835.523376 817.816528,837.178650 820.017883,838.350159 822.297302,839.440063 825.241272,840.581299 828.278931,841.427856 832.587463,842.255066 836.918335,842.796509 841.425476,843.150879 845.836304,843.365967 849.666626,843.247314 852.187012,842.977234 854.150635,842.618286 856.119019,842.101929 858.026428,841.482056 860.528564,840.510925 862.261719,839.729797 865.583984,837.951965 869.974243,834.905884" />
				<polyline stroke="#000000" stroke-opacity="1" fill="none" stroke-linecap="round" stroke-width="4.66674805" points="804.578613,829.566284 802.947266,829.628784 801.174072,830.004272 799.441833,830.614441 798.333862,831.179565 796.759888,832.230652 794.860657,833.840454 793.585938,835.181213 792.327148,836.903992" />
				<polyline stroke="#000000" stroke-opacity="1" fill="none" stroke-linecap="round" stroke-width="4.66662598" points="798.978088,847.350281 796.616211,845.768677 793.909180,844.140747 790.536133,840.923279 787.626831,839.601074 785.267639,838.643982 783.414307,838.032593 782.106201,837.763306 780.819641,837.633972 779.582214,837.673828 778.380249,837.935791 777.260986,838.429871 776.756287,838.781860 776.336243,839.231323 775.691345,840.267700 775.291443,841.429688 775.075195,842.627869 775.065430,844.456909 775.311157,845.663879 775.524048,846.256531 776.101685,847.386353 777.169373,848.929443 778.600769,850.456970 782.516174,854.076782 785.169556,856.862671 786.657776,858.514221 793.692139,866.803894 797.113770,870.450073 798.665466,871.924377 801.248596,874.201904 802.788940,875.457336 804.452087,876.637878 806.685974,878.077393 808.915771,879.275024 810.651733,880.051514 811.245239,880.234009 811.814209,880.302490 812.229736,879.981628 812.579468,879.537781 813.108765,878.446167 813.311462,877.845398 813.739685,875.855957 813.904053,873.140259 813.753784,871.161987 813.366028,869.103271 812.663086,866.529907 811.913940,864.747009 810.646606,862.544312 809.464661,860.983398 804.672119,855.858398 801.015747,851.584534 799.299500,849.764893 797.933472,848.484985 796.022217,846.927063 794.284607,845.706665" />
				<polyline stroke="#000000" stroke-opacity="1" fill="none" stroke-linecap="round" stroke-width="4.66662598" points="776.066956,850.695435 770.203247,848.694946 764.357788,846.991394 762.609131,846.637512 760.981323,846.403503 759.475159,846.282776 758.071960,846.295288 756.768616,846.428894 755.557617,846.735718 754.438782,847.234619 753.426758,847.941040 752.572144,848.810120 752.248047,849.331360 751.806824,850.495361 751.555359,851.724243 751.593628,852.344910 751.874451,853.553223 752.385376,854.682922 753.060791,855.730835 753.944214,856.745239 755.078247,857.849243 762.794922,864.895020 764.419250,866.602783 766.394958,868.886292 768.866455,872.091431 771.118774,875.226746 778.528809,886.359009 780.240295,888.656860 781.558350,890.227051 782.867981,891.602356 783.820923,892.419678 784.840576,893.147156 785.963135,893.750610 787.135925,894.150452 788.340027,894.344604 789.564148,894.320801 790.779480,894.050537 791.367310,893.844299 792.470581,893.293579 793.469116,892.553955 794.358032,891.688110 795.506042,890.241150 796.437683,888.644409 796.884521,887.501587 797.147766,886.281494 797.248352,884.430359 797.152405,883.216064 796.812012,881.370361 796.273865,879.564331 795.559937,877.792175 794.463318,875.552551 793.171936,873.293213 789.791077,868.157593 788.278015,866.062317 787.098267,864.591187 784.124634,861.333374 782.381714,859.562622 780.559082,857.848999 779.119202,856.673462 777.607727,855.602417 776.036499,854.569458 772.551575,852.543762 770.734619,851.546021 768.129883,850.253235 762.518494,847.699219 759.308411,846.364502 757.131287,845.552429" />
				<polyline stroke="#000000" stroke-opacity="1" fill="none" stroke-linecap="round" stroke-width="4.66674805" points="751.628296,857.570435 748.140442,856.105164 744.919983,854.880981 737.650330,852.512756 734.849915,851.848877 731.384094,851.215454 727.194336,850.669861 724.574280,850.470337 721.827698,850.559875 719.228638,850.818237 717.405762,851.159119 714.998474,851.847168 712.685425,852.750549 711.046265,853.634155 708.951111,855.018677 707.010742,856.602539 704.733826,858.746582 703.104980,860.645386 700.835388,863.612793 699.521973,865.725342 698.089478,868.529480 696.882141,871.440613 695.955139,874.416992 695.269897,877.483337 694.679504,881.177673 694.322632,884.851562 694.300232,887.985596 694.665283,893.510864 695.048767,897.219849 695.222168,898.458496 695.497742,899.691528 695.921265,900.900513 696.439453,902.041321 697.090759,903.110107 697.860168,904.091187 700.100647,906.298706 701.573364,907.456360 704.236145,909.135254 706.727722,910.329468 708.996643,911.149292 714.019226,912.541077 718.270569,913.474487 722.354858,914.165955 727.326355,914.761658 733.277649,915.231445 740.040039,915.573059 748.021545,915.839661 757.705139,916.007690 770.920105,916.085205 775.948914,915.913147 780.225220,915.661743 781.440369,915.513306 783.234375,915.086792 784.401855,914.668091 784.936523,914.380737 785.741882,913.500183 786.046509,912.983582 786.520508,911.860840 787.012512,910.078552 787.429199,906.944458 787.515259,905.093750 787.429871,902.591064 787.219299,900.721436 786.953369,899.507446 786.544800,898.332397 785.714355,896.659607 784.572937,894.858948" />
				<polyline stroke="#000000" stroke-opacity="1" fill="none" stroke-linecap="round" stroke-width="4.66662598" points="874.584778,829.822388 873.171753,831.527161 871.604370,833.024292" />
				<polyline stroke="#000000" stroke-opacity="1" fill="none" stroke-linecap="round" stroke-width="4.66662598" points="697.092957,907.689758 695.471436,910.738647 694.425903,913.046265 693.033936,916.701904 691.890015,920.440552 691.672424,921.719482 691.580688,922.994202 691.659180,924.257324 691.983276,925.470703 692.434814,926.646484 692.986694,927.779175 693.700928,928.854553 695.358337,930.831055 696.299316,931.734985 698.519348,933.387390 700.863403,934.851685 704.376526,936.741028 706.738586,937.822815 710.380615,939.218018 712.985046,939.965393 717.011169,940.844238 719.625305,941.329834 723.448364,941.821655 728.553711,942.317200 734.905762,942.786499 741.610474,943.132935 749.572693,943.430969 752.292114,943.456909 784.551270,943.102539 793.985107,942.649170 797.856079,942.278564 804.204346,941.433228 809.286682,940.482605 814.305176,939.160278 819.268127,937.446838 821.690186,936.466736 824.051331,935.394226 827.467712,933.628174 829.729858,932.359741 835.315857,928.777100 839.715271,925.558533 843.789001,922.302856 848.808533,917.916321 851.690369,915.216003 856.230652,910.641357 858.834229,907.750061 863.760315,901.698669 878.017761,883.124573 883.261475,876.662964" />
				<polyline stroke="#000000" stroke-opacity="1" fill="none" stroke-linecap="round" stroke-width="4.66662598" points="876.569763,830.092773 878.654358,832.875549 880.050781,834.934692 881.330566,837.136108 882.471802,839.450073 883.946472,843.059265 884.790955,845.496765 885.880676,849.174683 886.758301,852.928162 887.121338,855.443237 887.281982,857.969849 887.310303,859.240906 887.210327,861.764160 886.963257,864.311035 886.560486,866.831177 885.940674,869.410767 885.108582,872.341736" />
				<polyline stroke="#000000" stroke-opacity="1" fill="none" stroke-linecap="round" stroke-width="4.66662598" points="786.521423,914.644043 792.816223,914.543274 812.712524,909.518372 828.906189,904.778320 832.617188,903.513428 836.210266,901.928467 839.696289,900.132446 843.041443,898.147644 845.200867,896.763855 847.296692,895.243164 850.325867,892.720886 853.162231,890.071289 857.727295,885.390137 869.082092,872.646851 875.038818,865.798523 880.078247,859.673584 883.561890,855.018921" />
				<polyline stroke="#000000" stroke-opacity="1" fill="none" stroke-linecap="round" stroke-width="4.66662598" points="1045.333374,835.371033 1048.125122,827.409302 1049.229980,823.734558 1049.864258,821.264648 1050.383911,818.738281 1050.776001,816.230591 1050.876221,814.973022 1050.756714,813.738464 1049.647583,811.451538 1048.279419,809.272339 1046.836548,807.167236 1046.057983,806.153931 1045.180908,805.255493 1044.077515,804.749390 1042.891724,804.546509 1041.667725,804.600525 1040.434937,804.785400 1039.196411,805.106323 1036.690674,805.924438 1032.946899,807.388000 1030.495117,808.436707 1024.569214,811.167725 1022.132812,812.174805 1019.706238,813.072876 1017.244385,813.843506 1014.742920,814.447266 1012.239197,814.895020 1009.714050,815.153015 1008.414429,815.122559 1005.827271,814.903198 1003.272400,814.508118 1000.710632,813.976807 998.222107,813.352295 994.498413,812.250122 992.073792,811.314331 988.400024,809.589111 986.123535,808.352417 981.689514,805.656982 980.552246,805.070923 979.370056,804.723206 978.224854,804.965942 977.129883,805.471619 976.110168,806.197510 975.156189,807.041931 974.305542,807.977295 973.642944,809.040283 973.093750,810.177185 972.652039,811.380981 972.015137,813.880310 971.684631,816.431641 971.585571,818.977356 971.702637,821.513245 972.002563,824.035095 972.510132,826.515808 972.812805,827.753601 973.969116,831.453369 977.256653,840.440674" />
				<polyline stroke="#000000" stroke-opacity="1" fill="none" stroke-linecap="round" stroke-width="4.66662598" points="1045.861206,835.371033 1046.222534,837.903687" />
				<polyline stroke="#000000" stroke-opacity="1" fill="none" stroke-linecap="round" stroke-width="4.66662598" points="1047.183716,839.108643 1045.950684,840.202148 1043.899902,841.842651 1041.857178,843.385620 1040.288574,844.427734 1038.059326,845.829407 1035.218628,847.484680 1033.017334,848.656128 1030.737915,849.746094 1027.793945,850.887329 1024.756104,851.733887 1020.447693,852.561157 1016.116821,853.102600 1011.609741,853.456909 1007.198853,853.671997 1003.368408,853.553345 1000.848206,853.283264 998.884521,852.924255 996.916138,852.408020 995.008728,851.788086 992.506592,850.816895 990.773376,850.035767 987.451172,848.257996 983.060852,845.211914" />
				<polyline stroke="#000000" stroke-opacity="1" fill="none" stroke-linecap="round" stroke-width="4.66662598" points="1048.456543,839.872314 1050.087891,839.934753 1051.861084,840.310242 1053.593384,840.920532 1054.701172,841.485596 1056.275391,842.536743 1058.174561,844.146484 1059.449219,845.487183 1060.708130,847.209961" />
				<polyline stroke="#000000" stroke-opacity="1" fill="none" stroke-linecap="round" stroke-width="4.66662598" points="1054.057007,856.164673 1056.418945,854.583130 1059.125977,852.955078 1062.499146,851.229309 1065.408325,849.907166 1067.767578,848.949951 1069.620850,848.338623 1070.928955,848.069336 1072.215454,847.939941 1073.453003,847.979919 1074.654907,848.241821 1075.774170,848.735901 1076.278809,849.087891 1076.698975,849.537354 1077.343872,850.573730 1077.743652,851.735718 1077.959961,852.933838 1077.969727,854.762939 1077.723999,855.969910 1077.511108,856.562561 1076.933594,857.692261 1075.865845,859.235413 1074.434448,860.763062 1070.519043,864.382874 1067.865601,867.168701 1066.377441,868.820190 1059.343018,877.109985 1055.921387,880.756104 1054.369751,882.230347 1051.786621,884.507874 1050.246216,885.763428 1048.583130,886.943970 1046.349243,888.383423 1044.119507,889.581055 1042.383423,890.357544 1041.790039,890.540039 1041.220947,890.608459 1040.805420,890.287598 1040.455566,889.843750 1039.926392,888.752197 1039.723755,888.151428 1039.295410,886.162048 1039.131104,883.446228 1039.281494,881.468018 1039.669067,879.409302 1040.372070,876.835938 1041.121216,875.052979 1042.388550,872.850281 1043.570435,871.289429 1048.363159,866.164429 1052.019287,861.890625 1053.735718,860.070923 1055.101685,858.791016 1057.012939,857.233093 1058.750488,856.012695" />
				<polyline stroke="#000000" stroke-opacity="1" fill="none" stroke-linecap="round" stroke-width="4.66662598" points="1076.968140,861.001404 1082.831909,859.000977 1088.677368,857.297424 1090.426025,856.943604 1092.053833,856.709473 1093.559937,856.588745 1094.963135,856.601318 1096.266479,856.734863 1097.477539,857.041748 1098.596436,857.540649 1099.608398,858.247070 1100.463013,859.116089 1100.787109,859.637329 1101.228271,860.801331 1101.479736,862.030212 1101.441528,862.651001 1101.160645,863.859253 1100.649780,864.989014 1099.974243,866.036865 1099.091064,867.051208 1097.956909,868.155273 1090.240234,875.201050 1088.615967,876.908813 1086.640259,879.192383 1084.168701,882.397461 1081.916382,885.532837 1074.506348,896.665039 1072.794922,898.962830 1071.476807,900.533020 1070.167236,901.908325 1069.214233,902.725708 1068.194580,903.453247 1067.072021,904.056641 1065.899292,904.456543 1064.695068,904.650635 1063.470947,904.626831 1062.255737,904.356567 1061.667847,904.150330 1060.564575,903.599670 1059.566040,902.859924 1058.677124,901.994202 1057.529053,900.547241 1056.597534,898.950439 1056.150635,897.807678 1055.887451,896.587524 1055.786865,894.736328 1055.882812,893.522095 1056.223145,891.676392 1056.761230,889.870422 1057.475220,888.098206 1058.571899,885.858643 1059.863159,883.599182 1063.244141,878.463623 1064.757202,876.368286 1065.936768,874.897156 1068.910522,871.639404 1070.653320,869.868652 1072.476074,868.154907 1073.916016,866.979431 1075.427368,865.908447 1076.998657,864.875427 1080.483643,862.849854 1082.300537,861.852051 1084.905273,860.559265 1090.516602,858.005249 1093.726685,856.670532 1095.903931,855.858521" />
				<polyline stroke="#000000" stroke-opacity="1" fill="none" stroke-linecap="round" stroke-width="4.66662598" points="1101.406860,867.876404 1104.894653,866.411194 1108.115112,865.187012 1115.384766,862.818787 1118.185303,862.154907 1121.651123,861.521484 1125.840820,860.975952 1128.460938,860.776306 1131.207397,860.865906 1133.806396,861.124329 1135.629272,861.465149 1138.036621,862.153198 1140.349731,863.056580 1141.988892,863.940186 1144.084106,865.324707 1146.024414,866.908569 1148.301270,869.052612 1149.930176,870.951355 1152.199829,873.918823 1153.513184,876.031372 1154.945679,878.835449 1156.152954,881.746643 1157.079956,884.723022 1157.765259,887.789429 1158.355591,891.483704 1158.712524,895.157593 1158.734863,898.291626 1158.369873,903.816895 1157.986328,907.525879 1157.812988,908.764526 1157.537476,909.997559 1157.113892,911.206604 1156.595703,912.347351 1155.944336,913.416138 1155.175049,914.397156 1152.934326,916.604736 1151.461792,917.762390 1148.798950,919.441284 1146.307373,920.635437 1144.038574,921.455322 1139.015869,922.847107 1134.764526,923.780518 1130.680298,924.471924 1125.708862,925.067688 1119.757446,925.537476 1112.995117,925.879150 1105.013672,926.145691 1095.330078,926.313660 1082.115112,926.391296 1077.086182,926.219116 1072.810059,925.967834 1071.594849,925.819397 1069.800781,925.392761 1068.633301,924.974121 1068.098755,924.686768 1067.293335,923.806213 1066.988647,923.289673 1066.514648,922.166809 1066.022705,920.384521 1065.605957,917.250488 1065.519897,915.399780 1065.605225,912.897156 1065.815918,911.027405 1066.081787,909.813477 1066.490356,908.638550 1067.320801,906.965698 1068.462158,905.164978" />
				<polyline stroke="#000000" stroke-opacity="1" fill="none" stroke-linecap="round" stroke-width="4.66662598" points="978.450378,840.128418 979.863403,841.833191 981.430786,843.330322" />
				<polyline stroke="#000000" stroke-opacity="1" fill="none" stroke-linecap="round" stroke-width="4.66662598" points="1155.942261,917.995789 1157.563721,921.044556 1158.609253,923.352356 1160.001221,927.007935 1161.145264,930.746643 1161.362671,932.025513 1161.454468,933.300171 1161.375977,934.563416 1161.051880,935.776733 1160.600342,936.952454 1160.048462,938.085205 1159.334229,939.160583 1157.676758,941.137146 1156.735840,942.041016 1154.515747,943.693481 1152.171753,945.157715 1148.658569,947.047058 1146.296509,948.128784 1142.654541,949.524048 1140.050171,950.271362 1136.023926,951.150269 1133.409790,951.635864 1129.586792,952.127686 1124.481445,952.623291 1118.129395,953.092468 1111.424683,953.439026 1103.462402,953.736938 1100.743164,953.762939 1068.484009,953.408569 1059.050049,952.955200 1055.179077,952.584595 1048.830811,951.739258 1043.748535,950.788635 1038.730103,949.466309 1033.767090,947.752808 1031.344971,946.772827 1028.983887,945.700195 1025.567383,943.934204 1023.305298,942.665771 1017.719299,939.083191 1013.319824,935.864502 1009.246094,932.608948 1004.226624,928.222351 1001.344727,925.522034 996.804443,920.947388 994.200928,918.056030 989.274780,912.004700 975.017395,893.430603 969.773682,886.969055" />
				<polyline stroke="#000000" stroke-opacity="1" fill="none" stroke-linecap="round" stroke-width="4.66662598" points="976.465393,840.398804 974.380737,843.181519 972.984375,845.240723 971.704651,847.442139 970.563354,849.756042 969.088684,853.365234 968.244202,855.802734 967.154480,859.480713 966.276855,863.234192 965.913818,865.749329 965.753174,868.275879 965.724915,869.546936 965.824829,872.070251 966.072021,874.617065 966.474731,877.137207 967.094543,879.716858 967.926514,882.647766" />
				<polyline stroke="#000000" stroke-opacity="1" fill="none" stroke-linecap="round" stroke-width="4.66674805" points="1067.259521,926.441772 1060.218872,924.849304 1040.322632,919.824402 1024.128906,915.084412 1020.417969,913.819397 1016.824829,912.234497 1013.338867,910.438477 1009.993774,908.453735 1007.834229,907.069885 1005.738464,905.549194 1002.709229,903.026855 999.872925,900.377380 995.307861,895.696228 983.953064,882.952881 977.996277,876.104553 972.956909,869.979614 969.473328,865.324951" />
				<polyline stroke="#000000" stroke-opacity="1" fill="none" stroke-linecap="round" stroke-width="4.66662598" points="851.524902,356.024414 847.191406,360.612854 840.098755,368.675903 835.607544,374.058838 833.340332,376.871704 830.080261,381.153748 827.000671,385.569885 823.979980,390.074707 823.014954,391.545837 821.224670,394.541809 819.560181,397.574951 817.974487,400.697266 817.226929,402.325745 815.847717,405.617188 814.655029,408.873474 814.306091,410.541321 814.308411,412.224426 814.578003,413.881226 815.038818,415.515198 815.753723,417.075745 816.624634,418.558105 817.657349,419.952698 818.818298,421.237854 820.124939,422.413147 821.486938,423.474792 822.936157,424.404358 825.997253,425.942871 827.612732,426.568054 830.975464,427.630188 834.376160,428.457520 837.801392,429.158691 841.345825,429.682800 846.944336,430.277100 854.277283,430.890076 863.538208,431.152588 868.875916,431.210693 890.722839,430.757263 901.465332,430.225037 910.164795,429.876526 924.543396,429.570984 933.115479,429.609680 949.075745,430.131470 966.669250,430.510132 982.911987,430.729675 1000.738586,430.867371 1016.571594,430.930969 1041.759399,430.586365 1052.601929,430.264099 1056.393921,430.047180 1062.039917,429.568787 1074.400635,428.154602 1079.524414,427.473999 1089.927979,425.836304 1101.894409,423.849365 1112.303955,421.732239 1115.680908,420.880798 1117.267090,420.237549 1118.756958,419.402771 1120.065918,418.328247 1121.043945,416.973755 1121.777588,415.464661 1122.344971,413.869141 1122.781372,412.219421 1123.009644,410.531250 1123.013062,408.812866 1122.830200,407.078247 1122.555542,405.367676 1122.162842,403.647400 1121.651855,401.941467 1121.070557,400.257690 1119.746704,397.030090 1118.014160,393.792847 1115.142090,389.234497 1113.152710,386.381958 1112.092041,385.000427 1109.842651,382.302673 1107.524902,379.687134 1106.293213,378.442932 1103.694336,376.097290 1098.259888,371.519897 1092.700439,367.172913 1089.859375,365.145508 1083.333252,360.909180" />
				<polyline stroke="#000000" stroke-opacity="1" fill="none" stroke-linecap="round" stroke-width="4.66687012" points="851.766785,355.356262 858.322021,355.025085 859.771240,355.079834 860.723938,355.229187 861.642517,355.498596 862.519409,355.874878 867.373108,358.613892 869.129272,359.528320 870.476685,360.124634 872.743103,360.987000 875.732971,361.838745 878.247009,362.384399 881.188293,362.854980 884.602295,363.226013 888.453552,363.495911 896.344299,363.759277 901.158142,364.070740 906.625000,364.513062 915.567566,365.466431 929.468445,366.412842 936.738281,366.625610 946.069702,366.788940 963.157776,367.395996 974.806580,367.589233 980.274780,367.754395 989.652771,368.376221 1000.906006,368.797058 1008.528931,368.958313 1011.421875,368.948608 1014.313293,368.844055 1018.356201,368.463867 1023.437805,367.725830 1027.317383,366.986145 1034.243286,365.308411 1038.598022,363.907715 1047.068848,360.787598" />
				<polyline stroke="#000000" stroke-opacity="1" fill="none" stroke-linecap="round" stroke-width="4.66662598" points="1046.548096,361.137756 1048.374023,358.535156 1049.617188,357.045654 1050.676514,356.047119 1052.272217,354.955750 1054.003540,354.098389 1056.753418,353.145325 1059.192383,352.596313 1061.674438,352.341125 1063.609131,352.403442 1064.564819,352.542236 1066.019409,352.904358 1067.905762,353.538391 1071.991821,355.255188 1081.036377,359.559998" />
				<polyline stroke="#000000" stroke-opacity="1" fill="none" stroke-linecap="round" stroke-width="4.66662598" points="837.608032,366.619629 835.946289,361.579346 834.534607,357.770020 826.458923,339.203125 824.386963,334.766724 820.317749,326.535400 817.692200,321.382568 813.327698,313.233765 811.036377,309.395508 808.703064,305.785217 806.304810,302.323181 804.574097,300.044373 802.594971,297.787598 799.434387,294.551270 797.245239,292.496094 794.981201,290.519348 791.446960,287.765198 786.617920,284.380493 784.078247,282.762146 780.044678,280.492371 772.526428,276.667175 769.064575,275.071289 766.807068,274.150330 764.564209,273.354309 762.263184,272.721313 761.040466,272.507324 759.799072,272.354492 757.301575,272.184265 754.755005,272.195557 752.249146,272.366028 750.999512,272.504517 748.517334,272.927368 744.962097,273.794861 742.699036,274.531433 741.610046,275.004944 739.533569,276.018860 737.624634,277.117432 736.731262,277.698120 735.086121,278.963379 733.624756,280.340942 732.957520,281.115601 731.189087,283.583984 730.709412,284.453491 729.983948,286.317810 729.229919,289.248596 728.920166,291.241638 728.432129,295.514954 727.875305,298.716309 727.278259,300.674927 726.433838,302.509277 725.895203,303.357361 724.628418,304.912903 720.382507,309.202332 717.733948,312.224976 716.559204,313.945068 715.513794,315.780090 714.586731,317.620789 713.777039,319.469421 713.479248,320.423340 713.243042,322.431152 713.362915,324.463318 713.505188,325.462585 714.021484,327.413208 714.823486,329.311584 715.345337,330.276123 715.973511,331.225769 716.739502,332.185303 717.631042,333.132629 719.590881,334.928833 720.656372,335.788086 722.978516,337.479980 725.487122,339.106445 729.377747,341.383423 734.443848,344.108826 743.496887,348.625122 755.040527,354.639954 763.279907,359.317871 767.024719,361.555420 770.705566,363.967590 775.494446,367.385498 778.967285,370.095398 783.319092,373.926453 788.027283,378.419861 791.435181,382.037903 794.723694,385.836670 799.271423,391.660583 802.033569,395.499084 807.374451,403.453613 808.476868,405.203247 810.714783,409.074341" />
				<polyline stroke="#000000" stroke-opacity="1" fill="none" stroke-linecap="round" stroke-width="4.66662598" points="778.077332,372.407349 772.426270,370.097107 765.509033,367.591675 758.019470,365.123596 751.508972,363.192322 747.644287,362.192200 735.927246,359.448303 730.503540,358.266174 724.725647,357.192993 716.563782,356.020142 707.258301,354.901123 697.809204,353.937134 690.909790,353.407349 689.644653,353.376892 687.145874,353.459106 684.770264,353.703552 683.637085,353.897888 680.491455,354.660645 679.530273,354.991882 677.740723,355.887756 676.129639,357.039124 674.697388,358.429382 673.427551,359.997742 672.302368,361.682739 671.308960,363.460449 670.469482,365.285583 670.134399,366.232788 669.888367,367.208130 669.613281,369.165588 669.662842,370.151917 669.817871,371.127075 670.105042,372.068115 670.513000,372.994324 670.963806,373.893311 673.500610,378.345947 677.716125,385.443115 679.165588,388.116455 680.475403,390.865967 681.579346,393.697266 682.191467,395.607422 682.668396,397.553833 682.985962,399.551208 683.084595,400.542053 683.094299,402.541077 683.007080,403.534912 682.628967,405.492737 681.480469,409.434692 679.080566,416.213135 678.158447,419.210815 677.636169,421.358215 676.978882,425.600098 676.694885,428.630005 676.730103,430.664673 676.821533,431.655518 677.365479,433.616333 677.743713,434.547974 678.741882,436.308533 679.316040,437.135437 679.987793,437.919739 681.454163,439.357178 683.031250,440.628906 683.854980,441.190430 685.629822,442.127319 687.593323,442.757324 688.599487,442.976685 689.608948,443.094849 691.724182,443.151550 693.815552,443.058472 697.835632,442.567200 701.801941,441.658447 704.744995,440.716187 718.146667,436.164368 726.877441,433.474548 732.159729,432.025818 737.848999,430.740112 743.665222,429.574402 747.258057,428.941223 754.662903,427.786011 758.523254,427.308777 762.546997,426.910339 772.112610,426.219177 783.226379,425.716431 797.474365,425.324829 803.442566,425.459717 806.712708,425.678223 809.862427,426.075256 813.309082,426.769897" />
				<polyline stroke="#000000" stroke-opacity="1" fill="none" stroke-linecap="round" stroke-width="4.66674805" points="858.117310,354.923035 860.207031,354.526794 864.138245,353.640808 869.581177,352.801697" />
				<polyline stroke="#000000" stroke-opacity="1" fill="none" stroke-linecap="round" stroke-width="4.66662598" points="1042.812134,350.377441 1053.253662,350.501587 1056.148438,350.669739 1059.623413,351.188171 1063.351562,352.130798" />
				<polyline stroke="#000000" stroke-opacity="1" fill="none" stroke-linecap="round" stroke-width="4.66662598" points="1046.161377,353.726807 1048.567139,354.152649" />
				<polygon stroke="#000000" stroke-opacity="1" fill="none" stroke-linecap="round" stroke-width="4.66687012" points="636.037903,187.015869 635.810486,180.008728 635.129456,173.031555 633.997681,166.114441 632.419861,159.286804 630.402832,152.577820 627.955200,146.016418 625.087524,139.630493 621.812073,133.447327 618.142883,127.493835 614.095581,121.795044 609.687561,116.375732 604.937683,111.258728 599.866211,106.466125 594.495178,102.018494 588.847046,97.934814 582.946472,94.232544 576.818481,90.927673 570.489380,88.034363 563.986328,85.564758 557.337097,83.529663 550.570190,81.937561 543.714539,80.795471 536.799805,80.108337 529.854919,79.878906 522.910217,80.108337 515.995361,80.795471 509.139740,81.937561 502.372864,83.529663 495.723602,85.564758 489.220612,88.034363 482.891479,90.927673 476.763550,94.232544 470.862854,97.934814 465.214966,102.018494 459.843689,106.466125 454.772247,111.258728 450.022430,116.375732 445.614441,121.795166 441.567139,127.493835 437.897888,133.447449 434.622406,139.630493 431.754700,146.016418 429.307068,152.577942 427.290070,159.286926 425.712311,166.114563 424.580505,173.031860 423.899414,180.008850 423.672119,187.015991 423.899414,194.023132 424.580505,201.000122 425.712372,207.917358 427.290161,214.745056 429.307312,221.453979 431.754852,228.015442 434.622528,234.401428 437.898041,240.584412 441.567261,246.537964 445.614563,252.236755 450.022705,257.656189 454.772583,262.773193 459.843994,267.565674 465.215149,272.013306 470.863220,276.096985 476.763672,279.799072 482.891815,283.104004 489.220856,285.997314 495.723846,288.466919 502.373077,290.502014 509.139862,292.094055 515.995422,293.236023 522.910400,293.923157 529.855164,294.152588 536.799866,293.923157 543.714722,293.235962 550.570312,292.093933 557.337219,290.501953 563.986450,288.466797 570.489441,285.997253 576.818481,283.103882 582.946472,279.799011 588.847046,276.096741 594.495178,272.013123 599.866211,267.565552 604.937561,262.772949 609.687561,257.655945 614.095581,252.236572 618.142761,246.537842 621.812073,240.584229 625.087524,234.401184 627.955200,228.015259 630.402710,221.453857 632.419739,214.745056 633.997559,207.917236 635.129456,201.000122 635.810486,194.023132" />
				<polyline stroke="#000000" stroke-opacity="1" fill="none" stroke-linecap="round" stroke-width="4.66674805" points="512.618652,82.527222 510.892181,83.811584 508.989258,85.388611 506.104309,87.956299 504.154938,89.901794 502.251770,92.008484 500.370819,94.304382 496.809998,99.093506 494.315430,102.795471 492.740814,105.315552 488.317902,112.857483 486.351349,116.692688 482.027435,125.807434 479.959991,131.060486 476.134918,142.671204 474.053406,150.045410 471.641052,159.756592 469.471313,169.998596 468.149139,177.812805 467.175812,184.907410 466.451172,191.919800 465.920105,198.615601 465.570312,207.995667 465.634644,214.573181 465.895966,219.777710 466.503754,225.027710 467.221191,229.005737 468.425781,234.145020 469.829285,239.146912 471.859009,245.242554 473.733154,250.103821 476.259399,256.135620 480.025177,264.318848 483.222321,269.951782 486.662048,275.448914 489.965515,279.893555 494.625793,285.381042" />
				<polyline stroke="#000000" stroke-opacity="1" fill="none" stroke-linecap="round" stroke-width="4.66674805" points="423.072693,192.207642 428.037689,195.759399 435.270538,200.514893 441.781067,204.253357 444.443939,205.693542 447.323059,207.100220 450.574890,208.500854 452.349487,209.160828 458.122681,211.093933 462.179443,212.306641 468.468750,213.893494 474.783386,215.219971 478.933228,215.979553 490.386993,217.777161 500.970947,219.026978 507.422333,219.636292 510.591766,219.845337 516.921509,220.110657 524.002075,219.934631 530.795776,219.521606 535.659729,219.007874 540.267822,218.393677 548.851990,216.901245 556.845947,215.033447 564.352112,212.911682 566.817871,212.112976 570.433411,210.758667 577.628723,207.720032 583.544983,204.837646 588.171753,202.322449 593.767334,198.995422 598.230408,196.178162 601.548828,193.983215 604.779846,191.706238 608.861511,188.520386 612.850830,185.011658 617.402893,180.369019 619.112549,178.380188 621.539734,175.302429 623.035706,173.227417 625.166382,170.004089 627.054382,166.597473 629.380066,161.372437" />
				<polyline stroke="#000000" stroke-opacity="1" fill="none" stroke-linecap="round" stroke-width="4.66674805" points="438.968475,130.214355 438.276031,138.841125 437.841522,146.484802 437.738464,150.381287 437.900269,153.029846 438.074341,154.345886 438.643280,156.984436 439.391144,159.490967 440.360352,161.905457 440.919403,163.064087 442.997650,166.437622 445.379059,169.503906 447.077911,171.409363 448.973450,173.286377 451.016876,175.108765 454.135254,177.678528 456.240875,179.208191 458.514282,180.568909 460.801453,181.775391 463.146301,182.844482 466.779602,184.223877 469.270752,185.008850 473.031738,185.841309 475.637634,186.126038 478.253571,186.190186 482.156982,185.975220 484.713135,185.703735 488.606415,184.972412 492.548676,183.991211 497.576630,182.417419 502.622101,180.557068 506.320038,178.990601 509.938538,177.176941 514.521118,174.523499 523.096985,168.765686 530.477478,163.406494 538.841614,157.063721 548.462463,150.112976 552.695068,147.163696 558.157104,143.590942 562.659302,140.917053 566.078125,139.071594 569.649475,137.410767 578.265503,133.721436 581.908691,132.271851 595.315796,127.735657 600.324341,126.336060 604.097107,125.484131 609.174133,124.563965 613.509888,123.958374" />
				<polyline stroke="#000000" stroke-opacity="1" fill="none" stroke-linecap="round" stroke-width="4.66687012" points="454.864258,260.559204 457.277069,257.846008 459.113098,256.066772 461.053802,254.373230 463.164093,252.848328 466.520630,250.873596 468.817474,249.742188 471.200195,248.740051 474.925415,247.497375 478.658691,246.576965 482.529480,246.051453 486.465576,245.904114 490.354858,246.122375 495.552521,246.759155 499.473938,247.437744 513.389282,250.775146 523.348511,253.903687 532.540161,256.503418 541.147400,258.485718 546.673950,259.609802 552.211670,260.497742 558.019775,261.194885 566.505981,261.969727 571.919189,262.294800 578.493591,262.250183 582.343384,261.941101 587.480286,261.120239 590.047302,260.550537 592.587891,259.840515 600.015442,257.332153 603.622742,255.772034 606.001831,254.605713 608.354553,253.312195 611.876587,251.191772 614.436523,249.468872" />
			</g>
		</g>
	</g>
</svg>
