<svg width="1390" height="1024" viewBox="0 0 1390 1024" fill="none" xmlns="http://www.w3.org/2000/svg">
<path d="M1412.51 1091.96C1413.54 1092.59 1414.39 1093.12 1415.05 1093.53L1483.48 971.726C1483.12 971.558 1482.72 971.367 1482.27 971.152C1480.18 970.16 1477.08 968.672 1473.04 966.687C1464.96 962.717 1453.11 956.757 1437.98 948.793C1407.72 932.866 1364.38 908.92 1312.04 876.837C1207.35 812.672 1066.6 715.947 922.371 585.698C777.923 455.252 676.337 264.466 610.88 106.447C578.141 27.4121 554.418 -43.4786 538.879 -94.6133C531.11 -120.182 525.385 -140.813 521.603 -155.056C519.711 -162.177 518.305 -167.702 517.372 -171.449C516.905 -173.322 516.556 -174.751 516.324 -175.712C516.295 -175.832 516.267 -175.945 516.242 -176.051L450.809 -196.077C450.833 -195.976 450.857 -195.872 450.882 -195.767C451.448 -193.347 452.289 -189.776 453.39 -185.171C455.591 -175.96 458.829 -162.616 462.974 -146.085C471.266 -113.024 483.188 -67.2203 497.711 -16.2541C526.769 85.7222 566.195 208.212 607.736 290.697C690.9 455.83 761.136 547.299 886.767 690.665C961.093 775.483 1093.54 876.448 1207.54 956.282C1264.52 996.18 1316.84 1030.77 1354.92 1055.38C1373.96 1067.69 1389.44 1077.5 1400.16 1084.23C1405.51 1087.6 1409.68 1090.2 1412.51 1091.96Z" fill="#994952" stroke="white" stroke-width="4"/>
<path d="M899.131 699.985L963.492 624.291L905.541 635.689L899.131 699.985Z" fill="#EDBC92"/>
<path d="M721.726 454.578L719.089 453.282L714.713 402.114L725.277 394.3L726.133 395.458L722.492 450.317L723.79 452.828L721.726 454.578ZM721.726 454.578L720.667 448.757L761.694 418.411L764.851 422.68L721.726 454.578ZM746.794 455.627L745.884 454.397L749.745 444.936L732.886 422.143L732.949 420.866L740.257 415.46L757.704 439.049L767.88 438.127L768.79 439.357L746.794 455.627Z" fill="white"/>
<path d="M732.297 351.211L663.285 390.745" stroke="white" stroke-width="3"/>
</svg>
