<svg width="628" height="561" viewBox="0 0 628 561" fill="none" xmlns="http://www.w3.org/2000/svg">
<path d="M484.536 285.967C484.674 283.937 481.382 278.919 477.799 275.763C471.61 270.309 465.595 270.594 457.348 270.486C450.314 270.395 446.304 271.584 439.662 273.901C433.777 275.953 425.389 281.039 425.389 281.039C425.389 281.039 419.89 268.45 413.598 262.727C405.688 255.532 388.466 251.864 388.466 251.864C388.466 251.864 386.405 248.259 385.053 245.966C379.434 236.438 376.832 230.646 369.849 222.067C362.816 213.426 358.528 208.549 349.371 202.203C342.51 197.448 330.444 192.271 330.444 192.271L318.033 188.546C318.033 188.546 315.703 183.747 314 180.787C309.232 172.5 305.592 168.338 299.372 161.226L299.106 160.923C292.799 153.711 281.627 143.707 281.627 143.707C281.627 143.707 280.374 143.979 278.977 143.037C277.387 141.99 277.387 141.99 275.642 141.253L274.285 140.748V139.507C265.872 134.672 257.5 129.554 248.098 126.924L246.36 126.471L246.328 126.462C245.161 126.137 243.994 125.811 242.813 125.542L241.395 125.229C233.296 123.196 225.404 123.081 217.081 123.289C197.851 124.149 175.923 134.957 162.866 149.048L161.964 150.06L160.374 151.65L158.862 153.163C155.77 156.049 153.215 159.095 150.775 162.555L149.553 164.337C144.332 171.931 139.94 180.236 137.484 189.152L137.142 190.409C134.757 198.539 134.447 206.582 134.428 215.002L134.427 216.752C134.395 232.286 137.478 246.236 141.737 261.13L142.107 262.417C140.468 262.613 140.468 262.613 138.383 263.037C131.311 266.198 125.768 271.238 121.861 277.897C118.714 283.718 118.628 290.907 120.412 297.218L121.008 299.041C119.003 299.041 117.544 299.531 115.692 300.259C102.563 305.866 93.7333 313.831 88.1185 326.975C85.38 334.402 85.9848 345.401 88.9863 352.664C90.9247 357.238 92.1118 361.412 92.6054 366.387L92.7727 368.411C93.0092 371.199 93.635 374.112 92.5051 376.737C90.5223 380.147 89.192 383.972 89.2045 387.926L89.3596 390.293C83.4871 390.152 77.9254 390.054 72.3356 392.082C67.3779 394.151 63.6255 397.056 61.4347 402.087C60.8578 405.676 60.7159 409.344 62.5207 412.601C64.2357 414.936 65.9055 417.265 67.2306 419.847C69.509 424.32 71.6716 427.471 76.2892 429.633L77.5691 430.021C77.5691 431.263 77.5691 431.263 78.306 432.077L79.4308 433.125C82.1241 436.146 85.0852 438.248 88.7391 439.953C100.488 443.842 111.463 441.877 122.472 436.978L124.111 436.229C122.017 445.159 123.731 454.721 128.464 462.492C134.073 471.077 141.315 475.776 151.299 478.091C162.824 480.497 174.164 479.269 184.304 472.853C194.912 464.741 199.269 454.036 201.619 441.263C202.066 438.754 202.535 436.253 203.04 433.755C203.272 432.614 203.504 431.473 203.735 430.332L204.783 425.055H227.122C227.122 427.636 227.391 429.489 228.099 431.93L228.557 433.435C232.407 446.104 237.441 458.369 242.862 470.436C244.454 473.975 245.975 477.542 247.484 481.117C249.12 485.031 250.897 488.84 252.811 492.626C254.17 495.295 255.527 497.966 256.88 500.638L257.917 502.689C259.895 506.557 261.811 510.373 263.275 514.468C264.449 517.958 265.867 520.88 268.455 523.537C281.403 534.419 281.403 534.419 330.371 534.465L332.5 534.464C334.55 534.463 336.6 534.459 338.65 534.448L340.579 534.435C344.84 534.415 349.046 534.227 353.29 533.845L354.956 533.688C364.916 532.784 376.977 532.939 385.364 526.859C384.952 525.717 384.952 525.717 384.122 524.376C374.527 518.71 374.527 518.71 329.219 517.585L327.652 517.548C333.144 514.102 338.522 510.686 343.462 506.471L345.028 505.133C350.443 500.878 355.307 496.286 360.097 491.342L361.162 490.235C363.37 487.941 366.211 485.702 367.198 482.618L367.368 481.544H368.609C372.581 474.007 374.829 462.552 372.332 454.231C370.396 454.02 369.388 453.742 367.874 452.48C366.323 450.894 364.728 449.443 363.024 448.023C356.662 443.788 350.875 442.552 343.353 444C334.979 446.432 328.815 454.711 324.549 461.913C323.49 463.888 322.288 465.741 321.059 467.616C319.851 469.433 318.959 471.007 318.213 473.064L317.723 474.716H316.482C316.192 476.092 315.822 477.286 315.241 478.571L314.487 480.048L313.662 481.679C313.087 482.802 312.513 483.925 311.941 485.049L311.113 486.682C310.325 488.223 309.602 489.747 308.944 491.349L308.415 492.718H307.174C305.213 498.603 300.588 504.264 296.624 508.974C294.619 511.302 292.637 513.638 290.719 516.039L289.798 517.199C288.275 519.081 286.884 520.855 285.881 523.079L285.454 524.376H284.213L283.593 525.618H281.111C284.052 516.838 284.052 516.838 290.853 509.786C294.192 505.944 297.171 501.926 300.036 497.72L301.24 495.938L302.421 494.207L303.526 492.55C304.606 490.941 305.275 489.768 305.734 487.878L305.933 486.51H307.174C308.007 483.613 309.237 481.069 310.639 478.417L311.479 476.85C312.515 474.89 313.551 472.932 314.62 470.991C315.671 469.265 316.431 468.098 316.909 466.142L317.103 464.784H318.344C319.242 462.887 320.167 461.116 321.342 459.376L322.571 457.722L323.897 455.938L325.17 454.231C326.884 451.82 328.486 449.637 330.677 447.635L332.617 446.161C334.703 444.36 336.731 442.844 339.227 441.648C344.809 439.527 351.466 438.643 357.167 440.846C359.3 441.816 359.3 441.816 361.472 442.242L363.024 442.436V443.678L366.747 444.919V446.161L367.697 446.961L368.919 447.79C369.64 448.286 370.363 448.778 371.091 449.265C370.816 446.291 370.195 443.949 368.903 441.258L368.26 439.992C366.513 436.546 364.748 433.644 361.819 431.057L360.541 430.021C357.321 427.197 354.281 425.118 350.227 423.675L348.751 423.193C342.878 421.167 335.859 421.468 329.746 422.325L328.273 422.572C321.534 423.637 315.244 425.319 309.036 428.159C298.014 433.763 291.362 443.672 287.588 455.201C286.625 458.255 285.43 461.203 284.213 464.163C271.946 452.611 263.352 431.073 261.873 414.502C264.697 412.996 267.142 411.314 269.669 409.342C271.52 407.845 272.386 407.019 274.794 407.145C275.838 407.425 276.885 407.701 277.938 407.947C279.269 408.249 280.597 408.562 281.925 408.877C290.539 410.997 299.185 411.568 308.025 411.538C309.668 411.526 311.311 411.515 312.955 411.514C314.053 411.514 315.152 411.512 316.25 411.509L317.825 411.503C320.469 411.499 323.024 411.434 325.651 411.108L327.652 410.778C347.313 407.806 368.168 400.502 383.735 387.771C386.068 385.669 387.944 385.111 390.985 384.66C401.272 383.322 411.613 380.762 421.334 377.12L422.597 376.636C434.132 372.226 445.131 366.104 452.112 355.569C456.851 346.786 456.116 336.854 454.032 327.443L453.624 325.734C454.865 325.693 456.107 325.697 457.348 325.734C458.84 326.496 460.096 327.124 461.692 327.596C467.839 328.199 472.73 327.853 477.799 324.25C481.477 321.307 483.368 318.529 484.109 313.823C484.258 312.616 484.435 311.412 484.652 310.215L484.789 310.01C485.889 308.36 486.974 306.732 487.864 304.956C489.031 301.375 488.941 297.015 487.755 293.455L486.165 291.941C484.465 290.008 484.48 288.496 484.536 285.967Z" fill="black"/>
<path d="M251.945 137.024C252.851 137.433 253.759 137.84 254.667 138.246C259.763 140.554 264.68 143.035 269.436 145.986C270.078 146.382 270.078 146.382 270.733 146.786C271.735 147.426 272.703 148.117 273.664 148.818C273.664 149.228 273.664 149.638 273.664 150.06C274.013 150.218 274.361 150.377 274.721 150.54C286.84 157.014 296.62 170.578 304.071 181.719C304.733 182.68 304.733 182.68 305.409 183.661C305.812 184.262 306.215 184.863 306.631 185.482C307.171 186.28 307.171 186.28 307.722 187.094C308.415 188.547 308.415 188.547 308.393 189.873C307.557 191.488 306.566 191.905 304.963 192.737C299.781 195.68 294.216 200.74 292.28 206.549C291.871 206.549 291.461 206.549 291.039 206.549C290.975 207.077 290.91 207.605 290.843 208.149C290.38 210.465 289.586 212.322 288.596 214.464C287.169 217.622 286.188 220.616 285.716 224.059C285.63 224.426 285.543 224.793 285.454 225.172C285.045 225.376 284.635 225.581 284.213 225.792C284.054 225.438 283.895 225.083 283.731 224.718C277.91 212.387 268.723 202.466 256.172 196.888C249.794 194.837 241.535 194.988 235.405 197.698C227.48 201.946 222.85 207.528 218.435 215.239C218.017 215.909 217.6 216.579 217.169 217.269C215.626 219.983 214.838 222.874 214.013 225.87C213.857 226.404 213.701 226.939 213.54 227.49C211.448 234.919 210.745 242.221 210.755 249.924C210.756 250.341 210.756 250.757 210.756 251.187C210.826 269.955 215.735 290.032 227.122 305.249C227.737 306.07 227.737 306.07 228.363 306.908C233.134 313.238 233.134 313.238 239.533 317.664C239.533 318.074 239.533 318.484 239.533 318.906C239.943 319.06 240.353 319.213 240.775 319.372C242.24 319.982 243.569 320.642 244.963 321.389C249.504 323.635 253.801 323.995 258.809 324.066C259.278 324.077 259.747 324.088 260.231 324.099C263.611 324.095 266.243 323.374 269.32 322.01C269.739 321.836 270.157 321.662 270.589 321.483C274.948 319.633 279.015 316.176 281.615 312.235C283.21 310.591 284.188 310.483 286.438 310.437C286.881 310.441 287.325 310.444 287.781 310.448C292.404 310.34 296.701 309.732 301.225 308.799C301.96 308.652 302.694 308.505 303.45 308.353C304.2 308.195 304.949 308.036 305.722 307.873C308.136 307.709 308.885 308.076 310.781 309.517C311.245 309.861 311.71 310.205 312.189 310.56C312.582 310.856 312.975 311.152 313.379 311.457C313.789 311.662 314.198 311.867 314.62 312.078C314.62 312.487 314.62 312.897 314.62 313.319C315.652 313.739 316.687 314.151 317.723 314.561C318.098 314.717 318.473 314.874 318.86 315.036C321.767 316.206 324.514 316.869 327.652 317.044C328.306 317.084 328.961 317.124 329.635 317.165C336.765 317.4 342.39 315.911 348.169 311.685C349.371 310.836 349.371 310.836 350.729 310.177C352.206 309.412 352.396 308.597 353.095 307.112C353.671 306.555 353.671 306.555 354.258 305.986C355.93 304.265 356.955 302.388 358.059 300.283C358.571 299.36 358.571 299.36 359.094 298.419C361.986 292.997 363.697 287.675 364.885 281.661C365.024 280.997 365.024 280.997 365.166 280.321C368.773 262.797 366.993 244.512 361.004 227.72C360.195 225.434 359.441 223.129 358.68 220.826C368.128 230.129 373.896 241.489 378.911 253.646C379.647 255.605 379.647 255.605 381.02 256.83C382.48 257.26 383.924 257.64 385.402 257.994C389.116 258.942 392.503 260.044 395.913 261.796C396.635 262.155 397.358 262.513 398.102 262.883C407.54 267.66 415.052 273.35 418.873 283.523C419.726 286.436 419.632 289.316 419.649 292.33C419.668 293.175 419.668 293.175 419.688 294.038C419.707 297.454 419.307 300.218 418.053 303.404C417.402 305.298 417.431 307.001 417.632 308.974C418.826 310.449 418.826 310.449 420.953 310.298C421.374 310.296 421.796 310.294 422.23 310.292C429.278 310.299 435.722 312.241 440.85 317.272C446.768 325.157 448.725 336.55 447.419 346.219C445.085 354.234 438.677 359.594 431.684 363.642C418.805 370.59 403.671 375.557 389.033 376.799C383.828 377.276 380.377 380.34 376.305 383.358C372.314 386.292 368.033 388.636 363.644 390.914C362.571 391.476 362.571 391.476 361.477 392.049C335.76 404.768 305.794 407.555 278.274 399.44C275.294 398.801 272.243 398.17 269.394 399.548C268.253 400.34 267.199 401.189 266.14 402.087C256.855 409.385 246.12 413.945 234.569 416.365C234.037 416.492 233.505 416.619 232.957 416.75C215.282 420.439 196.639 415.863 179.96 410.157C178.878 409.796 177.796 409.435 176.715 409.073C175.766 408.751 174.818 408.427 173.871 408.101C173.456 407.958 173.041 407.816 172.613 407.669C170.331 406.853 168.363 405.844 166.308 404.57C165.361 404.16 164.404 403.772 163.438 403.407C159.988 402.066 156.633 400.541 153.277 398.984C153.277 398.574 153.277 398.164 153.277 397.742C152.619 397.623 152.619 397.623 151.948 397.502C148.512 396.765 145.788 396.06 143.348 393.397C142.528 390.54 142.766 387.517 142.79 384.573C142.802 380.707 142.156 377.051 141.447 373.261C139.932 364.675 139.054 357.322 143.348 349.323C145.508 346.34 148.106 343.757 150.794 341.253C151.407 340.674 151.407 340.674 152.032 340.084C155.604 336.797 159.436 334.077 163.477 331.399C164.692 330.587 165.907 329.774 167.12 328.959C167.915 328.431 167.915 328.431 168.726 327.893C170.083 326.996 170.083 326.996 171.273 325.734C171.062 323.755 170.661 322.036 170.031 320.147C165.403 320.935 162.238 323.015 158.435 325.695C157.833 326.114 157.232 326.533 156.612 326.964C146.249 334.257 136.593 342.406 133.147 355.181C132.266 360.589 132.374 365.883 133.69 371.179C135.391 378.101 135.543 384.871 135.552 391.961C135.556 392.474 135.559 392.987 135.563 393.515C135.589 398.994 135.374 404.337 134.451 409.745C134.38 410.171 134.308 410.598 134.234 411.037C133.453 415.139 131.711 418.15 129.075 421.331C128.627 421.873 128.179 422.414 127.717 422.973C122.059 429.182 113.797 433.4 105.324 433.815C102.068 433.895 98.8202 433.844 95.5651 433.746C95.3603 433.336 95.1555 432.927 94.9445 432.505C95.702 432.354 96.4596 432.204 97.2401 432.049C102.704 430.943 108.033 429.75 113.331 427.994C114.802 427.539 114.802 427.539 116.043 427.539C116.056 426.758 116.069 425.977 116.082 425.172C116.089 424.733 116.096 424.293 116.104 423.841C116.095 422.446 116.095 422.446 115.423 420.71C111.736 421.222 108.081 421.774 104.449 422.587C86.1893 426.651 86.1893 426.651 78.5338 422.01C78.2154 421.786 77.897 421.562 77.569 421.331C77.7738 420.921 77.9786 420.512 78.1896 420.089C78.5831 420.189 78.9767 420.289 79.3822 420.393C85.8995 421.476 92.9822 420.926 99.5211 420.206C99.9444 420.162 100.368 420.119 100.804 420.074C103.611 419.723 106.527 419.055 108.597 416.986C108.622 415.537 108.623 414.089 108.597 412.64C104.548 411.29 100.293 412.018 96.1468 412.64C86.2615 414.006 78.5553 413.608 69.5018 408.916C69.2773 407.007 69.2106 405.234 69.5018 403.329C72.2215 399.947 75.9028 399.17 80.0512 398.363C82.5423 398.191 85.0037 398.238 87.4979 398.324C88.7517 398.361 90.0058 398.393 91.26 398.419C91.8047 398.437 92.3495 398.455 92.9107 398.474C94.4991 398.465 94.4991 398.465 96.1856 397.121C96.516 395.959 96.516 395.959 96.5516 394.617C96.5886 394.117 96.6256 393.617 96.6637 393.102C96.6979 392.572 96.7321 392.042 96.7674 391.496C97.1399 387.157 97.5599 383.5 99.9089 379.74C100.185 379.273 100.461 378.806 100.745 378.324C103.704 373.588 107.199 370.069 112.007 367.23C113.506 365.388 113.143 363.363 112.941 361.117C112.755 359.731 112.547 358.347 112.32 356.966C111.611 351.963 111.538 346.96 111.506 341.913C111.495 341.14 111.484 340.368 111.473 339.572C111.479 327.44 118.549 318.862 126.837 310.54C134.165 303.592 142.722 300.025 152.035 296.559C152.24 294.92 152.445 293.281 152.656 291.593C152.246 291.593 151.837 291.593 151.415 291.593C151.415 291.183 151.415 290.773 151.415 290.351C145.111 291.111 138.524 293.027 133.295 296.719C131.557 297.8 131.557 297.8 130.151 297.803C128.287 296.723 128.111 295.095 127.557 293.111C126.202 287.134 128.521 282.971 131.557 277.936C134.644 273.605 139.801 270.562 145.003 269.541C146.311 269.417 147.622 269.329 148.933 269.245C149.547 268.836 150.161 268.426 150.794 268.004C151.446 263.678 149.716 259.567 148.467 255.472C142.136 233.966 139.377 212.207 145.83 190.409C145.993 189.755 146.156 189.102 146.324 188.428C149.58 176.153 157.711 165.921 166.308 156.888C166.708 156.448 167.108 156.008 167.52 155.555C177.73 144.675 192.005 137.663 206.024 133.299C206.731 133.078 207.438 132.856 208.166 132.628C222.156 129.006 238.98 130.756 251.945 137.024Z" fill="#F7F4F1"/>
<path d="M261.253 209.032C260.632 210.894 260.632 210.894 259.275 211.67C254.051 214.921 251.675 220.288 250.277 226.064C247.486 238.524 248.296 251.83 250.703 264.279C250.858 265.085 250.858 265.085 251.016 265.908C253.565 278.703 257.767 292.293 267.458 301.525C267.919 301.973 268.38 302.421 268.855 302.882C271.159 304.402 273.451 304.803 276.146 305.249C274.762 309.416 271.576 312.061 267.798 314.168C262.289 316.667 256.876 317.401 251.014 315.492C238.965 310.619 230.918 298.791 225.881 287.247C221.35 275.713 218.939 264.301 218.906 251.905C218.9 250.561 218.881 249.217 218.861 247.873C218.804 240.411 220.031 233.523 222.468 226.452C222.718 225.716 222.967 224.981 223.225 224.223C224.358 221.151 225.611 218.148 227.122 215.239C227.532 215.239 227.942 215.239 228.364 215.239C228.528 214.88 228.693 214.521 228.863 214.151C231.497 209.198 235.692 206.19 240.658 203.872C248.709 202.135 254.583 204.727 261.253 209.032Z" fill="#F6F3F0"/>
<path d="M333.61 201.491C334.04 201.844 334.04 201.844 334.478 202.204C334.478 202.613 334.478 203.023 334.478 203.445C333.94 203.663 333.403 203.881 332.849 204.105C327.118 207.396 324.765 213.479 322.932 219.6C321.741 224.505 321.88 229.503 321.905 234.518C321.912 236.055 321.905 237.593 321.897 239.13C321.892 245.734 322.385 252.155 323.308 258.693C322.752 258.701 322.752 258.701 322.185 258.71C314.44 258.861 307.16 259.447 299.625 261.275C297.654 261.707 296.128 261.843 294.142 261.796C290.821 243.76 289.339 224.925 300.074 208.906C308.877 196.252 320.199 193.166 333.61 201.491Z" fill="#F5F2EF"/>
<path d="M317.995 267.073C318.701 267.047 319.407 267.021 320.134 266.995C325.405 266.947 329.487 268.088 333.858 271.108C335.297 272.71 335.688 273.413 336.069 275.569C335.283 280.897 331.019 285.111 327.032 288.489C316.582 296.159 301.755 302.938 288.558 302.145C288.67 301.777 288.783 301.408 288.899 301.028C289.055 300.513 289.211 299.999 289.372 299.468C289.523 298.972 289.674 298.475 289.83 297.963C290.025 297.294 290.219 296.626 290.419 295.938C290.634 295.239 290.634 295.239 290.852 294.525C292.285 289.636 292.991 284.728 293.638 279.682C293.749 278.846 293.86 278.009 293.972 277.173C294.24 275.152 294.503 273.13 294.763 271.108C302.605 268.538 309.736 267.147 317.995 267.073Z" fill="#F5F2EF"/>
<path d="M255.668 418.227C256.162 419.337 256.162 419.337 256.533 420.79C256.676 421.325 256.818 421.86 256.965 422.411C257.187 423.278 257.187 423.278 257.413 424.163C260.061 433.913 263.72 442.79 268.175 451.853C268.699 452.989 268.699 452.989 269.32 454.852C268.944 454.943 268.568 455.034 268.18 455.128C261.673 456.871 255.285 460.189 251.748 466.164C251.153 467.34 250.612 468.543 250.083 469.75C248.143 468.78 247.773 466.856 246.994 464.932C246.728 464.286 246.728 464.286 246.456 463.626C245.876 462.217 245.302 460.804 244.73 459.391C244.535 458.911 244.339 458.432 244.138 457.937C239.578 446.741 235.103 435.703 232.707 423.814C233.06 423.714 233.412 423.614 233.775 423.511C235.423 423.044 237.071 422.575 238.719 422.107C239.311 421.939 239.904 421.771 240.515 421.597C244.479 420.467 248.408 419.267 252.317 417.958C253.806 417.606 253.806 417.606 255.668 418.227Z" fill="#F5F2EF"/>
<path d="M363.024 442.437C363.024 442.846 363.024 443.256 363.024 443.678C364.253 444.088 365.481 444.498 366.747 444.92C366.747 445.329 366.747 445.739 366.747 446.161C367.115 446.32 367.483 446.478 367.862 446.641C369.361 447.476 370.168 448.329 371.246 449.653C371.731 450.241 371.731 450.241 372.225 450.841C372.585 451.29 372.585 451.29 372.953 451.748C372.543 452.567 372.134 453.387 371.712 454.231C368.909 453.93 367.762 453 365.816 451.011C361.02 446.574 356.162 444.117 349.566 443.911C342.926 444.218 338.039 446.567 333.237 451.127C331.469 453.117 329.863 455.201 328.273 457.335C327.775 457.959 327.775 457.959 327.267 458.596C324.677 461.879 322.77 465.438 320.826 469.129C320.235 470.204 319.64 471.278 319.042 472.349C318.788 472.806 318.533 473.263 318.271 473.734C318 474.22 318 474.22 317.723 474.716C317.314 474.716 316.904 474.716 316.482 474.716C316.424 475.442 316.424 475.442 316.364 476.183C315.668 479.311 314.261 481.929 312.798 484.764C312.515 485.324 312.232 485.884 311.941 486.461C310.841 488.624 309.762 490.697 308.415 492.718C308.006 492.718 307.596 492.718 307.174 492.718C307.134 493.134 307.094 493.55 307.053 493.979C306.365 496.516 305.033 498.346 303.528 500.477C303.071 501.135 303.071 501.135 302.604 501.806C300.384 504.946 298.002 507.892 295.476 510.789C293.214 513.399 291.136 516.117 289.1 518.906C288.806 519.309 288.512 519.711 288.21 520.126C286.714 522.178 286.714 522.178 285.455 524.377C285.045 524.377 284.636 524.377 284.214 524.377C284.009 524.991 283.804 525.606 283.593 526.239C282.569 526.034 281.545 525.829 280.49 525.618C281.068 519.669 285.71 514.776 289.682 510.565C295.759 504.08 303.096 495.023 305.933 486.51C306.342 486.51 306.752 486.51 307.174 486.51C307.316 485.93 307.457 485.35 307.603 484.752C308.528 481.518 310.021 478.552 311.479 475.531C311.754 474.949 312.029 474.368 312.312 473.769C314.381 469.448 314.381 469.448 315.606 467.82C316.601 466.616 316.601 466.616 317.103 464.784C317.512 464.784 317.922 464.784 318.344 464.784C318.503 464.236 318.662 463.688 318.826 463.123C320.081 459.712 322.343 457.087 324.55 454.231C325.002 453.635 325.455 453.039 325.922 452.424C335.658 440.002 348.438 436.142 363.024 442.437Z" fill="#EDEAE7"/>
<path d="M479.688 295.938C480.929 297.18 480.929 297.18 481.123 299.236C480.877 302.143 480.117 303.684 477.957 305.628C475.414 307.228 472.651 306.921 469.759 306.491C468.101 305.789 466.578 304.96 465.006 304.085C462.322 302.795 460.04 302.948 457.178 303.814C455.978 304.252 454.799 304.746 453.625 305.249C453.043 308.384 453.043 308.384 453.625 311.457C454.135 311.383 454.646 311.31 455.171 311.234C459.509 310.733 462.3 310.822 466.223 312.703C469.525 313.918 473.098 313.839 476.585 313.94C475.835 316.193 475.171 316.493 473.211 317.742C472.464 318.225 472.464 318.225 471.701 318.717C469.188 320.258 467.089 320.457 464.174 320.148C462.208 319.525 460.432 318.586 458.589 317.664C457.322 317.882 456.055 318.102 454.788 318.324C450.991 318.667 450.991 318.667 449.039 317.078C448.212 315.987 447.421 314.867 446.668 313.724C445.592 312.129 444.569 311.098 443.075 309.905C442.461 309.393 441.847 308.881 441.214 308.353C441.214 307.943 441.214 307.534 441.214 307.112C440.804 307.112 440.395 307.112 439.973 307.112C439.973 306.702 439.973 306.292 439.973 305.87C440.677 305.548 441.381 305.225 442.106 304.893C443.05 304.456 443.994 304.019 444.937 303.581C445.666 303.243 445.666 303.243 446.409 302.898C448.854 301.749 451.164 300.582 453.392 299.042C455.795 297.618 457.085 297.431 459.83 297.8C460.668 298.193 461.496 298.608 462.313 299.042C467.295 300.059 472.804 300.7 477.206 297.8C478.049 297.201 478.883 296.588 479.688 295.938Z" fill="#EEEBE9"/>
<path d="M449.281 278.557C451.974 279.956 453.685 281.321 454.866 284.144C455.331 286.2 455.331 286.2 454.866 288.489C451.647 293.215 445.782 295.298 440.765 297.544C440.21 297.793 439.656 298.041 439.085 298.297C438.334 298.625 438.334 298.625 437.568 298.96C436.198 299.69 435.349 300.31 434.388 301.525C434.183 302.344 433.978 303.164 433.767 304.008C431.31 303.598 428.852 303.188 426.32 302.766C426.525 301.742 426.73 300.718 426.941 299.663C426.854 298.567 426.854 298.567 426.766 297.449C426.536 294.254 426.346 291.171 428.513 288.603C431.425 286.052 434.75 284.171 438.111 282.281C438.792 281.857 439.474 281.433 440.176 280.996C443.218 279.169 445.65 277.845 449.281 278.557Z" fill="#F3F0ED"/>
<path d="M116.664 309.595C115.822 311.467 114.86 312.773 113.444 314.25C107.648 320.739 104.179 328.411 104.17 337.131C104.169 337.875 104.169 338.62 104.168 339.386C104.17 340.156 104.173 340.926 104.175 341.719C104.173 342.479 104.17 343.239 104.168 344.023C104.172 348.315 104.349 352.512 104.873 356.772C105.347 360.889 105.347 360.889 104.873 362.98C103.533 364.472 102.331 365.118 100.529 366.084C100.572 365.729 100.616 365.375 100.66 365.009C100.894 361.5 100.353 359.154 98.7839 355.996C94.6669 347.672 93.469 337.983 95.8751 328.955C98.9404 320.311 105.585 314.895 113.093 310.077C114.181 309.595 114.181 309.595 116.664 309.595Z" fill="#F1EEEC"/>
<path d="M346.269 218.343C346.269 218.753 346.269 219.162 346.269 219.585C346.884 219.789 347.498 219.994 348.131 220.205C354.256 229.804 359.829 245.469 358.68 256.83C357.242 258.695 356.654 259.248 354.298 259.585C352.475 259.313 352.475 259.313 351.389 258.692C349.814 256.172 349.492 253.21 349.013 250.322C347.548 241.567 344.802 233.559 340.687 225.688C339.938 223.576 340.113 222.349 340.684 220.205C342.127 217.927 343.733 218.174 346.269 218.343Z" fill="#F2EFEC"/>
<path d="M268.699 225.792C270.755 225.482 270.755 225.482 273.043 225.792C280.829 232.36 284.475 247.642 285.454 257.451C285.9 263.668 285.9 263.668 284.647 265.387C282.868 266.66 281.35 266.404 279.249 266.142C276.828 263.979 276.776 260.836 276.301 257.8C275.459 252.951 274.327 248.31 272.772 243.639C272.6 243.115 272.429 242.592 272.252 242.052C271.167 238.899 269.818 236.095 268.086 233.244C267.12 231.329 267.166 229.744 267.458 227.655C267.868 227.04 268.277 226.426 268.699 225.792Z" fill="#F3F0EE"/>
<path d="M336.34 290.972C336.788 291.445 337.236 291.919 337.698 292.407C339.343 294.103 339.343 294.103 341.188 295.123C341.636 295.392 342.084 295.661 342.546 295.938C342.546 296.347 342.546 296.757 342.546 297.179C345.618 297.794 345.618 297.794 348.751 298.421C347.827 302.119 345.492 304.128 342.345 306.197C336.89 309.309 331.421 309.812 325.192 308.622C322.469 307.84 320.062 306.887 317.724 305.249C317.792 304.129 317.792 304.129 318.344 302.766C320.022 301.791 320.022 301.791 322.223 300.826C327.485 298.398 332.232 295.081 336.34 290.972Z" fill="#F2EFEC"/>
<path d="M459.83 277.315C465.13 277.005 470.689 277.393 475.15 280.574C476.585 282.281 476.585 282.281 476.895 284.454C476.411 287.844 475.621 290.066 472.862 292.213C469.456 293.377 465.703 292.581 462.312 291.593C461.512 289.992 461.806 289.196 462.08 287.441C462.448 284.246 461.918 282.622 460.451 279.798C460.225 278.975 460.014 278.148 459.83 277.315Z" fill="#F1EEEB"/>
<path d="M130.937 307.111C131.347 307.316 131.756 307.521 132.178 307.732C128.287 311.624 124.396 315.516 120.388 319.526C119.978 319.322 119.568 319.117 119.146 318.906C120.526 317.402 121.911 315.903 123.296 314.405C123.685 313.982 124.073 313.559 124.473 313.122C126.51 310.925 128.521 308.904 130.937 307.111Z" fill="#DEDBD8"/>
<path d="M166.929 145.094C167.339 145.299 167.748 145.503 168.17 145.715C163.87 150.016 159.569 154.318 155.139 158.75C154.729 158.546 154.319 158.341 153.897 158.13C158.241 153.784 162.585 149.439 166.929 145.094Z" fill="black"/>
<path d="M149.554 331.321C149.963 331.526 150.373 331.731 150.795 331.942C147.109 335.629 143.423 339.316 139.625 343.115C139.215 342.91 138.806 342.705 138.384 342.494C139.544 341.211 140.708 339.932 141.874 338.653C142.36 338.115 142.36 338.115 142.856 337.566C144.954 335.273 147.124 333.259 149.554 331.321Z" fill="black"/>
<path d="M308.415 199.72C308.825 199.925 309.235 200.13 309.657 200.341C307.199 202.799 304.742 205.257 302.21 207.79C302.21 205.482 302.752 205.083 304.266 203.406C304.838 202.761 304.838 202.761 305.422 202.104C306.554 200.962 306.554 200.962 308.415 199.72Z" fill="#E0DEDB"/>
<path d="M77.5693 420.089C82.1769 420.704 82.1769 420.704 86.8776 421.331C86.8776 421.536 86.8776 421.741 86.8776 421.952C85.6763 422.09 84.4737 422.217 83.2707 422.34C82.2664 422.448 82.2664 422.448 81.2418 422.558C79.431 422.572 79.431 422.572 77.5693 421.331C77.5693 420.921 77.5693 420.511 77.5693 420.089Z" fill="#C0BEBC"/>
<path d="M73.2253 400.225C73.6348 400.43 74.0444 400.635 74.4664 400.846C73.8756 401.47 73.28 402.09 72.6823 402.708C72.3511 403.054 72.0199 403.399 71.6787 403.756C70.7431 404.57 70.7431 404.57 69.502 404.57C70.3666 402.48 71.3505 401.475 73.2253 400.225Z" fill="#D4D2CF"/>
<path d="M118.901 149.932L120.368 151.995C119.522 150.712 118.901 149.932 118.901 149.932Z" fill="white"/>
<path d="M147.402 106.249L145.956 107.751C145.802 107.907 145.63 108.133 145.477 108.288C146.212 107.647 146.844 106.954 147.402 106.249Z" fill="black"/>
<path d="M132.526 113.436C128.19 113.481 124.106 112.018 119.831 111.497C111.16 110.473 101.736 113.505 95.3831 119.463C108.22 118.436 121.011 117.439 133.849 116.412C136.845 116.158 138.82 115.026 140.626 113.472L145.307 108.514C141.83 111.536 137.13 113.396 132.526 113.436Z" fill="black"/>
<path d="M145.477 108.288C145.63 108.133 145.802 107.907 145.956 107.751L145.278 108.473C145.369 108.415 145.385 108.346 145.477 108.288Z" fill="black"/>
<path d="M173.893 29.3957C173.893 29.3957 169.231 22.841 156.957 19.1688C144.684 15.4965 117.702 25.9467 107.165 38.3078C96.6298 50.6683 102.605 62.1417 99.1266 66.2796C95.6209 70.3767 75.4406 81.2735 70.326 99.7671C65.2099 118.261 76.6287 125.291 77.0376 128.846C77.4481 132.4 70.2439 146.466 80.1488 164.957C90.0535 183.448 116.116 171.703 121.859 166.19C126.006 162.157 122.562 155.359 120.369 151.995L118.901 149.932C118.901 149.932 119.522 150.712 120.369 151.995L139.934 179.51C139.934 179.51 154.174 182.876 182.602 163.941C211.03 145.007 219.522 128.189 219.522 128.189L196.648 96.0219C196.648 96.0219 210.15 81.7832 210.663 71.8943C211.205 62.0458 205.142 43.0007 196.419 35.2028C187.531 27.4507 173.893 29.3957 173.893 29.3957Z" fill="white"/>
<path d="M173.893 29.3957C173.893 29.3957 169.231 22.841 156.957 19.1688C144.684 15.4965 117.7 25.9471 107.165 38.3078C105.651 40.0877 104.498 41.8151 103.567 43.5779C108.425 41.3826 113.826 40.1349 119.167 39.9223C129.324 39.5946 139.125 42.9545 147.155 48.198C153.116 52.1115 158.291 57.3433 160.247 63.9094C162.202 70.4755 160.218 78.4795 154.132 82.8596C149.574 77.4719 144.883 71.9922 138.292 68.7716C131.773 65.563 122.832 65.1797 116.816 69.7506C118.904 76.409 125.683 80.4499 130.731 85.4101C135.78 90.3698 139.212 98.6411 134.128 104.148C129.522 109.118 121.425 108.434 114.512 108.762C103.988 109.321 93.5557 113.637 85.8456 120.571C86.4537 125.056 92.6224 126.843 97.4796 125.763C102.337 124.683 106.604 121.748 111.396 120.298C116.19 118.848 122.358 119.52 124.172 123.653C125.102 125.704 124.977 128.6 127.195 129.485C128.953 130.19 131.076 129.081 132.691 128C142.673 121.564 152.701 115.098 162.713 108.702C165.514 106.87 168.6 104.975 171.98 104.889C174.823 104.791 177.42 106.023 179.758 107.358C185.66 110.723 190.827 115.197 194.807 120.423C195.543 121.365 196.245 122.446 196.153 123.619C196.066 124.613 195.458 125.526 194.809 126.289C191.173 130.762 186.032 133.957 181.201 137.309C170.72 144.532 161.173 152.98 152.874 162.34C152.008 163.358 151.097 164.404 150.72 165.641C150.224 167.363 150.877 169.121 151.747 170.623C153.216 173.155 155.387 175.184 157.9 176.762C164.359 174.491 172.567 170.586 182.51 163.998C210.939 145.064 219.431 128.247 219.431 128.247L196.557 96.0795C196.557 96.0795 210.059 81.8408 210.572 71.9518C211.114 62.1034 205.049 43.0588 196.328 35.2604C187.531 27.4507 173.893 29.3957 173.893 29.3957Z" fill="white"/>
<path d="M175.571 25.9862C173.289 23.6161 167.904 18.9281 158.18 16.0476C147.017 12.7285 128.008 19.1286 115.777 26.8711C111.031 29.8757 107.206 33.0598 104.44 36.3361C96.9782 45.1083 96.9219 53.593 96.8722 59.199C96.8343 61.1005 96.8506 63.7304 96.3268 64.2968C95.7404 64.9613 93.9218 66.4059 91.9385 67.8964C84.1041 73.9117 71.0193 83.8965 66.788 99.073C62.6016 114.221 68.677 122.579 71.928 127.152C72.5045 127.961 73.223 128.972 73.3913 129.394C73.3471 129.891 73.1011 131.221 72.8478 132.261C71.4673 138.416 68.6622 151.223 76.8774 166.5C80.0595 172.465 85.024 176.189 91.5901 177.606C102.646 179.937 114.973 174.656 120.541 171.131C122.047 170.178 123.284 169.22 124.236 168.324C124.942 167.641 125.517 166.867 126.016 166.081L136.892 181.376C137.323 181.983 137.984 182.446 138.785 182.642C139.408 182.775 153.849 185.957 181.277 168.593C182.326 167.93 183.422 167.235 184.443 166.53C213.374 147.278 222.172 130.149 222.581 129.421C223.103 128.387 223.002 127.219 222.368 126.329L200.876 96.1033C204.827 91.6074 213.588 80.6626 214.027 71.8774C214.586 60.8443 207.946 40.9902 198.772 32.8333C190.998 25.9021 180.078 25.7152 175.571 25.9862ZM206.885 65.8365C207.623 68.3623 207.796 70.1888 207.18 71.9283C206.642 73.5005 205.437 74.9679 203.413 76.7768C199.306 80.4921 194.128 82.8897 188.815 84.727C184.679 86.1713 182.692 84.0266 182.354 80.0154C182.103 77.2409 182.942 74.4209 183.543 71.6351C185.715 61.7523 184.639 50.9328 178.155 43.3026C179.789 46.9034 181.15 50.6776 182.149 54.5041C182.759 56.7582 183.205 59.0584 183.289 61.4108C183.626 69.7048 179.239 77.5872 174.073 84.3776C172.879 85.9552 171.578 88.1281 169.988 89.428C168.169 90.8726 165.529 91.7221 163.465 92.9118C160.258 94.8244 156.595 98.1412 152.882 95.621C151.093 94.4065 150.146 92.4244 149.212 90.5513C145.784 83.6848 141.722 76.5747 134.654 72.7762C131.958 71.3137 128.935 70.4113 125.95 69.6599C135.439 74.6261 142.994 82.4589 147.25 91.7934C149.784 97.4061 150.173 102.793 146 107.722L147.447 106.22C146.844 106.954 146.213 107.647 145.523 108.259C145.46 108.358 145.369 108.416 145.26 108.543C143.553 110.328 142.176 112.021 140.597 113.431L138.781 115.344C135.073 119.158 131.089 122.677 126.043 125.167C140.304 118.604 151.323 107.111 164.928 99.4374C169.407 96.8955 174.295 94.7402 179.407 94.2036C192.357 92.8709 197.376 103.189 203.217 111.402C207.274 117.108 211.302 122.772 215.359 128.478C212.574 132.939 202.874 146.473 180.612 161.328C179.591 162.033 178.586 162.67 177.583 163.305C177.4 163.42 177.262 163.506 177.08 163.623C171.803 165.789 164.601 168.411 161.633 168.238C156.65 167.93 159.383 159.863 168.518 151.674C177.652 143.487 212.28 126.847 212.28 126.847C212.28 126.847 175.556 139.885 156.644 155.73C146.008 164.692 141.827 170.447 140.195 173.829C140.371 173.424 138.066 170.833 137.835 170.51C136.023 167.962 135.001 167.083 136.669 164.031C137.742 162.003 138.873 160.056 140.283 158.224C142.593 155.236 145.545 152.78 148.469 150.284C142.905 152.045 137.864 155.471 134.319 159.887C134.102 160.141 133.868 160.464 133.493 160.586C133.28 160.662 133.058 160.626 132.834 160.592C129.921 160.031 128.137 157.522 126.611 155.378C125.23 153.435 123.71 152.227 122.022 150.597C118.059 146.885 117.237 140.424 118.262 135.257C118.502 134.107 118.863 132.94 119.666 132.021C118.326 132.928 117.554 134.355 116.845 135.684C115.551 138.146 114.463 140.712 114.092 143.353C113.615 147.058 115.289 150.81 117.39 153.763C119.711 157.399 121.497 161.959 119.396 163.935C119.088 164.248 118.352 164.89 116.892 165.814C111.005 169.541 101.168 172.834 93.634 171.266C89.1171 170.311 85.6332 167.646 83.3163 163.363C76.1386 150.01 78.5625 139.088 79.8767 133.21C80.3531 131.089 80.6793 129.592 80.5655 128.315C80.3585 126.627 79.3503 125.211 78.0266 123.35C74.9603 119.13 70.3408 112.725 73.7778 100.34C77.3952 87.371 89.3051 78.2473 96.4206 72.8041C98.9867 70.8278 100.834 69.4237 101.96 68.1238C104.061 65.6793 104.059 62.5121 104.054 58.8769C104.095 53.629 104.142 47.0863 109.999 40.1518C112.269 37.4821 115.604 34.7257 119.666 32.1546C131.943 24.3831 148.163 19.9241 155.827 22.2314C166.737 25.476 171.017 31.2158 171.046 31.2562C171.764 32.2681 173.037 32.7537 174.357 32.5632C174.477 32.546 186.419 30.9125 193.873 37.5775C201.98 44.8845 203.972 56.0626 206.885 65.8365Z" fill="black"/>
<path d="M145.463 24.0389C138.955 24.286 132.584 27.1458 127.642 31.2718C127.014 31.7862 126.37 32.3697 126.111 33.1209C125.851 33.8723 126.021 34.7622 126.743 35.1266C131.765 32.4169 137.854 30.557 143.175 32.1762C145.294 32.8298 147.102 33.9741 148.908 35.1189C150.949 36.4084 152.991 37.6975 155.034 38.9865C156.208 39.7095 157.34 40.4608 158.735 40.7502C160.087 41.0684 161.706 40.9239 162.805 40.0515C163.814 39.237 164.239 37.971 164.256 36.7864C164.299 34.7056 163.382 32.7634 162.157 31.1333C158.464 26.3125 151.972 23.7913 145.463 24.0389Z" fill="black"/>
<path d="M109.879 152.415C109.28 152.502 108.76 152.889 108.287 153.247C105.51 155.299 100.519 158.517 96.9734 157.534C96.6476 157.447 96.3666 157.331 96.0569 157.175C93.4651 155.765 92.2316 152.262 88.4785 153.406C88.0563 153.556 87.5876 153.735 87.1868 153.637C86.7859 153.538 86.4815 153.203 86.2521 152.879C85.4925 151.717 83.0008 142.909 80.9312 148.561C80.349 150.162 80.5582 152.318 80.7991 153.866C81.2544 157.392 82.8065 160.693 85.3062 163.277C89.6664 167.734 96.7855 169.74 103.369 168.388C107.187 167.615 110.902 165.675 112.873 162.489C114.844 159.306 114.472 154.965 111.495 152.918C110.996 152.589 110.48 152.329 109.879 152.415Z" fill="black"/>
</svg>
