<svg width="743" height="654" viewBox="0 0 743 654" fill="none" xmlns="http://www.w3.org/2000/svg">
<path d="M808.454 651.05C808.658 651.113 808.845 651.171 809.017 651.223L852.073 526.026C851.629 525.885 851.088 525.712 850.45 525.508C848.418 524.856 845.414 523.879 841.526 522.581C833.75 519.984 822.435 516.1 808.271 510.946C779.944 500.638 740.215 485.25 694.601 464.928C603.391 424.291 488.573 363.89 394.328 284.869C300.076 205.843 231.324 113.294 186.14 40.5213C163.545 4.13094 146.837 -27.3247 135.776 -49.6879C130.245 -60.8698 126.125 -69.7792 123.387 -75.8966C122.018 -78.9553 120.994 -81.3161 120.312 -82.914C119.971 -83.7129 119.715 -84.3212 119.544 -84.7306C119.541 -84.7375 119.538 -84.7444 119.535 -84.7512L3.37316 -129.305C3.50832 -128.987 3.65344 -128.647 3.80849 -128.285C5.00459 -125.49 6.79147 -121.365 9.15236 -116.05C13.8742 -105.42 20.8918 -90.0285 30.0711 -70.995C48.4302 -32.9269 75.4336 19.7051 110.007 77.9539C179.174 194.485 278.56 333.357 399.547 423.136C520.693 513.032 623.438 570.167 695.878 604.822C732.098 622.15 760.742 633.858 780.322 641.232C790.113 644.919 797.637 647.522 802.709 649.202C805.245 650.042 807.168 650.651 808.454 651.05Z" fill="#994952" stroke="white" stroke-width="3"/>
</svg>
