<svg width="817" height="805" viewBox="0 0 817 805" fill="none" xmlns="http://www.w3.org/2000/svg">
<path d="M3.64085 -151.619C3.69833 -151.442 3.75787 -151.258 3.81947 -151.069C4.74658 -148.217 6.13884 -144.001 7.99704 -138.552C11.7135 -127.653 17.2934 -111.82 24.743 -92.1002C39.6425 -52.6595 62.0185 2.32347 91.9187 64.4785C151.734 188.82 241.597 341.726 361.855 456.356C482.212 571.082 613.361 657.747 714.437 715.735C764.971 744.726 807.978 766.543 838.345 781.11C853.529 788.393 865.552 793.864 873.775 797.512C877.887 799.336 881.049 800.704 883.181 801.616C883.341 801.685 883.496 801.751 883.644 801.814L883.644 652.258C883.125 652.059 882.451 651.799 881.63 651.479C879.462 650.637 876.262 649.38 872.126 647.722C863.854 644.406 851.836 639.483 836.845 633.054C806.863 620.197 764.982 601.31 717.374 577.191C622.185 528.968 503.99 459.771 412.258 375.956C320.487 292.106 236.951 166.396 176.398 61.7708C146.109 9.4364 121.547 -37.665 104.556 -71.684C96.0602 -88.6941 89.4568 -102.435 84.9762 -111.925C82.7359 -116.671 81.0263 -120.354 79.8762 -122.851C79.3012 -124.1 78.866 -125.053 78.5743 -125.694C78.5452 -125.758 78.5174 -125.819 78.4912 -125.877L3.64085 -151.619Z" fill="#994952" stroke="white" stroke-width="4"/>
</svg>
