<svg width="984" height="748" viewBox="0 0 984 748" fill="none" xmlns="http://www.w3.org/2000/svg">
<path d="M1049.45 651.05C1049.66 651.113 1049.85 651.171 1050.02 651.223L1093.07 526.026C1092.63 525.885 1092.09 525.712 1091.45 525.508C1089.42 524.856 1086.41 523.879 1082.53 522.581C1074.75 519.984 1063.44 516.1 1049.27 510.946C1020.94 500.638 981.215 485.25 935.601 464.928C844.391 424.291 729.573 363.89 635.328 284.869C541.076 205.843 472.324 113.294 427.14 40.5213C404.545 4.13094 387.837 -27.3247 376.776 -49.6879C371.245 -60.8698 367.125 -69.7792 364.387 -75.8966C363.018 -78.9553 361.994 -81.3161 361.312 -82.914C360.971 -83.7129 360.715 -84.3212 360.544 -84.7306C360.541 -84.7375 360.538 -84.7444 360.535 -84.7512L244.373 -129.305C244.508 -128.987 244.653 -128.647 244.808 -128.285C246.005 -125.49 247.791 -121.365 250.152 -116.05C254.874 -105.42 261.892 -90.0285 271.071 -70.995C289.43 -32.9269 316.434 19.7051 351.007 77.9539C420.174 194.485 519.56 333.357 640.547 423.136C761.693 513.032 864.438 570.167 936.878 604.822C973.098 622.15 1001.74 633.858 1021.32 641.232C1031.11 644.919 1038.64 647.522 1043.71 649.202C1046.24 650.042 1048.17 650.651 1049.45 651.05Z" fill="#994952" stroke="white" stroke-width="3"/>
<path d="M952.741 560.257L951.081 559.559L950.664 546.365L905.128 527.212L900.166 539.011L898.589 538.89L896.013 513.289L896.711 511.63L954.968 536.133L964.69 527.204L966.349 527.902L952.741 560.257Z" fill="white"/>
<path d="M894.001 446.5L841.501 554.5" stroke="white" stroke-width="3"/>
</svg>
